<?xml version="1.0" encoding="UTF-8"?>
<svg width="162px" height="231px" viewBox="0 0 162 231" version="1.1" xmlns="http://www.w3.org/2000/svg" xmlns:xlink="http://www.w3.org/1999/xlink">
    <!-- Generator: Sketch 48.2 (47327) - http://www.bohemiancoding.com/sketch -->
    <title>female3</title>
    <desc>Created with Sketch.</desc>
    <defs></defs>
    <g id="Page-1" stroke="none" stroke-width="1" fill="none" fill-rule="evenodd">
        <g id="female3">
            <path d="M42.808,9.101 C-40.685,50.985 21.364,180.47 44.6,220.58 L117.005,220.58 C140.347,180.28 202.869,49.771 117.613,8.519 C117.613,8.519 102.655,0.092 80.802,0.092 C60.551,0.092 42.808,9.101 42.808,9.101" id="Fill-512" fill="#4C5159"></path>
            <path d="M115.598,88.98 C115.598,99.23 121.443,107.54 128.655,107.54 C135.866,107.54 141.712,99.23 141.712,88.98 C141.712,78.72 135.866,70.41 128.655,70.41 C121.443,70.41 115.598,78.72 115.598,88.98" id="Fill-513" fill="#F4E0CD"></path>
            <path d="M113.224,88.98 C113.259,96.39 116.244,105.34 123.46,108.71 C126.844,110.29 130.462,110.22 133.849,108.71 C137.08,107.27 139.584,104.29 141.204,101.22 C145.133,93.78 145.032,84.18 141.204,76.73 C139.605,73.62 137.054,70.74 133.849,69.24 C130.465,67.66 126.848,67.73 123.46,69.24 C120.229,70.68 117.726,73.67 116.105,76.73 C114.127,80.48 113.243,84.76 113.224,88.98 C113.208,92.04 117.96,92.04 117.974,88.98 C117.992,85.19 118.806,81.55 120.624,78.37 C120.834,78.01 121.062,77.65 121.297,77.3 C121.412,77.13 121.532,76.96 121.653,76.79 C122.052,76.24 121.358,77.15 121.779,76.63 C122.313,75.96 122.91,75.35 123.551,74.79 C123.694,74.66 123.842,74.54 123.989,74.42 C123.542,74.78 124.036,74.4 124.112,74.34 C124.412,74.13 124.729,73.94 125.049,73.76 C125.363,73.57 125.69,73.42 126.023,73.27 C125.463,73.52 126.021,73.28 126.123,73.25 C126.348,73.16 126.575,73.1 126.805,73.03 C127.148,72.93 127.499,72.87 127.852,72.81 C127.211,72.91 127.809,72.82 127.933,72.81 C128.113,72.79 128.292,72.79 128.474,72.78 C128.834,72.77 129.196,72.79 129.556,72.82 C130.169,72.88 129.028,72.74 129.634,72.84 C129.868,72.88 130.102,72.93 130.332,72.99 C130.679,73.07 131.02,73.18 131.354,73.31 C131.931,73.51 130.892,73.09 131.452,73.34 C131.617,73.42 131.778,73.5 131.94,73.58 C132.267,73.75 132.581,73.94 132.891,74.14 C133.046,74.24 133.199,74.34 133.351,74.45 C133.562,74.61 133.552,74.6 133.319,74.42 C133.42,74.5 133.517,74.58 133.614,74.66 C134.216,75.16 134.761,75.73 135.272,76.32 C135.404,76.47 135.53,76.63 135.655,76.78 C135.321,76.37 135.738,76.91 135.777,76.96 C136.063,77.36 136.325,77.77 136.578,78.19 C137.028,78.94 137.415,79.72 137.761,80.53 C137.566,80.08 137.849,80.76 137.86,80.8 C137.943,81.01 138.019,81.22 138.094,81.44 C138.273,81.95 138.429,82.47 138.57,83 C138.825,83.93 139.009,84.88 139.151,85.83 C139.082,85.38 139.189,86.18 139.189,86.19 C139.218,86.44 139.238,86.69 139.258,86.93 C139.308,87.53 139.327,88.12 139.335,88.72 C139.351,89.74 139.291,90.75 139.189,91.76 C139.189,91.77 139.086,92.58 139.151,92.12 C139.118,92.36 139.076,92.6 139.034,92.84 C138.941,93.4 138.821,93.95 138.688,94.49 C138.471,95.4 138.186,96.28 137.86,97.15 C137.849,97.19 137.57,97.88 137.761,97.42 C137.676,97.63 137.582,97.83 137.488,98.03 C137.277,98.5 137.04,98.95 136.792,99.39 C136.586,99.76 136.36,100.12 136.13,100.48 C136.017,100.65 135.896,100.82 135.777,100.99 C135.739,101.05 135.327,101.59 135.655,101.17 C135.131,101.84 134.538,102.46 133.902,103.04 C133.761,103.17 133.614,103.29 133.468,103.41 C132.978,103.82 133.858,103.13 133.351,103.5 C133.052,103.72 132.737,103.92 132.42,104.1 C132.107,104.29 131.78,104.45 131.452,104.61 C130.896,104.87 131.925,104.42 131.354,104.64 C131.131,104.73 130.904,104.8 130.676,104.87 C130.334,104.97 129.984,105.05 129.634,105.11 C129.03,105.23 130.168,105.06 129.556,105.13 C129.376,105.14 129.196,105.15 129.018,105.16 C128.655,105.18 128.292,105.17 127.933,105.14 C127.811,105.13 127.204,105.05 127.852,105.14 C127.615,105.11 127.384,105.06 127.15,105.01 C126.802,104.93 126.462,104.82 126.123,104.71 C126.021,104.67 125.456,104.44 126.023,104.68 C125.855,104.61 125.693,104.53 125.531,104.45 C125.202,104.29 124.886,104.11 124.575,103.91 C124.417,103.82 124.264,103.71 124.112,103.61 C124.009,103.54 123.908,103.46 123.808,103.39 C124.039,103.57 124.05,103.58 123.842,103.41 C123.235,102.92 122.685,102.37 122.168,101.78 C122.035,101.63 121.907,101.48 121.779,101.32 C121.353,100.8 122.059,101.71 121.653,101.16 C121.363,100.77 121.099,100.36 120.843,99.94 C120.345,99.14 119.925,98.29 119.549,97.42 C119.745,97.88 119.462,97.19 119.45,97.15 C119.367,96.94 119.292,96.73 119.216,96.51 C119.036,96 118.883,95.48 118.739,94.95 C118.613,94.49 118.509,94.02 118.411,93.56 C118.36,93.32 118.317,93.08 118.274,92.84 C118.26,92.76 118.126,91.87 118.178,92.26 C118.036,91.17 117.979,90.07 117.974,88.98 C117.96,85.91 113.208,85.91 113.224,88.98" id="Fill-514" fill="#4C5159"></path>
            <path d="M135.686,89.64 C135.686,89.64 136.509,92.54 134.885,93.97 C129.765,98.48 129.927,105.08 129.927,105.08 L129.927,93.32 L131.589,91.46 L135.686,89.64" id="Fill-515" fill="#E7CEBB"></path>
            <path d="M128.7,99.23 C128.571,97.74 128.771,96.73 129.232,95.33 C130.117,92.63 132.391,90.82 135.2,90.12 C136.686,89.75 136.056,87.46 134.569,87.83 C131.063,88.7 128.376,90.95 127.075,94.32 C126.496,95.83 126.183,97.61 126.324,99.23 C126.457,100.74 128.834,100.75 128.7,99.23" id="Fill-516" fill="#4C5159"></path>
            <path d="M81.572,228.61 C122.453,228.61 136.283,220.18 136.283,220.18 C136.283,220.18 136.625,197.01 129.442,191.21 C129.442,191.21 102.587,174 91.128,171.02 L68.88,171.02 C57.42,174 30.566,191.21 30.566,191.21 C23.381,197.01 23.725,220.18 23.725,220.18 C23.725,220.18 42.197,228.61 83.076,228.61 L81.572,228.61" id="Fill-517" fill="#E57441"></path>
            <path d="M81.572,230.99 C96.081,230.98 110.882,230.14 125.02,226.66 C128.143,225.88 131.251,224.97 134.23,223.74 C135.441,223.25 137.6,222.63 138.333,221.38 C138.93,220.36 138.66,218.64 138.632,217.52 C138.574,215.24 138.442,212.97 138.235,210.7 C137.71,204.91 136.86,198.84 134.211,193.59 C133.344,191.88 132.117,190.1 130.472,189.06 C129.468,188.42 128.456,187.78 127.443,187.16 C122.93,184.35 118.363,181.63 113.738,179.02 C108.298,175.95 102.769,173 97.005,170.58 C95.874,170.11 94.729,169.66 93.568,169.27 C92.699,168.98 91.79,168.64 90.862,168.64 C88.673,168.64 86.481,168.64 84.29,168.64 C81.1,168.64 77.909,168.64 74.719,168.64 C72.79,168.64 70.858,168.64 68.928,168.64 C67.898,168.64 66.751,169.16 65.791,169.5 C64.455,169.97 63.146,170.51 61.844,171.07 C56.198,173.49 50.782,176.46 45.446,179.49 C40.946,182.04 36.505,184.7 32.11,187.44 C31.216,187.99 30.324,188.55 29.436,189.12 C27.624,190.28 26.36,192.36 25.472,194.26 C22.979,199.61 22.191,205.68 21.701,211.5 C21.458,214.38 21.307,217.29 21.349,220.18 C21.36,220.96 21.779,221.89 22.526,222.23 C27.271,224.39 32.519,225.63 37.587,226.72 C52.487,229.94 67.863,230.98 83.076,230.99 C83.076,229.4 83.076,227.82 83.076,226.24 C82.575,226.24 82.074,226.24 81.572,226.24 C78.51,226.24 78.51,230.99 81.572,230.99 C82.074,230.99 82.575,230.99 83.076,230.99 C86.141,230.99 86.141,226.24 83.076,226.24 C74.146,226.23 65.213,225.84 56.331,224.9 C55.446,224.8 54.563,224.7 53.68,224.6 C53.252,224.54 52.824,224.49 52.397,224.44 C52.188,224.41 51.977,224.38 51.768,224.36 C51.667,224.34 50.781,224.23 51.366,224.3 C49.741,224.09 48.119,223.84 46.5,223.58 C43.742,223.13 40.993,222.61 38.264,222.01 C34.739,221.24 31.234,220.33 27.809,219.19 C26.948,218.9 26.092,218.59 25.247,218.26 C24.949,218.14 24.064,217.77 25.145,218.23 C25.071,218.2 24.996,218.16 24.923,218.13 C25.315,218.82 25.708,219.5 26.099,220.18 C26.053,216.91 26.245,213.63 26.553,210.37 C26.615,209.71 26.687,209.04 26.765,208.38 C26.805,208.04 26.847,207.7 26.891,207.36 C26.805,208.03 26.883,207.43 26.9,207.31 C26.932,207.08 26.966,206.85 27.001,206.62 C27.215,205.18 27.479,203.74 27.798,202.33 C28.107,200.96 28.481,199.6 28.939,198.28 C29.044,197.97 29.155,197.67 29.271,197.38 C29.327,197.23 29.386,197.08 29.445,196.94 C29.189,197.57 29.393,197.06 29.448,196.94 C29.706,196.35 29.996,195.78 30.313,195.23 C30.453,194.99 30.602,194.75 30.755,194.52 C30.859,194.36 31.428,193.61 30.934,194.24 C31.271,193.81 31.649,193.41 32.06,193.05 C32.416,192.74 31.493,193.44 31.869,193.2 C31.995,193.12 32.123,193.04 32.25,192.96 C33.479,192.18 34.715,191.41 35.955,190.64 C40.687,187.73 45.473,184.89 50.332,182.19 C53.098,180.65 55.891,179.16 58.725,177.75 C60.046,177.09 61.379,176.45 62.724,175.84 C63.326,175.57 63.931,175.31 64.539,175.05 C63.877,175.33 64.828,174.93 64.99,174.86 C65.316,174.73 65.645,174.6 65.974,174.48 C67.022,174.07 68.085,173.71 69.167,173.4 C69.784,173.23 68.419,173.39 69.17,173.39 C69.539,173.39 69.908,173.39 70.276,173.39 C72.675,173.39 75.073,173.39 77.472,173.39 C80.714,173.39 83.957,173.39 87.198,173.39 C88.276,173.39 89.353,173.39 90.429,173.39 C90.651,173.39 90.874,173.39 91.097,173.39 C90.603,173.39 90.482,173.3 90.957,173.43 C91.241,173.51 91.522,173.6 91.803,173.69 C92.94,174.05 94.057,174.47 95.161,174.92 C95.307,174.98 95.451,175.04 95.596,175.1 C96.111,175.32 95.098,174.89 95.616,175.11 C95.917,175.24 96.218,175.37 96.517,175.5 C97.193,175.8 97.866,176.11 98.534,176.42 C108.346,181.01 117.71,186.64 126.872,192.4 C127.258,192.64 127.641,192.88 128.023,193.13 C128.091,193.17 128.161,193.21 128.229,193.26 C127.97,193.09 127.694,192.83 128.039,193.13 C128.259,193.32 128.46,193.53 128.657,193.74 C128.784,193.88 129.345,194.6 128.864,193.97 C129.026,194.18 129.179,194.41 129.328,194.63 C129.669,195.15 129.966,195.7 130.239,196.26 C130.374,196.53 130.5,196.8 130.621,197.08 C130.841,197.58 130.412,196.57 130.621,197.08 C130.681,197.23 130.737,197.38 130.792,197.52 C131.048,198.18 131.269,198.85 131.474,199.53 C131.89,200.89 132.217,202.29 132.498,203.69 C132.636,204.37 132.759,205.06 132.872,205.75 C132.929,206.1 132.981,206.44 133.032,206.79 C133.058,206.96 133.083,207.13 133.106,207.31 C133.124,207.42 133.14,207.53 133.155,207.65 C133.108,207.3 133.102,207.26 133.138,207.53 C133.474,210.1 133.677,212.69 133.801,215.29 C133.876,216.92 133.931,218.55 133.907,220.18 C134.3,219.5 134.691,218.82 135.084,218.13 C134.862,218.27 134.628,218.38 134.396,218.5 C134.102,218.65 133.805,218.79 133.506,218.92 C133.318,219.01 133.13,219.09 132.942,219.17 C132.422,219.4 133.32,219.01 133.137,219.09 C133.002,219.15 132.868,219.2 132.733,219.26 C129.66,220.5 126.453,221.42 123.233,222.2 C120.827,222.79 118.399,223.27 115.96,223.7 C114.511,223.95 113.058,224.18 111.602,224.39 C111.408,224.42 111.215,224.44 111.021,224.47 C110.929,224.48 110.271,224.57 110.866,224.49 C110.465,224.54 110.063,224.6 109.661,224.65 C108.754,224.76 107.847,224.87 106.938,224.97 C98.519,225.9 90.039,226.23 81.572,226.24 C78.51,226.24 78.51,230.99 81.572,230.99" id="Fill-518" fill="#4C5159"></path>
            <path d="M68.831,164.23 L68.831,177.61 C68.831,183.78 73.833,188.79 80.005,188.79 C86.175,188.79 91.177,183.78 91.177,177.61 L91.177,164.23 L68.831,164.23" id="Fill-519" fill="#F4E0CD"></path>
            <path d="M66.455,164.23 C66.455,168.17 66.455,172.12 66.455,176.06 C66.455,178.54 66.66,180.89 67.678,183.21 C69.254,186.79 72.45,189.46 76.164,190.61 C79.966,191.79 84.331,191.07 87.599,188.82 C91.033,186.47 93.057,182.82 93.499,178.71 C93.673,177.09 93.552,175.39 93.552,173.76 C93.552,171.29 93.552,168.82 93.552,166.35 C93.552,165.65 93.552,164.94 93.552,164.23 C93.552,162.94 92.472,161.86 91.177,161.86 C83.797,161.86 76.417,161.86 69.038,161.86 C68.968,161.86 68.9,161.86 68.831,161.86 C65.768,161.86 65.768,166.61 68.831,166.61 C76.21,166.61 83.59,166.61 90.97,166.61 C91.038,166.61 91.106,166.61 91.177,166.61 C90.385,165.82 89.593,165.03 88.801,164.23 C88.801,168.17 88.801,172.12 88.801,176.06 C88.801,176.57 88.801,177.09 88.801,177.6 C88.801,177.9 88.787,178.2 88.767,178.5 C88.763,178.56 88.669,179.28 88.749,178.73 C88.719,178.94 88.675,179.15 88.632,179.36 C88.545,179.78 88.423,180.19 88.29,180.59 C88.224,180.79 88.146,180.99 88.067,181.18 C88.263,180.69 87.911,181.48 87.868,181.57 C87.68,181.94 87.462,182.29 87.231,182.64 C87.118,182.81 86.994,182.98 86.872,183.14 C87.183,182.72 86.76,183.26 86.72,183.3 C86.449,183.62 86.153,183.91 85.851,184.19 C85.698,184.33 85.54,184.46 85.382,184.59 C85.78,184.26 85.109,184.79 85.03,184.84 C84.687,185.08 84.324,185.28 83.958,185.48 C83.773,185.58 83.583,185.66 83.394,185.75 C83.876,185.53 83.243,185.8 83.183,185.83 C82.785,185.98 82.376,186.09 81.964,186.19 C81.756,186.25 81.544,186.28 81.333,186.32 C81.054,186.37 81.05,186.37 81.323,186.33 C81.177,186.35 81.032,186.36 80.888,186.38 C80.446,186.41 80.002,186.41 79.56,186.4 C79.339,186.39 79.12,186.38 78.902,186.36 C78.188,186.29 79.376,186.44 78.673,186.32 C78.252,186.25 77.837,186.15 77.427,186.03 C77.224,185.97 77.024,185.9 76.824,185.83 C76.692,185.78 76.562,185.73 76.431,185.68 C76.677,185.78 76.675,185.77 76.423,185.66 C76.045,185.49 75.682,185.28 75.325,185.07 C75.147,184.96 74.976,184.84 74.806,184.72 C74.753,184.69 74.216,184.27 74.626,184.59 C74.304,184.34 74.002,184.05 73.709,183.76 C73.563,183.61 73.426,183.46 73.288,183.3 C73.196,183.2 73.108,183.1 73.021,182.99 C73.178,183.2 73.175,183.2 73.013,182.98 C72.766,182.64 72.546,182.29 72.337,181.93 C72.231,181.75 72.138,181.57 72.043,181.38 C72.015,181.32 71.733,180.69 71.938,181.18 C71.774,180.79 71.646,180.39 71.529,179.99 C71.471,179.78 71.423,179.57 71.375,179.36 C71.354,179.27 71.214,178.39 71.282,178.93 C71.192,178.22 71.206,177.51 71.206,176.8 C71.206,172.66 71.206,168.53 71.206,164.39 C71.206,164.34 71.206,164.28 71.206,164.23 C71.206,161.17 66.455,161.17 66.455,164.23" id="Fill-520" fill="#4C5159"></path>
            <path d="M43.103,88.98 C43.103,99.23 37.258,107.54 30.047,107.54 C22.836,107.54 16.99,99.23 16.99,88.98 C16.99,78.72 22.836,70.41 30.047,70.41 C37.258,70.41 43.103,78.72 43.103,88.98" id="Fill-521" fill="#F4E0CD"></path>
            <path d="M40.728,88.98 C40.71,92.76 39.896,96.4 38.078,99.58 C37.868,99.94 37.64,100.3 37.405,100.65 C37.29,100.82 37.169,100.99 37.048,101.16 C36.65,101.71 37.343,100.8 36.921,101.32 C36.39,101.99 35.792,102.6 35.151,103.17 C35.009,103.29 34.86,103.41 34.712,103.53 C35.16,103.17 34.666,103.55 34.59,103.61 C34.289,103.82 33.974,104.01 33.654,104.2 C33.338,104.38 33.011,104.53 32.68,104.68 C33.238,104.43 32.683,104.67 32.579,104.71 C32.354,104.79 32.126,104.85 31.896,104.92 C31.553,105.02 31.203,105.09 30.849,105.14 C31.492,105.04 30.895,105.13 30.769,105.14 C30.59,105.16 30.409,105.16 30.229,105.17 C29.868,105.18 29.505,105.16 29.146,105.13 C28.533,105.07 29.673,105.21 29.068,105.11 C28.833,105.07 28.602,105.02 28.37,104.96 C28.022,104.88 27.683,104.77 27.347,104.64 C26.774,104.44 27.81,104.86 27.25,104.61 C27.084,104.53 26.922,104.45 26.762,104.37 C26.435,104.2 26.121,104.01 25.812,103.81 C25.656,103.71 25.503,103.61 25.352,103.5 C25.14,103.34 25.149,103.35 25.382,103.53 C25.284,103.45 25.185,103.37 25.088,103.29 C24.486,102.79 23.94,102.22 23.43,101.63 C23.298,101.48 23.172,101.32 23.045,101.17 C23.38,101.58 22.963,101.05 22.925,100.99 C22.639,100.59 22.377,100.18 22.124,99.76 C21.672,99.01 21.288,98.23 20.939,97.42 C21.136,97.88 20.854,97.19 20.842,97.15 C20.759,96.94 20.684,96.73 20.608,96.51 C20.428,96 20.275,95.48 20.131,94.95 C19.877,94.02 19.694,93.07 19.55,92.12 C19.619,92.57 19.513,91.77 19.512,91.76 C19.485,91.51 19.464,91.26 19.444,91.02 C19.396,90.42 19.375,89.83 19.367,89.23 C19.353,88.22 19.41,87.2 19.512,86.19 C19.513,86.18 19.615,85.38 19.55,85.83 C19.584,85.59 19.625,85.35 19.667,85.11 C19.76,84.55 19.881,84.01 20.013,83.46 C20.232,82.55 20.516,81.67 20.842,80.8 C20.853,80.77 21.131,80.07 20.939,80.53 C21.026,80.32 21.12,80.12 21.213,79.92 C21.425,79.46 21.662,79.01 21.91,78.56 C22.116,78.19 22.342,77.83 22.573,77.47 C22.686,77.3 22.806,77.13 22.925,76.96 C22.962,76.91 23.375,76.36 23.045,76.78 C23.572,76.11 24.165,75.49 24.799,74.91 C24.94,74.79 25.087,74.66 25.234,74.54 C25.724,74.13 24.843,74.83 25.352,74.45 C25.65,74.23 25.964,74.04 26.283,73.85 C26.594,73.66 26.92,73.5 27.25,73.34 C27.806,73.08 26.777,73.53 27.347,73.31 C27.569,73.22 27.797,73.15 28.026,73.08 C28.367,72.98 28.717,72.9 29.068,72.84 C29.671,72.72 28.534,72.89 29.146,72.82 C29.325,72.81 29.505,72.8 29.685,72.79 C30.046,72.77 30.409,72.79 30.769,72.81 C30.891,72.82 31.497,72.9 30.849,72.81 C31.085,72.84 31.319,72.89 31.55,72.94 C31.9,73.02 32.241,73.13 32.579,73.25 C32.681,73.28 33.245,73.51 32.68,73.27 C32.845,73.34 33.008,73.42 33.17,73.5 C33.5,73.66 33.816,73.84 34.126,74.04 C34.284,74.13 34.438,74.24 34.59,74.34 C34.693,74.42 34.793,74.49 34.893,74.56 C34.663,74.38 34.651,74.37 34.859,74.54 C35.466,75.03 36.017,75.58 36.534,76.17 C36.667,76.32 36.795,76.47 36.921,76.63 C37.35,77.15 36.644,76.25 37.048,76.79 C37.337,77.18 37.604,77.59 37.86,78.01 C38.357,78.81 38.778,79.66 39.153,80.53 C38.958,80.08 39.24,80.76 39.252,80.8 C39.334,81.01 39.411,81.22 39.485,81.44 C39.666,81.95 39.819,82.47 39.963,83 C40.088,83.46 40.193,83.93 40.292,84.39 C40.341,84.63 40.384,84.87 40.427,85.11 C40.442,85.19 40.576,86.09 40.524,85.69 C40.666,86.78 40.723,87.88 40.728,88.98 C40.742,92.04 45.494,92.04 45.479,88.98 C45.443,81.56 42.458,72.61 35.242,69.24 C31.857,67.66 28.24,67.73 24.852,69.24 C21.622,70.68 19.118,73.67 17.499,76.73 C13.569,84.17 13.67,93.77 17.499,101.22 C19.098,104.33 21.647,107.21 24.852,108.71 C28.236,110.29 31.854,110.22 35.242,108.71 C38.473,107.27 40.976,104.29 42.595,101.22 C44.575,97.47 45.459,93.2 45.479,88.98 C45.494,85.91 40.742,85.91 40.728,88.98" id="Fill-522" fill="#4C5159"></path>
            <path d="M31.281,57.891 L31.281,117.14 C31.281,144.05 53.094,165.86 80.005,165.86 C106.913,165.86 128.727,144.05 128.727,117.14 L128.727,56.42 C128.727,56.42 108.513,58.65 101.472,57.133 C92.927,55.288 89.833,50.322 80.003,42.214 C80.003,42.214 77.245,56.183 47.792,59.03 C38.77,59.91 39.413,58.98 31.281,57.891" id="Fill-523" fill="#F4E0CD"></path>
            <path d="M28.905,57.891 C28.905,63.61 28.905,69.34 28.905,75.06 C28.905,85.11 28.905,95.16 28.905,105.21 C28.905,112.07 28.539,119.08 29.66,125.87 C32.013,140.13 40.826,152.89 53.025,160.54 C65.587,168.43 81.485,170.33 95.591,165.82 C109.276,161.44 120.795,151.16 126.637,138.03 C129.562,131.46 131.104,124.33 131.104,117.13 C131.104,115.39 131.104,113.65 131.104,111.92 C131.104,102.69 131.104,93.47 131.104,84.25 C131.104,75.84 131.104,67.44 131.104,59.03 C131.104,58.159 131.104,57.289 131.104,56.42 C131.104,55.233 130.018,53.902 128.727,54.044 C124.859,54.471 120.976,54.778 117.09,55.009 C113.988,55.194 110.879,55.317 107.77,55.28 C106.433,55.264 105.092,55.213 103.759,55.089 C103.481,55.063 103.205,55.032 102.93,54.998 C103.776,55.102 102.873,54.985 102.676,54.951 C101.934,54.826 101.2,54.639 100.476,54.436 C100.092,54.327 99.714,54.204 99.337,54.076 C99.152,54.014 98.972,53.946 98.79,53.88 C98.687,53.842 97.911,53.527 98.476,53.766 C97.683,53.431 96.917,53.035 96.171,52.607 C95.425,52.178 94.708,51.697 94.009,51.195 C93.856,51.084 93.706,50.973 93.555,50.86 C93.454,50.783 93.353,50.707 93.253,50.63 C93.48,50.807 93.489,50.812 93.278,50.647 C92.918,50.362 92.563,50.069 92.21,49.775 C88.627,46.78 85.284,43.512 81.683,40.535 C81.012,39.98 80.249,39.682 79.372,39.923 C78.618,40.131 77.872,40.788 77.714,41.583 C77.646,41.921 77.521,42.253 77.395,42.572 C77.175,43.136 77.701,41.892 77.405,42.544 C77.31,42.758 77.204,42.969 77.096,43.177 C76.837,43.674 76.545,44.152 76.232,44.615 C76.055,44.88 75.867,45.139 75.675,45.393 C75.446,45.694 76.075,44.879 75.838,45.181 C75.783,45.249 75.729,45.317 75.673,45.385 C75.54,45.55 75.403,45.711 75.263,45.872 C74.706,46.515 74.103,47.116 73.472,47.688 C73.13,47.998 72.774,48.297 72.414,48.588 C72.319,48.664 72.224,48.739 72.128,48.815 C72.714,48.355 72.341,48.649 72.214,48.744 C71.972,48.925 71.728,49.101 71.482,49.274 C70.51,49.956 69.49,50.569 68.446,51.136 C67.933,51.414 67.41,51.676 66.885,51.93 C66.583,52.074 66.277,52.214 65.972,52.352 C65.814,52.421 65.656,52.49 65.498,52.559 C64.947,52.797 65.978,52.36 65.417,52.593 C64,53.179 62.548,53.681 61.083,54.128 C59.391,54.643 57.674,55.065 55.946,55.43 C54.093,55.821 51.864,56.183 50.298,56.38 C46.905,56.809 43.387,57.219 39.965,56.91 C39.77,56.891 38.792,56.767 39.629,56.88 C39.354,56.843 39.081,56.8 38.806,56.754 C38.211,56.656 37.618,56.543 37.027,56.432 C35.327,56.115 33.624,55.833 31.911,55.601 C30.629,55.427 29.367,55.888 28.99,57.259 C28.682,58.38 29.363,60.01 30.648,60.18 C33.762,60.6 36.838,61.36 39.965,61.66 C43.643,62.02 47.463,61.51 51.104,61.03 C58.116,60.1 65.158,58.42 71.376,54.944 C74.883,52.981 78.065,50.354 80.334,47.014 C81.169,45.786 81.991,44.317 82.294,42.847 C82.294,42.847 82.294,42.847 82.294,42.846 C80.97,43.195 79.647,43.544 78.323,43.894 C81.61,46.611 84.705,49.536 87.918,52.338 C90.403,54.503 93.037,56.55 96.079,57.868 C101.726,60.31 107.844,60.17 113.879,59.92 C118.836,59.72 123.796,59.34 128.727,58.8 C127.936,58.002 127.144,57.212 126.352,56.42 C126.352,62.05 126.352,67.67 126.352,73.3 C126.352,83.4 126.352,93.5 126.352,103.6 C126.352,107.15 126.352,110.7 126.352,114.25 C126.352,116.98 126.356,119.71 126.067,122.43 C126.045,122.65 126.02,122.87 125.992,123.09 C125.985,123.15 125.89,123.86 125.965,123.32 C125.905,123.75 125.838,124.17 125.768,124.6 C125.615,125.52 125.431,126.44 125.227,127.35 C124.837,129.08 124.34,130.79 123.762,132.47 C123.488,133.27 123.187,134.06 122.87,134.84 C122.848,134.9 122.576,135.54 122.786,135.05 C122.704,135.25 122.618,135.44 122.535,135.63 C122.338,136.08 122.13,136.52 121.919,136.96 C121.172,138.54 120.328,140.06 119.414,141.55 C118.979,142.25 118.52,142.95 118.048,143.63 C117.812,143.98 117.568,144.31 117.325,144.65 C117.202,144.82 117.079,144.98 116.954,145.15 C116.871,145.26 116.788,145.37 116.703,145.48 C116.864,145.28 116.861,145.28 116.693,145.49 C115.63,146.86 114.487,148.15 113.286,149.4 C112.086,150.64 110.812,151.81 109.487,152.92 C109.168,153.18 108.845,153.44 108.521,153.7 C108.475,153.74 107.929,154.16 108.345,153.84 C108.181,153.97 108.015,154.09 107.849,154.21 C107.126,154.75 106.386,155.27 105.637,155.77 C104.187,156.73 102.683,157.6 101.14,158.4 C100.396,158.79 99.641,159.15 98.877,159.5 C98.687,159.59 98.493,159.67 98.302,159.76 C98.247,159.78 97.604,160.05 98.096,159.85 C97.642,160.04 97.185,160.22 96.725,160.39 C93.396,161.67 89.923,162.55 86.396,163.07 C85.683,163.17 86.882,163.01 86.165,163.1 C85.948,163.13 85.731,163.16 85.515,163.18 C85.08,163.23 84.644,163.27 84.208,163.31 C83.255,163.39 82.298,163.44 81.341,163.47 C79.493,163.52 77.642,163.46 75.8,163.31 C75.363,163.27 74.927,163.23 74.491,163.18 C74.275,163.16 74.059,163.13 73.842,163.1 C73.124,163.01 74.325,163.17 73.61,163.07 C72.683,162.94 71.761,162.77 70.841,162.59 C69.096,162.24 67.374,161.78 65.678,161.23 C64.872,160.98 64.074,160.69 63.283,160.39 C62.889,160.24 62.497,160.09 62.107,159.93 C61.46,159.66 62.54,160.12 61.899,159.84 C61.642,159.73 61.386,159.61 61.13,159.5 C59.54,158.78 57.995,157.97 56.491,157.09 C54.996,156.21 53.553,155.25 52.16,154.21 C51.992,154.09 51.827,153.97 51.662,153.84 C52.08,154.16 51.534,153.74 51.487,153.7 C51.162,153.45 50.841,153.18 50.521,152.92 C49.829,152.34 49.158,151.75 48.499,151.14 C47.231,149.96 46.034,148.71 44.898,147.41 C44.353,146.79 43.828,146.15 43.313,145.49 C42.887,144.95 43.596,145.87 43.178,145.32 C43.053,145.15 42.929,144.98 42.806,144.82 C42.518,144.43 42.237,144.03 41.96,143.63 C40.969,142.21 40.064,140.72 39.23,139.2 C38.829,138.46 38.45,137.72 38.088,136.96 C37.906,136.59 37.731,136.21 37.558,135.82 C37.472,135.63 37.389,135.44 37.305,135.24 C37.196,134.99 37.194,134.99 37.297,135.23 C37.243,135.1 37.19,134.97 37.137,134.84 C35.792,131.55 34.833,128.11 34.241,124.6 C34.167,124.17 34.103,123.75 34.042,123.32 C34.12,123.86 34.021,123.15 34.014,123.09 C33.988,122.87 33.963,122.65 33.939,122.43 C33.835,121.49 33.765,120.54 33.716,119.59 C33.671,118.74 33.655,117.88 33.655,117.03 C33.655,114.96 33.655,112.89 33.655,110.82 C33.655,101.32 33.655,91.82 33.655,82.32 C33.655,74.59 33.655,66.85 33.655,59.11 C33.655,58.71 33.655,58.299 33.655,57.891 C33.655,54.828 28.905,54.828 28.905,57.891" id="Fill-524" fill="#4C5159"></path>
            <path d="M23.016,89.64 C23.016,89.64 22.194,92.54 23.818,93.97 C28.938,98.48 28.776,105.08 28.776,105.08 L28.776,93.32 L27.113,91.46 L23.016,89.64" id="Fill-525" fill="#E7CEBB"></path>
            <path d="M32.376,99.23 C32.519,97.6 32.188,95.84 31.625,94.32 C30.374,90.95 27.601,88.69 24.134,87.83 C22.646,87.46 22.016,89.75 23.501,90.12 C26.339,90.82 28.549,92.64 29.47,95.33 C29.945,96.72 30.13,97.75 30.001,99.23 C29.868,100.75 32.244,100.74 32.376,99.23" id="Fill-526" fill="#4C5159"></path>
            <path d="M44.007,74.42 C44.2,74.31 44.398,74.21 44.595,74.12 C44.842,73.99 45.09,73.87 45.34,73.76 C45.498,73.68 45.656,73.61 45.815,73.54 C45.982,73.47 46.656,73.18 45.901,73.5 C47.866,72.68 49.91,72.04 51.993,71.59 C52.577,71.47 53.164,71.36 53.752,71.27 C53.888,71.25 54.023,71.23 54.158,71.21 C53.578,71.29 54.267,71.2 54.348,71.19 C54.697,71.15 55.047,71.13 55.397,71.1 C56.857,70.99 58.325,71.02 59.779,71.18 C60.065,71.21 60.079,71.21 59.822,71.18 C60.049,71.21 60.274,71.25 60.5,71.29 C60.879,71.35 61.255,71.43 61.631,71.52 C62.399,71.69 63.154,71.93 63.896,72.19 C64.047,72.25 64.199,72.3 64.348,72.36 C65.084,72.65 63.952,72.18 64.68,72.51 C65.059,72.67 65.43,72.86 65.797,73.05 C66.562,73.46 67.289,73.93 67.992,74.42 C69.05,75.17 70.63,74.61 71.241,73.57 C71.939,72.38 71.442,71.07 70.39,70.32 C64.804,66.36 57.893,65.64 51.305,66.89 C47.989,67.52 44.563,68.66 41.61,70.32 C40.483,70.96 40.111,72.47 40.757,73.57 C41.418,74.7 42.879,75.06 44.007,74.42" id="Fill-527" fill="#4C5159"></path>
            <path d="M113.813,70.32 C110.907,68.69 107.564,67.59 104.312,66.93 C97.692,65.59 90.647,66.34 85.033,70.32 C83.979,71.07 83.483,72.38 84.181,73.57 C84.792,74.61 86.372,75.17 87.431,74.42 C88.067,73.97 88.723,73.56 89.403,73.18 C89.769,72.97 90.142,72.79 90.519,72.61 C90.668,72.54 90.816,72.47 90.967,72.4 C90.577,72.58 91.306,72.27 91.302,72.28 C92.039,71.99 92.799,71.77 93.565,71.57 C93.94,71.48 94.317,71.4 94.697,71.33 C94.848,71.3 94.999,71.27 95.149,71.25 C95.194,71.24 95.938,71.14 95.419,71.2 C96.804,71.03 98.206,71.01 99.6,71.07 C99.952,71.09 100.307,71.12 100.658,71.15 C100.798,71.17 100.937,71.18 101.075,71.19 C101.155,71.2 101.847,71.29 101.266,71.21 C101.927,71.3 102.586,71.42 103.239,71.55 C105.35,71.98 107.414,72.63 109.404,73.45 C109.635,73.55 109.562,73.52 109.182,73.36 C109.29,73.4 109.397,73.45 109.505,73.5 C109.669,73.57 109.83,73.64 109.993,73.72 C110.253,73.84 110.511,73.96 110.767,74.09 C110.985,74.19 111.202,74.3 111.416,74.42 C112.545,75.06 114.004,74.7 114.665,73.57 C115.312,72.47 114.94,70.96 113.813,70.32" id="Fill-528" fill="#4C5159"></path>
            <path d="M60.898,88.83 C60.898,93.27 58.706,96.87 56,96.87 C53.293,96.87 51.1,93.27 51.1,88.83 C51.1,84.39 53.293,80.8 56,80.8 C58.706,80.8 60.898,84.39 60.898,88.83" id="Fill-529" fill="#4C5159"></path>
            <path d="M104.323,88.83 C104.323,93.27 102.129,96.87 99.423,96.87 C96.718,96.87 94.523,93.27 94.523,88.83 C94.523,84.39 96.718,80.8 99.423,80.8 C102.129,80.8 104.323,84.39 104.323,88.83" id="Fill-530" fill="#4C5159"></path>
            <path d="M72.403,113.08 C73.391,115.57 76.1,116.95 78.616,117.3 C80.854,117.62 83.062,117.32 84.911,115.95 C85.833,115.27 86.708,114.38 87.257,113.37 C87.984,112.02 85.935,110.82 85.206,112.17 C84.838,112.85 84.505,113.2 83.854,113.77 C82.53,114.95 80.868,115.16 79.165,115 C77.803,114.87 76.406,114.29 75.475,113.42 C75.313,113.27 75.167,113.1 75.024,112.93 C74.815,112.68 75.161,113.12 74.985,112.88 C74.924,112.79 74.868,112.71 74.813,112.62 C74.72,112.47 74.464,111.87 74.693,112.45 C74.454,111.85 73.909,111.44 73.231,111.62 C72.659,111.78 72.163,112.48 72.403,113.08" id="Fill-531" fill="#4C5159"></path>
            <path d="M98.307,134.12 C79.89,155.44 63.295,134.12 63.295,134.12 L98.307,134.12" id="Fill-532" fill="#F3F4F1"></path>
            <path d="M97.187,133 C94.397,136.21 91.187,139.04 87.257,140.75 C85.948,141.32 84.228,141.75 83.001,141.9 C82.294,141.98 81.582,142.01 80.87,142.01 C80.525,142.01 80.18,141.99 79.835,141.97 C79.665,141.96 79.495,141.94 79.325,141.93 C79.268,141.92 78.671,141.84 78.909,141.88 C76.187,141.49 74.028,140.6 71.765,139.29 C70.758,138.7 69.796,138.04 68.871,137.33 C69.146,137.54 68.58,137.1 68.489,137.02 C68.298,136.87 68.111,136.71 67.926,136.55 C67.555,136.24 67.194,135.91 66.837,135.58 C65.982,134.78 65.138,133.93 64.416,133 C64.043,133.9 63.668,134.8 63.295,135.71 C70.897,135.71 78.501,135.71 86.104,135.71 C90.171,135.71 94.239,135.71 98.307,135.71 C100.35,135.71 100.35,132.54 98.307,132.54 C90.704,132.54 83.101,132.54 75.499,132.54 C71.431,132.54 67.365,132.54 63.295,132.54 C61.788,132.54 61.371,134.21 62.176,135.24 C63.936,137.5 66.246,139.41 68.588,141.02 C73.315,144.27 79.002,145.88 84.7,144.81 C90.606,143.71 95.583,139.66 99.428,135.24 C99.993,134.59 100.068,133.64 99.428,133 C98.849,132.42 97.755,132.35 97.187,133" id="Fill-533" fill="#4C5159"></path>
            <path d="M71.247,167.4 C71.247,167.4 80.005,168.9 88.759,167.4 L88.759,171.73 C88.759,171.73 85.854,173.1 80.321,173.1 C74.931,173.1 71.247,171.73 71.247,171.73 L71.247,167.4" id="Fill-534" fill="#E7CEBB"></path>
            <path d="M122.204,59.42 L122.204,119.17 C122.204,119.17 119.618,156.76 78.643,163.51 C78.643,163.51 91.13,163.89 103.261,157.19 C114.168,151.16 125.771,137.6 126.284,119.17 L126.284,59.05 L122.204,59.42" id="Fill-535" fill="#E7CEBB"></path>
            <path d="M122.524,61.82 C122.524,61.82 104.942,68.66 81.506,54.09 C81.506,54.09 61.554,67.39 33.651,63.91 L33.651,60.66 C33.651,60.66 67.148,65.49 81.083,46.173 C85.413,50.816 85.371,50.865 90.901,54.777 C96.946,59.05 102.25,61.37 122.524,59.34 L122.524,61.82" id="Fill-536" fill="#E7CEBB"></path>
            <path d="M84.473,61.56 C84.473,63.47 82.925,65.02 81.015,65.02 C79.106,65.02 77.558,63.47 77.558,61.56 C77.558,59.65 79.106,58.106 81.015,58.106 C82.925,58.106 84.473,59.65 84.473,61.56" id="Fill-537" fill="#E57441"></path>
            <path d="M83.286,61.56 C83.245,62.83 82.286,63.79 81.015,63.83 C79.745,63.87 78.782,62.77 78.744,61.56 C78.705,60.29 79.804,59.33 81.015,59.29 C82.286,59.25 83.248,60.35 83.286,61.56 C83.333,63.09 85.708,63.09 85.66,61.56 C85.581,58.98 83.6,56.997 81.015,56.917 C78.432,56.836 76.446,59.1 76.37,61.56 C76.288,64.15 78.552,66.13 81.015,66.21 C83.597,66.29 85.584,64.03 85.66,61.56 C85.708,60.03 83.333,60.03 83.286,61.56" id="Fill-538" fill="#4C5159"></path>
            <path d="M138.343,104.04 C138.343,105.95 136.795,107.5 134.885,107.5 C132.974,107.5 131.426,105.95 131.426,104.04 C131.426,102.13 132.974,100.58 134.885,100.58 C136.795,100.58 138.343,102.13 138.343,104.04" id="Fill-539" fill="#E57441"></path>
            <path d="M137.153,104.04 C137.114,105.31 136.153,106.27 134.885,106.31 C133.613,106.35 132.651,105.25 132.613,104.04 C132.574,102.77 133.673,101.81 134.885,101.77 C136.153,101.73 137.117,102.83 137.153,104.04 C137.201,105.57 139.577,105.57 139.53,104.04 C139.45,101.46 137.469,99.47 134.885,99.39 C132.301,99.31 130.314,101.58 130.239,104.04 C130.159,106.62 132.42,108.61 134.885,108.68 C137.468,108.77 139.452,106.5 139.53,104.04 C139.577,102.51 137.201,102.51 137.153,104.04" id="Fill-540" fill="#4C5159"></path>
            <path d="M29.25,104.04 C29.25,105.95 27.702,107.5 25.792,107.5 C23.882,107.5 22.334,105.95 22.334,104.04 C22.334,102.13 23.882,100.58 25.792,100.58 C27.702,100.58 29.25,102.13 29.25,104.04" id="Fill-541" fill="#E57441"></path>
            <path d="M28.062,104.04 C28.022,105.31 27.063,106.27 25.792,106.31 C24.522,106.35 23.56,105.25 23.522,104.04 C23.482,102.77 24.58,101.81 25.792,101.77 C27.063,101.73 28.025,102.83 28.062,104.04 C28.109,105.57 30.485,105.57 30.438,104.04 C30.357,101.46 28.376,99.47 25.792,99.39 C23.209,99.31 21.222,101.58 21.146,104.04 C21.066,106.62 23.328,108.61 25.792,108.68 C28.375,108.77 30.361,106.5 30.438,104.04 C30.485,102.51 28.109,102.51 28.062,104.04" id="Fill-542" fill="#4C5159"></path>
            <path d="M101.775,176.51 C101.775,176.51 78.61,207.96 25.792,218.17 C25.792,218.17 60.898,238.36 136.283,220.18 C136.283,220.18 137.69,196.24 127.505,189.99 L101.775,176.51" id="Fill-543" fill="#EEA175"></path>
            <path d="M99.725,175.31 C99.683,175.37 99.639,175.42 99.596,175.48 C100.253,174.62 99.776,175.25 99.56,175.52 C99.048,176.15 98.517,176.77 97.976,177.39 C95.964,179.67 93.806,181.82 91.569,183.88 C89.987,185.34 88.36,186.75 86.696,188.11 C86.253,188.48 85.806,188.84 85.358,189.19 C85.126,189.38 84.895,189.56 84.663,189.74 C84.545,189.83 84.427,189.92 84.31,190.01 C83.983,190.27 84.723,189.7 84.191,190.1 C83.149,190.9 82.094,191.69 81.026,192.45 C76.058,196.02 70.823,199.21 65.408,202.04 C62.587,203.52 59.713,204.89 56.798,206.17 C56.459,206.32 56.12,206.47 55.781,206.62 C55.575,206.71 55.369,206.79 55.164,206.88 C55.616,206.69 54.932,206.98 54.901,206.99 C54.13,207.31 53.355,207.62 52.579,207.93 C50.906,208.59 49.221,209.22 47.526,209.82 C40.24,212.41 32.749,214.41 25.161,215.88 C23.092,216.28 22.903,219.25 24.593,220.22 C27.173,221.7 30.078,222.74 32.878,223.7 C40.695,226.4 48.871,227.95 57.063,228.96 C70.403,230.59 83.933,230.44 97.298,229.2 C110.647,227.96 123.886,225.61 136.915,222.47 C137.98,222.21 138.599,221.22 138.657,220.18 C138.833,217.19 138.721,214.16 138.488,211.17 C138.038,205.4 137.045,199.46 134.351,194.28 C133.054,191.78 131.207,189.55 128.828,188.02 C128.115,187.56 127.311,187.21 126.562,186.82 C122.474,184.68 118.39,182.54 114.305,180.4 C110.527,178.42 106.751,176.44 102.974,174.46 C101.827,173.86 100.401,174.16 99.725,175.31 C99.093,176.39 99.431,177.96 100.577,178.56 C107.56,182.22 114.545,185.88 121.528,189.54 C122.907,190.26 124.286,190.98 125.666,191.71 C125.879,191.82 126.093,191.93 126.306,192.04 C126.518,192.15 126.717,192.31 126.912,192.44 C127.029,192.53 127.434,192.85 126.894,192.42 C127.01,192.51 127.119,192.61 127.229,192.7 C127.717,193.12 128.161,193.58 128.576,194.07 C128.673,194.18 128.769,194.3 128.862,194.42 C128.439,193.89 128.776,194.31 128.858,194.42 C129.04,194.67 129.212,194.92 129.38,195.18 C129.753,195.75 130.085,196.35 130.396,196.96 C130.542,197.25 130.679,197.54 130.814,197.83 C130.88,197.98 130.946,198.13 131.012,198.28 C130.751,197.68 130.976,198.2 131.023,198.32 C131.295,198.99 131.532,199.68 131.755,200.36 C132.188,201.71 132.53,203.09 132.818,204.48 C132.956,205.15 133.077,205.82 133.188,206.49 C133.243,206.82 133.293,207.15 133.343,207.48 C133.366,207.65 133.39,207.81 133.412,207.98 C133.313,207.26 133.416,208.02 133.435,208.17 C133.931,212.13 134.14,216.19 133.907,220.18 C134.49,219.42 135.069,218.66 135.651,217.89 C118.374,222.05 101.383,224.75 83.666,225.3 C77.089,225.51 70.499,225.39 63.938,224.88 C61.167,224.67 58.402,224.39 55.647,224.03 C55.503,224.01 54.949,223.93 55.661,224.03 C55.506,224.01 55.354,223.99 55.201,223.97 C54.897,223.92 54.595,223.88 54.292,223.84 C53.654,223.74 53.015,223.64 52.377,223.54 C51.212,223.36 50.05,223.15 48.889,222.94 C42.502,221.74 36.135,220.09 30.121,217.61 C30.05,217.58 29.979,217.55 29.909,217.52 C29.516,217.35 30.516,217.78 30.219,217.65 C30.073,217.59 29.927,217.53 29.783,217.46 C29.535,217.36 29.291,217.25 29.045,217.13 C28.665,216.96 28.286,216.78 27.911,216.6 C27.601,216.45 27.29,216.29 26.991,216.12 C26.802,217.57 26.613,219.01 26.424,220.46 C41.978,217.44 57.111,212.14 70.97,204.44 C80.087,199.36 88.692,193.21 96.25,186.01 C98.948,183.43 101.608,180.72 103.825,177.71 C104.597,176.66 104.001,175.06 102.974,174.46 C101.767,173.75 100.491,174.27 99.725,175.31" id="Fill-544" fill="#4C5159"></path>
            <path d="M101.775,176.51 C101.775,176.51 78.61,207.96 25.792,218.17 L56.451,226.51 C56.451,226.51 87.675,212.39 99.399,201.51 C109.851,191.81 114.386,183.12 114.386,183.12 L101.775,176.51" id="Fill-545" fill="#F6C4A1"></path>
            <path d="M100.407,175.71 C100.365,175.77 100.322,175.82 100.28,175.88 C100.725,175.3 100.277,175.88 100.118,176.08 C99.607,176.71 99.075,177.33 98.536,177.95 C96.523,180.23 94.365,182.38 92.129,184.45 C90.548,185.9 88.919,187.31 87.255,188.67 C85.239,190.33 83.602,191.57 81.426,193.13 C76.458,196.7 71.222,199.89 65.806,202.73 C53.124,209.37 39.412,213.92 25.371,216.64 C23.788,216.95 23.926,219.3 25.371,219.7 C32.911,221.75 40.451,223.8 47.99,225.85 C50.67,226.57 53.35,227.3 56.029,228.03 C56.903,228.27 58.204,227.44 58.983,227.07 C60.701,226.27 62.412,225.45 64.117,224.63 C69.546,221.98 74.918,219.21 80.193,216.28 C85.853,213.12 91.473,209.79 96.632,205.85 C101.724,201.97 106.181,197.23 110.124,192.2 C112.166,189.59 114.211,186.86 115.752,183.92 C116.139,183.18 115.975,182.16 115.184,181.75 C110.98,179.55 106.777,177.34 102.575,175.14 C100.767,174.2 99.165,176.93 100.976,177.88 C105.179,180.08 109.382,182.28 113.586,184.48 C113.396,183.76 113.207,183.04 113.018,182.32 C110.954,186.26 108.088,189.88 105.197,193.23 C102.535,196.32 99.671,199.3 96.537,201.91 C94.384,203.71 91.95,205.4 89.47,207.02 C79.636,213.47 69.059,218.84 58.435,223.84 C57.51,224.28 56.584,224.72 55.652,225.14 C56.058,225.08 56.465,225.03 56.872,224.98 C49.332,222.93 41.792,220.88 34.252,218.83 C31.572,218.1 28.893,217.37 26.213,216.64 C26.213,217.66 26.213,218.68 26.213,219.7 C41.703,216.69 56.769,211.43 70.57,203.75 C79.631,198.71 88.179,192.61 95.69,185.45 C98.337,182.92 100.966,180.26 103.144,177.31 C103.655,176.61 103.261,175.54 102.575,175.14 C101.771,174.67 100.92,175.02 100.407,175.71" id="Fill-546" fill="#4C5159"></path>
            <path d="M24.844,181.31 L45.515,227.43 L61.488,227.43 C61.488,227.43 48.268,181.58 64.656,171.02 L24.844,181.31" id="Fill-547" fill="#4C5159"></path>
        </g>
    </g>
</svg>