<?xml version="1.0" encoding="UTF-8"?>
<svg width="159px" height="236px" viewBox="0 0 159 236" version="1.1" xmlns="http://www.w3.org/2000/svg" xmlns:xlink="http://www.w3.org/1999/xlink">
    <!-- Generator: Sketch 48.2 (47327) - http://www.bohemiancoding.com/sketch -->
    <title>female2</title>
    <desc>Created with Sketch.</desc>
    <defs></defs>
    <g id="Page-1" stroke="none" stroke-width="1" fill="none" fill-rule="evenodd">
        <g id="female2">
            <path d="M151.688,108.11 C168.763,59.727 140.928,4.755 81.274,2.917 L81.274,2.874 C80.832,2.874 80.39,2.878 79.951,2.887 C79.511,2.878 79.071,2.874 78.628,2.874 L78.628,2.917 C18.973,4.755 -8.861,59.727 8.213,108.11 C25.617,157.43 6.629,183.4 6.629,183.4 C6.629,183.4 42.309,210.63 79.951,184.34 C117.592,210.63 153.272,183.4 153.272,183.4 C153.272,183.4 134.285,157.43 151.688,108.11" id="Fill-480" fill="#E2C367"></path>
            <path d="M153.979,108.74 C158.96,94.57 160.285,79.26 157.699,64.46 C155.228,50.318 148.883,36.919 139.364,26.159 C129.331,14.818 115.787,7.002 101.167,3.268 C94.674,1.61 87.965,0.756 81.274,0.541 C82.067,1.332 82.858,2.125 83.649,2.917 C83.649,2.903 83.649,2.889 83.649,2.874 C83.649,1.582 82.57,0.496 81.274,0.5 C80.393,0.502 79.51,0.502 78.628,0.5 C77.333,0.496 76.252,1.582 76.252,2.874 C76.252,2.889 76.252,2.903 76.252,2.917 C77.043,2.125 77.835,1.332 78.628,0.541 C62.531,1.06 46.531,5.524 33.268,14.839 C21.288,23.252 12.226,35.055 6.737,48.586 C1.215,62.199 -0.223,77.2 1.768,91.7 C2.276,95.39 3.04,99.05 4.018,102.66 C5.247,107.17 6.951,111.53 8.282,116.01 C11.042,125.31 12.76,134.57 13.119,144.15 C13.261,147.95 13.168,151.76 12.833,155.54 C12.761,156.36 12.674,157.18 12.576,157.99 C12.554,158.19 12.528,158.39 12.503,158.59 C12.492,158.68 12.401,159.35 12.484,158.74 C12.423,159.19 12.358,159.63 12.289,160.08 C12.059,161.58 11.778,163.08 11.459,164.56 C10.912,167.1 10.223,169.61 9.39,172.06 C9.046,173.08 8.673,174.09 8.275,175.08 C8.188,175.3 8.099,175.51 8.01,175.73 C7.784,176.28 8.238,175.2 7.943,175.89 C7.764,176.3 7.578,176.72 7.388,177.13 C6.585,178.86 5.711,180.65 4.579,182.2 C3.749,183.34 4.486,184.73 5.431,185.45 C7.49,187.02 9.785,188.32 12.061,189.55 C17.688,192.56 23.728,194.89 29.939,196.36 C37.791,198.23 45.866,198.61 53.853,197.49 C63.686,196.1 73.026,192.04 81.149,186.39 C80.351,186.39 79.551,186.39 78.752,186.39 C87.43,192.42 97.264,196.39 107.757,197.72 C115.952,198.75 124.356,197.93 132.306,195.76 C137.914,194.24 143.362,192 148.46,189.21 C150.523,188.08 152.597,186.88 154.47,185.45 C155.415,184.73 156.152,183.34 155.324,182.2 C154.411,180.95 153.688,179.53 153.004,178.15 C152.635,177.41 152.29,176.65 151.958,175.89 C151.662,175.2 152.119,176.28 151.891,175.73 C151.801,175.51 151.713,175.3 151.626,175.08 C151.426,174.58 151.233,174.08 151.046,173.57 C150.195,171.27 149.49,168.92 148.9,166.54 C148.552,165.13 148.252,163.72 147.988,162.29 C147.852,161.56 147.728,160.82 147.614,160.08 C147.553,159.7 147.498,159.32 147.444,158.93 C147.352,158.28 147.51,159.45 147.424,158.79 C147.39,158.52 147.356,158.26 147.325,157.99 C146.885,154.37 146.705,150.71 146.721,147.06 C146.764,137.72 148.17,128.88 150.552,119.83 C151.536,116.09 152.696,112.39 153.979,108.74 C154.408,107.52 153.503,106.15 152.32,105.82 C151.005,105.46 149.828,106.26 149.397,107.48 C143.373,124.62 140.271,143.06 143.002,161.15 C143.78,166.3 145.077,171.39 147,176.23 C148.056,178.89 149.25,181.53 150.787,183.95 C150.926,184.17 151.067,184.39 151.221,184.6 C151.505,183.51 151.789,182.43 152.073,181.35 C150.013,182.92 147.719,184.22 145.442,185.44 C144.293,186.06 143.125,186.64 141.944,187.19 C141.313,187.49 140.678,187.77 140.039,188.05 C139.874,188.12 139.706,188.2 139.541,188.27 C140.103,188.03 139.525,188.27 139.431,188.31 C139.026,188.48 138.618,188.64 138.21,188.8 C134.977,190.07 131.649,191.1 128.263,191.88 C126.617,192.26 124.953,192.57 123.282,192.82 C123.125,192.84 122.969,192.87 122.813,192.89 C122.038,193 123.278,192.83 122.498,192.93 C122.02,192.99 121.54,193.05 121.06,193.09 C120.082,193.2 119.101,193.27 118.118,193.32 C116.254,193.43 114.385,193.43 112.518,193.36 C110.571,193.28 108.425,193.08 106.771,192.83 C97.481,191.43 88.836,187.63 81.149,182.29 C80.506,181.84 79.396,181.84 78.752,182.29 C74.331,185.36 69.592,187.98 64.542,189.87 C60.22,191.48 55.367,192.63 51.073,193.09 C46.851,193.54 42.58,193.5 38.36,193.04 C38.12,193.02 37.881,192.99 37.642,192.96 C37.621,192.96 36.838,192.86 37.324,192.92 C36.855,192.86 36.388,192.79 35.921,192.71 C34.932,192.56 33.945,192.37 32.963,192.17 C31.165,191.8 29.383,191.35 27.619,190.83 C26.173,190.41 24.743,189.93 23.328,189.42 C22.661,189.18 21.999,188.92 21.339,188.66 C20.991,188.52 20.646,188.38 20.3,188.24 C19.723,188 20.763,188.44 20.194,188.19 C20.029,188.12 19.864,188.05 19.699,187.98 C17.537,187.04 15.422,185.99 13.363,184.84 C11.467,183.79 9.56,182.67 7.829,181.35 C8.112,182.43 8.396,183.51 8.681,184.6 C9.593,183.35 10.316,181.93 11,180.55 C12.954,176.59 14.423,172.39 15.503,168.12 C19.448,152.5 18.249,135.94 14.411,120.43 C12.234,111.65 8.665,103.3 6.991,94.38 C6.827,93.51 6.679,92.63 6.542,91.75 C6.474,91.31 6.411,90.87 6.349,90.43 C6.248,89.71 6.411,90.91 6.317,90.19 C6.279,89.89 6.244,89.6 6.209,89.31 C5.993,87.49 5.841,85.66 5.742,83.83 C5.547,80.21 5.599,76.58 5.874,72.97 C5.939,72.11 6.021,71.25 6.113,70.4 C6.159,69.97 6.21,69.54 6.263,69.12 C6.29,68.9 6.318,68.69 6.346,68.48 C6.272,69.03 6.395,68.14 6.409,68.05 C6.664,66.29 6.985,64.53 7.357,62.792 C8.092,59.337 9.072,55.934 10.264,52.609 C10.549,51.814 10.85,51.026 11.161,50.241 C11.317,49.849 11.476,49.458 11.638,49.07 C11.906,48.425 11.452,49.505 11.726,48.861 C11.837,48.604 11.95,48.347 12.063,48.09 C12.77,46.487 13.54,44.911 14.357,43.362 C15.991,40.265 17.854,37.29 19.91,34.455 C20.967,33 21.619,32.175 22.927,30.635 C24.067,29.29 25.264,27.992 26.501,26.737 C27.748,25.471 29.046,24.259 30.383,23.09 C31.029,22.525 31.688,21.975 32.354,21.435 C32.688,21.163 33.026,20.896 33.365,20.631 C32.97,20.941 33.534,20.502 33.568,20.476 C33.797,20.301 34.029,20.128 34.26,19.957 C37.197,17.772 40.31,15.829 43.543,14.114 C45.204,13.235 46.901,12.426 48.624,11.676 C48.832,11.583 49.042,11.494 49.251,11.406 C48.81,11.594 49.506,11.303 49.53,11.293 C49.955,11.118 50.382,10.949 50.811,10.781 C51.747,10.416 52.692,10.073 53.642,9.743 C57.58,8.383 61.627,7.355 65.725,6.608 C66.79,6.413 67.86,6.244 68.932,6.09 C68.923,6.091 69.743,5.98 69.302,6.038 C69.554,6.005 69.806,5.973 70.058,5.942 C70.651,5.869 71.244,5.803 71.837,5.741 C74.093,5.507 76.359,5.364 78.628,5.292 C79.921,5.25 81.002,4.243 81.002,2.917 C81.002,2.903 81.002,2.889 81.002,2.874 C80.211,3.666 79.419,4.459 78.628,5.25 C79.51,5.252 80.393,5.252 81.274,5.25 C80.482,4.459 79.691,3.666 78.899,2.874 C78.899,2.889 78.899,2.903 78.899,2.917 C78.899,4.243 79.98,5.25 81.274,5.292 C89.569,5.559 97.335,6.797 105.373,9.444 C107.207,10.048 109.014,10.728 110.795,11.468 C110.354,11.284 111.046,11.575 111.07,11.584 C111.279,11.675 111.487,11.766 111.696,11.859 C112.111,12.041 112.523,12.229 112.936,12.42 C113.821,12.828 114.697,13.258 115.565,13.702 C118.833,15.371 121.966,17.3 124.942,19.443 C125.294,19.696 125.642,19.955 125.989,20.215 C126.162,20.344 126.333,20.476 126.505,20.608 C127.072,21.039 126.145,20.325 126.707,20.764 C127.44,21.337 128.159,21.929 128.87,22.531 C130.226,23.68 131.533,24.888 132.8,26.136 C134.057,27.375 135.261,28.666 136.424,29.994 C136.979,30.631 137.521,31.278 138.053,31.932 C138.319,32.259 138.581,32.589 138.841,32.921 C139.272,33.471 138.561,32.553 138.985,33.108 C139.155,33.329 139.325,33.555 139.492,33.779 C141.589,36.583 143.471,39.548 145.148,42.621 C145.986,44.159 146.764,45.731 147.494,47.322 C147.668,47.705 147.839,48.09 148.008,48.476 C148.092,48.668 148.175,48.861 148.257,49.056 C148.049,48.567 148.322,49.21 148.345,49.266 C148.695,50.108 149.026,50.959 149.347,51.816 C150.584,55.122 151.581,58.517 152.363,61.961 C152.757,63.7 153.085,65.44 153.364,67.2 C153.431,67.62 153.493,68.05 153.554,68.47 C153.654,69.18 153.491,67.98 153.585,68.69 C153.613,68.9 153.639,69.12 153.664,69.33 C153.779,70.25 153.874,71.18 153.957,72.11 C154.279,75.71 154.348,79.34 154.2,82.95 C154.125,84.78 153.984,86.61 153.792,88.43 C153.592,90.31 153.435,91.41 153.069,93.51 C152.241,98.26 150.997,102.93 149.397,107.48 C148.969,108.7 149.875,110.08 151.057,110.4 C152.372,110.76 153.55,109.96 153.979,108.74" id="Fill-481" fill="#4C5159"></path>
            <path d="M116.906,93.98 C116.906,104.23 122.752,112.54 129.962,112.54 C137.174,112.54 143.019,104.23 143.019,93.98 C143.019,83.72 137.174,75.41 129.962,75.41 C122.752,75.41 116.906,83.72 116.906,93.98" id="Fill-482" fill="#F4E0CD"></path>
            <path d="M114.53,93.98 C114.567,101.39 117.551,110.34 124.768,113.71 C128.151,115.29 131.77,115.22 135.158,113.71 C138.388,112.27 140.892,109.29 142.51,106.22 C146.441,98.78 146.34,89.18 142.51,81.73 C140.912,78.62 138.363,75.74 135.158,74.24 C131.773,72.66 128.156,72.73 124.768,74.24 C121.538,75.68 119.034,78.67 117.414,81.73 C115.435,85.48 114.551,89.76 114.53,93.98 C114.516,97.04 119.267,97.04 119.282,93.98 C119.3,90.19 120.113,86.55 121.932,83.37 C122.142,83.01 122.369,82.65 122.604,82.3 C122.72,82.13 122.841,81.96 122.962,81.79 C123.36,81.24 122.667,82.15 123.087,81.63 C123.62,80.96 124.218,80.35 124.858,79.79 C125.001,79.66 125.15,79.54 125.298,79.42 C124.85,79.78 125.343,79.4 125.419,79.34 C125.721,79.13 126.036,78.94 126.356,78.76 C126.671,78.57 127,78.42 127.33,78.27 C126.771,78.52 127.327,78.28 127.431,78.25 C127.655,78.16 127.884,78.1 128.113,78.03 C128.457,77.93 128.808,77.87 129.16,77.81 C128.517,77.91 129.115,77.82 129.24,77.81 C129.42,77.79 129.602,77.79 129.781,77.78 C130.142,77.77 130.504,77.79 130.864,77.82 C131.477,77.88 130.336,77.74 130.942,77.84 C131.177,77.88 131.408,77.93 131.64,77.99 C131.988,78.07 132.326,78.18 132.663,78.31 C133.236,78.51 132.2,78.09 132.76,78.34 C132.924,78.42 133.086,78.5 133.248,78.58 C133.575,78.75 133.889,78.94 134.198,79.14 C134.354,79.24 134.507,79.34 134.658,79.45 C134.871,79.61 134.86,79.6 134.627,79.42 C134.727,79.5 134.825,79.58 134.921,79.66 C135.524,80.16 136.07,80.73 136.58,81.32 C136.712,81.47 136.838,81.63 136.964,81.78 C136.629,81.37 137.045,81.91 137.084,81.96 C137.371,82.36 137.633,82.77 137.886,83.19 C138.336,83.94 138.722,84.72 139.069,85.53 C138.873,85.08 139.156,85.76 139.168,85.8 C139.25,86.01 139.326,86.22 139.402,86.44 C139.582,86.95 139.735,87.47 139.878,88 C140.133,88.93 140.316,89.88 140.459,90.83 C140.39,90.38 140.498,91.18 140.498,91.19 C140.525,91.44 140.545,91.69 140.566,91.93 C140.614,92.53 140.634,93.12 140.643,93.72 C140.657,94.74 140.601,95.75 140.498,96.76 C140.498,96.77 140.394,97.58 140.459,97.12 C140.425,97.36 140.384,97.6 140.343,97.84 C140.249,98.4 140.128,98.95 139.996,99.49 C139.778,100.4 139.494,101.28 139.168,102.15 C139.157,102.19 138.878,102.88 139.069,102.42 C138.984,102.63 138.89,102.83 138.797,103.03 C138.585,103.5 138.347,103.95 138.1,104.39 C137.894,104.76 137.668,105.12 137.437,105.48 C137.324,105.65 137.204,105.82 137.084,105.99 C137.047,106.05 136.634,106.59 136.964,106.17 C136.438,106.84 135.846,107.46 135.211,108.04 C135.07,108.17 134.922,108.29 134.775,108.41 C134.285,108.82 135.167,108.13 134.658,108.5 C134.359,108.72 134.046,108.92 133.727,109.1 C133.416,109.29 133.09,109.45 132.76,109.61 C132.204,109.87 133.233,109.42 132.663,109.64 C132.44,109.73 132.213,109.8 131.983,109.87 C131.643,109.97 131.293,110.05 130.942,110.11 C130.338,110.23 131.475,110.06 130.864,110.13 C130.685,110.14 130.505,110.15 130.325,110.16 C129.963,110.18 129.602,110.17 129.24,110.14 C129.119,110.13 128.512,110.05 129.16,110.14 C128.923,110.11 128.691,110.06 128.458,110.01 C128.11,109.93 127.768,109.82 127.431,109.71 C127.328,109.67 126.765,109.44 127.33,109.68 C127.164,109.61 127.001,109.53 126.84,109.45 C126.51,109.29 126.194,109.11 125.883,108.91 C125.725,108.82 125.572,108.71 125.419,108.61 C125.317,108.54 125.216,108.46 125.116,108.39 C125.347,108.57 125.358,108.58 125.15,108.41 C124.543,107.92 123.992,107.37 123.475,106.78 C123.343,106.63 123.215,106.48 123.087,106.32 C122.661,105.8 123.366,106.71 122.962,106.16 C122.671,105.77 122.406,105.36 122.149,104.94 C121.653,104.14 121.231,103.29 120.855,102.42 C121.052,102.88 120.769,102.19 120.757,102.15 C120.675,101.94 120.599,101.73 120.523,101.51 C120.344,101 120.191,100.48 120.047,99.95 C119.921,99.49 119.817,99.02 119.718,98.56 C119.667,98.32 119.625,98.08 119.582,97.84 C119.566,97.76 119.434,96.87 119.485,97.26 C119.343,96.17 119.287,95.07 119.282,93.98 C119.267,90.91 114.516,90.91 114.53,93.98" id="Fill-483" fill="#4C5159"></path>
            <path d="M136.994,94.64 C136.994,94.64 137.816,97.54 136.192,98.97 C131.072,103.48 131.234,110.08 131.234,110.08 L131.234,98.32 L132.896,96.46 L136.994,94.64" id="Fill-484" fill="#E7CEBB"></path>
            <path d="M130.008,104.23 C129.879,102.74 130.08,101.73 130.54,100.33 C131.425,97.63 133.698,95.82 136.507,95.12 C137.993,94.75 137.363,92.46 135.876,92.83 C132.371,93.7 129.685,95.95 128.383,99.32 C127.804,100.83 127.491,102.61 127.633,104.23 C127.766,105.74 130.141,105.75 130.008,104.23" id="Fill-485" fill="#4C5159"></path>
            <path d="M82.881,233.61 C123.76,233.61 137.59,225.18 137.59,225.18 C137.59,225.18 137.933,202.01 130.749,196.21 C130.749,196.21 103.895,179 92.435,176.02 L70.188,176.02 C58.728,179 31.873,196.21 31.873,196.21 C24.689,202.01 25.031,225.18 25.031,225.18 C25.031,225.18 43.504,233.61 84.384,233.61 L82.881,233.61" id="Fill-486" fill="#F3F4F1"></path>
            <path d="M82.881,235.99 C97.387,235.98 112.189,235.14 126.326,231.66 C129.451,230.88 132.558,229.97 135.538,228.74 C136.75,228.25 138.908,227.63 139.642,226.38 C140.238,225.36 139.967,223.64 139.939,222.52 C139.883,220.24 139.75,217.97 139.543,215.7 C139.018,209.91 138.168,203.84 135.518,198.59 C134.652,196.88 133.425,195.1 131.779,194.06 C130.775,193.42 129.764,192.78 128.752,192.16 C124.238,189.35 119.672,186.63 115.045,184.02 C109.605,180.95 104.077,178 98.313,175.58 C97.183,175.11 96.038,174.66 94.875,174.27 C94.006,173.98 93.097,173.64 92.171,173.64 C89.979,173.64 87.788,173.64 85.597,173.64 C82.408,173.64 79.218,173.64 76.027,173.64 C74.096,173.64 72.167,173.64 70.236,173.64 C69.206,173.64 68.059,174.16 67.097,174.5 C65.761,174.97 64.453,175.51 63.152,176.07 C57.504,178.49 52.088,181.46 46.754,184.49 C42.253,187.04 37.811,189.7 33.417,192.44 C32.523,192.99 31.632,193.55 30.744,194.12 C28.93,195.28 27.667,197.36 26.778,199.26 C24.287,204.61 23.498,210.68 23.008,216.5 C22.766,219.38 22.615,222.29 22.657,225.18 C22.667,225.96 23.085,226.89 23.833,227.23 C28.579,229.39 33.825,230.63 38.894,231.72 C53.795,234.94 69.169,235.98 84.384,235.99 C84.384,234.4 84.384,232.82 84.384,231.24 C83.883,231.24 83.381,231.24 82.881,231.24 C79.817,231.24 79.817,235.99 82.881,235.99 C83.381,235.99 83.883,235.99 84.384,235.99 C87.448,235.99 87.448,231.24 84.384,231.24 C75.454,231.23 66.52,230.84 57.637,229.9 C56.754,229.8 55.869,229.7 54.986,229.6 C54.559,229.54 54.131,229.49 53.705,229.44 C53.495,229.41 53.285,229.38 53.075,229.36 C52.974,229.34 52.088,229.23 52.673,229.3 C51.048,229.09 49.425,228.84 47.807,228.58 C45.048,228.13 42.301,227.61 39.57,227.01 C36.045,226.24 32.541,225.33 29.117,224.19 C28.254,223.9 27.399,223.59 26.555,223.26 C26.256,223.14 25.371,222.77 26.452,223.23 C26.377,223.2 26.304,223.16 26.231,223.13 C26.622,223.82 27.015,224.5 27.407,225.18 C27.36,221.91 27.551,218.63 27.859,215.37 C27.922,214.71 27.994,214.04 28.071,213.38 C28.111,213.04 28.155,212.7 28.199,212.36 C28.112,213.03 28.189,212.43 28.208,212.31 C28.24,212.08 28.273,211.85 28.308,211.62 C28.521,210.18 28.787,208.74 29.106,207.33 C29.415,205.96 29.788,204.6 30.247,203.28 C30.351,202.97 30.463,202.67 30.578,202.38 C30.634,202.23 30.693,202.08 30.753,201.94 C30.497,202.57 30.7,202.06 30.755,201.94 C31.012,201.35 31.303,200.78 31.621,200.23 C31.76,199.99 31.909,199.75 32.063,199.52 C32.167,199.36 32.734,198.61 32.241,199.24 C32.577,198.81 32.957,198.41 33.366,198.05 C33.722,197.74 32.8,198.44 33.175,198.2 C33.303,198.12 33.429,198.04 33.556,197.96 C34.786,197.18 36.023,196.41 37.262,195.64 C41.994,192.73 46.78,189.89 51.638,187.19 C54.405,185.65 57.198,184.16 60.032,182.75 C61.354,182.09 62.687,181.45 64.031,180.84 C64.634,180.57 65.238,180.31 65.846,180.05 C65.185,180.33 66.134,179.93 66.297,179.86 C66.624,179.73 66.951,179.6 67.281,179.48 C68.33,179.07 69.392,178.71 70.474,178.4 C71.091,178.23 69.726,178.39 70.478,178.39 C70.847,178.39 71.216,178.39 71.583,178.39 C73.982,178.39 76.381,178.39 78.78,178.39 C82.022,178.39 85.264,178.39 88.507,178.39 C89.583,178.39 90.661,178.39 91.737,178.39 C91.96,178.39 92.182,178.39 92.404,178.39 C91.911,178.39 91.79,178.3 92.265,178.43 C92.548,178.51 92.83,178.6 93.11,178.69 C94.248,179.05 95.365,179.47 96.469,179.92 C96.614,179.98 96.758,180.04 96.904,180.1 C97.419,180.32 96.405,179.89 96.924,180.11 C97.225,180.24 97.526,180.37 97.825,180.5 C98.501,180.8 99.172,181.11 99.843,181.42 C109.654,186.01 119.018,191.64 128.179,197.4 C128.564,197.64 128.949,197.88 129.331,198.13 C129.4,198.17 129.468,198.21 129.536,198.26 C129.276,198.09 129.003,197.83 129.346,198.13 C129.564,198.32 129.767,198.53 129.964,198.74 C130.092,198.88 130.652,199.6 130.17,198.97 C130.334,199.18 130.486,199.41 130.634,199.63 C130.977,200.15 131.272,200.7 131.548,201.26 C131.683,201.53 131.807,201.8 131.928,202.08 C132.148,202.58 131.721,201.57 131.928,202.08 C131.988,202.23 132.044,202.38 132.101,202.52 C132.354,203.18 132.576,203.85 132.782,204.53 C133.199,205.89 133.524,207.29 133.806,208.69 C133.944,209.37 134.065,210.06 134.179,210.75 C134.237,211.1 134.289,211.44 134.34,211.79 C134.366,211.96 134.39,212.13 134.415,212.31 C134.431,212.42 134.446,212.53 134.462,212.65 C134.416,212.3 134.41,212.26 134.444,212.53 C134.78,215.1 134.986,217.69 135.108,220.29 C135.184,221.92 135.239,223.55 135.215,225.18 C135.608,224.5 135.999,223.82 136.392,223.13 C136.17,223.27 135.936,223.38 135.703,223.5 C135.409,223.65 135.112,223.79 134.813,223.92 C134.627,224.01 134.438,224.09 134.25,224.17 C133.731,224.4 134.629,224.01 134.444,224.09 C134.311,224.15 134.175,224.2 134.041,224.26 C130.967,225.5 127.761,226.42 124.541,227.2 C122.136,227.79 119.706,228.27 117.269,228.7 C115.819,228.95 114.365,229.18 112.909,229.39 C112.715,229.42 112.521,229.44 112.329,229.47 C112.236,229.48 111.578,229.57 112.174,229.49 C111.773,229.54 111.37,229.6 110.969,229.65 C110.062,229.76 109.154,229.87 108.246,229.97 C99.826,230.9 91.346,231.23 82.881,231.24 C79.817,231.24 79.817,235.99 82.881,235.99" id="Fill-487" fill="#4C5159"></path>
            <path d="M70.137,169.23 L70.137,182.61 C70.137,188.78 75.141,193.79 81.311,193.79 C87.482,193.79 92.484,188.78 92.484,182.61 L92.484,169.23 L70.137,169.23" id="Fill-488" fill="#F4E0CD"></path>
            <path d="M67.763,169.23 C67.763,173.17 67.763,177.12 67.763,181.06 C67.763,183.54 67.968,185.89 68.986,188.21 C70.562,191.79 73.758,194.46 77.471,195.61 C81.272,196.79 85.639,196.07 88.906,193.82 C92.34,191.47 94.363,187.82 94.806,183.71 C94.98,182.09 94.859,180.39 94.859,178.76 C94.859,176.29 94.859,173.82 94.859,171.35 C94.859,170.65 94.859,169.94 94.859,169.23 C94.859,167.94 93.779,166.86 92.484,166.86 C85.104,166.86 77.725,166.86 70.345,166.86 C70.275,166.86 70.207,166.86 70.137,166.86 C67.075,166.86 67.075,171.61 70.137,171.61 C77.517,171.61 84.897,171.61 92.277,171.61 C92.347,171.61 92.415,171.61 92.484,171.61 C91.693,170.82 90.9,170.03 90.11,169.23 C90.11,173.17 90.11,177.12 90.11,181.06 C90.11,181.57 90.11,182.09 90.11,182.6 C90.11,182.9 90.094,183.2 90.075,183.5 C90.07,183.56 89.978,184.28 90.058,183.73 C90.026,183.94 89.983,184.15 89.939,184.36 C89.852,184.78 89.731,185.19 89.597,185.59 C89.53,185.79 89.453,185.99 89.376,186.18 C89.57,185.69 89.22,186.48 89.177,186.57 C88.988,186.94 88.769,187.29 88.54,187.64 C88.425,187.81 88.302,187.98 88.179,188.14 C88.49,187.72 88.068,188.26 88.027,188.3 C87.757,188.62 87.461,188.91 87.159,189.19 C87.007,189.33 86.848,189.46 86.688,189.59 C87.087,189.26 86.416,189.79 86.338,189.84 C85.995,190.08 85.633,190.28 85.266,190.48 C85.081,190.58 84.891,190.66 84.702,190.75 C85.183,190.53 84.552,190.8 84.491,190.83 C84.093,190.98 83.684,191.09 83.272,191.19 C83.063,191.25 82.852,191.28 82.642,191.32 C82.361,191.37 82.357,191.37 82.63,191.33 C82.485,191.35 82.34,191.36 82.195,191.38 C81.754,191.41 81.31,191.41 80.867,191.4 C80.647,191.39 80.429,191.38 80.21,191.36 C79.495,191.29 80.683,191.44 79.98,191.32 C79.559,191.25 79.145,191.15 78.734,191.03 C78.531,190.97 78.332,190.9 78.131,190.83 C78,190.78 77.869,190.73 77.739,190.68 C77.984,190.78 77.981,190.77 77.73,190.66 C77.352,190.49 76.99,190.28 76.634,190.07 C76.456,189.96 76.285,189.84 76.113,189.72 C76.062,189.69 75.524,189.27 75.934,189.59 C75.61,189.34 75.31,189.05 75.017,188.76 C74.871,188.61 74.733,188.46 74.595,188.3 C74.503,188.2 74.415,188.1 74.328,187.99 C74.485,188.2 74.482,188.2 74.32,187.98 C74.073,187.64 73.854,187.29 73.645,186.93 C73.54,186.75 73.446,186.57 73.351,186.38 C73.322,186.32 73.041,185.69 73.246,186.18 C73.083,185.79 72.955,185.39 72.836,184.99 C72.778,184.78 72.73,184.57 72.683,184.36 C72.661,184.27 72.521,183.39 72.59,183.93 C72.5,183.22 72.513,182.51 72.513,181.8 C72.513,177.66 72.513,173.53 72.513,169.39 C72.513,169.34 72.513,169.28 72.513,169.23 C72.513,166.17 67.763,166.17 67.763,169.23" id="Fill-489" fill="#4C5159"></path>
            <path d="M44.411,93.98 C44.411,104.23 38.566,112.54 31.354,112.54 C24.142,112.54 18.297,104.23 18.297,93.98 C18.297,83.72 24.142,75.41 31.354,75.41 C38.566,75.41 44.411,83.72 44.411,93.98" id="Fill-490" fill="#F4E0CD"></path>
            <path d="M42.035,93.98 C42.018,97.76 41.203,101.4 39.385,104.58 C39.175,104.94 38.947,105.3 38.712,105.65 C38.598,105.82 38.477,105.99 38.356,106.16 C37.957,106.71 38.649,105.8 38.229,106.32 C37.696,106.99 37.098,107.6 36.458,108.17 C36.316,108.29 36.167,108.41 36.018,108.53 C36.467,108.17 35.974,108.55 35.897,108.61 C35.596,108.82 35.281,109.01 34.96,109.2 C34.645,109.38 34.318,109.53 33.986,109.68 C34.545,109.43 33.989,109.67 33.885,109.71 C33.662,109.79 33.433,109.85 33.203,109.92 C32.86,110.02 32.508,110.09 32.157,110.14 C32.799,110.04 32.201,110.13 32.077,110.14 C31.896,110.16 31.717,110.16 31.535,110.17 C31.174,110.18 30.813,110.16 30.453,110.13 C29.839,110.07 30.98,110.21 30.375,110.11 C30.139,110.07 29.908,110.02 29.677,109.96 C29.329,109.88 28.99,109.77 28.654,109.64 C28.08,109.44 29.117,109.86 28.557,109.61 C28.392,109.53 28.23,109.45 28.068,109.37 C27.742,109.2 27.427,109.01 27.119,108.81 C26.962,108.71 26.811,108.61 26.658,108.5 C26.446,108.34 26.457,108.35 26.69,108.53 C26.59,108.45 26.493,108.37 26.395,108.29 C25.793,107.79 25.248,107.22 24.736,106.63 C24.604,106.48 24.479,106.32 24.353,106.17 C24.687,106.58 24.271,106.05 24.232,105.99 C23.946,105.59 23.684,105.18 23.432,104.76 C22.98,104.01 22.596,103.23 22.247,102.42 C22.443,102.88 22.161,102.19 22.148,102.15 C22.067,101.94 21.991,101.73 21.915,101.51 C21.735,101 21.581,100.48 21.439,99.95 C21.185,99.02 21.001,98.07 20.858,97.12 C20.926,97.57 20.819,96.77 20.819,96.76 C20.792,96.51 20.771,96.26 20.75,96.02 C20.702,95.42 20.683,94.83 20.674,94.23 C20.659,93.22 20.718,92.2 20.819,91.19 C20.819,91.18 20.922,90.38 20.858,90.83 C20.892,90.59 20.933,90.35 20.974,90.11 C21.068,89.55 21.189,89.01 21.321,88.46 C21.54,87.55 21.823,86.67 22.148,85.8 C22.161,85.77 22.438,85.07 22.247,85.53 C22.334,85.32 22.427,85.12 22.52,84.92 C22.732,84.46 22.97,84.01 23.217,83.56 C23.423,83.19 23.648,82.83 23.88,82.47 C23.993,82.3 24.112,82.13 24.232,81.96 C24.27,81.91 24.683,81.36 24.353,81.78 C24.879,81.11 25.472,80.49 26.106,79.91 C26.248,79.79 26.395,79.66 26.542,79.54 C27.031,79.13 26.149,79.83 26.658,79.45 C26.958,79.23 27.271,79.04 27.589,78.85 C27.902,78.66 28.228,78.5 28.557,78.34 C29.112,78.08 28.084,78.53 28.654,78.31 C28.876,78.22 29.105,78.15 29.333,78.08 C29.674,77.98 30.024,77.9 30.375,77.84 C30.978,77.72 29.841,77.89 30.453,77.82 C30.631,77.81 30.812,77.8 30.992,77.79 C31.353,77.77 31.716,77.79 32.077,77.81 C32.199,77.82 32.804,77.9 32.157,77.81 C32.393,77.84 32.625,77.89 32.858,77.94 C33.207,78.02 33.548,78.13 33.885,78.25 C33.988,78.28 34.552,78.51 33.986,78.27 C34.153,78.34 34.315,78.42 34.478,78.5 C34.807,78.66 35.123,78.84 35.433,79.04 C35.592,79.13 35.744,79.24 35.897,79.34 C36,79.42 36.101,79.49 36.201,79.56 C35.969,79.38 35.958,79.37 36.167,79.54 C36.773,80.03 37.324,80.58 37.841,81.17 C37.974,81.32 38.102,81.47 38.229,81.63 C38.656,82.15 37.95,81.25 38.356,81.79 C38.645,82.18 38.911,82.59 39.167,83.01 C39.664,83.81 40.085,84.66 40.461,85.53 C40.265,85.08 40.548,85.76 40.56,85.8 C40.641,86.01 40.717,86.22 40.793,86.44 C40.974,86.95 41.127,87.47 41.27,88 C41.396,88.46 41.501,88.93 41.599,89.39 C41.649,89.63 41.692,89.87 41.734,90.11 C41.75,90.19 41.882,91.09 41.832,90.69 C41.974,91.78 42.03,92.88 42.035,93.98 C42.05,97.04 46.801,97.04 46.786,93.98 C46.751,86.56 43.765,77.61 36.549,74.24 C33.165,72.66 29.547,72.73 26.16,74.24 C22.929,75.68 20.426,78.67 18.806,81.73 C14.877,89.17 14.977,98.77 18.806,106.22 C20.404,109.33 22.955,112.21 26.16,113.71 C29.543,115.29 33.162,115.22 36.549,113.71 C39.779,112.27 42.282,109.29 43.902,106.22 C45.882,102.47 46.766,98.2 46.786,93.98 C46.801,90.91 42.05,90.91 42.035,93.98" id="Fill-491" fill="#4C5159"></path>
            <path d="M32.587,62.891 L32.587,122.14 C32.587,149.05 54.402,170.86 81.311,170.86 C108.22,170.86 130.035,149.05 130.035,122.14 L130.035,53.706 C130.035,53.706 110.663,42.939 81.311,52.598 C81.311,52.598 53.925,43.255 32.514,54.815 L32.587,62.891" id="Fill-492" fill="#F4E0CD"></path>
            <path d="M30.212,62.891 C30.212,68.61 30.212,74.34 30.212,80.06 C30.212,90.11 30.212,100.16 30.212,110.21 C30.212,117.07 29.846,124.08 30.966,130.87 C33.319,145.13 42.133,157.89 54.332,165.54 C66.894,173.43 82.792,175.33 96.899,170.82 C110.584,166.44 122.102,156.16 127.944,143.03 C130.869,136.46 132.41,129.33 132.41,122.13 C132.41,120.56 132.41,119 132.41,117.43 C132.41,108.67 132.41,99.92 132.41,91.16 C132.41,81.58 132.41,72.01 132.41,62.428 C132.41,59.522 132.41,56.613 132.41,53.706 C132.41,52.884 131.96,52.059 131.234,51.656 C129.151,50.5 126.82,49.693 124.557,48.982 C118.894,47.203 112.913,46.361 106.988,46.217 C98.079,46 89.133,47.542 80.679,50.309 C81.1,50.309 81.521,50.309 81.942,50.309 C79.076,49.332 76.07,48.686 73.098,48.132 C66.201,46.847 59.123,46.311 52.122,46.894 C44.871,47.497 37.75,49.315 31.316,52.764 C30.591,53.152 30.132,54.005 30.139,54.815 C30.163,57.507 30.188,60.198 30.212,62.891 C30.223,64.18 31.283,65.27 32.587,65.27 C33.873,65.27 34.975,64.19 34.962,62.891 C34.938,60.198 34.914,57.507 34.89,54.815 C34.497,55.499 34.105,56.182 33.714,56.866 C40.706,53.118 48.632,51.578 56.514,51.42 C60.056,51.348 63.602,51.562 67.12,51.981 C67.312,52.002 67.503,52.027 67.695,52.051 C67.799,52.065 68.443,52.151 67.817,52.067 C68.185,52.115 68.553,52.169 68.919,52.224 C69.674,52.336 70.426,52.461 71.18,52.593 C72.447,52.817 73.709,53.072 74.966,53.354 C76.606,53.721 78.237,54.137 79.847,54.625 C80.12,54.708 80.393,54.791 80.663,54.883 C81.63,55.207 82.787,54.611 83.709,54.327 C84.947,53.946 86.196,53.602 87.451,53.277 C95.308,51.252 103.139,50.492 111.381,51.212 C112.033,51.269 112.681,51.338 113.33,51.414 C113.476,51.432 114.479,51.564 113.822,51.473 C114.185,51.523 114.548,51.577 114.91,51.633 C116.144,51.822 117.371,52.055 118.592,52.32 C120.568,52.75 122.521,53.288 124.437,53.936 C125.149,54.176 125.854,54.435 126.553,54.711 C126.688,54.765 126.822,54.818 126.956,54.872 C127.033,54.903 127.108,54.936 127.184,54.967 C127.528,55.11 126.567,54.705 126.903,54.848 C127.133,54.945 127.363,55.047 127.591,55.151 C128.011,55.34 128.433,55.533 128.836,55.758 C128.443,55.074 128.052,54.391 127.66,53.706 C127.66,58.869 127.66,64.03 127.66,69.2 C127.66,79.35 127.66,89.5 127.66,99.65 C127.66,106.78 127.66,113.9 127.66,121.03 C127.66,121.47 127.661,121.92 127.659,122.36 C127.656,124.2 127.537,126.04 127.326,127.87 C127.301,128.09 127.273,128.3 127.246,128.52 C127.317,127.97 127.219,128.69 127.211,128.75 C127.147,129.17 127.076,129.6 127.002,130.03 C126.842,130.95 126.649,131.86 126.436,132.77 C126.032,134.5 125.521,136.2 124.929,137.87 C124.648,138.67 124.339,139.45 124.018,140.23 C124.221,139.74 123.951,140.38 123.927,140.44 C123.843,140.63 123.756,140.82 123.67,141.01 C123.469,141.46 123.259,141.9 123.044,142.34 C122.284,143.91 121.427,145.42 120.502,146.9 C120.06,147.6 119.594,148.29 119.116,148.97 C118.879,149.31 118.633,149.65 118.385,149.98 C118.262,150.15 118.137,150.32 118.011,150.48 C118.327,150.07 117.799,150.75 117.744,150.82 C115.595,153.53 113.143,155.99 110.474,158.18 C110.154,158.45 109.829,158.7 109.5,158.96 C109.916,158.63 109.369,159.05 109.322,159.09 C109.156,159.21 108.988,159.34 108.821,159.46 C108.094,159.99 107.35,160.5 106.595,160.99 C105.138,161.94 103.626,162.81 102.075,163.59 C101.327,163.97 100.568,164.33 99.802,164.67 C99.609,164.76 99.417,164.84 99.223,164.92 C99.712,164.71 99.069,164.98 99.014,165.01 C98.557,165.19 98.099,165.37 97.637,165.54 C95.978,166.16 94.282,166.68 92.565,167.11 C91.732,167.32 90.893,167.51 90.05,167.67 C89.627,167.76 89.201,167.83 88.776,167.9 C88.561,167.94 88.347,167.97 88.133,168.01 C88.041,168.02 87.146,168.15 87.688,168.07 C85.871,168.32 84.038,168.44 82.204,168.48 C80.357,168.52 78.509,168.44 76.67,168.27 C76.235,168.23 75.799,168.18 75.366,168.13 C75.304,168.12 74.587,168.03 75.133,168.1 C74.918,168.07 74.704,168.04 74.489,168.01 C73.563,167.87 72.644,167.69 71.729,167.5 C69.987,167.13 68.271,166.66 66.583,166.1 C65.779,165.84 64.985,165.55 64.196,165.24 C64,165.16 63.805,165.09 63.608,165.01 C63.554,164.98 62.908,164.71 63.398,164.92 C62.948,164.73 62.5,164.53 62.055,164.33 C58.898,162.87 55.91,161.06 53.135,158.97 C52.583,158.55 53.5,159.25 52.958,158.83 C52.794,158.7 52.632,158.57 52.47,158.44 C52.146,158.18 51.827,157.92 51.51,157.65 C50.824,157.07 50.157,156.47 49.502,155.85 C48.246,154.67 47.06,153.41 45.935,152.1 C45.665,151.78 45.4,151.46 45.138,151.14 C45.008,150.98 44.878,150.82 44.75,150.66 C44.713,150.61 44.292,150.06 44.611,150.48 C44.063,149.77 43.54,149.03 43.032,148.29 C42.053,146.86 41.16,145.36 40.339,143.83 C39.943,143.09 39.572,142.34 39.215,141.59 C39.036,141.21 38.865,140.82 38.695,140.44 C38.671,140.38 38.398,139.74 38.604,140.23 C38.496,139.97 38.392,139.71 38.287,139.45 C37.633,137.81 37.08,136.13 36.608,134.43 C36.131,132.7 35.761,130.94 35.477,129.18 C35.443,128.96 35.412,128.75 35.379,128.53 C35.276,127.82 35.44,129.02 35.349,128.3 C35.292,127.87 35.246,127.43 35.202,127 C35.105,126.05 35.043,125.1 35.002,124.14 C34.961,123.18 34.962,122.21 34.962,121.24 C34.962,113.76 34.962,106.28 34.962,98.8 C34.962,89.18 34.962,79.56 34.962,69.95 C34.962,67.6 34.962,65.24 34.962,62.891 C34.962,59.828 30.212,59.828 30.212,62.891" id="Fill-493" fill="#4C5159"></path>
            <path d="M24.323,94.64 C24.323,94.64 23.5,97.54 25.125,98.97 C30.245,103.48 30.083,110.08 30.083,110.08 L30.083,98.32 L28.42,96.46 L24.323,94.64" id="Fill-494" fill="#E7CEBB"></path>
            <path d="M33.684,104.23 C33.827,102.6 33.496,100.84 32.934,99.32 C31.681,95.95 28.909,93.69 25.44,92.83 C23.954,92.46 23.323,94.75 24.809,95.12 C27.646,95.82 29.855,97.64 30.776,100.33 C31.252,101.72 31.437,102.75 31.308,104.23 C31.175,105.75 33.55,105.74 33.684,104.23" id="Fill-495" fill="#4C5159"></path>
            <path d="M45.314,79.42 C45.507,79.31 45.705,79.21 45.903,79.12 C46.148,78.99 46.398,78.87 46.648,78.76 C46.805,78.68 46.964,78.61 47.123,78.54 C47.29,78.47 47.963,78.18 47.208,78.5 C49.172,77.68 51.218,77.04 53.3,76.59 C53.883,76.47 54.47,76.36 55.06,76.27 C55.195,76.25 55.331,76.23 55.464,76.21 C54.885,76.29 55.575,76.2 55.655,76.19 C56.003,76.15 56.354,76.13 56.705,76.1 C58.164,75.99 59.631,76.02 61.087,76.18 C61.373,76.21 61.386,76.21 61.13,76.18 C61.356,76.21 61.582,76.25 61.807,76.29 C62.186,76.35 62.562,76.43 62.939,76.52 C63.707,76.69 64.462,76.93 65.204,77.19 C65.355,77.25 65.505,77.3 65.655,77.36 C66.392,77.65 65.26,77.18 65.987,77.51 C66.367,77.67 66.737,77.86 67.104,78.05 C67.869,78.46 68.596,78.93 69.299,79.42 C70.357,80.17 71.938,79.61 72.549,78.57 C73.248,77.38 72.751,76.07 71.697,75.32 C66.111,71.36 59.199,70.64 52.612,71.89 C49.297,72.52 45.87,73.66 42.916,75.32 C41.791,75.96 41.418,77.47 42.065,78.57 C42.726,79.7 44.186,80.06 45.314,79.42" id="Fill-496" fill="#E0C267"></path>
            <path d="M115.121,75.32 C112.215,73.69 108.873,72.59 105.619,71.93 C99.001,70.59 91.956,71.34 86.341,75.32 C85.288,76.07 84.791,77.38 85.489,78.57 C86.1,79.61 87.68,80.17 88.739,79.42 C89.375,78.97 90.03,78.56 90.712,78.18 C91.075,77.97 91.449,77.79 91.827,77.61 C91.975,77.54 92.125,77.47 92.275,77.4 C91.885,77.58 92.614,77.27 92.609,77.28 C93.347,76.99 94.106,76.77 94.874,76.57 C95.248,76.48 95.626,76.4 96.005,76.33 C96.156,76.3 96.306,76.27 96.458,76.25 C96.501,76.24 97.247,76.14 96.727,76.2 C98.112,76.03 99.514,76.01 100.907,76.07 C101.261,76.09 101.613,76.12 101.966,76.15 C102.105,76.17 102.244,76.18 102.383,76.19 C102.462,76.2 103.154,76.29 102.573,76.21 C103.235,76.3 103.894,76.42 104.548,76.55 C106.658,76.98 108.722,77.63 110.711,78.45 C110.943,78.55 110.87,78.52 110.49,78.36 C110.598,78.4 110.705,78.45 110.813,78.5 C110.976,78.57 111.139,78.64 111.3,78.72 C111.56,78.84 111.818,78.96 112.073,79.09 C112.292,79.19 112.511,79.3 112.723,79.42 C113.852,80.06 115.312,79.7 115.974,78.57 C116.62,77.47 116.248,75.96 115.121,75.32" id="Fill-497" fill="#E0C267"></path>
            <path d="M62.207,93.83 C62.207,98.27 60.013,101.87 57.307,101.87 C54.6,101.87 52.408,98.27 52.408,93.83 C52.408,89.39 54.6,85.8 57.307,85.8 C60.013,85.8 62.207,89.39 62.207,93.83" id="Fill-498" fill="#4C5159"></path>
            <path d="M105.63,93.83 C105.63,98.27 103.437,101.87 100.731,101.87 C98.025,101.87 95.832,98.27 95.832,93.83 C95.832,89.39 98.025,85.8 100.731,85.8 C103.437,85.8 105.63,89.39 105.63,93.83" id="Fill-499" fill="#4C5159"></path>
            <path d="M73.71,118.08 C74.698,120.57 77.407,121.95 79.924,122.3 C82.164,122.62 84.37,122.32 86.22,120.95 C87.141,120.27 88.016,119.38 88.566,118.37 C89.292,117.02 87.242,115.82 86.514,117.17 C86.146,117.85 85.812,118.2 85.161,118.77 C83.838,119.95 82.176,120.16 80.472,120 C79.11,119.87 77.714,119.29 76.782,118.42 C76.621,118.27 76.474,118.1 76.332,117.93 C76.122,117.68 76.468,118.12 76.292,117.88 C76.232,117.79 76.175,117.71 76.12,117.62 C76.027,117.47 75.771,116.87 76.001,117.45 C75.761,116.85 75.216,116.44 74.539,116.62 C73.967,116.78 73.471,117.48 73.71,118.08" id="Fill-500" fill="#4C5159"></path>
            <path d="M62.796,215.07 C63.497,215.05 64.205,215.1 64.902,215.16 C65.238,215.18 65.572,215.22 65.907,215.26 C66.013,215.27 66.35,215.32 65.853,215.25 C65.948,215.27 66.042,215.28 66.136,215.3 C66.367,215.33 66.597,215.37 66.827,215.41 C67.739,215.57 68.642,215.78 69.53,216.04 C69.995,216.18 70.453,216.34 70.907,216.5 C71.141,216.59 71.371,216.68 71.602,216.78 C71.235,216.63 71.628,216.79 71.687,216.82 C71.842,216.89 71.994,216.96 72.148,217.03 C72.615,217.26 73.069,217.51 73.514,217.77 C73.741,217.9 73.961,218.05 74.18,218.19 C74.291,218.27 74.4,218.34 74.507,218.42 C74.559,218.45 75.012,218.79 74.722,218.57 C75.151,218.9 75.557,219.26 75.943,219.64 C76.141,219.84 76.33,220.04 76.514,220.25 C76.607,220.35 76.697,220.46 76.787,220.56 C76.847,220.64 76.906,220.71 76.964,220.78 C76.862,220.65 76.866,220.66 76.976,220.8 C77.327,221.27 77.635,221.77 77.917,222.28 C78.305,222.98 78.388,223.2 78.632,223.89 C79.338,225.89 79.492,227.69 79.422,229.81 C79.355,231.85 82.523,231.85 82.59,229.81 C82.692,226.7 82.171,223.59 80.723,220.81 C79.562,218.59 77.747,216.77 75.669,215.38 C72.424,213.23 68.447,212.26 64.602,211.96 C64.003,211.92 63.396,211.88 62.796,211.9 C60.758,211.96 60.752,215.13 62.796,215.07" id="Fill-501" fill="#E5E6E3"></path>
            <path d="M101.422,211.9 C98.972,211.83 96.419,212.26 94.073,212.92 C89.522,214.22 85.308,216.99 83.225,221.36 C81.968,223.99 81.533,226.91 81.628,229.81 C81.696,231.85 84.863,231.85 84.796,229.81 C84.702,226.94 85.162,224.23 86.521,221.89 C87.155,220.8 87.593,220.28 88.571,219.36 C88.769,219.17 88.974,219 89.182,218.82 C89.285,218.73 89.391,218.65 89.496,218.57 C89.211,218.79 89.565,218.52 89.602,218.5 C90.063,218.16 90.548,217.86 91.042,217.57 C91.488,217.32 91.949,217.09 92.417,216.87 C92.531,216.82 92.648,216.77 92.764,216.72 C92.401,216.88 92.79,216.71 92.849,216.68 C93.115,216.58 93.387,216.48 93.658,216.38 C94.571,216.05 95.508,215.8 96.455,215.59 C96.865,215.5 97.278,215.43 97.692,215.36 C97.885,215.32 98.079,215.3 98.272,215.27 C98.617,215.22 97.882,215.32 98.22,215.27 C98.338,215.26 98.458,215.24 98.577,215.23 C99.181,215.16 99.789,215.11 100.396,215.09 C100.739,215.07 101.082,215.06 101.422,215.07 C103.467,215.13 103.46,211.96 101.422,211.9" id="Fill-502" fill="#E5E6E3"></path>
            <path d="M99.614,139.12 C81.197,160.44 64.603,139.12 64.603,139.12 L99.614,139.12" id="Fill-503" fill="#F3F4F1"></path>
            <path d="M98.495,138 C95.705,141.21 92.493,144.04 88.564,145.75 C87.256,146.32 85.535,146.75 84.308,146.9 C83.602,146.98 82.889,147.01 82.179,147.01 C81.832,147.01 81.487,146.99 81.143,146.97 C80.972,146.96 80.803,146.94 80.633,146.93 C80.575,146.92 79.978,146.84 80.217,146.88 C77.494,146.49 75.335,145.6 73.073,144.29 C72.064,143.7 71.102,143.04 70.177,142.33 C70.453,142.54 69.886,142.1 69.795,142.02 C69.606,141.87 69.419,141.71 69.233,141.55 C68.863,141.24 68.501,140.91 68.146,140.58 C67.29,139.78 66.446,138.93 65.723,138 C65.349,138.9 64.976,139.8 64.603,140.71 C72.207,140.71 79.809,140.71 87.412,140.71 C91.479,140.71 95.547,140.71 99.614,140.71 C101.658,140.71 101.658,137.54 99.614,137.54 C92.011,137.54 84.409,137.54 76.807,137.54 C72.738,137.54 68.671,137.54 64.603,137.54 C63.095,137.54 62.678,139.21 63.484,140.24 C65.242,142.5 67.554,144.41 69.895,146.02 C74.624,149.27 80.309,150.88 86.008,149.81 C91.915,148.71 96.89,144.66 100.734,140.24 C101.3,139.59 101.376,138.64 100.734,138 C100.156,137.42 99.062,137.35 98.495,138" id="Fill-504" fill="#4C5159"></path>
            <path d="M72.556,172.4 C72.556,172.4 81.311,173.9 90.066,172.4 L90.066,176.73 C90.066,176.73 87.162,178.1 81.628,178.1 C76.239,178.1 72.556,176.73 72.556,176.73 L72.556,172.4" id="Fill-505" fill="#E7CEBB"></path>
            <path d="M123.512,53.627 L123.512,124.17 C123.512,124.17 120.925,161.76 79.951,168.51 C79.951,168.51 92.438,168.89 104.569,162.19 C115.476,156.16 127.076,142.6 127.592,124.17 L127.592,55.211 L123.512,53.627" id="Fill-506" fill="#E7CEBB"></path>
            <path d="M124.328,59.777 C124.328,59.777 107.964,50.697 82.311,59.037 C82.311,59.037 60.142,49.959 35.016,58.933 L35.016,55.977 C35.016,55.977 54.335,46.683 81.889,54.971 C81.889,54.971 104.797,46.422 124.328,53.627 L124.328,59.777" id="Fill-507" fill="#E7CEBB"></path>
            <path d="M130.741,195.78 L95.191,177.13 C95.191,177.13 121.473,208.8 120.844,212.93 C119.577,221.25 121.408,230.33 121.408,230.33 C121.408,230.33 134.305,228.09 137.59,225.18 C137.59,225.18 137.59,204.06 130.741,195.78" id="Fill-508" fill="#F4E0CD"></path>
            <path d="M131.94,193.73 C125.571,190.39 119.205,187.05 112.836,183.71 C107.354,180.83 101.872,177.96 96.389,175.08 C95.438,174.58 94.292,174.67 93.511,175.45 C92.532,176.43 92.685,177.82 93.511,178.81 C94.953,180.55 96.377,182.3 97.798,184.06 C99.257,185.86 100.708,187.68 102.148,189.5 C102.963,190.53 103.774,191.56 104.581,192.59 C104.979,193.1 105.377,193.61 105.775,194.13 C105.849,194.22 106.197,194.67 105.803,194.16 C105.902,194.29 106.002,194.42 106.102,194.55 C106.336,194.85 106.568,195.16 106.801,195.46 C109.862,199.46 112.897,203.49 115.652,207.7 C116.583,209.13 117.503,210.58 118.227,212.12 C118.323,212.33 118.57,212.92 118.194,212.02 C118.244,212.14 118.291,212.26 118.336,212.39 C118.417,212.61 118.484,212.83 118.529,213.06 C118.606,213.46 118.457,212.27 118.479,212.72 C118.486,212.87 118.423,213.18 118.511,212.58 C118.313,213.93 118.173,215.28 118.094,216.63 C117.817,221.38 118.184,226.3 119.118,230.96 C119.389,232.32 120.838,232.83 122.039,232.62 C126.463,231.85 130.989,230.86 135.159,229.17 C136.549,228.61 137.839,228 139.02,227.07 C139.798,226.45 139.975,225.6 139.961,224.69 C139.935,222.99 139.848,221.29 139.727,219.59 C139.415,215.23 138.857,210.85 137.88,206.58 C136.867,202.15 135.33,197.66 132.42,194.1 C131.6,193.1 129.908,193.26 129.061,194.1 C128.078,195.09 128.243,196.46 129.061,197.46 C129.146,197.57 129.475,198 129.071,197.47 C129.167,197.59 129.258,197.72 129.35,197.85 C129.536,198.11 129.709,198.38 129.88,198.65 C130.266,199.27 130.604,199.91 130.923,200.56 C131.075,200.88 131.218,201.2 131.357,201.52 C131.107,200.94 131.351,201.5 131.393,201.61 C131.46,201.77 131.524,201.94 131.59,202.11 C131.877,202.85 132.131,203.61 132.369,204.37 C133.309,207.37 133.907,210.48 134.356,213.59 C134.382,213.77 134.407,213.95 134.432,214.13 C134.343,213.48 134.427,214.1 134.441,214.21 C134.486,214.56 134.529,214.92 134.57,215.27 C134.655,215.99 134.73,216.72 134.798,217.45 C134.913,218.66 135.002,219.88 135.073,221.1 C135.15,222.43 135.206,223.76 135.214,225.09 C135.215,225.12 135.215,225.15 135.215,225.18 C135.447,224.62 135.68,224.06 135.911,223.5 C135.78,223.62 135.447,223.86 136.051,223.41 C135.923,223.5 135.789,223.59 135.656,223.68 C135.356,223.87 135.04,224.04 134.721,224.2 C134.546,224.29 134.37,224.38 134.19,224.46 C134.062,224.52 133.395,224.8 134.044,224.53 C133.636,224.7 133.22,224.86 132.804,225.01 C131.059,225.65 129.263,226.14 127.464,226.6 C125.255,227.16 123.021,227.65 120.776,228.04 C121.75,228.59 122.725,229.14 123.699,229.7 C123.568,229.04 123.466,228.38 123.368,227.72 C123.345,227.57 123.323,227.41 123.302,227.26 C123.219,226.67 123.374,227.81 123.294,227.2 C123.244,226.81 123.199,226.43 123.156,226.04 C123.046,225.06 122.963,224.08 122.897,223.09 C122.749,220.85 122.729,218.6 122.861,216.35 C122.957,214.71 123.372,213.43 123.117,211.84 C122.903,210.5 122.086,209.17 121.418,208 C120.409,206.24 119.272,204.55 118.118,202.88 C112.404,194.6 106.072,186.74 99.729,178.94 C98.78,177.77 97.83,176.61 96.87,175.45 C95.91,176.7 94.951,177.94 93.992,179.18 C100.359,182.52 106.727,185.87 113.095,189.21 C118.578,192.08 124.06,194.96 129.542,197.83 C130.688,198.44 132.116,198.14 132.792,196.98 C133.424,195.9 133.085,194.33 131.94,193.73" id="Fill-509" fill="#4C5159"></path>
            <path d="M32.471,195.27 L68.021,176.62 C68.021,176.62 41.739,208.28 42.368,212.42 C43.636,220.73 41.803,229.81 41.803,229.81 C41.803,229.81 28.907,227.57 25.622,224.67 C25.622,224.67 25.622,203.55 32.471,195.27" id="Fill-510" fill="#F4E0CD"></path>
            <path d="M33.669,197.32 C40.038,193.98 46.405,190.63 52.773,187.3 C58.256,184.42 63.738,181.54 69.221,178.67 C68.261,177.42 67.302,176.18 66.342,174.94 C61.619,180.63 57.012,186.42 52.508,192.29 C49.427,196.3 46.376,200.35 43.596,204.58 C42.644,206.03 41.704,207.5 40.949,209.07 C40.637,209.72 40.326,210.39 40.144,211.09 C39.829,212.31 40.125,213.26 40.239,214.41 C40.586,217.89 40.466,221.42 40.123,224.89 C40.058,225.55 39.98,226.21 39.895,226.86 C39.985,226.16 39.866,227.05 39.843,227.21 C39.811,227.43 39.775,227.66 39.738,227.89 C39.671,228.32 39.599,228.75 39.513,229.18 C40.487,228.63 41.461,228.07 42.436,227.52 C40.19,227.13 37.958,226.64 35.749,226.08 C33.947,225.63 32.157,225.12 30.408,224.49 C30.041,224.36 29.678,224.22 29.316,224.08 C29.076,223.98 29.118,223.99 29.442,224.13 C29.348,224.09 29.254,224.05 29.16,224.01 C28.978,223.92 28.798,223.84 28.619,223.75 C28.292,223.59 27.974,223.42 27.663,223.23 C27.523,223.14 27.389,223.05 27.255,222.96 C26.913,222.72 27.746,223.37 27.301,222.99 C27.533,223.55 27.765,224.11 27.997,224.67 C27.999,221.12 28.293,217.56 28.725,214.05 C28.748,213.87 28.771,213.7 28.793,213.52 C28.872,212.9 28.72,214.05 28.805,213.43 C28.855,213.07 28.909,212.71 28.963,212.34 C29.086,211.54 29.223,210.74 29.37,209.94 C29.659,208.38 30.006,206.83 30.423,205.3 C30.825,203.81 31.307,202.35 31.887,200.92 C32.116,200.36 31.683,201.39 31.924,200.84 C31.995,200.68 32.068,200.52 32.141,200.36 C32.285,200.05 32.438,199.74 32.594,199.44 C32.921,198.8 33.287,198.19 33.683,197.59 C33.799,197.42 33.922,197.25 34.046,197.08 C34.201,196.87 34.17,196.91 33.958,197.19 C34.021,197.1 34.085,197.03 34.151,196.95 C34.969,195.94 35.134,194.57 34.151,193.59 C33.304,192.74 31.613,192.58 30.792,193.59 C26.812,198.46 25.318,205 24.383,211.08 C23.706,215.48 23.3,219.94 23.248,224.4 C23.226,226.24 24.876,227.2 26.353,227.92 C28.331,228.88 30.448,229.56 32.563,230.15 C35.391,230.95 38.276,231.6 41.172,232.1 C42.374,232.31 43.823,231.8 44.094,230.44 C44.58,228.02 44.848,225.53 45.031,223.06 C45.196,220.85 45.234,218.62 45.133,216.4 C45.081,215.26 44.974,214.12 44.826,212.98 C44.855,213.22 44.599,211.33 44.74,212.38 C44.734,212.35 44.734,212.31 44.732,212.28 C44.716,211.77 44.656,212.71 44.675,212.59 C44.708,212.38 44.77,212.18 44.836,211.98 C44.875,211.87 44.92,211.75 44.967,211.63 C45.123,211.23 44.663,212.31 44.953,211.68 C45.262,211 45.624,210.35 45.997,209.71 C47.028,207.93 48.184,206.22 49.356,204.53 C50.812,202.43 52.32,200.37 53.849,198.33 C54.664,197.24 55.485,196.15 56.311,195.07 C56.511,194.81 56.71,194.55 56.91,194.29 C57.014,194.16 57.656,193.33 57.237,193.87 C57.667,193.31 58.1,192.76 58.532,192.2 C61.347,188.59 64.208,185.01 67.1,181.46 C67.963,180.4 68.828,179.35 69.701,178.29 C70.39,177.46 70.649,176.4 70.073,175.42 C69.396,174.26 67.97,173.96 66.823,174.56 C60.455,177.9 54.087,181.25 47.719,184.59 C42.237,187.46 36.754,190.34 31.271,193.22 C30.127,193.82 29.788,195.39 30.42,196.46 C31.096,197.62 32.523,197.92 33.669,197.32" id="Fill-511" fill="#4C5159"></path>
        </g>
    </g>
</svg>