<?xml version="1.0" encoding="UTF-8"?>
<svg width="157px" height="238px" viewBox="0 0 157 238" version="1.1" xmlns="http://www.w3.org/2000/svg" xmlns:xlink="http://www.w3.org/1999/xlink">
    <!-- Generator: Sketch 48.2 (47327) - http://www.bohemiancoding.com/sketch -->
    <title>female1</title>
    <desc>Created with Sketch.</desc>
    <defs></defs>
    <g id="Page-1" stroke="none" stroke-width="1" fill="none" fill-rule="evenodd">
        <g id="female1">
            <path d="M115.157,95.98 C115.157,106.23 121.003,114.54 128.214,114.54 C135.425,114.54 141.271,106.23 141.271,95.98 C141.271,85.72 135.425,77.41 128.214,77.41 C121.003,77.41 115.157,85.72 115.157,95.98" id="Fill-454" fill="#F4E0CD"></path>
            <path d="M151.085,114.54 C168.41,65.45 141.271,0.441 78.024,0.441 C16.549,0.441 -12.362,65.45 4.962,114.54 C22.366,163.86 3.379,189.83 3.379,189.83 C3.379,189.83 17.721,187.16 23.377,177.25 C23.377,177.25 20.377,184.77 31.356,197.43 C31.356,197.43 63.403,201.14 78.024,196.35 C92.645,201.14 124.693,197.43 124.693,197.43 C135.672,184.77 132.671,177.25 132.671,177.25 C138.327,187.16 152.669,189.83 152.669,189.83 C152.669,189.83 133.682,163.86 151.085,114.54" id="Fill-452" fill="#4C5159"></path>
            <path d="M112.782,95.98 C112.818,103.39 115.803,112.34 123.02,115.71 C126.403,117.29 130.021,117.22 133.409,115.71 C136.639,114.27 139.143,111.29 140.762,108.22 C144.692,100.78 144.591,91.18 140.762,83.73 C139.164,80.62 136.614,77.74 133.409,76.24 C130.024,74.66 126.407,74.73 123.02,76.24 C119.789,77.68 117.286,80.67 115.666,83.73 C113.686,87.48 112.802,91.76 112.782,95.98 C112.768,99.04 117.518,99.04 117.533,95.98 C117.551,92.19 118.365,88.55 120.183,85.37 C120.394,85.01 120.622,84.65 120.855,84.3 C120.971,84.13 121.092,83.96 121.213,83.79 C121.611,83.24 120.918,84.15 121.339,83.63 C121.872,82.96 122.47,82.35 123.11,81.79 C123.252,81.66 123.401,81.54 123.55,81.42 C123.102,81.78 123.595,81.4 123.67,81.34 C123.972,81.13 124.288,80.94 124.607,80.76 C124.923,80.57 125.25,80.42 125.582,80.27 C125.022,80.52 125.579,80.28 125.683,80.25 C125.907,80.16 126.135,80.1 126.365,80.03 C126.708,79.93 127.06,79.87 127.411,79.81 C126.769,79.91 127.367,79.82 127.491,79.81 C127.671,79.79 127.852,79.79 128.033,79.78 C128.394,79.77 128.755,79.79 129.115,79.82 C129.729,79.88 128.588,79.74 129.193,79.84 C129.429,79.88 129.66,79.93 129.891,79.99 C130.239,80.07 130.578,80.18 130.914,80.31 C131.487,80.51 130.451,80.09 131.011,80.34 C131.177,80.42 131.338,80.5 131.5,80.58 C131.827,80.75 132.141,80.94 132.449,81.14 C132.605,81.24 132.758,81.34 132.91,81.45 C133.122,81.61 133.112,81.6 132.878,81.42 C132.978,81.5 133.076,81.58 133.173,81.66 C133.775,82.16 134.32,82.73 134.832,83.32 C134.963,83.47 135.09,83.63 135.215,83.78 C134.881,83.37 135.297,83.91 135.335,83.96 C135.623,84.36 135.884,84.77 136.137,85.19 C136.588,85.94 136.973,86.72 137.321,87.53 C137.125,87.08 137.407,87.76 137.419,87.8 C137.502,88.01 137.577,88.22 137.653,88.44 C137.833,88.95 137.987,89.47 138.129,90 C138.384,90.93 138.567,91.88 138.71,92.83 C138.642,92.38 138.749,93.18 138.749,93.19 C138.776,93.44 138.797,93.69 138.817,93.93 C138.866,94.53 138.886,95.12 138.895,95.72 C138.909,96.74 138.852,97.75 138.749,98.76 C138.749,98.77 138.646,99.58 138.71,99.12 C138.676,99.36 138.635,99.6 138.594,99.84 C138.5,100.4 138.38,100.95 138.248,101.49 C138.029,102.4 137.745,103.28 137.419,104.15 C137.408,104.19 137.13,104.88 137.321,104.42 C137.235,104.63 137.142,104.83 137.048,105.03 C136.836,105.5 136.598,105.95 136.352,106.39 C136.145,106.76 135.92,107.12 135.688,107.48 C135.576,107.65 135.456,107.82 135.335,107.99 C135.299,108.05 134.885,108.59 135.215,108.17 C134.689,108.84 134.097,109.46 133.462,110.04 C133.321,110.17 133.174,110.29 133.026,110.41 C132.538,110.82 133.418,110.13 132.91,110.5 C132.61,110.72 132.297,110.92 131.979,111.1 C131.667,111.29 131.341,111.45 131.011,111.61 C130.456,111.87 131.484,111.42 130.914,111.64 C130.691,111.73 130.464,111.8 130.235,111.87 C129.894,111.97 129.544,112.05 129.193,112.11 C128.59,112.23 129.727,112.06 129.115,112.13 C128.937,112.14 128.756,112.15 128.576,112.16 C128.215,112.18 127.852,112.17 127.491,112.14 C127.37,112.13 126.764,112.05 127.411,112.14 C127.175,112.11 126.942,112.06 126.71,112.01 C126.361,111.93 126.021,111.82 125.683,111.71 C125.58,111.67 125.016,111.44 125.582,111.68 C125.416,111.61 125.253,111.53 125.091,111.45 C124.762,111.29 124.445,111.11 124.135,110.91 C123.977,110.82 123.823,110.71 123.67,110.61 C123.568,110.54 123.468,110.46 123.367,110.39 C123.598,110.57 123.609,110.58 123.401,110.41 C122.794,109.92 122.244,109.37 121.727,108.78 C121.594,108.63 121.466,108.48 121.339,108.32 C120.912,107.8 121.618,108.71 121.213,108.16 C120.923,107.77 120.657,107.36 120.401,106.94 C119.904,106.14 119.483,105.29 119.107,104.42 C119.303,104.88 119.021,104.19 119.008,104.15 C118.927,103.94 118.851,103.73 118.774,103.51 C118.595,103 118.442,102.48 118.298,101.95 C118.173,101.49 118.068,101.02 117.969,100.56 C117.919,100.32 117.877,100.08 117.833,99.84 C117.819,99.76 117.686,98.87 117.737,99.26 C117.594,98.17 117.539,97.07 117.533,95.98 C117.518,92.91 112.768,92.91 112.782,95.98" id="Fill-455" fill="#4C5159"></path>
            <path d="M135.246,96.64 C135.246,96.64 136.068,99.54 134.443,100.97 C129.324,105.48 129.485,112.08 129.485,112.08 L129.485,100.32 L131.148,98.46 L135.246,96.64" id="Fill-456" fill="#E7CEBB"></path>
            <path d="M128.26,106.23 C128.13,104.74 128.331,103.73 128.792,102.33 C129.676,99.63 131.95,97.82 134.759,97.12 C136.246,96.75 135.614,94.46 134.127,94.83 C130.624,95.7 127.936,97.95 126.635,101.32 C126.056,102.83 125.743,104.61 125.884,106.23 C126.017,107.74 128.393,107.75 128.26,106.23" id="Fill-457" fill="#4C5159"></path>
            <path d="M81.132,235.61 C122.012,235.61 135.843,227.18 135.843,227.18 C135.843,227.18 136.184,204.01 129.001,198.21 C129.001,198.21 102.146,181 90.686,178.02 L68.439,178.02 C56.979,181 30.125,198.21 30.125,198.21 C22.94,204.01 23.283,227.18 23.283,227.18 C23.283,227.18 41.756,235.61 82.636,235.61 L81.132,235.61" id="Fill-458" fill="#F4D58B"></path>
            <path d="M81.132,237.99 C95.639,237.98 110.442,237.14 124.578,233.66 C127.702,232.88 130.81,231.97 133.79,230.74 C135.001,230.25 137.159,229.63 137.893,228.38 C138.489,227.36 138.218,225.64 138.19,224.52 C138.135,222.24 138.001,219.97 137.794,217.7 C137.27,211.91 136.419,205.84 133.769,200.59 C132.903,198.88 131.676,197.1 130.031,196.06 C129.026,195.42 128.016,194.78 127.003,194.16 C122.489,191.35 117.923,188.63 113.297,186.02 C107.857,182.95 102.329,180 96.564,177.58 C95.434,177.11 94.289,176.66 93.127,176.27 C92.258,175.98 91.348,175.64 90.422,175.64 C88.231,175.64 86.04,175.64 83.849,175.64 C80.659,175.64 77.469,175.64 74.278,175.64 C72.348,175.64 70.418,175.64 68.487,175.64 C67.457,175.64 66.31,176.16 65.349,176.5 C64.014,176.97 62.705,177.51 61.403,178.07 C55.757,180.49 50.341,183.46 45.005,186.49 C40.505,189.04 36.062,191.7 31.668,194.44 C30.775,194.99 29.883,195.55 28.995,196.12 C27.181,197.28 25.919,199.36 25.03,201.26 C22.539,206.61 21.75,212.68 21.259,218.5 C21.018,221.38 20.866,224.29 20.908,227.18 C20.919,227.96 21.337,228.89 22.084,229.23 C26.83,231.39 32.078,232.63 37.145,233.72 C52.046,236.94 67.421,237.98 82.636,237.99 C82.636,236.4 82.636,234.82 82.636,233.24 C82.134,233.24 81.633,233.24 81.132,233.24 C78.068,233.24 78.068,237.99 81.132,237.99 C81.633,237.99 82.134,237.99 82.636,237.99 C85.699,237.99 85.699,233.24 82.636,233.24 C73.705,233.23 64.772,232.84 55.89,231.9 C55.005,231.8 54.121,231.7 53.238,231.6 C52.81,231.54 52.383,231.49 51.956,231.44 C51.747,231.41 51.536,231.38 51.326,231.36 C51.226,231.34 50.34,231.23 50.924,231.3 C49.299,231.09 47.677,230.84 46.059,230.58 C43.3,230.13 40.552,229.61 37.823,229.01 C34.296,228.24 30.792,227.33 27.368,226.19 C26.507,225.9 25.651,225.59 24.806,225.26 C24.508,225.14 23.622,224.77 24.703,225.23 C24.629,225.2 24.555,225.16 24.482,225.13 C24.874,225.82 25.266,226.5 25.658,227.18 C25.611,223.91 25.804,220.63 26.11,217.37 C26.174,216.71 26.246,216.04 26.323,215.38 C26.364,215.04 26.406,214.7 26.45,214.36 C26.364,215.03 26.442,214.43 26.459,214.31 C26.491,214.08 26.524,213.85 26.559,213.62 C26.773,212.18 27.037,210.74 27.357,209.33 C27.666,207.96 28.039,206.6 28.498,205.28 C28.602,204.97 28.714,204.67 28.83,204.38 C28.885,204.23 28.944,204.08 29.004,203.94 C28.748,204.57 28.952,204.06 29.006,203.94 C29.263,203.35 29.554,202.78 29.873,202.23 C30.012,201.99 30.161,201.75 30.314,201.52 C30.418,201.36 30.985,200.61 30.492,201.24 C30.829,200.81 31.208,200.41 31.619,200.05 C31.974,199.74 31.052,200.44 31.428,200.2 C31.554,200.12 31.681,200.04 31.807,199.96 C33.037,199.18 34.274,198.41 35.513,197.64 C40.245,194.73 45.032,191.89 49.89,189.19 C52.656,187.65 55.449,186.16 58.283,184.75 C59.606,184.09 60.938,183.45 62.282,182.84 C62.885,182.57 63.49,182.31 64.097,182.05 C63.435,182.33 64.386,181.93 64.547,181.86 C64.875,181.73 65.202,181.6 65.533,181.48 C66.58,181.07 67.644,180.71 68.725,180.4 C69.343,180.23 67.977,180.39 68.729,180.39 C69.098,180.39 69.467,180.39 69.835,180.39 C72.234,180.39 74.632,180.39 77.031,180.39 C80.273,180.39 83.515,180.39 86.758,180.39 C87.835,180.39 88.912,180.39 89.988,180.39 C90.211,180.39 90.433,180.39 90.655,180.39 C90.162,180.39 90.042,180.3 90.517,180.43 C90.799,180.51 91.082,180.6 91.361,180.69 C92.5,181.05 93.616,181.47 94.72,181.92 C94.866,181.98 95.011,182.04 95.155,182.1 C95.671,182.32 94.656,181.89 95.176,182.11 C95.477,182.24 95.777,182.37 96.076,182.5 C96.753,182.8 97.423,183.11 98.094,183.42 C107.905,188.01 117.269,193.64 126.431,199.4 C126.816,199.64 127.2,199.88 127.583,200.13 C127.651,200.17 127.719,200.21 127.787,200.26 C127.528,200.09 127.254,199.83 127.598,200.13 C127.816,200.32 128.02,200.53 128.216,200.74 C128.343,200.88 128.904,201.6 128.421,200.97 C128.586,201.18 128.738,201.41 128.886,201.63 C129.228,202.15 129.524,202.7 129.799,203.26 C129.933,203.53 130.059,203.8 130.18,204.08 C130.4,204.58 129.972,203.57 130.18,204.08 C130.24,204.23 130.296,204.38 130.353,204.52 C130.605,205.18 130.827,205.85 131.033,206.53 C131.45,207.89 131.776,209.29 132.057,210.69 C132.195,211.37 132.316,212.06 132.431,212.75 C132.488,213.1 132.541,213.44 132.592,213.79 C132.618,213.96 132.641,214.13 132.666,214.31 C132.682,214.42 132.698,214.53 132.713,214.65 C132.667,214.3 132.662,214.26 132.697,214.53 C133.032,217.1 133.237,219.69 133.36,222.29 C133.436,223.92 133.49,225.55 133.467,227.18 C133.859,226.5 134.25,225.82 134.643,225.13 C134.421,225.27 134.187,225.38 133.955,225.5 C133.662,225.65 133.364,225.79 133.065,225.92 C132.878,226.01 132.689,226.09 132.5,226.17 C131.982,226.4 132.88,226.01 132.696,226.09 C132.562,226.15 132.427,226.2 132.292,226.26 C129.218,227.5 126.012,228.42 122.792,229.2 C120.387,229.79 117.958,230.27 115.52,230.7 C114.07,230.95 112.617,231.18 111.16,231.39 C110.967,231.42 110.773,231.44 110.58,231.47 C110.487,231.48 109.829,231.57 110.425,231.49 C110.023,231.54 109.623,231.6 109.221,231.65 C108.313,231.76 107.406,231.87 106.498,231.97 C98.079,232.9 89.598,233.23 81.132,233.24 C78.068,233.24 78.068,237.99 81.132,237.99" id="Fill-459" fill="#4C5159"></path>
            <path d="M68.39,171.23 L68.39,184.61 C68.39,190.78 73.392,195.79 79.563,195.79 C85.733,195.79 90.735,190.78 90.735,184.61 L90.735,171.23 L68.39,171.23" id="Fill-460" fill="#F4E0CD"></path>
            <path d="M66.014,171.23 C66.014,175.17 66.014,179.12 66.014,183.06 C66.014,185.54 66.219,187.89 67.237,190.21 C68.814,193.79 72.01,196.46 75.722,197.61 C79.524,198.79 83.891,198.07 87.158,195.82 C90.592,193.47 92.615,189.82 93.057,185.71 C93.232,184.09 93.111,182.39 93.111,180.76 C93.111,178.29 93.111,175.82 93.111,173.35 C93.111,172.65 93.111,171.94 93.111,171.23 C93.111,169.94 92.03,168.86 90.735,168.86 C83.355,168.86 75.975,168.86 68.596,168.86 C68.527,168.86 68.458,168.86 68.39,168.86 C65.326,168.86 65.326,173.61 68.39,173.61 C75.77,173.61 83.149,173.61 90.528,173.61 C90.598,173.61 90.667,173.61 90.735,173.61 C89.944,172.82 89.152,172.03 88.36,171.23 C88.36,175.17 88.36,179.12 88.36,183.06 C88.36,183.57 88.36,184.09 88.36,184.6 C88.36,184.9 88.346,185.2 88.327,185.5 C88.321,185.56 88.229,186.28 88.309,185.73 C88.278,185.94 88.234,186.15 88.19,186.36 C88.104,186.78 87.982,187.19 87.849,187.59 C87.782,187.79 87.705,187.99 87.627,188.18 C87.822,187.69 87.471,188.48 87.428,188.57 C87.239,188.94 87.02,189.29 86.791,189.64 C86.677,189.81 86.553,189.98 86.43,190.14 C86.742,189.72 86.319,190.26 86.279,190.3 C86.009,190.62 85.713,190.91 85.411,191.19 C85.258,191.33 85.1,191.46 84.94,191.59 C85.339,191.26 84.668,191.79 84.589,191.84 C84.246,192.08 83.884,192.28 83.518,192.48 C83.333,192.58 83.143,192.66 82.953,192.75 C83.435,192.53 82.803,192.8 82.742,192.83 C82.344,192.98 81.935,193.09 81.523,193.19 C81.314,193.25 81.103,193.28 80.893,193.32 C80.612,193.37 80.609,193.37 80.881,193.33 C80.736,193.35 80.592,193.36 80.447,193.38 C80.005,193.41 79.562,193.41 79.119,193.4 C78.899,193.39 78.68,193.38 78.461,193.36 C77.747,193.29 78.935,193.44 78.233,193.32 C77.811,193.25 77.396,193.15 76.985,193.03 C76.783,192.97 76.582,192.9 76.384,192.83 C76.251,192.78 76.12,192.73 75.99,192.68 C76.236,192.78 76.233,192.77 75.982,192.66 C75.604,192.49 75.241,192.28 74.885,192.07 C74.707,191.96 74.536,191.84 74.364,191.72 C74.313,191.69 73.775,191.27 74.185,191.59 C73.863,191.34 73.561,191.05 73.269,190.76 C73.123,190.61 72.984,190.46 72.846,190.3 C72.756,190.2 72.666,190.1 72.579,189.99 C72.737,190.2 72.733,190.2 72.572,189.98 C72.324,189.64 72.105,189.29 71.897,188.93 C71.791,188.75 71.697,188.57 71.603,188.38 C71.574,188.32 71.292,187.69 71.497,188.18 C71.335,187.79 71.206,187.39 71.088,186.99 C71.029,186.78 70.982,186.57 70.935,186.36 C70.913,186.27 70.773,185.39 70.841,185.93 C70.751,185.22 70.764,184.51 70.764,183.8 C70.764,179.66 70.764,175.53 70.764,171.39 C70.764,171.34 70.764,171.28 70.764,171.23 C70.764,168.17 66.014,168.17 66.014,171.23" id="Fill-461" fill="#4C5159"></path>
            <path d="M42.662,95.98 C42.662,106.23 36.817,114.54 29.605,114.54 C22.394,114.54 16.549,106.23 16.549,95.98 C16.549,85.72 22.394,77.41 29.605,77.41 C36.817,77.41 42.662,85.72 42.662,95.98" id="Fill-462" fill="#F4E0CD"></path>
            <path d="M40.286,95.98 C40.269,99.76 39.455,103.4 37.636,106.58 C37.427,106.94 37.199,107.3 36.964,107.65 C36.849,107.82 36.728,107.99 36.607,108.16 C36.208,108.71 36.901,107.8 36.48,108.32 C35.948,108.99 35.351,109.6 34.709,110.17 C34.567,110.29 34.419,110.41 34.27,110.53 C34.718,110.17 34.225,110.55 34.148,110.61 C33.847,110.82 33.532,111.01 33.212,111.2 C32.897,111.38 32.57,111.53 32.237,111.68 C32.797,111.43 32.241,111.67 32.138,111.71 C31.914,111.79 31.684,111.85 31.455,111.92 C31.111,112.02 30.76,112.09 30.408,112.14 C31.051,112.04 30.452,112.13 30.328,112.14 C30.148,112.16 29.968,112.16 29.787,112.17 C29.425,112.18 29.064,112.16 28.704,112.13 C28.092,112.07 29.231,112.21 28.627,112.11 C28.392,112.07 28.159,112.02 27.929,111.96 C27.581,111.88 27.242,111.77 26.906,111.64 C26.331,111.44 27.368,111.86 26.808,111.61 C26.644,111.53 26.481,111.45 26.32,111.37 C25.993,111.2 25.68,111.01 25.371,110.81 C25.213,110.71 25.062,110.61 24.91,110.5 C24.698,110.34 24.708,110.35 24.941,110.53 C24.841,110.45 24.744,110.37 24.647,110.29 C24.044,109.79 23.499,109.22 22.988,108.63 C22.856,108.48 22.731,108.32 22.604,108.17 C22.939,108.58 22.523,108.05 22.484,107.99 C22.198,107.59 21.935,107.18 21.683,106.76 C21.231,106.01 20.847,105.23 20.499,104.42 C20.695,104.88 20.412,104.19 20.4,104.15 C20.318,103.94 20.243,103.73 20.166,103.51 C19.986,103 19.833,102.48 19.69,101.95 C19.436,101.02 19.253,100.07 19.109,99.12 C19.178,99.57 19.07,98.77 19.07,98.76 C19.042,98.51 19.023,98.26 19.002,98.02 C18.954,97.42 18.935,96.83 18.926,96.23 C18.911,95.22 18.968,94.2 19.07,93.19 C19.07,93.18 19.174,92.38 19.109,92.83 C19.143,92.59 19.184,92.35 19.225,92.11 C19.319,91.55 19.44,91.01 19.572,90.46 C19.79,89.55 20.074,88.67 20.4,87.8 C20.412,87.77 20.69,87.07 20.499,87.53 C20.585,87.32 20.679,87.12 20.771,86.92 C20.984,86.46 21.221,86.01 21.469,85.56 C21.674,85.19 21.899,84.83 22.131,84.47 C22.245,84.3 22.364,84.13 22.484,83.96 C22.521,83.91 22.934,83.36 22.604,83.78 C23.13,83.11 23.723,82.49 24.357,81.91 C24.5,81.79 24.647,81.66 24.793,81.54 C25.283,81.13 24.401,81.83 24.91,81.45 C25.209,81.23 25.522,81.04 25.841,80.85 C26.153,80.66 26.479,80.5 26.808,80.34 C27.364,80.08 26.335,80.53 26.906,80.31 C27.128,80.22 27.356,80.15 27.585,80.08 C27.925,79.98 28.275,79.9 28.627,79.84 C29.229,79.72 28.093,79.89 28.704,79.82 C28.884,79.81 29.063,79.8 29.243,79.79 C29.604,79.77 29.966,79.79 30.328,79.81 C30.45,79.82 31.056,79.9 30.408,79.81 C30.644,79.84 30.877,79.89 31.109,79.94 C31.458,80.02 31.8,80.13 32.138,80.25 C32.24,80.28 32.803,80.51 32.237,80.27 C32.404,80.34 32.566,80.42 32.729,80.5 C33.059,80.66 33.373,80.84 33.685,81.04 C33.843,81.13 33.995,81.24 34.148,81.34 C34.251,81.42 34.353,81.49 34.452,81.56 C34.221,81.38 34.21,81.37 34.417,81.54 C35.025,82.03 35.576,82.58 36.093,83.17 C36.225,83.32 36.353,83.47 36.48,83.63 C36.908,84.15 36.202,83.25 36.607,83.79 C36.896,84.18 37.163,84.59 37.419,85.01 C37.916,85.81 38.336,86.66 38.712,87.53 C38.516,87.08 38.799,87.76 38.811,87.8 C38.894,88.01 38.969,88.22 39.044,88.44 C39.225,88.95 39.378,89.47 39.521,90 C39.647,90.46 39.752,90.93 39.85,91.39 C39.9,91.63 39.943,91.87 39.986,92.11 C40.001,92.19 40.134,93.09 40.083,92.69 C40.225,93.78 40.282,94.88 40.286,95.98 C40.301,99.04 45.053,99.04 45.038,95.98 C45.002,88.56 42.017,79.61 34.801,76.24 C31.417,74.66 27.798,74.73 24.411,76.24 C21.18,77.68 18.677,80.67 17.058,83.73 C13.128,91.17 13.228,100.77 17.058,108.22 C18.656,111.33 21.206,114.21 24.411,115.71 C27.795,117.29 31.413,117.22 34.801,115.71 C38.03,114.27 40.535,111.29 42.153,108.22 C44.134,104.47 45.017,100.2 45.038,95.98 C45.053,92.91 40.301,92.91 40.286,95.98" id="Fill-463" fill="#4C5159"></path>
            <path d="M30.838,48.779 L30.838,124.14 C30.838,151.05 52.653,172.86 79.563,172.86 C106.472,172.86 128.287,151.05 128.287,124.14 L128.287,48.779 L30.838,48.779" id="Fill-464" fill="#F4E0CD"></path>
            <path d="M28.464,48.779 C28.464,53.587 28.464,58.397 28.464,63.204 C28.464,73.21 28.464,83.22 28.464,93.23 C28.464,101.82 28.464,110.41 28.464,118.99 C28.464,120.68 28.464,122.37 28.464,124.05 C28.464,130.42 29.626,136.79 31.958,142.71 C37.313,156.31 48.297,167.01 61.974,172.12 C75.888,177.32 91.853,175.88 104.751,168.61 C117.295,161.54 126.471,149.06 129.504,134.99 C130.901,128.5 130.661,121.93 130.661,115.35 C130.661,105.98 130.661,96.62 130.661,87.25 C130.661,77.72 130.661,68.19 130.661,58.656 C130.661,55.363 130.661,52.071 130.661,48.779 C130.661,47.485 129.581,46.403 128.287,46.403 C124.38,46.403 120.473,46.403 116.566,46.403 C107.482,46.403 98.398,46.403 89.312,46.403 C79.002,46.403 68.691,46.403 58.381,46.403 C50.799,46.403 43.215,46.403 35.632,46.403 C34.034,46.403 32.437,46.403 30.838,46.403 C27.775,46.403 27.775,51.153 30.838,51.153 C34.745,51.153 38.652,51.153 42.559,51.153 C51.644,51.153 60.728,51.153 69.814,51.153 C80.123,51.153 90.434,51.153 100.744,51.153 C108.327,51.153 115.91,51.153 123.492,51.153 C125.091,51.153 126.688,51.153 128.287,51.153 C127.494,50.361 126.703,49.57 125.911,48.779 C125.911,53.587 125.911,58.397 125.911,63.204 C125.911,73.21 125.911,83.22 125.911,93.23 C125.911,101.82 125.911,110.41 125.911,118.99 C125.911,120.68 125.911,122.37 125.911,124.05 C125.911,124.9 125.891,125.74 125.851,126.59 C125.809,127.46 125.738,128.34 125.649,129.22 C125.605,129.65 125.553,130.08 125.497,130.52 C125.568,129.97 125.471,130.69 125.461,130.75 C125.42,131.03 125.374,131.32 125.327,131.6 C124.748,135.11 123.759,138.55 122.429,141.84 C122.407,141.9 122.137,142.54 122.344,142.05 C122.263,142.25 122.178,142.44 122.093,142.63 C121.924,143.01 121.748,143.4 121.569,143.78 C121.182,144.6 120.768,145.4 120.336,146.2 C119.509,147.73 118.591,149.2 117.606,150.63 C117.37,150.98 117.127,151.31 116.884,151.65 C116.761,151.82 116.637,151.98 116.513,152.15 C116.478,152.2 116.059,152.75 116.38,152.33 C115.831,153.04 115.256,153.73 114.669,154.41 C113.538,155.72 112.331,156.96 111.069,158.14 C110.462,158.7 109.838,159.25 109.205,159.78 C108.888,160.05 108.565,160.31 108.242,160.57 C108.08,160.7 107.916,160.83 107.753,160.96 C108.164,160.64 107.479,161.16 107.407,161.21 C106.017,162.25 104.567,163.21 103.076,164.09 C101.576,164.98 100.022,165.78 98.436,166.5 C98.245,166.59 98.053,166.67 97.861,166.76 C97.806,166.78 97.163,167.05 97.654,166.85 C97.265,167.01 96.874,167.16 96.48,167.32 C95.626,167.65 94.761,167.95 93.888,168.23 C92.194,168.78 90.468,169.23 88.724,169.59 C87.877,169.76 87.025,169.91 86.17,170.04 C86.108,170.05 85.394,170.15 85.94,170.07 C85.725,170.1 85.508,170.13 85.292,170.16 C84.784,170.21 84.275,170.26 83.767,170.31 C81.924,170.47 80.073,170.52 78.226,170.47 C77.341,170.45 76.459,170.4 75.578,170.33 C75.14,170.29 74.704,170.25 74.268,170.21 C74.051,170.18 73.834,170.16 73.617,170.13 C73.472,170.11 73.329,170.09 73.185,170.07 C73.456,170.11 73.452,170.11 73.17,170.07 C69.64,169.57 66.174,168.65 62.841,167.39 C62.447,167.24 62.055,167.09 61.665,166.93 C61.018,166.66 62.099,167.12 61.457,166.84 C61.264,166.76 61.072,166.67 60.88,166.59 C60.05,166.22 59.233,165.82 58.425,165.4 C56.879,164.61 55.382,163.72 53.93,162.77 C53.235,162.31 52.556,161.83 51.885,161.34 C51.717,161.21 51.552,161.09 51.386,160.97 C50.835,160.55 51.753,161.25 51.209,160.83 C50.828,160.53 50.453,160.23 50.08,159.92 C48.75,158.82 47.486,157.63 46.28,156.4 C45.074,155.16 43.941,153.85 42.872,152.49 C42.445,151.95 43.154,152.87 42.737,152.32 C42.612,152.15 42.488,151.98 42.364,151.82 C42.117,151.48 41.876,151.14 41.637,150.8 C41.121,150.07 40.627,149.31 40.151,148.55 C39.231,147.07 38.401,145.53 37.646,143.96 C37.464,143.59 37.289,143.21 37.117,142.82 C37.03,142.63 36.947,142.44 36.863,142.24 C36.584,141.6 37.044,142.68 36.775,142.04 C36.426,141.19 36.105,140.33 35.804,139.47 C35.218,137.79 34.737,136.08 34.339,134.35 C34.148,133.51 33.982,132.67 33.835,131.82 C33.76,131.39 33.694,130.96 33.631,130.53 C33.527,129.82 33.692,131.02 33.6,130.3 C33.563,130.01 33.53,129.72 33.498,129.43 C33.216,126.88 33.214,124.32 33.214,121.76 C33.214,118.73 33.214,115.69 33.214,112.66 C33.214,102.92 33.214,93.19 33.214,83.45 C33.214,74.35 33.214,65.241 33.214,56.135 C33.214,53.684 33.214,51.231 33.214,48.779 C33.214,45.715 28.464,45.715 28.464,48.779" id="Fill-465" fill="#4C5159"></path>
            <path d="M127.054,53.173 L125.827,78.77 C125.827,78.77 125.843,55.785 122.155,58.603 C116.024,63.285 106.045,69.66 95.066,70.83 C95.066,70.83 98.306,67.54 98.982,62.06 C98.982,62.06 68.801,70.83 50.659,68.3 C50.659,68.3 53.103,67.66 57.22,64.494 C58.593,63.438 36.845,64.311 33.142,80.41 L33.142,53.86 C33.142,53.86 112.926,28.667 127.054,53.173" id="Fill-466" fill="#E7CEBB"></path>
            <path d="M22.574,96.64 C22.574,96.64 21.752,99.54 23.377,100.97 C28.497,105.48 28.334,112.08 28.334,112.08 L28.334,100.32 L26.671,98.46 L22.574,96.64" id="Fill-467" fill="#E7CEBB"></path>
            <path d="M31.935,106.23 C32.078,104.6 31.748,102.84 31.185,101.32 C29.933,97.95 27.16,95.69 23.692,94.83 C22.205,94.46 21.575,96.75 23.061,97.12 C25.898,97.82 28.107,99.64 29.028,102.33 C29.504,103.72 29.689,104.75 29.56,106.23 C29.427,107.75 31.802,107.74 31.935,106.23" id="Fill-468" fill="#4C5159"></path>
            <path d="M43.565,81.42 C43.759,81.31 43.956,81.21 44.154,81.12 C44.399,80.99 44.649,80.87 44.899,80.76 C45.057,80.68 45.215,80.61 45.374,80.54 C45.541,80.47 46.214,80.18 45.46,80.5 C47.425,79.68 49.469,79.04 51.551,78.59 C52.134,78.47 52.722,78.36 53.312,78.27 C53.446,78.25 53.581,78.23 53.716,78.21 C53.137,78.29 53.826,78.2 53.906,78.19 C54.256,78.15 54.606,78.13 54.956,78.1 C56.416,77.99 57.882,78.02 59.338,78.18 C59.623,78.21 59.638,78.21 59.381,78.18 C59.608,78.21 59.833,78.25 60.058,78.29 C60.438,78.35 60.814,78.43 61.19,78.52 C61.958,78.69 62.713,78.93 63.455,79.19 C63.606,79.25 63.756,79.3 63.906,79.36 C64.643,79.65 63.511,79.18 64.239,79.51 C64.618,79.67 64.988,79.86 65.356,80.05 C66.12,80.46 66.847,80.93 67.55,81.42 C68.608,82.17 70.19,81.61 70.801,80.57 C71.499,79.38 71.002,78.07 69.948,77.32 C64.362,73.36 57.451,72.64 50.864,73.89 C47.547,74.52 44.121,75.66 41.167,77.32 C40.042,77.96 39.669,79.47 40.316,80.57 C40.977,81.7 42.437,82.06 43.565,81.42" id="Fill-469" fill="#4C5159"></path>
            <path d="M113.372,77.32 C110.466,75.69 107.124,74.59 103.87,73.93 C97.252,72.59 90.206,73.34 84.593,77.32 C83.539,78.07 83.042,79.38 83.74,80.57 C84.351,81.61 85.932,82.17 86.989,81.42 C87.627,80.97 88.281,80.56 88.963,80.18 C89.327,79.97 89.701,79.79 90.078,79.61 C90.226,79.54 90.376,79.47 90.526,79.4 C90.136,79.58 90.865,79.27 90.861,79.28 C91.598,78.99 92.358,78.77 93.125,78.57 C93.499,78.48 93.877,78.4 94.257,78.33 C94.407,78.3 94.557,78.27 94.708,78.25 C94.753,78.24 95.498,78.14 94.978,78.2 C96.364,78.03 97.766,78.01 99.158,78.07 C99.512,78.09 99.865,78.12 100.218,78.15 C100.356,78.17 100.495,78.18 100.635,78.19 C100.714,78.2 101.405,78.29 100.824,78.21 C101.487,78.3 102.145,78.42 102.799,78.55 C104.909,78.98 106.973,79.63 108.964,80.45 C109.195,80.55 109.121,80.52 108.741,80.36 C108.85,80.4 108.957,80.45 109.064,80.5 C109.228,80.57 109.39,80.64 109.552,80.72 C109.812,80.84 110.07,80.96 110.325,81.09 C110.543,81.19 110.762,81.3 110.974,81.42 C112.103,82.06 113.563,81.7 114.225,80.57 C114.871,79.47 114.499,77.96 113.372,77.32" id="Fill-470" fill="#4C5159"></path>
            <path d="M60.458,95.83 C60.458,100.27 58.265,103.87 55.559,103.87 C52.852,103.87 50.659,100.27 50.659,95.83 C50.659,91.39 52.852,87.8 55.559,87.8 C58.265,87.8 60.458,91.39 60.458,95.83" id="Fill-471" fill="#4C5159"></path>
            <path d="M103.882,95.83 C103.882,100.27 101.688,103.87 98.982,103.87 C96.276,103.87 94.083,100.27 94.083,95.83 C94.083,91.39 96.276,87.8 98.982,87.8 C101.688,87.8 103.882,91.39 103.882,95.83" id="Fill-472" fill="#4C5159"></path>
            <path d="M71.961,120.08 C72.949,122.57 75.658,123.95 78.175,124.3 C80.415,124.62 82.621,124.32 84.471,122.95 C85.392,122.27 86.267,121.38 86.817,120.37 C87.544,119.02 85.493,117.82 84.765,119.17 C84.398,119.85 84.063,120.2 83.413,120.77 C82.089,121.95 80.427,122.16 78.723,122 C77.361,121.87 75.966,121.29 75.034,120.42 C74.873,120.27 74.725,120.1 74.584,119.93 C74.374,119.68 74.719,120.12 74.543,119.88 C74.483,119.79 74.426,119.71 74.372,119.62 C74.278,119.47 74.023,118.87 74.252,119.45 C74.014,118.85 73.467,118.44 72.791,118.62 C72.219,118.78 71.723,119.48 71.961,120.08" id="Fill-473" fill="#4C5159"></path>
            <path d="M61.047,217.07 C61.749,217.05 62.456,217.1 63.154,217.16 C63.49,217.18 63.824,217.22 64.159,217.26 C64.265,217.27 64.601,217.32 64.104,217.25 C64.199,217.27 64.294,217.28 64.388,217.3 C64.618,217.33 64.849,217.37 65.078,217.41 C65.99,217.57 66.893,217.78 67.782,218.04 C68.246,218.18 68.704,218.34 69.158,218.5 C69.392,218.59 69.623,218.68 69.853,218.78 C69.486,218.63 69.879,218.79 69.938,218.82 C70.093,218.89 70.245,218.96 70.399,219.03 C70.866,219.26 71.32,219.51 71.766,219.77 C71.992,219.9 72.212,220.05 72.431,220.19 C72.542,220.27 72.651,220.34 72.759,220.42 C72.81,220.45 73.263,220.79 72.974,220.57 C73.402,220.9 73.808,221.26 74.195,221.64 C74.392,221.84 74.581,222.04 74.765,222.25 C74.858,222.35 74.948,222.46 75.039,222.56 C75.099,222.64 75.158,222.71 75.215,222.78 C75.114,222.65 75.118,222.66 75.227,222.8 C75.578,223.27 75.887,223.77 76.169,224.28 C76.557,224.98 76.639,225.2 76.883,225.89 C77.59,227.89 77.744,229.69 77.674,231.81 C77.607,233.85 80.774,233.85 80.841,231.81 C80.943,228.7 80.422,225.59 78.974,222.81 C77.813,220.59 75.998,218.77 73.92,217.38 C70.675,215.23 66.698,214.26 62.854,213.96 C62.254,213.92 61.648,213.88 61.047,213.9 C59.01,213.96 59.003,217.13 61.047,217.07" id="Fill-474" fill="#E2C367"></path>
            <path d="M99.674,213.9 C97.223,213.83 94.671,214.26 92.324,214.92 C87.773,216.22 83.559,218.99 81.476,223.36 C80.22,225.99 79.785,228.91 79.879,231.81 C79.947,233.85 83.114,233.85 83.048,231.81 C82.953,228.94 83.413,226.23 84.773,223.89 C85.406,222.8 85.845,222.28 86.822,221.36 C87.02,221.17 87.226,221 87.434,220.82 C87.536,220.73 87.642,220.65 87.748,220.57 C87.462,220.79 87.816,220.52 87.854,220.5 C88.315,220.16 88.799,219.86 89.294,219.57 C89.74,219.32 90.2,219.09 90.668,218.87 C90.783,218.82 90.899,218.77 91.015,218.72 C90.652,218.88 91.041,218.71 91.1,218.68 C91.367,218.58 91.638,218.48 91.909,218.38 C92.823,218.05 93.759,217.8 94.707,217.59 C95.117,217.5 95.529,217.43 95.943,217.36 C96.136,217.32 96.331,217.3 96.523,217.27 C96.868,217.22 96.133,217.32 96.472,217.27 C96.591,217.26 96.709,217.24 96.828,217.23 C97.433,217.16 98.04,217.11 98.649,217.09 C98.99,217.07 99.333,217.06 99.674,217.07 C101.718,217.13 101.712,213.96 99.674,213.9" id="Fill-475" fill="#E2C367"></path>
            <path d="M62.056,142.49 C65.087,144.63 68.747,146.11 72.285,147.14 C79.756,149.3 87.724,148.78 94.636,145.11 C96.055,144.36 97.392,143.46 98.665,142.49 C99.349,141.97 99.71,141.14 99.233,140.32 C98.837,139.65 97.754,139.23 97.067,139.75 C93.61,142.4 89.724,144.22 85.427,144.97 C82.028,145.56 78.498,145.33 75.166,144.6 C72.381,143.99 69.786,143.05 67.438,141.91 C66.169,141.29 64.919,140.61 63.751,139.82 C63.719,139.8 63.687,139.78 63.654,139.75 C62.948,139.26 61.896,139.63 61.488,140.32 C61.023,141.12 61.352,141.99 62.056,142.49" id="Fill-476" fill="#4C5159"></path>
            <path d="M70.807,174.4 C70.807,174.4 79.563,175.9 88.317,174.4 L88.317,178.73 C88.317,178.73 85.414,180.1 79.879,180.1 C74.491,180.1 70.807,178.73 70.807,178.73 L70.807,174.4" id="Fill-477" fill="#E7CEBB"></path>
            <path d="M121.764,52.065 L121.764,126.17 C121.764,126.17 119.178,163.76 78.202,170.51 C78.202,170.51 90.69,170.89 102.82,164.19 C113.728,158.16 125.328,144.6 125.843,126.17 L125.843,54.598 L121.764,52.065" id="Fill-478" fill="#E7CEBB"></path>
            <path d="M128.287,48.779 L125.843,79.37 C125.843,79.37 125.843,51.273 122.155,54.089 C116.024,58.773 106.045,65.151 95.066,66.32 C95.066,66.32 98.306,63.03 98.982,57.547 C98.982,57.547 68.801,66.32 50.659,63.783 C50.659,63.783 53.103,63.15 57.22,59.982 C58.593,58.926 30.672,64.566 30.7647682,86.11 L30.765,41.93 C30.765,41.93 114.158,24.272 128.287,48.779" id="Fill-479" fill="#4C5159"></path>
        </g>
    </g>
</svg>