<?xml version="1.0" encoding="UTF-8"?>
<svg width="130px" height="224px" viewBox="0 0 130 224" version="1.1" xmlns="http://www.w3.org/2000/svg" xmlns:xlink="http://www.w3.org/1999/xlink">
    <!-- Generator: Sketch 48.2 (47327) - http://www.bohemiancoding.com/sketch -->
    <title>female7</title>
    <desc>Created with Sketch.</desc>
    <defs></defs>
    <g id="Page-1" stroke="none" stroke-width="1" fill="none" fill-rule="evenodd">
        <g id="female7">
            <path d="M28.44,9.52 C-12.98,30.29 15.42,72.63 16.91,114.92 C18.42,157.88 -6.52,193.18 11.3,213.39 L121.56,213.39 C139.96,192.53 113.8,155.07 114.36,110.75 C114.88,69.47 144.36,28.83 103.24,8.93 C103.24,8.93 88.29,0.51 66.43,0.51 C46.18,0.51 28.44,9.52 28.44,9.52" id="Fill-825" fill="#4C5159"></path>
            <path d="M101.23,89.39 C101.23,99.65 107.07,107.96 114.29,107.96 C121.5,107.96 127.34,99.65 127.34,89.39 C127.34,79.13 121.5,70.82 114.29,70.82 C107.07,70.82 101.23,79.13 101.23,89.39" id="Fill-826" fill="#F7C89C"></path>
            <path d="M98.85,89.39 C98.89,96.81 101.87,105.75 109.09,109.12 C112.47,110.71 116.09,110.64 119.48,109.12 C122.71,107.68 125.21,104.7 126.83,101.63 C130.76,94.19 130.66,84.6 126.83,77.15 C125.23,74.04 122.68,71.15 119.48,69.66 C116.1,68.08 112.48,68.14 109.09,69.66 C105.86,71.1 103.36,74.08 101.74,77.15 C99.76,80.9 98.87,85.17 98.85,89.39 C98.84,92.45 103.59,92.45 103.6,89.39 C103.62,85.61 104.44,81.97 106.25,78.79 C106.46,78.42 106.69,78.07 106.93,77.71 C107.04,77.54 107.16,77.38 107.28,77.21 C107.68,76.66 106.99,77.57 107.41,77.04 C107.94,76.38 108.54,75.76 109.18,75.2 C109.32,75.08 109.47,74.96 109.62,74.84 C109.17,75.2 109.67,74.81 109.74,74.76 C110.04,74.55 110.36,74.35 110.68,74.17 C110.99,73.99 111.32,73.83 111.65,73.68 C111.09,73.93 111.65,73.7 111.75,73.66 C111.98,73.58 112.21,73.51 112.43,73.45 C112.78,73.35 113.13,73.28 113.48,73.22 C112.84,73.33 113.44,73.24 113.56,73.22 C113.74,73.21 113.92,73.2 114.1,73.2 C114.46,73.19 114.83,73.21 115.19,73.24 C115.8,73.29 114.66,73.15 115.26,73.25 C115.5,73.29 115.73,73.34 115.96,73.4 C116.31,73.49 116.65,73.6 116.99,73.72 C117.56,73.93 116.52,73.51 117.08,73.76 C117.25,73.83 117.41,73.92 117.57,74 C117.9,74.16 118.21,74.35 118.52,74.55 C118.68,74.65 118.83,74.76 118.98,74.87 C119.19,75.03 119.18,75.01 118.95,74.84 C119.05,74.92 119.15,75 119.24,75.08 C119.85,75.58 120.39,76.14 120.9,76.73 C121.04,76.88 121.16,77.04 121.29,77.2 C120.95,76.78 121.37,77.32 121.41,77.37 C121.69,77.77 121.96,78.19 122.21,78.6 C122.66,79.35 123.04,80.14 123.39,80.94 C123.2,80.49 123.48,81.18 123.49,81.21 C123.57,81.42 123.65,81.64 123.72,81.85 C123.91,82.37 124.06,82.89 124.2,83.42 C124.46,84.35 124.64,85.3 124.78,86.25 C124.71,85.79 124.82,86.6 124.82,86.6 C124.85,86.85 124.87,87.1 124.89,87.35 C124.94,87.94 124.96,88.54 124.96,89.13 C124.98,90.15 124.92,91.17 124.82,92.18 C124.82,92.18 124.72,92.99 124.78,92.53 C124.75,92.77 124.71,93.02 124.67,93.26 C124.57,93.81 124.45,94.36 124.32,94.91 C124.1,95.81 123.82,96.7 123.49,97.57 C123.48,97.6 123.2,98.29 123.39,97.84 C123.31,98.05 123.21,98.25 123.12,98.45 C122.91,98.91 122.67,99.36 122.42,99.81 C122.21,100.18 121.99,100.54 121.76,100.89 C121.65,101.07 121.53,101.24 121.41,101.41 C121.37,101.46 120.96,102 121.29,101.58 C120.76,102.26 120.17,102.88 119.53,103.45 C119.39,103.58 119.24,103.7 119.1,103.83 C118.61,104.23 119.49,103.54 118.98,103.91 C118.68,104.13 118.37,104.33 118.05,104.52 C117.74,104.71 117.41,104.87 117.08,105.02 C116.53,105.28 117.55,104.84 116.99,105.06 C116.76,105.14 116.54,105.22 116.31,105.29 C115.96,105.39 115.61,105.46 115.26,105.53 C114.66,105.64 115.8,105.48 115.19,105.54 C115.01,105.56 114.83,105.57 114.65,105.58 C114.29,105.59 113.92,105.58 113.56,105.56 C113.44,105.55 112.83,105.46 113.48,105.56 C113.25,105.52 113.01,105.47 112.78,105.42 C112.43,105.34 112.09,105.24 111.75,105.12 C111.65,105.09 111.09,104.86 111.65,105.1 C111.49,105.03 111.32,104.95 111.16,104.87 C110.83,104.71 110.52,104.52 110.21,104.33 C110.05,104.23 109.9,104.13 109.74,104.02 C109.64,103.95 109.54,103.88 109.44,103.8 C109.67,103.98 109.68,103.99 109.47,103.83 C108.87,103.34 108.32,102.78 107.8,102.2 C107.67,102.05 107.54,101.89 107.41,101.74 C106.98,101.22 107.69,102.12 107.28,101.57 C106.99,101.18 106.73,100.77 106.47,100.36 C105.98,99.55 105.55,98.71 105.18,97.84 C105.37,98.29 105.09,97.6 105.08,97.57 C105,97.36 104.92,97.14 104.85,96.92 C104.67,96.41 104.51,95.89 104.37,95.37 C104.24,94.9 104.14,94.44 104.04,93.97 C103.99,93.73 103.95,93.5 103.91,93.26 C103.89,93.17 103.76,92.28 103.81,92.67 C103.67,91.59 103.61,90.49 103.6,89.39 C103.59,86.33 98.84,86.33 98.85,89.39" id="Fill-827" fill="#4C5159"></path>
            <path d="M121.32,90.06 C121.32,90.06 122.14,92.95 120.51,94.38 C115.39,98.9 115.56,105.5 115.56,105.5 L115.56,93.74 L117.22,91.88 L121.32,90.06" id="Fill-828" fill="#EFA670"></path>
            <path d="M114.33,99.64 C114.2,98.16 114.4,97.15 114.86,95.74 C115.75,93.05 118.02,91.23 120.83,90.54 C122.32,90.17 121.69,87.88 120.2,88.25 C116.69,89.11 114.01,91.37 112.71,94.74 C112.13,96.24 111.81,98.03 111.96,99.64 C112.09,101.16 114.46,101.17 114.33,99.64" id="Fill-829" fill="#4C5159"></path>
            <path d="M67.2,221.43 C108.08,221.43 121.91,213 121.91,213 C121.91,213 122.25,189.82 115.07,184.03 C115.07,184.03 88.22,166.82 76.76,163.83 L54.51,163.83 C43.05,166.82 16.19,184.03 16.19,184.03 C9.01,189.82 9.35,213 9.35,213 C9.35,213 27.83,221.43 68.71,221.43 L67.2,221.43" id="Fill-830" fill="#E57441"></path>
            <path d="M67.2,223.8 C81.71,223.79 96.51,222.96 110.65,219.47 C113.77,218.7 116.88,217.78 119.86,216.56 C121.07,216.06 123.23,215.45 123.96,214.2 C124.56,213.18 124.29,211.45 124.26,210.34 C124.21,208.06 124.07,205.78 123.87,203.51 C123.34,197.73 122.49,191.65 119.84,186.41 C118.97,184.69 117.75,182.92 116.1,181.87 C115.1,181.23 114.09,180.6 113.07,179.97 C108.56,177.17 103.99,174.45 99.37,171.84 C93.93,168.76 88.4,165.82 82.63,163.4 C81.5,162.92 80.36,162.48 79.2,162.09 C78.33,161.79 77.42,161.46 76.49,161.46 C74.3,161.46 72.11,161.46 69.92,161.46 C66.73,161.46 63.54,161.46 60.35,161.46 C58.42,161.46 56.49,161.46 54.56,161.46 C53.53,161.46 52.38,161.97 51.42,162.31 C50.08,162.78 48.78,163.33 47.47,163.89 C41.83,166.3 36.41,169.27 31.08,172.3 C26.58,174.86 22.13,177.52 17.74,180.25 C16.84,180.81 15.95,181.37 15.07,181.93 C13.25,183.09 11.99,185.17 11.1,187.08 C8.61,192.42 7.82,198.49 7.33,204.31 C7.09,207.19 6.94,210.1 6.98,213 C6.99,213.77 7.41,214.71 8.15,215.05 C12.9,217.21 18.15,218.44 23.22,219.53 C38.12,222.75 53.49,223.79 68.71,223.8 C68.71,222.22 68.71,220.63 68.71,219.05 C68.21,219.05 67.7,219.05 67.2,219.05 C64.14,219.05 64.14,223.8 67.2,223.8 C67.7,223.8 68.21,223.8 68.71,223.8 C71.77,223.8 71.77,219.05 68.71,219.05 C59.78,219.05 50.84,218.65 41.96,217.71 C41.08,217.62 40.19,217.51 39.31,217.41 C38.88,217.36 38.46,217.3 38.03,217.25 C37.82,217.23 37.61,217.2 37.4,217.17 C37.3,217.16 36.41,217.04 37,217.12 C35.37,216.9 33.75,216.66 32.13,216.39 C29.37,215.95 26.62,215.42 23.89,214.82 C20.37,214.05 16.86,213.14 13.44,212 C12.58,211.71 11.72,211.41 10.88,211.08 C10.58,210.96 9.69,210.58 10.77,211.04 C10.7,211.01 10.63,210.98 10.55,210.95 C10.95,211.63 11.34,212.31 11.73,213 C11.68,209.73 11.88,206.44 12.18,203.19 C12.24,202.52 12.32,201.86 12.39,201.2 C12.43,200.85 12.48,200.51 12.52,200.17 C12.43,200.84 12.51,200.24 12.53,200.12 C12.56,199.89 12.59,199.66 12.63,199.43 C12.84,197.99 13.11,196.56 13.43,195.14 C13.74,193.77 14.11,192.42 14.57,191.09 C14.67,190.79 14.79,190.49 14.9,190.19 C14.96,190.04 15.02,189.9 15.08,189.75 C14.82,190.38 15.02,189.88 15.08,189.75 C15.33,189.17 15.63,188.6 15.94,188.04 C16.08,187.8 16.23,187.56 16.38,187.33 C16.49,187.17 17.06,186.42 16.56,187.05 C16.9,186.62 17.28,186.22 17.69,185.86 C18.05,185.55 17.12,186.25 17.5,186.01 C17.63,185.93 17.75,185.85 17.88,185.77 C19.11,184.99 20.34,184.22 21.58,183.46 C26.32,180.54 31.1,177.71 35.96,175.01 C38.73,173.47 41.52,171.97 44.35,170.56 C45.68,169.9 47.01,169.27 48.35,168.66 C48.96,168.38 49.56,168.12 50.17,167.86 C49.51,168.14 50.46,167.74 50.62,167.68 C50.95,167.55 51.27,167.42 51.6,167.29 C52.65,166.89 53.71,166.52 54.8,166.22 C55.42,166.04 54.05,166.21 54.8,166.21 C55.17,166.21 55.54,166.21 55.91,166.21 C58.3,166.21 60.7,166.21 63.1,166.21 C66.34,166.21 69.59,166.21 72.83,166.21 C73.91,166.21 74.98,166.21 76.06,166.21 C76.28,166.21 76.5,166.21 76.73,166.21 C76.23,166.21 76.11,166.12 76.59,166.25 C76.87,166.33 77.15,166.41 77.43,166.5 C78.57,166.86 79.69,167.29 80.79,167.74 C80.94,167.8 81.08,167.86 81.23,167.92 C81.74,168.13 80.73,167.7 81.25,167.92 C81.55,168.05 81.85,168.18 82.15,168.32 C82.83,168.61 83.5,168.92 84.16,169.23 C93.98,173.82 103.34,179.45 112.5,185.21 C112.89,185.45 113.27,185.7 113.65,185.94 C113.72,185.98 113.79,186.03 113.86,186.07 C113.6,185.9 113.32,185.64 113.67,185.94 C113.89,186.13 114.09,186.34 114.29,186.56 C114.42,186.7 114.98,187.41 114.49,186.78 C114.66,187 114.81,187.22 114.96,187.45 C115.3,187.97 115.6,188.51 115.87,189.07 C116,189.34 116.13,189.62 116.25,189.89 C116.47,190.39 116.04,189.39 116.25,189.9 C116.31,190.04 116.37,190.19 116.42,190.34 C116.68,191 116.9,191.67 117.1,192.34 C117.52,193.71 117.85,195.1 118.13,196.5 C118.27,197.19 118.39,197.88 118.5,198.57 C118.56,198.91 118.61,199.26 118.66,199.6 C118.69,199.78 118.71,199.95 118.74,200.12 C118.75,200.23 118.77,200.35 118.79,200.46 C118.74,200.12 118.73,200.08 118.77,200.34 C119.1,202.92 119.31,205.51 119.43,208.1 C119.51,209.73 119.56,211.37 119.54,213 C119.93,212.31 120.32,211.63 120.71,210.95 C120.49,211.08 120.26,211.2 120.03,211.31 C119.73,211.46 119.44,211.6 119.14,211.74 C118.95,211.82 118.76,211.91 118.57,211.99 C118.05,212.21 118.95,211.83 118.77,211.91 C118.63,211.96 118.5,212.02 118.36,212.07 C115.29,213.32 112.08,214.24 108.86,215.02 C106.46,215.6 104.03,216.09 101.59,216.51 C100.14,216.77 98.69,216.99 97.23,217.2 C97.04,217.23 96.84,217.26 96.65,217.28 C96.56,217.3 95.9,217.38 96.5,217.3 C96.09,217.36 95.69,217.41 95.29,217.46 C94.39,217.58 93.48,217.68 92.57,217.78 C84.15,218.71 75.67,219.05 67.2,219.05 C64.14,219.05 64.14,223.8 67.2,223.8" id="Fill-831" fill="#4C5159"></path>
            <path d="M54.46,157.05 L54.46,170.43 C59.41,177.4 59.44,193.5 65.61,193.5 L65.67,193.5 C71.84,193.5 72.71,176.29 76.81,170.43 L76.81,157.05 L54.46,157.05" id="Fill-832" fill="#F7C89C"></path>
            <path d="M52.08,157.05 C52.08,160.99 52.08,164.93 52.08,168.87 C52.08,169.38 52.08,169.9 52.08,170.42 C52.08,171.32 52.67,171.97 53.1,172.71 C53.47,173.35 53.79,174.02 54.09,174.7 C54.34,175.26 53.9,174.22 54.13,174.79 C54.2,174.96 54.26,175.13 54.33,175.3 C54.46,175.65 54.59,176 54.71,176.35 C54.99,177.13 55.23,177.92 55.47,178.71 C55.94,180.26 56.35,181.82 56.78,183.38 C57.56,186.25 58.34,189.21 59.77,191.83 C61.01,194.1 63.07,195.91 65.78,195.87 C68.52,195.83 70.49,193.74 71.73,191.49 C73.15,188.92 73.97,186.02 74.76,183.21 C75.58,180.35 76.3,177.44 77.33,174.65 C77.44,174.35 77.56,174.06 77.68,173.77 C77.4,174.45 77.79,173.54 77.86,173.38 C78.11,172.84 78.4,172.33 78.72,171.83 C79.23,171.05 79.18,170.31 79.18,169.45 C79.18,165.34 79.18,161.24 79.18,157.13 C79.18,157.11 79.18,157.08 79.18,157.05 C79.18,155.75 78.1,154.67 76.81,154.67 C69.43,154.67 62.05,154.67 54.67,154.67 C54.6,154.67 54.53,154.67 54.46,154.67 C51.4,154.67 51.4,159.42 54.46,159.42 C61.84,159.42 69.22,159.42 76.6,159.42 C76.67,159.42 76.74,159.42 76.81,159.42 C76.01,158.63 75.22,157.84 74.43,157.05 C74.43,161.51 74.43,165.97 74.43,170.43 C74.54,170.03 74.65,169.63 74.76,169.23 C73.21,171.47 72.4,174.23 71.63,176.81 C70.77,179.72 70.05,182.68 69.09,185.56 C68.88,186.2 68.65,186.83 68.4,187.45 C68.34,187.6 68.28,187.75 68.22,187.9 C68.48,187.28 68.27,187.78 68.21,187.9 C68.07,188.22 67.92,188.53 67.76,188.84 C67.51,189.33 67.23,189.79 66.92,190.24 C66.83,190.37 66.53,190.74 66.99,190.16 C66.91,190.25 66.83,190.34 66.75,190.43 C66.58,190.63 66.38,190.81 66.18,190.98 C66.82,190.45 66.24,190.92 66.05,191.03 C65.43,191.39 66.48,190.91 65.96,191.07 C65.86,191.1 65.76,191.13 65.66,191.15 C65.24,191.24 66.31,191.08 65.88,191.12 C65.68,191.13 65.48,191.12 65.28,191.11 C66.13,191.17 65.42,191.11 65.18,191.03 C64.77,190.9 65.74,191.29 65.35,191.11 C65.25,191.06 65.16,191.01 65.07,190.96 C64.98,190.9 64.89,190.84 64.8,190.77 C65.41,191.21 65.08,190.98 64.94,190.86 C64.73,190.68 64.55,190.47 64.37,190.26 C64.11,189.96 64.73,190.76 64.36,190.24 C64.26,190.09 64.17,189.94 64.08,189.79 C63.88,189.47 63.71,189.13 63.54,188.79 C63.45,188.61 63.37,188.43 63.29,188.25 C63.19,188.01 63.21,188.06 63.34,188.38 C63.3,188.29 63.26,188.19 63.22,188.09 C63.04,187.63 62.87,187.16 62.71,186.69 C62.05,184.76 61.54,182.78 61,180.82 C59.93,176.88 58.88,172.62 56.51,169.23 C56.62,169.63 56.73,170.03 56.84,170.43 C56.84,165.97 56.84,161.51 56.84,157.05 C56.84,153.98 52.08,153.98 52.08,157.05" id="Fill-833" fill="#4C5159"></path>
            <path d="M28.73,89.39 C28.73,99.65 22.89,107.96 15.68,107.96 C8.46,107.96 2.62,99.65 2.62,89.39 C2.62,79.13 8.46,70.82 15.68,70.82 C22.89,70.82 28.73,79.13 28.73,89.39" id="Fill-834" fill="#F7C89C"></path>
            <path d="M26.36,89.39 C26.34,93.18 25.53,96.81 23.71,99.99 C23.5,100.36 23.27,100.71 23.03,101.06 C22.92,101.24 22.8,101.41 22.68,101.57 C22.28,102.13 22.97,101.21 22.55,101.74 C22.02,102.41 21.42,103.02 20.78,103.58 C20.64,103.71 20.49,103.83 20.34,103.94 C20.79,103.58 20.3,103.97 20.22,104.02 C19.92,104.24 19.6,104.43 19.28,104.61 C18.97,104.79 18.64,104.95 18.31,105.1 C18.87,104.85 18.31,105.08 18.21,105.12 C17.98,105.2 17.76,105.27 17.53,105.33 C17.18,105.43 16.83,105.5 16.48,105.56 C17.12,105.45 16.52,105.55 16.4,105.56 C16.22,105.57 16.04,105.58 15.86,105.58 C15.5,105.59 15.13,105.57 14.78,105.54 C14.16,105.49 15.3,105.63 14.7,105.53 C14.46,105.49 14.23,105.44 14,105.38 C13.65,105.3 13.31,105.18 12.98,105.06 C12.4,104.85 13.44,105.27 12.88,105.02 C12.71,104.95 12.55,104.87 12.39,104.78 C12.06,104.62 11.75,104.43 11.44,104.23 C11.29,104.13 11.13,104.02 10.98,103.91 C10.77,103.76 10.78,103.77 11.01,103.94 C10.91,103.87 10.81,103.79 10.72,103.7 C10.12,103.2 9.57,102.64 9.06,102.05 C8.93,101.9 8.8,101.74 8.68,101.58 C9.01,102 8.59,101.46 8.56,101.41 C8.27,101.01 8.01,100.59 7.75,100.18 C7.3,99.43 6.92,98.64 6.57,97.84 C6.77,98.29 6.48,97.6 6.47,97.57 C6.39,97.36 6.31,97.14 6.24,96.92 C6.06,96.41 5.9,95.89 5.76,95.37 C5.51,94.43 5.32,93.49 5.18,92.53 C5.25,92.99 5.14,92.18 5.14,92.18 C5.11,91.93 5.09,91.68 5.07,91.43 C5.02,90.84 5,90.24 5,89.65 C4.98,88.63 5.04,87.61 5.14,86.6 C5.14,86.6 5.25,85.79 5.18,86.25 C5.21,86.01 5.26,85.76 5.3,85.52 C5.39,84.97 5.51,84.42 5.64,83.88 C5.86,82.97 6.15,82.08 6.47,81.21 C6.48,81.18 6.76,80.49 6.57,80.94 C6.66,80.74 6.75,80.54 6.84,80.33 C7.05,79.87 7.29,79.42 7.54,78.98 C7.75,78.6 7.97,78.25 8.2,77.89 C8.32,77.71 8.43,77.55 8.56,77.37 C8.59,77.32 9,76.78 8.68,77.2 C9.2,76.52 9.79,75.9 10.43,75.33 C10.57,75.2 10.72,75.08 10.86,74.96 C11.35,74.55 10.47,75.24 10.98,74.87 C11.28,74.65 11.59,74.45 11.91,74.26 C12.22,74.07 12.55,73.91 12.88,73.76 C13.44,73.5 12.41,73.94 12.98,73.72 C13.2,73.64 13.43,73.56 13.66,73.5 C14,73.39 14.35,73.32 14.7,73.25 C15.3,73.14 14.16,73.3 14.78,73.24 C14.95,73.22 15.13,73.21 15.31,73.2 C15.68,73.19 16.04,73.2 16.4,73.22 C16.52,73.23 17.13,73.32 16.48,73.22 C16.71,73.26 16.95,73.31 17.18,73.36 C17.53,73.44 17.87,73.54 18.21,73.66 C18.31,73.69 18.88,73.92 18.31,73.68 C18.47,73.75 18.64,73.83 18.8,73.91 C19.13,74.07 19.45,74.26 19.76,74.45 C19.91,74.55 20.07,74.66 20.22,74.76 C20.32,74.83 20.42,74.9 20.52,74.98 C20.29,74.8 20.28,74.79 20.49,74.96 C21.1,75.44 21.65,76 22.16,76.58 C22.3,76.73 22.42,76.89 22.55,77.04 C22.98,77.56 22.27,76.66 22.68,77.21 C22.97,77.6 23.23,78.01 23.49,78.42 C23.99,79.23 24.41,80.08 24.78,80.94 C24.59,80.49 24.87,81.18 24.88,81.21 C24.96,81.42 25.04,81.64 25.12,81.85 C25.3,82.37 25.45,82.89 25.59,83.42 C25.72,83.88 25.82,84.34 25.92,84.81 C25.97,85.05 26.01,85.28 26.06,85.52 C26.07,85.61 26.21,86.5 26.15,86.11 C26.3,87.2 26.35,88.29 26.36,89.39 C26.37,92.45 31.12,92.45 31.11,89.39 C31.07,81.97 28.09,73.03 20.87,69.66 C17.49,68.08 13.87,68.14 10.48,69.66 C7.25,71.1 4.75,74.08 3.13,77.15 C-0.8,84.59 -0.7,94.18 3.13,101.63 C4.73,104.74 7.28,107.63 10.48,109.12 C13.87,110.71 17.48,110.64 20.87,109.12 C24.1,107.68 26.61,104.7 28.23,101.63 C30.2,97.88 31.09,93.61 31.11,89.39 C31.12,86.33 26.37,86.33 26.36,89.39" id="Fill-835" fill="#4C5159"></path>
            <path d="M16.91,58.31 L16.91,111.22 C16.91,138.13 38.72,158.68 65.63,158.68 C92.54,158.68 114.36,138.13 114.36,111.22 L114.36,56.83 C114.36,56.83 94.14,59.07 87.1,57.55 C78.56,55.7 75.46,50.74 65.63,42.63 C65.63,42.63 62.87,56.6 33.42,59.45 C24.4,60.32 25.04,59.4 16.91,58.31" id="Fill-836" fill="#F7C89C"></path>
            <path d="M14.53,58.31 C14.53,64.47 14.53,70.64 14.53,76.81 C14.53,86.39 14.53,95.97 14.53,105.55 C14.53,107.44 14.53,109.33 14.53,111.22 C14.53,118.5 16.13,125.66 19.17,132.27 C25.12,145.2 36.91,154.83 50.45,158.88 C64.56,163.09 80.37,161.14 92.97,153.51 C105.14,146.12 113.77,133.56 116.05,119.49 C116.62,115.97 116.73,112.46 116.73,108.92 C116.73,105.36 116.73,101.79 116.73,98.23 C116.73,88.22 116.73,78.22 116.73,68.21 C116.73,64.42 116.73,60.63 116.73,56.83 C116.73,55.65 115.65,54.32 114.36,54.46 C110.49,54.89 106.61,55.19 102.72,55.42 C99.62,55.61 96.51,55.73 93.4,55.7 C92.06,55.68 90.72,55.63 89.39,55.5 C89.11,55.48 88.83,55.45 88.56,55.41 C89.41,55.52 88.5,55.4 88.31,55.37 C87.56,55.24 86.83,55.05 86.11,54.85 C85.72,54.74 85.34,54.62 84.97,54.49 C84.78,54.43 84.6,54.36 84.42,54.3 C84.32,54.26 83.54,53.94 84.11,54.18 C83.31,53.85 82.55,53.45 81.8,53.02 C81.05,52.59 80.34,52.11 79.64,51.61 C79.49,51.5 79.34,51.39 79.19,51.28 C79.08,51.2 78.98,51.12 78.88,51.05 C79.11,51.22 79.12,51.23 78.91,51.06 C78.55,50.78 78.19,50.49 77.84,50.19 C74.26,47.2 70.91,43.93 67.31,40.95 C66.64,40.4 65.88,40.1 65,40.34 C64.25,40.55 63.5,41.2 63.34,42 C63.28,42.34 63.15,42.67 63.02,42.99 C62.8,43.55 63.33,42.3 63.04,42.96 C62.94,43.17 62.83,43.38 62.73,43.59 C62.47,44.09 62.17,44.57 61.86,45.03 C61.68,45.3 61.5,45.55 61.3,45.81 C61.08,46.11 61.71,45.29 61.47,45.6 C61.41,45.66 61.36,45.73 61.3,45.8 C61.17,45.96 61.03,46.13 60.89,46.29 C60.34,46.93 59.73,47.53 59.1,48.1 C58.76,48.41 58.4,48.71 58.04,49 C57.95,49.08 57.85,49.15 57.76,49.23 C58.34,48.77 57.97,49.06 57.84,49.16 C57.6,49.34 57.36,49.51 57.11,49.69 C56.14,50.37 55.12,50.98 54.08,51.55 C53.56,51.83 53.04,52.09 52.51,52.34 C52.21,52.49 51.91,52.63 51.6,52.77 C51.44,52.84 51.29,52.9 51.13,52.97 C50.58,53.21 51.61,52.78 51.05,53.01 C49.63,53.59 48.18,54.1 46.71,54.54 C45.02,55.06 43.3,55.48 41.58,55.85 C39.72,56.24 37.49,56.6 35.93,56.8 C32.54,57.22 29.02,57.63 25.59,57.32 C25.4,57.31 24.42,57.18 25.26,57.3 C24.98,57.26 24.71,57.21 24.44,57.17 C23.84,57.07 23.25,56.96 22.66,56.85 C20.96,56.53 19.25,56.25 17.54,56.02 C16.26,55.84 15,56.3 14.62,57.67 C14.31,58.8 14.99,60.42 16.28,60.6 C19.39,61.02 22.47,61.77 25.59,62.08 C29.27,62.43 33.09,61.92 36.73,61.44 C43.75,60.51 50.79,58.84 57.01,55.36 C60.51,53.4 63.7,50.77 65.96,47.43 C66.8,46.2 67.62,44.73 67.92,43.26 C66.6,43.61 65.28,43.96 63.95,44.31 C67.24,47.03 70.33,49.95 73.55,52.75 C76.03,54.92 78.67,56.96 81.71,58.28 C87.36,60.73 93.47,60.58 99.51,60.34 C104.47,60.13 109.43,59.75 114.36,59.21 C113.57,58.42 112.77,57.63 111.98,56.83 C111.98,62.89 111.98,68.95 111.98,75.01 C111.98,84.75 111.98,94.48 111.98,104.21 C111.98,106.5 111.98,108.78 111.98,111.07 C111.98,111.79 111.97,112.5 111.94,113.22 C111.91,114.1 111.84,114.97 111.76,115.85 C111.72,116.28 111.67,116.71 111.62,117.15 C111.62,117.21 111.52,117.92 111.59,117.37 C111.56,117.66 111.51,117.94 111.47,118.22 C110.92,121.69 109.97,125.09 108.66,128.35 C108.63,128.42 108.37,129.05 108.58,128.55 C108.5,128.74 108.42,128.93 108.33,129.12 C108.17,129.5 107.99,129.87 107.82,130.25 C107.44,131.05 107.03,131.84 106.61,132.63 C105.79,134.12 104.89,135.57 103.91,136.97 C103.68,137.3 103.44,137.63 103.2,137.96 C103.08,138.12 102.96,138.29 102.83,138.45 C102.42,138.99 103.12,138.08 102.71,138.61 C102.16,139.31 101.59,139.98 101.01,140.64 C99.89,141.92 98.69,143.12 97.44,144.27 C96.84,144.82 96.22,145.35 95.59,145.87 C95.28,146.13 94.96,146.38 94.64,146.63 C95.06,146.3 94.52,146.72 94.47,146.76 C94.25,146.92 94.03,147.08 93.81,147.24 C92.43,148.25 90.99,149.18 89.51,150.03 C88.01,150.89 86.47,151.67 84.89,152.37 C84.7,152.45 84.51,152.54 84.32,152.62 C84.81,152.4 84.17,152.67 84.11,152.7 C83.73,152.86 83.34,153.01 82.94,153.15 C82.09,153.48 81.23,153.77 80.36,154.05 C78.67,154.59 76.95,155.02 75.22,155.37 C74.37,155.55 73.52,155.69 72.67,155.82 C72.61,155.83 71.9,155.93 72.44,155.86 C72.23,155.89 72.01,155.91 71.8,155.94 C71.29,156 70.78,156.05 70.27,156.1 C66.61,156.43 62.91,156.36 59.26,155.91 C59.19,155.9 58.48,155.81 59.03,155.88 C58.81,155.85 58.6,155.82 58.38,155.79 C57.96,155.72 57.53,155.65 57.11,155.58 C56.19,155.41 55.28,155.22 54.38,155.01 C52.66,154.6 50.97,154.1 49.31,153.51 C48.52,153.24 47.74,152.94 46.96,152.62 C46.32,152.36 47.4,152.81 46.76,152.54 C46.57,152.45 46.38,152.37 46.19,152.28 C45.74,152.09 45.31,151.88 44.87,151.67 C43.32,150.93 41.81,150.09 40.35,149.19 C39.65,148.76 38.97,148.3 38.29,147.84 C37.96,147.6 37.62,147.36 37.29,147.12 C37.13,147 36.96,146.88 36.8,146.76 C36.69,146.67 36.58,146.59 36.47,146.51 C36.68,146.67 36.68,146.67 36.47,146.51 C35.13,145.46 33.86,144.33 32.64,143.15 C31.42,141.96 30.28,140.71 29.2,139.4 C28.94,139.09 28.69,138.77 28.44,138.45 C28.77,138.88 28.35,138.34 28.31,138.29 C28.19,138.12 28.07,137.96 27.95,137.8 C27.42,137.08 26.92,136.36 26.44,135.61 C25.51,134.18 24.67,132.7 23.9,131.17 C23.53,130.44 23.18,129.69 22.85,128.93 C22.83,128.87 22.56,128.24 22.77,128.74 C22.69,128.55 22.61,128.35 22.53,128.16 C22.35,127.71 22.18,127.26 22.01,126.8 C21.42,125.16 20.92,123.48 20.51,121.78 C20.31,120.95 20.14,120.12 19.98,119.28 C19.9,118.86 19.83,118.43 19.77,118.01 C19.73,117.8 19.7,117.59 19.67,117.37 C19.75,117.92 19.63,117.02 19.62,116.93 C19.26,114 19.28,111.06 19.28,108.11 C19.28,104.26 19.28,100.41 19.28,96.56 C19.28,86.66 19.28,76.77 19.28,66.87 C19.28,64.02 19.28,61.16 19.28,58.31 C19.28,55.24 14.53,55.24 14.53,58.31" id="Fill-837" fill="#4C5159"></path>
            <path d="M8.65,90.06 C8.65,90.06 7.82,92.95 9.45,94.38 C14.57,98.9 14.41,105.5 14.41,105.5 L14.41,93.74 L12.74,91.88 L8.65,90.06" id="Fill-838" fill="#EFA670"></path>
            <path d="M18.01,99.64 C18.15,98.01 17.82,96.26 17.25,94.74 C16,91.36 13.23,89.1 9.76,88.25 C8.28,87.88 7.65,90.17 9.13,90.54 C11.97,91.24 14.18,93.05 15.1,95.74 C15.58,97.13 15.76,98.17 15.63,99.64 C15.5,101.17 17.87,101.16 18.01,99.64" id="Fill-839" fill="#4C5159"></path>
            <path d="M29.64,74.84 C29.83,74.73 30.03,74.63 30.23,74.53 C30.47,74.41 30.72,74.29 30.97,74.17 C31.13,74.1 31.29,74.03 31.44,73.96 C31.61,73.88 32.29,73.6 31.53,73.92 C33.5,73.09 35.54,72.46 37.62,72.01 C38.21,71.88 38.79,71.78 39.38,71.68 C39.52,71.66 39.65,71.64 39.79,71.63 C39.21,71.71 39.9,71.62 39.98,71.61 C40.33,71.57 40.68,71.54 41.03,71.52 C42.49,71.41 43.95,71.44 45.41,71.59 C45.69,71.63 45.71,71.63 45.45,71.59 C45.68,71.63 45.9,71.66 46.13,71.7 C46.51,71.77 46.88,71.85 47.26,71.93 C48.03,72.11 48.78,72.34 49.53,72.61 C49.68,72.66 49.83,72.72 49.98,72.78 C50.71,73.06 49.58,72.59 50.31,72.92 C50.69,73.09 51.06,73.28 51.43,73.47 C52.19,73.87 52.92,74.34 53.62,74.84 C54.68,75.59 56.26,75.03 56.87,73.99 C57.57,72.8 57.07,71.48 56.02,70.74 C50.43,66.77 43.52,66.06 36.93,67.31 C33.62,67.94 30.19,69.07 27.24,70.74 C26.11,71.37 25.74,72.88 26.39,73.99 C27.05,75.12 28.51,75.47 29.64,74.84" id="Fill-840" fill="#4C5159"></path>
            <path d="M99.44,70.74 C96.54,69.1 93.19,68.01 89.94,67.35 C83.32,66 76.28,66.76 70.66,70.74 C69.61,71.48 69.11,72.8 69.81,73.99 C70.42,75.03 72,75.59 73.06,74.84 C73.7,74.39 74.35,73.97 75.03,73.59 C75.4,73.39 75.77,73.2 76.15,73.02 C76.3,72.95 76.45,72.89 76.6,72.82 C76.21,72.99 76.94,72.69 76.93,72.69 C77.67,72.41 78.43,72.18 79.2,71.99 C79.57,71.89 79.95,71.81 80.33,71.74 C80.48,71.71 80.63,71.69 80.78,71.66 C80.82,71.66 81.57,71.55 81.05,71.62 C82.43,71.44 83.84,71.42 85.23,71.49 C85.58,71.51 85.94,71.54 86.29,71.57 C86.43,71.58 86.57,71.59 86.71,71.61 C86.78,71.62 87.48,71.7 86.9,71.63 C87.56,71.71 88.22,71.83 88.87,71.97 C90.98,72.39 93.04,73.05 95.04,73.87 C95.26,73.96 95.19,73.93 94.81,73.77 C94.92,73.82 95.03,73.87 95.14,73.91 C95.3,73.98 95.46,74.06 95.62,74.13 C95.88,74.25 96.14,74.37 96.4,74.5 C96.61,74.61 96.83,74.72 97.05,74.84 C98.17,75.47 99.63,75.12 100.3,73.99 C100.94,72.88 100.57,71.37 99.44,70.74" id="Fill-841" fill="#4C5159"></path>
            <path d="M60.2,113.78 C60.26,113.67 60.33,113.57 60.4,113.48 C60.53,113.29 60.21,113.71 60.37,113.51 C60.42,113.44 60.48,113.38 60.53,113.33 C60.67,113.18 60.81,113.05 60.96,112.92 C61.02,112.87 61.21,112.74 61.42,112.6 C61.67,112.44 61.94,112.31 62.21,112.18 C62.91,111.86 63.73,111.69 64.49,111.6 C66.22,111.39 67.88,111.55 69.38,112.46 C69.81,112.73 70.17,113.05 70.52,113.41 C70.64,113.54 70.75,113.67 70.86,113.8 C70.62,113.5 70.79,113.7 70.84,113.78 C71.67,115.05 73.73,113.87 72.89,112.58 C71.07,109.82 67.62,108.91 64.49,109.22 C62.27,109.45 59.23,110.36 58.15,112.58 C57.49,113.95 59.53,115.16 60.2,113.78" id="Fill-842" fill="#4C5159"></path>
            <path d="M82.82,125.82 C79.37,128.54 75.42,130.55 71.11,131.42 C67.83,132.09 64.42,131.93 61.24,131.2 C58.48,130.57 56.28,129.68 53.88,128.35 C53.03,127.89 52.21,127.38 51.42,126.84 C51.14,126.65 50.87,126.46 50.6,126.26 C50.5,126.18 50.4,126.1 50.29,126.03 C50.78,126.4 50.41,126.12 50.3,126.03 C50.21,125.96 50.13,125.89 50.05,125.82 C49.4,125.25 48.45,125.17 47.81,125.82 C47.23,126.39 47.16,127.49 47.81,128.06 C50.45,130.35 53.72,132.02 56.97,133.23 C63.91,135.81 71.43,135.47 78.16,132.41 C80.65,131.28 82.92,129.75 85.06,128.06 C85.74,127.52 85.61,126.37 85.06,125.82 C84.39,125.15 83.49,125.28 82.82,125.82" id="Fill-843" fill="#4C5159"></path>
            <path d="M56.88,160.22 C56.88,160.22 65.63,161.71 74.39,160.22 L74.39,164.54 C74.39,164.54 71.48,165.91 65.95,165.91 C60.56,165.91 56.88,164.54 56.88,164.54 L56.88,160.22" id="Fill-844" fill="#EFA670"></path>
            <path d="M107.83,59.84 L107.83,113.26 C107.83,113.26 105.25,149.57 64.27,156.33 C64.27,156.33 76.76,156.71 88.89,150 C99.8,143.98 111.4,131.68 111.91,113.26 L111.91,59.47 L107.83,59.84" id="Fill-845" fill="#EFA670"></path>
            <path d="M108.16,62.24 C108.16,62.24 90.57,69.08 67.14,54.51 C67.14,54.51 47.18,67.81 19.28,64.32 L19.28,61.08 C19.28,61.08 52.78,65.91 66.71,46.59 C71.04,51.23 71,51.28 76.53,55.19 C82.58,59.47 87.88,61.79 108.16,59.76 L108.16,62.24" id="Fill-846" fill="#EFA670"></path>
            <path d="M87.61,84.73 C87.61,86.81 86.58,88.49 85.32,88.49 C84.05,88.49 83.02,86.81 83.02,84.73 C83.02,82.66 84.05,80.97 85.32,80.97 C86.58,80.97 87.61,82.66 87.61,84.73" id="Fill-847" fill="#4C5159"></path>
            <path d="M45.37,84.73 C45.37,86.81 44.34,88.49 43.08,88.49 C41.81,88.49 40.79,86.81 40.79,84.73 C40.79,82.66 41.81,80.97 43.08,80.97 C44.34,80.97 45.37,82.66 45.37,84.73" id="Fill-848" fill="#4C5159"></path>
            <path d="M47.18,202.74 C47.88,202.72 48.58,202.77 49.28,202.82 C49.62,202.85 49.96,202.89 50.29,202.93 C50.4,202.94 50.73,202.99 50.23,202.92 C50.33,202.94 50.42,202.95 50.52,202.96 C50.75,203 50.98,203.04 51.21,203.08 C52.12,203.24 53.02,203.45 53.91,203.71 C54.38,203.85 54.83,204.01 55.29,204.17 C55.52,204.26 55.75,204.35 55.98,204.45 C55.62,204.3 56.01,204.46 56.07,204.49 C56.22,204.56 56.38,204.63 56.53,204.7 C57,204.93 57.45,205.17 57.9,205.44 C58.12,205.57 58.34,205.72 58.56,205.86 C58.67,205.94 58.78,206.01 58.89,206.09 C58.94,206.12 59.39,206.46 59.1,206.24 C59.53,206.57 59.94,206.93 60.33,207.31 C60.52,207.51 60.71,207.71 60.89,207.92 C60.99,208.02 61.08,208.13 61.17,208.23 C61.23,208.31 61.29,208.38 61.35,208.45 C61.24,208.32 61.25,208.33 61.36,208.47 C61.71,208.94 62.02,209.44 62.3,209.95 C62.69,210.65 62.77,210.87 63.01,211.56 C63.72,213.56 63.87,215.36 63.8,217.48 C63.74,219.52 66.91,219.52 66.97,217.48 C67.07,214.37 66.55,211.26 65.1,208.48 C63.94,206.26 62.13,204.44 60.05,203.05 C56.81,200.9 52.83,199.93 48.99,199.63 C48.39,199.59 47.78,199.55 47.18,199.57 C45.14,199.63 45.13,202.8 47.18,202.74" id="Fill-849" fill="#CA6335"></path>
            <path d="M85.8,199.57 C83.35,199.5 80.8,199.93 78.46,200.59 C73.9,201.89 69.69,204.66 67.61,209.03 C66.35,211.66 65.92,214.58 66.01,217.48 C66.08,219.52 69.25,219.52 69.18,217.48 C69.08,214.61 69.54,211.9 70.9,209.56 C71.54,208.47 71.98,207.95 72.95,207.03 C73.15,206.84 73.36,206.67 73.56,206.49 C73.67,206.4 73.77,206.32 73.88,206.24 C73.59,206.46 73.95,206.19 73.98,206.16 C74.45,205.83 74.93,205.53 75.42,205.24 C75.87,204.99 76.33,204.76 76.8,204.54 C76.91,204.49 77.03,204.44 77.14,204.39 C76.78,204.55 77.17,204.38 77.23,204.35 C77.5,204.25 77.77,204.15 78.04,204.05 C78.95,203.72 79.89,203.47 80.84,203.26 C81.25,203.17 81.66,203.09 82.07,203.03 C82.27,202.99 82.46,202.96 82.65,202.94 C83,202.89 82.26,202.99 82.6,202.94 C82.72,202.93 82.84,202.91 82.96,202.9 C83.56,202.83 84.17,202.78 84.78,202.76 C85.12,202.74 85.46,202.73 85.8,202.74 C87.85,202.8 87.84,199.63 85.8,199.57" id="Fill-850" fill="#CA6335"></path>
        </g>
    </g>
</svg>