<?xml version="1.0" encoding="UTF-8"?>
<svg width="159px" height="232px" viewBox="0 0 159 232" version="1.1" xmlns="http://www.w3.org/2000/svg" xmlns:xlink="http://www.w3.org/1999/xlink">
    <!-- Generator: Sketch 48.2 (47327) - http://www.bohemiancoding.com/sketch -->
    <title>female5</title>
    <desc>Created with Sketch.</desc>
    <defs></defs>
    <g id="Page-1" stroke="none" stroke-width="1" fill="none" fill-rule="evenodd">
        <g id="female5">
            <path d="M78.69,3.626 C100.26,0.776 108.3,10.065 112.76,7.501 C137.84,-6.917 155.97,47.836 156.27,89.83 C156.54,126.46 140.38,148.15 140.38,148.15 C140.38,148.15 43.38,145.85 9.18,177.51 C9.18,177.51 -2.33,120.05 5.38,81.8 C14.58,36.11 45.52,8.009 78.69,3.626" id="Fill-580" fill="#E87F6E"></path>
            <path d="M78.69,6.002 C83.21,5.414 87.78,5.266 92.32,5.746 C92.54,5.77 92.77,5.796 93,5.823 C93.05,5.83 93.79,5.93 93.25,5.856 C93.68,5.915 94.11,5.982 94.53,6.053 C95.4,6.196 96.26,6.37 97.12,6.561 C98.57,6.882 100.01,7.281 101.43,7.722 C103.58,8.386 105.67,9.224 107.83,9.832 C109.78,10.381 111.74,10.558 113.62,9.72 C114.09,9.516 114.52,9.238 114.97,9.007 C115.25,8.863 115.54,8.73 115.83,8.601 C116.33,8.372 115.32,8.804 115.83,8.597 C116.02,8.52 116.21,8.449 116.4,8.378 C116.95,8.173 117.51,8.005 118.08,7.861 C118.36,7.791 118.63,7.734 118.91,7.68 C119.05,7.654 119.19,7.631 119.33,7.609 C119.76,7.538 118.71,7.678 119.38,7.603 C119.92,7.54 120.47,7.519 121.01,7.521 C121.28,7.522 121.55,7.535 121.82,7.552 C122.04,7.567 123.1,7.704 122.25,7.582 C123.36,7.742 124.45,8.054 125.49,8.462 C125.64,8.518 126.1,8.72 125.43,8.434 C125.56,8.488 125.69,8.547 125.81,8.605 C126.07,8.722 126.32,8.849 126.57,8.977 C127.12,9.265 127.65,9.588 128.17,9.927 C128.42,10.088 128.66,10.257 128.9,10.427 C129.02,10.515 129.14,10.605 129.26,10.693 C129.69,11.014 128.83,10.358 129.26,10.691 C129.79,11.107 130.29,11.549 130.79,12.005 C131.8,12.938 132.74,13.951 133.63,15.004 C133.85,15.271 134.07,15.54 134.28,15.812 C134.35,15.894 134.72,16.37 134.35,15.888 C134.46,16.029 134.56,16.172 134.67,16.315 C135.15,16.947 135.6,17.598 136.05,18.254 C137.92,21.013 139.51,23.952 140.94,26.957 C141.32,27.734 141.67,28.519 142.02,29.307 C142.2,29.707 142.37,30.11 142.54,30.515 C142.35,30.053 142.63,30.729 142.65,30.764 C142.76,31.04 142.88,31.316 142.99,31.592 C143.71,33.361 144.37,35.152 145,36.955 C147.72,44.729 149.69,52.762 151.15,60.86 C151.93,65.19 152.46,68.93 152.92,73.14 C153.36,77.3 153.67,81.49 153.81,85.67 C154.13,95 153.52,104.17 151.74,113.14 C150.96,117.02 149.98,120.87 148.79,124.64 C148.27,126.3 147.71,127.95 147.1,129.58 C146.83,130.3 146.56,131.03 146.27,131.75 C146.13,132.09 146,132.44 145.85,132.78 C145.79,132.95 145.71,133.12 145.65,133.29 C145.6,133.4 145.55,133.51 145.51,133.62 C145.63,133.33 145.64,133.3 145.54,133.55 C143.86,137.48 141.93,141.34 139.65,144.97 C139.23,145.64 138.8,146.31 138.32,146.95 C139.01,146.56 139.69,146.17 140.38,145.78 C136,145.67 131.62,145.75 127.25,145.84 C116.6,146.09 105.95,146.71 95.35,147.75 C81.94,149.05 68.57,150.99 55.45,154.07 C42.94,157 30.39,160.98 19.18,167.38 C15.01,169.77 11.03,172.57 7.5,175.83 C8.82,176.18 10.14,176.53 11.47,176.88 C11.06,174.84 10.7,172.79 10.36,170.74 C9.96,168.4 9.59,166.07 9.23,163.73 C9.02,162.3 8.81,160.86 8.61,159.43 C8.5,158.69 8.4,157.95 8.3,157.2 C8.38,157.82 8.3,157.17 8.29,157.07 C8.26,156.88 8.23,156.68 8.21,156.49 C8.15,156.03 8.09,155.57 8.03,155.11 C6,139.31 4.78,123.34 5.16,107.4 C5.26,103.21 5.49,99.02 5.88,94.85 C6.26,90.72 6.7,87.47 7.49,83.34 C8.35,78.83 9.48,74.37 10.83,69.98 C12.11,65.85 13.7,61.58 15.34,57.884 C17.04,54.032 18.98,50.285 21.13,46.663 C22.17,44.91 23.26,43.194 24.41,41.51 C24.95,40.713 25.5,39.926 26.06,39.145 C26.34,38.758 26.63,38.374 26.91,37.99 C27.05,37.801 27.2,37.61 27.34,37.42 C27.39,37.357 27.92,36.668 27.69,36.96 C30.06,33.899 32.63,30.993 35.37,28.253 C36.7,26.918 38.08,25.632 39.5,24.385 C40.17,23.794 40.85,23.216 41.54,22.646 C41.88,22.362 42.23,22.084 42.57,21.805 C42.75,21.667 42.92,21.529 43.09,21.393 C43.21,21.302 43.33,21.21 43.44,21.119 C43.25,21.265 43.27,21.254 43.49,21.086 C48.79,17.019 54.58,13.603 60.72,10.97 C60.98,10.861 60.98,10.86 60.74,10.964 C60.93,10.883 61.13,10.803 61.32,10.722 C61.71,10.564 62.1,10.409 62.49,10.256 C63.27,9.952 64.06,9.663 64.85,9.385 C66.42,8.831 68.01,8.338 69.62,7.893 C71.15,7.467 72.69,7.1 74.25,6.776 C75.05,6.608 75.87,6.457 76.68,6.317 C77.08,6.246 77.49,6.182 77.9,6.119 C78.1,6.087 78.3,6.059 78.51,6.028 C78.59,6.017 79.27,5.923 78.69,6.002 C79.98,5.83 81.07,5.05 81.07,3.626 C81.07,2.46 79.98,1.079 78.69,1.25 C64.14,3.194 50.67,9.316 39.21,18.447 C26.65,28.462 17.06,41.979 10.72,56.674 C7.1,65.04 4.45,73.8 2.78,82.76 C1.25,90.96 0.6,99.33 0.4,107.66 C0.02,123.58 1.28,139.53 3.3,155.31 C4.28,162.94 5.38,170.59 6.88,178.14 C7.25,179.98 9.63,180.32 10.85,179.19 C11.84,178.28 12.86,177.41 13.92,176.58 C14.04,176.47 14.17,176.37 14.3,176.27 C13.79,176.67 14.25,176.32 14.34,176.24 C14.61,176.04 14.87,175.85 15.14,175.65 C15.72,175.22 16.32,174.8 16.92,174.4 C19.31,172.77 21.81,171.3 24.37,169.96 C25.71,169.26 27.07,168.59 28.44,167.95 C29.1,167.64 29.78,167.34 30.46,167.04 C30.8,166.89 31.14,166.75 31.48,166.6 C32.06,166.35 31.02,166.79 31.6,166.55 C31.83,166.45 32.07,166.35 32.3,166.26 C35.26,165.04 38.27,163.95 41.31,162.94 C54.08,158.72 67.37,156.11 80.67,154.23 C81.07,154.17 81.46,154.12 81.86,154.06 C82.06,154.04 82.25,154.01 82.45,153.98 C83.12,153.89 81.94,154.05 82.61,153.96 C83.46,153.85 84.31,153.74 85.16,153.63 C86.78,153.43 88.4,153.24 90.02,153.06 C93.15,152.71 96.29,152.39 99.43,152.12 C105.08,151.63 110.75,151.25 116.42,150.98 C123.68,150.63 130.94,150.44 138.2,150.5 C138.83,150.5 139.46,150.51 140.09,150.52 C141.13,150.54 141.95,150.02 142.55,149.18 C144.15,146.93 145.51,144.5 146.77,142.05 C153.65,128.76 157.32,113.9 158.37,99.02 C158.99,90.15 158.56,81.21 157.58,72.38 C156.63,63.84 155.13,55.348 152.99,47.025 C151.03,39.395 148.5,31.883 145.14,24.751 C142.44,19.037 139.08,13.386 134.5,8.973 C130.75,5.363 125.93,2.692 120.61,2.773 C117.84,2.815 115.18,3.624 112.71,4.834 C112.23,5.07 111.78,5.36 111.29,5.588 C112.12,5.198 111.61,5.459 111.37,5.527 C111.13,5.597 110.43,5.668 111.41,5.555 C111.08,5.592 110.76,5.582 110.43,5.557 C109.75,5.502 110.99,5.651 110.45,5.563 C110.23,5.527 110.01,5.48 109.79,5.43 C108.26,5.082 106.79,4.514 105.31,4.004 C103.22,3.283 101.1,2.624 98.95,2.109 C92.31,0.527 85.44,0.374 78.69,1.25 C77.41,1.417 76.32,2.204 76.32,3.626 C76.32,4.794 77.41,6.168 78.69,6.002" id="Fill-581" fill="#4C5159"></path>
            <path d="M114.26,89.98 C114.26,100.23 120.11,108.54 127.32,108.54 C134.53,108.54 140.38,100.23 140.38,89.98 C140.38,79.72 134.53,71.41 127.32,71.41 C120.11,71.41 114.26,79.72 114.26,89.98" id="Fill-582" fill="#F4E0CD"></path>
            <path d="M111.89,89.98 C111.92,97.39 114.91,106.34 122.12,109.71 C125.51,111.29 129.13,111.22 132.51,109.71 C135.74,108.27 138.25,105.29 139.87,102.22 C143.8,94.78 143.7,85.18 139.87,77.73 C138.27,74.62 135.72,71.74 132.51,70.24 C129.13,68.66 125.51,68.73 122.12,70.24 C118.89,71.68 116.39,74.67 114.77,77.73 C112.79,81.48 111.91,85.76 111.89,89.98 C111.87,93.04 116.62,93.04 116.64,89.98 C116.66,86.19 117.47,82.55 119.29,79.37 C119.5,79.01 119.73,78.65 119.96,78.3 C120.08,78.13 120.2,77.96 120.32,77.79 C120.72,77.24 120.02,78.15 120.44,77.63 C120.98,76.96 121.58,76.35 122.21,75.79 C122.36,75.66 122.5,75.54 122.65,75.42 C122.21,75.78 122.7,75.4 122.78,75.34 C123.08,75.13 123.39,74.94 123.71,74.76 C124.03,74.57 124.36,74.42 124.69,74.27 C124.13,74.52 124.68,74.28 124.79,74.25 C125.01,74.16 125.24,74.1 125.47,74.03 C125.81,73.93 126.16,73.87 126.51,73.81 C125.87,73.91 126.47,73.82 126.6,73.81 C126.78,73.79 126.96,73.79 127.14,73.78 C127.5,73.77 127.86,73.79 128.22,73.82 C128.83,73.88 127.69,73.74 128.3,73.84 C128.53,73.88 128.76,73.93 129,73.99 C129.34,74.07 129.68,74.18 130.02,74.31 C130.59,74.51 129.55,74.09 130.12,74.34 C130.28,74.42 130.44,74.5 130.6,74.58 C130.93,74.75 131.24,74.94 131.55,75.14 C131.71,75.24 131.86,75.34 132.01,75.45 C132.23,75.61 132.22,75.6 131.98,75.42 C132.08,75.5 132.18,75.58 132.28,75.66 C132.88,76.16 133.42,76.73 133.94,77.32 C134.07,77.47 134.19,77.63 134.32,77.78 C133.98,77.37 134.4,77.91 134.44,77.96 C134.73,78.36 134.99,78.77 135.24,79.19 C135.69,79.94 136.08,80.72 136.43,81.53 C136.23,81.08 136.51,81.76 136.52,81.8 C136.61,82.01 136.68,82.22 136.76,82.44 C136.94,82.95 137.09,83.47 137.23,84 C137.49,84.93 137.67,85.88 137.82,86.83 C137.75,86.38 137.85,87.18 137.85,87.19 C137.88,87.44 137.9,87.69 137.92,87.93 C137.97,88.53 137.99,89.12 138,89.72 C138.01,90.74 137.96,91.75 137.85,92.76 C137.85,92.77 137.75,93.58 137.82,93.12 C137.78,93.36 137.74,93.6 137.7,93.84 C137.61,94.4 137.48,94.95 137.35,95.49 C137.13,96.4 136.85,97.28 136.52,98.15 C136.51,98.19 136.23,98.88 136.43,98.42 C136.34,98.63 136.25,98.83 136.15,99.03 C135.94,99.5 135.7,99.95 135.46,100.39 C135.25,100.76 135.02,101.12 134.79,101.48 C134.68,101.65 134.56,101.82 134.44,101.99 C134.4,102.05 133.99,102.59 134.32,102.17 C133.79,102.84 133.2,103.46 132.57,104.04 C132.42,104.17 132.28,104.29 132.13,104.41 C131.64,104.82 132.52,104.13 132.01,104.5 C131.72,104.72 131.4,104.92 131.08,105.1 C130.77,105.29 130.44,105.45 130.12,105.61 C129.56,105.87 130.59,105.42 130.02,105.64 C129.79,105.73 129.57,105.8 129.34,105.87 C129,105.97 128.65,106.05 128.3,106.11 C127.69,106.23 128.83,106.06 128.22,106.13 C128.04,106.14 127.86,106.15 127.68,106.16 C127.32,106.18 126.96,106.17 126.6,106.14 C126.47,106.13 125.87,106.05 126.51,106.14 C126.28,106.11 126.05,106.06 125.81,106.01 C125.47,105.93 125.12,105.82 124.79,105.71 C124.68,105.67 124.12,105.44 124.69,105.68 C124.52,105.61 124.36,105.53 124.19,105.45 C123.87,105.29 123.55,105.11 123.24,104.91 C123.08,104.82 122.93,104.71 122.78,104.61 C122.67,104.54 122.57,104.46 122.47,104.39 C122.7,104.57 122.71,104.58 122.5,104.41 C121.9,103.92 121.35,103.37 120.83,102.78 C120.7,102.63 120.57,102.48 120.44,102.32 C120.02,101.8 120.72,102.71 120.32,102.16 C120.03,101.77 119.76,101.36 119.51,100.94 C119.01,100.14 118.59,99.29 118.21,98.42 C118.41,98.88 118.12,98.19 118.11,98.15 C118.03,97.94 117.96,97.73 117.88,97.51 C117.7,97 117.55,96.48 117.4,95.95 C117.28,95.49 117.17,95.02 117.07,94.56 C117.02,94.32 116.98,94.08 116.94,93.84 C116.92,93.76 116.79,92.87 116.84,93.26 C116.7,92.17 116.64,91.07 116.64,89.98 C116.62,86.91 111.87,86.91 111.89,89.98" id="Fill-583" fill="#4C5159"></path>
            <path d="M134.35,90.64 C134.35,90.64 135.17,93.54 133.55,94.97 C128.43,99.48 128.59,106.08 128.59,106.08 L128.59,94.32 L130.25,92.46 L134.35,90.64" id="Fill-584" fill="#E7CEBB"></path>
            <path d="M127.36,100.23 C127.23,98.74 127.43,97.73 127.9,96.33 C128.78,93.63 131.05,91.82 133.86,91.12 C135.35,90.75 134.72,88.46 133.23,88.83 C129.73,89.7 127.04,91.95 125.74,95.32 C125.16,96.83 124.85,98.61 124.99,100.23 C125.12,101.74 127.5,101.75 127.36,100.23" id="Fill-585" fill="#4C5159"></path>
            <path d="M80.24,229.61 C121.12,229.61 134.95,221.18 134.95,221.18 C134.95,221.18 135.29,198.01 128.1,192.21 C128.1,192.21 101.25,175 89.79,172.02 L67.54,172.02 C56.08,175 29.23,192.21 29.23,192.21 C22.04,198.01 22.39,221.18 22.39,221.18 C22.39,221.18 40.86,229.61 81.74,229.61 L80.24,229.61" id="Fill-586" fill="#21A0A9"></path>
            <path d="M80.24,231.99 C94.74,231.98 109.55,231.14 123.68,227.66 C126.81,226.88 129.91,225.97 132.89,224.74 C134.1,224.25 136.26,223.63 137,222.38 C137.59,221.36 137.32,219.64 137.3,218.52 C137.24,216.24 137.11,213.97 136.9,211.7 C136.37,205.91 135.52,199.84 132.87,194.59 C132.01,192.88 130.78,191.1 129.14,190.06 C128.13,189.42 127.12,188.78 126.11,188.16 C121.59,185.35 117.03,182.63 112.4,180.02 C106.96,176.95 101.43,174 95.67,171.58 C94.54,171.11 93.39,170.66 92.23,170.27 C91.36,169.98 90.45,169.64 89.53,169.64 C87.34,169.64 85.15,169.64 82.95,169.64 C79.76,169.64 76.57,169.64 73.38,169.64 C71.45,169.64 69.52,169.64 67.59,169.64 C66.56,169.64 65.42,170.16 64.45,170.5 C63.12,170.97 61.81,171.51 60.51,172.07 C54.86,174.49 49.44,177.46 44.11,180.49 C39.61,183.04 35.17,185.7 30.77,188.44 C29.88,188.99 28.99,189.55 28.1,190.12 C26.29,191.28 25.02,193.36 24.14,195.26 C21.64,200.61 20.85,206.68 20.36,212.5 C20.12,215.38 19.97,218.29 20.01,221.18 C20.02,221.96 20.44,222.89 21.19,223.23 C25.93,225.39 31.18,226.63 36.25,227.72 C51.15,230.94 66.53,231.98 81.74,231.99 C81.74,230.4 81.74,228.82 81.74,227.24 C81.24,227.24 80.74,227.24 80.24,227.24 C77.17,227.24 77.17,231.99 80.24,231.99 C80.74,231.99 81.24,231.99 81.74,231.99 C84.8,231.99 84.8,227.24 81.74,227.24 C72.81,227.23 63.88,226.84 54.99,225.9 C54.11,225.8 53.23,225.7 52.34,225.6 C51.92,225.54 51.49,225.49 51.06,225.44 C50.85,225.41 50.64,225.38 50.43,225.36 C50.33,225.34 49.44,225.23 50.03,225.3 C48.4,225.09 46.78,224.84 45.16,224.58 C42.41,224.13 39.66,223.61 36.93,223.01 C33.4,222.24 29.9,221.33 26.47,220.19 C25.61,219.9 24.75,219.59 23.91,219.26 C23.61,219.14 22.73,218.77 23.81,219.23 C23.73,219.2 23.66,219.16 23.59,219.13 C23.98,219.82 24.37,220.5 24.76,221.18 C24.72,217.91 24.91,214.63 25.22,211.37 C25.28,210.71 25.35,210.04 25.43,209.38 C25.47,209.04 25.51,208.7 25.55,208.36 C25.47,209.03 25.55,208.43 25.56,208.31 C25.59,208.08 25.63,207.85 25.66,207.62 C25.88,206.18 26.14,204.74 26.46,203.33 C26.77,201.96 27.14,200.6 27.6,199.28 C27.71,198.97 27.82,198.67 27.93,198.38 C27.99,198.23 28.05,198.08 28.11,197.94 C27.85,198.57 28.06,198.06 28.11,197.94 C28.37,197.35 28.66,196.78 28.98,196.23 C29.12,195.99 29.26,195.75 29.42,195.52 C29.52,195.36 30.09,194.61 29.6,195.24 C29.93,194.81 30.31,194.41 30.72,194.05 C31.08,193.74 30.16,194.44 30.53,194.2 C30.66,194.12 30.79,194.04 30.91,193.96 C32.14,193.18 33.38,192.41 34.62,191.64 C39.35,188.73 44.14,185.89 48.99,183.19 C51.76,181.65 54.55,180.16 57.39,178.75 C58.71,178.09 60.04,177.45 61.39,176.84 C61.99,176.57 62.59,176.31 63.2,176.05 C62.54,176.33 63.49,175.93 63.65,175.86 C63.98,175.73 64.31,175.6 64.64,175.48 C65.69,175.07 66.75,174.71 67.83,174.4 C68.45,174.23 67.08,174.39 67.83,174.39 C68.2,174.39 68.57,174.39 68.94,174.39 C71.34,174.39 73.74,174.39 76.14,174.39 C79.38,174.39 82.62,174.39 85.86,174.39 C86.94,174.39 88.02,174.39 89.09,174.39 C89.32,174.39 89.54,174.39 89.76,174.39 C89.27,174.39 89.15,174.3 89.62,174.43 C89.9,174.51 90.19,174.6 90.47,174.69 C91.6,175.05 92.72,175.47 93.83,175.92 C93.97,175.98 94.11,176.04 94.26,176.1 C94.77,176.32 93.76,175.89 94.28,176.11 C94.58,176.24 94.88,176.37 95.18,176.5 C95.86,176.8 96.53,177.11 97.2,177.42 C107.01,182.01 116.37,187.64 125.53,193.4 C125.92,193.64 126.3,193.88 126.69,194.13 C126.76,194.17 126.82,194.21 126.89,194.26 C126.63,194.09 126.36,193.83 126.7,194.13 C126.92,194.32 127.12,194.53 127.32,194.74 C127.45,194.88 128.01,195.6 127.53,194.97 C127.69,195.18 127.84,195.41 127.99,195.63 C128.33,196.15 128.63,196.7 128.9,197.26 C129.04,197.53 129.16,197.8 129.29,198.08 C129.5,198.58 129.08,197.57 129.29,198.08 C129.34,198.23 129.4,198.38 129.46,198.52 C129.71,199.18 129.93,199.85 130.14,200.53 C130.55,201.89 130.88,203.29 131.16,204.69 C131.3,205.37 131.42,206.06 131.54,206.75 C131.59,207.1 131.64,207.44 131.7,207.79 C131.72,207.96 131.75,208.13 131.77,208.31 C131.79,208.42 131.8,208.53 131.82,208.65 C131.77,208.3 131.76,208.26 131.8,208.53 C132.14,211.1 132.34,213.69 132.46,216.29 C132.54,217.92 132.59,219.55 132.57,221.18 C132.96,220.5 133.35,219.82 133.75,219.13 C133.53,219.27 133.29,219.38 133.06,219.5 C132.77,219.65 132.47,219.79 132.17,219.92 C131.98,220.01 131.79,220.09 131.6,220.17 C131.09,220.4 131.98,220.01 131.8,220.09 C131.67,220.15 131.53,220.2 131.4,220.26 C128.32,221.5 125.12,222.42 121.9,223.2 C119.49,223.79 117.06,224.27 114.62,224.7 C113.17,224.95 111.72,225.18 110.26,225.39 C110.07,225.42 109.88,225.44 109.68,225.47 C109.59,225.48 108.93,225.57 109.53,225.49 C109.13,225.54 108.73,225.6 108.33,225.65 C107.42,225.76 106.51,225.87 105.6,225.97 C97.18,226.9 88.7,227.23 80.24,227.24 C77.17,227.24 77.17,231.99 80.24,231.99" id="Fill-587" fill="#4C5159"></path>
            <path d="M67.49,165.23 L67.49,178.61 C67.49,184.78 72.5,189.79 78.67,189.79 C84.84,189.79 89.84,184.78 89.84,178.61 L89.84,165.23 L67.49,165.23" id="Fill-588" fill="#F4E0CD"></path>
            <path d="M65.12,165.23 C65.12,169.17 65.12,173.12 65.12,177.06 C65.12,179.54 65.32,181.89 66.34,184.21 C67.92,187.79 71.11,190.46 74.83,191.61 C78.63,192.79 83,192.07 86.26,189.82 C89.7,187.47 91.72,183.82 92.16,179.71 C92.34,178.09 92.22,176.39 92.22,174.76 C92.22,172.29 92.22,169.82 92.22,167.35 C92.22,166.65 92.22,165.94 92.22,165.23 C92.22,163.94 91.14,162.86 89.84,162.86 C82.46,162.86 75.08,162.86 67.7,162.86 C67.63,162.86 67.56,162.86 67.49,162.86 C64.43,162.86 64.43,167.61 67.49,167.61 C74.87,167.61 82.25,167.61 89.63,167.61 C89.7,167.61 89.77,167.61 89.84,167.61 C89.05,166.82 88.26,166.03 87.46,165.23 C87.46,169.17 87.46,173.12 87.46,177.06 C87.46,177.57 87.46,178.09 87.46,178.6 C87.46,178.9 87.45,179.2 87.43,179.5 C87.43,179.56 87.33,180.28 87.41,179.73 C87.38,179.94 87.34,180.15 87.29,180.36 C87.21,180.78 87.09,181.19 86.95,181.59 C86.89,181.79 86.81,181.99 86.73,182.18 C86.92,181.69 86.58,182.48 86.53,182.57 C86.34,182.94 86.12,183.29 85.9,183.64 C85.78,183.81 85.66,183.98 85.53,184.14 C85.85,183.72 85.42,184.26 85.38,184.3 C85.11,184.62 84.82,184.91 84.51,185.19 C84.36,185.33 84.2,185.46 84.04,185.59 C84.44,185.26 83.77,185.79 83.69,185.84 C83.35,186.08 82.99,186.28 82.62,186.48 C82.44,186.58 82.25,186.66 82.06,186.75 C82.54,186.53 81.91,186.8 81.85,186.83 C81.45,186.98 81.04,187.09 80.63,187.19 C80.42,187.25 80.21,187.28 80,187.32 C79.72,187.37 79.71,187.37 79.99,187.33 C79.84,187.35 79.7,187.36 79.55,187.38 C79.11,187.41 78.67,187.41 78.22,187.4 C78,187.39 77.78,187.38 77.57,187.36 C76.85,187.29 78.04,187.44 77.34,187.32 C76.92,187.25 76.5,187.15 76.09,187.03 C75.89,186.97 75.69,186.9 75.49,186.83 C75.36,186.78 75.22,186.73 75.1,186.68 C75.34,186.78 75.34,186.77 75.09,186.66 C74.71,186.49 74.35,186.28 73.99,186.07 C73.81,185.96 73.64,185.84 73.47,185.72 C73.42,185.69 72.88,185.27 73.29,185.59 C72.97,185.34 72.67,185.05 72.37,184.76 C72.23,184.61 72.09,184.46 71.95,184.3 C71.86,184.2 71.77,184.1 71.68,183.99 C71.84,184.2 71.84,184.2 71.68,183.98 C71.43,183.64 71.21,183.29 71,182.93 C70.9,182.75 70.8,182.57 70.71,182.38 C70.68,182.32 70.4,181.69 70.6,182.18 C70.44,181.79 70.31,181.39 70.19,180.99 C70.13,180.78 70.09,180.57 70.04,180.36 C70.02,180.27 69.88,179.39 69.95,179.93 C69.86,179.22 69.87,178.51 69.87,177.8 C69.87,173.66 69.87,169.53 69.87,165.39 C69.87,165.34 69.87,165.28 69.87,165.23 C69.87,162.17 65.12,162.17 65.12,165.23" id="Fill-589" fill="#4C5159"></path>
            <path d="M41.77,89.98 C41.77,100.23 35.92,108.54 28.71,108.54 C21.5,108.54 15.65,100.23 15.65,89.98 C15.65,79.72 21.5,71.41 28.71,71.41 C35.92,71.41 41.77,79.72 41.77,89.98" id="Fill-590" fill="#F4E0CD"></path>
            <path d="M39.39,89.98 C39.37,93.76 38.56,97.4 36.74,100.58 C36.53,100.94 36.3,101.3 36.07,101.65 C35.95,101.82 35.83,101.99 35.71,102.16 C35.31,102.71 36.01,101.8 35.58,102.32 C35.05,102.99 34.45,103.6 33.81,104.17 C33.67,104.29 33.52,104.41 33.38,104.53 C33.82,104.17 33.33,104.55 33.25,104.61 C32.95,104.82 32.64,105.01 32.32,105.2 C32,105.38 31.67,105.53 31.34,105.68 C31.9,105.43 31.34,105.67 31.24,105.71 C31.02,105.79 30.79,105.85 30.56,105.92 C30.22,106.02 29.87,106.09 29.51,106.14 C30.16,106.04 29.56,106.13 29.43,106.14 C29.25,106.16 29.07,106.16 28.89,106.17 C28.53,106.18 28.17,106.16 27.81,106.13 C27.2,106.07 28.33,106.21 27.73,106.11 C27.5,106.07 27.26,106.02 27.03,105.96 C26.69,105.88 26.35,105.77 26.01,105.64 C25.44,105.44 26.47,105.86 25.91,105.61 C25.75,105.53 25.59,105.45 25.42,105.37 C25.1,105.2 24.78,105.01 24.48,104.81 C24.32,104.71 24.17,104.61 24.01,104.5 C23.8,104.34 23.81,104.35 24.04,104.53 C23.95,104.45 23.85,104.37 23.75,104.29 C23.15,103.79 22.6,103.22 22.09,102.63 C21.96,102.48 21.83,102.32 21.71,102.17 C22.04,102.58 21.63,102.05 21.59,101.99 C21.3,101.59 21.04,101.18 20.79,100.76 C20.33,100.01 19.95,99.23 19.6,98.42 C19.8,98.88 19.52,98.19 19.5,98.15 C19.42,97.94 19.35,97.73 19.27,97.51 C19.09,97 18.94,96.48 18.79,95.95 C18.54,95.02 18.36,94.07 18.21,93.12 C18.28,93.57 18.18,92.77 18.17,92.76 C18.15,92.51 18.13,92.26 18.11,92.02 C18.06,91.42 18.04,90.83 18.03,90.23 C18.02,89.22 18.07,88.2 18.17,87.19 C18.18,87.18 18.28,86.38 18.21,86.83 C18.25,86.59 18.29,86.35 18.33,86.11 C18.42,85.55 18.54,85.01 18.68,84.46 C18.9,83.55 19.18,82.67 19.5,81.8 C19.52,81.77 19.79,81.07 19.6,81.53 C19.69,81.32 19.78,81.12 19.88,80.92 C20.09,80.46 20.33,80.01 20.57,79.56 C20.78,79.19 21,78.83 21.24,78.47 C21.35,78.3 21.47,78.13 21.59,77.96 C21.63,77.91 22.04,77.36 21.71,77.78 C22.24,77.11 22.83,76.49 23.46,75.91 C23.6,75.79 23.75,75.66 23.9,75.54 C24.39,75.13 23.5,75.83 24.01,75.45 C24.31,75.23 24.63,75.04 24.95,74.85 C25.26,74.66 25.58,74.5 25.91,74.34 C26.47,74.08 25.44,74.53 26.01,74.31 C26.23,74.22 26.46,74.15 26.69,74.08 C27.03,73.98 27.38,73.9 27.73,73.84 C28.33,73.72 27.2,73.89 27.81,73.82 C27.99,73.81 28.17,73.8 28.35,73.79 C28.71,73.77 29.07,73.79 29.43,73.81 C29.55,73.82 30.16,73.9 29.51,73.81 C29.75,73.84 29.98,73.89 30.21,73.94 C30.56,74.02 30.9,74.13 31.24,74.25 C31.34,74.28 31.91,74.51 31.34,74.27 C31.51,74.34 31.67,74.42 31.83,74.5 C32.16,74.66 32.48,74.84 32.79,75.04 C32.95,75.13 33.1,75.24 33.25,75.34 C33.36,75.42 33.46,75.49 33.56,75.56 C33.33,75.38 33.31,75.37 33.52,75.54 C34.13,76.03 34.68,76.58 35.2,77.17 C35.33,77.32 35.46,77.47 35.58,77.63 C36.01,78.15 35.31,77.25 35.71,77.79 C36,78.18 36.27,78.59 36.52,79.01 C37.02,79.81 37.44,80.66 37.82,81.53 C37.62,81.08 37.91,81.76 37.92,81.8 C38,82.01 38.07,82.22 38.15,82.44 C38.33,82.95 38.48,83.47 38.63,84 C38.75,84.46 38.86,84.93 38.95,85.39 C39,85.63 39.05,85.87 39.09,86.11 C39.1,86.19 39.24,87.09 39.19,86.69 C39.33,87.78 39.39,88.88 39.39,89.98 C39.41,93.04 44.16,93.04 44.14,89.98 C44.11,82.56 41.12,73.61 33.9,70.24 C30.52,68.66 26.9,68.73 23.52,70.24 C20.28,71.68 17.78,74.67 16.16,77.73 C12.23,85.17 12.33,94.77 16.16,102.22 C17.76,105.33 20.31,108.21 23.52,109.71 C26.9,111.29 30.52,111.22 33.9,109.71 C37.14,108.27 39.64,105.29 41.26,102.22 C43.24,98.47 44.12,94.2 44.14,89.98 C44.16,86.91 39.41,86.91 39.39,89.98" id="Fill-591" fill="#4C5159"></path>
            <path d="M29.94,66.44 L29.94,121.62 C29.94,148.53 51.76,170.34 78.67,170.34 C105.58,170.34 127.39,148.53 127.39,121.62 L127.39,46.254 C127.39,46.254 111.65,62.11 93.19,63.48 L98.09,53.243 C98.09,53.243 70.3,64.96 49.76,60.74 C49.76,60.74 51.08,56.938 57.84,56.093 C57.84,56.093 33.93,56.304 29.94,66.44" id="Fill-592" fill="#F4E0CD"></path>
            <path d="M27.57,66.44 C27.57,72.45 27.57,78.46 27.57,84.47 C27.57,94.28 27.57,104.09 27.57,113.9 C27.57,116.37 27.57,118.84 27.57,121.3 C27.57,127.12 28.48,132.92 30.4,138.41 C35.22,152.23 45.86,163.27 59.31,168.9 C73.03,174.65 89.03,173.75 102.2,166.98 C115,160.4 124.58,148.25 128.17,134.34 C129.31,129.93 129.77,125.38 129.77,120.83 C129.77,118.47 129.77,116.12 129.77,113.76 C129.77,104.56 129.77,95.35 129.77,86.15 C129.77,76.48 129.77,66.82 129.77,57.152 C129.77,53.519 129.77,49.887 129.77,46.254 C129.77,44.188 127.17,43.104 125.71,44.576 C125.05,45.244 124.34,45.874 123.63,46.496 C122.83,47.199 122.01,47.883 121.18,48.551 C120.94,48.741 120.7,48.929 120.47,49.115 C120.37,49.195 119.93,49.531 120.45,49.132 C120.32,49.233 120.19,49.331 120.06,49.43 C119.46,49.883 118.86,50.325 118.25,50.761 C115.51,52.725 112.64,54.502 109.65,56.055 C108.86,56.466 108.06,56.855 107.25,57.229 C106.84,57.42 106.43,57.604 106.01,57.784 C105.33,58.083 106.43,57.611 105.74,57.9 C105.46,58.018 105.17,58.13 104.89,58.243 C103.08,58.959 101.23,59.56 99.35,60.05 C98.28,60.33 97.2,60.56 96.11,60.75 C95.88,60.79 95.64,60.83 95.41,60.87 C95.25,60.89 95.09,60.91 94.94,60.94 C95.17,60.91 95.15,60.91 94.86,60.94 C94.3,61.01 93.75,61.06 93.19,61.11 C93.87,62.3 94.56,63.49 95.24,64.68 C96.87,61.27 98.5,57.856 100.14,54.443 C100.51,53.658 100.59,52.823 100.14,52.045 C99.65,51.215 98.42,50.547 97.46,50.953 C94.62,52.147 91.69,53.136 88.76,54.068 C85.73,55.032 82.67,55.888 79.58,56.633 C77.82,57.057 76.05,57.437 74.27,57.778 C73.38,57.947 72.5,58.104 71.61,58.25 C71.16,58.324 70.71,58.394 70.26,58.462 C70.03,58.495 69.81,58.528 69.58,58.562 C69.43,58.583 69.28,58.604 69.13,58.625 C69.38,58.59 69.36,58.592 69.07,58.63 C65.87,59.049 62.63,59.282 59.4,59.28 C57.8,59.279 56.21,59.207 54.61,59.068 C54.24,59.035 53.87,58.994 53.49,58.954 C53.35,58.937 53.2,58.918 53.05,58.901 C52.31,58.812 53.52,58.97 52.79,58.866 C51.99,58.752 51.19,58.61 50.4,58.447 C50.95,59.42 51.5,60.4 52.05,61.37 C51.8,62.07 51.84,61.8 52.11,61.36 C52.23,61.16 52.73,60.52 52.17,61.23 C52.38,60.97 52.61,60.73 52.85,60.5 C52.98,60.38 53.11,60.26 53.25,60.15 C52.68,60.63 53.22,60.18 53.35,60.09 C53.77,59.8 54.21,59.56 54.67,59.344 C54.78,59.29 54.9,59.237 55.01,59.189 C54.75,59.303 54.74,59.308 55,59.206 C55.33,59.077 55.67,58.972 56.02,58.872 C56.32,58.784 56.63,58.713 56.93,58.644 C57.09,58.609 57.26,58.576 57.42,58.546 C57.38,58.553 58.21,58.42 57.84,58.469 C59.12,58.298 60.21,57.518 60.21,56.093 C60.21,54.808 59.13,53.706 57.84,53.718 C54.7,53.748 51.55,54.097 48.45,54.539 C43.16,55.292 37.56,56.568 33.03,59.52 C30.62,61.08 28.73,63.13 27.65,65.81 C27.17,67.01 28.17,68.42 29.31,68.73 C30.67,69.1 31.75,68.27 32.23,67.07 C31.93,67.82 32.29,66.97 32.38,66.8 C32.5,66.56 32.64,66.34 32.79,66.11 C32.86,66 32.93,65.89 33.01,65.78 C33.3,65.38 32.66,66.23 32.97,65.84 C33.16,65.59 33.38,65.36 33.6,65.13 C33.99,64.72 34.41,64.36 34.85,64.01 C34.25,64.48 35.03,63.89 35.18,63.78 C35.46,63.59 35.76,63.4 36.05,63.22 C36.58,62.91 37.12,62.62 37.67,62.36 C37.95,62.22 38.23,62.09 38.52,61.96 C38.64,61.91 39.15,61.69 38.53,61.95 C38.73,61.87 38.93,61.79 39.13,61.71 C40.39,61.22 41.69,60.82 43,60.46 C44.31,60.11 45.63,59.82 46.96,59.57 C47.58,59.46 48.19,59.353 48.81,59.255 C49.11,59.208 49.41,59.163 49.71,59.12 C49.86,59.098 50,59.078 50.15,59.058 C49.38,59.164 50.08,59.068 50.24,59.047 C52.17,58.801 54.11,58.63 56.05,58.531 C56.64,58.502 57.24,58.475 57.84,58.469 C57.84,56.886 57.84,55.302 57.84,53.718 C53.85,54.246 48.96,55.912 47.47,60.11 C47.06,61.27 47.93,62.79 49.13,63.03 C56.9,64.6 64.87,64.11 72.65,62.87 C79.17,61.82 85.58,60.14 91.85,58.057 C94.16,57.287 96.47,56.48 98.72,55.534 C97.83,54.371 96.93,53.207 96.04,52.045 C94.4,55.457 92.77,58.871 91.14,62.29 C90.43,63.77 91.24,66.01 93.19,65.86 C106.29,64.84 118.57,57.627 128.09,48.868 C128.42,48.563 128.75,48.255 129.07,47.934 C127.72,47.375 126.37,46.816 125.02,46.254 C125.02,51.064 125.02,55.873 125.02,60.68 C125.02,70.69 125.02,80.7 125.02,90.71 C125.02,99.3 125.02,107.88 125.02,116.47 C125.02,118.15 125.02,119.84 125.02,121.53 C125.02,122.38 125,123.22 124.96,124.06 C124.91,124.94 124.84,125.82 124.75,126.69 C124.71,127.13 124.66,127.56 124.6,127.99 C124.67,127.45 124.58,128.16 124.57,128.22 C124.53,128.51 124.48,128.8 124.43,129.08 C123.85,132.59 122.86,136.02 121.53,139.32 C121.51,139.37 121.24,140.02 121.45,139.53 C121.37,139.72 121.28,139.91 121.2,140.11 C121.03,140.49 120.85,140.87 120.67,141.25 C120.29,142.07 119.87,142.88 119.44,143.68 C118.61,145.2 117.7,146.68 116.71,148.11 C116.47,148.45 116.23,148.79 115.99,149.13 C115.87,149.29 115.74,149.46 115.62,149.63 C115.58,149.67 115.16,150.22 115.49,149.81 C114.93,150.52 114.36,151.21 113.77,151.89 C112.64,153.2 111.43,154.43 110.17,155.61 C109.57,156.18 108.94,156.73 108.31,157.26 C107.99,157.53 107.67,157.79 107.35,158.05 C107.18,158.18 107.02,158.31 106.86,158.43 C107.27,158.11 106.58,158.64 106.51,158.69 C105.12,159.73 103.67,160.68 102.18,161.57 C100.68,162.46 99.13,163.25 97.54,163.98 C97.35,164.06 97.16,164.15 96.96,164.23 C96.91,164.26 96.27,164.53 96.76,164.32 C96.37,164.49 95.98,164.64 95.58,164.79 C94.73,165.13 93.87,165.43 92.99,165.71 C91.3,166.26 89.57,166.71 87.83,167.07 C86.98,167.24 86.13,167.39 85.27,167.52 C85.21,167.53 84.5,167.62 85.05,167.55 C84.83,167.58 84.61,167.61 84.4,167.63 C83.89,167.69 83.38,167.74 82.87,167.79 C81.03,167.95 79.18,167.99 77.33,167.95 C76.45,167.92 75.56,167.87 74.68,167.8 C74.24,167.77 73.81,167.73 73.37,167.68 C73.16,167.66 72.94,167.63 72.72,167.61 C72.58,167.59 72.43,167.57 72.29,167.55 C72.56,167.59 72.56,167.59 72.27,167.55 C68.75,167.05 65.28,166.13 61.95,164.87 C61.55,164.72 61.16,164.56 60.77,164.4 C60.12,164.14 61.2,164.59 60.56,164.32 C60.37,164.23 60.18,164.15 59.98,164.06 C59.16,163.69 58.34,163.3 57.53,162.88 C55.98,162.09 54.49,161.2 53.03,160.24 C52.34,159.79 51.66,159.31 50.99,158.81 C50.82,158.69 50.66,158.57 50.49,158.44 C49.94,158.03 50.86,158.73 50.31,158.31 C49.93,158.01 49.56,157.7 49.18,157.39 C47.85,156.29 46.59,155.11 45.38,153.87 C44.18,152.64 43.05,151.33 41.98,149.97 C41.55,149.43 42.26,150.34 41.84,149.79 C41.72,149.63 41.59,149.46 41.47,149.29 C41.22,148.96 40.98,148.62 40.74,148.28 C40.22,147.54 39.73,146.79 39.25,146.02 C38.34,144.54 37.5,143.01 36.75,141.44 C36.57,141.06 36.39,140.68 36.22,140.3 C36.14,140.11 36.05,139.91 35.97,139.72 C35.69,139.08 36.15,140.16 35.88,139.51 C35.53,138.67 35.21,137.81 34.91,136.95 C34.32,135.27 33.84,133.56 33.45,131.83 C33.25,130.99 33.09,130.14 32.94,129.29 C32.86,128.87 32.8,128.44 32.74,128.01 C32.63,127.3 32.8,128.5 32.7,127.78 C32.67,127.49 32.63,127.2 32.6,126.91 C32.29,124.1 32.32,121.28 32.32,118.46 C32.32,114.67 32.32,110.87 32.32,107.08 C32.32,97.07 32.32,87.07 32.32,77.07 C32.32,73.52 32.32,69.98 32.32,66.44 C32.32,63.38 27.57,63.38 27.57,66.44" id="Fill-593" fill="#4C5159"></path>
            <path d="M32.41,66.69 L32.41,83.7 C31.38,64.05 46.91,61.16 45.54,62.22 C41.42,65.38 40.63,66.57 40.63,66.57 C58.77,69.11 88.81,60.89 88.81,60.89 C88.14,66.38 83.86,67.33 83.86,67.33 C94.84,66.16 111.39,66.89 120.87,57.07 C124.09,53.733 125.09,82.06 125.09,82.06 L125.11,50.958 C125.11,50.958 107.4,64.58 91.46,63.84 C91.46,63.84 90.72,63.07 91.3,61.96 C91.88,60.86 93.71,57.001 93.71,57.001 C93.71,57.001 60.07,65.73 49.28,62.53 C46.19,61.62 47.99,59.06 47.99,59.06 C47.99,59.06 35.38,60.86 32.41,66.69" id="Fill-594" fill="#E7CEBB"></path>
            <path d="M21.68,90.64 C21.68,90.64 20.86,93.54 22.48,94.97 C27.6,99.48 27.44,106.08 27.44,106.08 L27.44,94.32 L25.78,92.46 L21.68,90.64" id="Fill-595" fill="#E7CEBB"></path>
            <path d="M31.04,100.23 C31.18,98.6 30.85,96.84 30.29,95.32 C29.04,91.95 26.26,89.69 22.8,88.83 C21.31,88.46 20.68,90.75 22.17,91.12 C25,91.82 27.21,93.64 28.13,96.33 C28.61,97.72 28.79,98.75 28.67,100.23 C28.53,101.75 30.91,101.74 31.04,100.23" id="Fill-596" fill="#4C5159"></path>
            <path d="M42.67,75.42 C42.86,75.31 43.06,75.21 43.26,75.12 C43.5,74.99 43.75,74.87 44,74.76 C44.16,74.68 44.32,74.61 44.48,74.54 C44.65,74.47 45.32,74.18 44.56,74.5 C46.53,73.68 48.57,73.04 50.66,72.59 C51.24,72.47 51.83,72.36 52.42,72.27 C52.55,72.25 52.69,72.23 52.82,72.21 C52.24,72.29 52.93,72.2 53.01,72.19 C53.36,72.15 53.71,72.13 54.06,72.1 C55.52,71.99 56.99,72.02 58.44,72.18 C58.73,72.21 58.74,72.21 58.49,72.18 C58.71,72.21 58.94,72.25 59.16,72.29 C59.54,72.35 59.92,72.43 60.29,72.52 C61.06,72.69 61.82,72.93 62.56,73.19 C62.71,73.25 62.86,73.3 63.01,73.36 C63.75,73.65 62.62,73.18 63.34,73.51 C63.72,73.67 64.09,73.86 64.46,74.05 C65.22,74.46 65.95,74.93 66.66,75.42 C67.71,76.17 69.29,75.61 69.91,74.57 C70.6,73.38 70.11,72.07 69.05,71.32 C63.47,67.36 56.56,66.64 49.97,67.89 C46.65,68.52 43.23,69.66 40.27,71.32 C39.15,71.96 38.77,73.47 39.42,74.57 C40.08,75.7 41.54,76.06 42.67,75.42" id="Fill-597" fill="#E77F6E"></path>
            <path d="M112.48,71.32 C109.57,69.69 106.23,68.59 102.97,67.93 C96.36,66.59 89.31,67.34 83.7,71.32 C82.64,72.07 82.15,73.38 82.84,74.57 C83.46,75.61 85.04,76.17 86.09,75.42 C86.73,74.97 87.39,74.56 88.07,74.18 C88.43,73.97 88.81,73.79 89.18,73.61 C89.33,73.54 89.48,73.47 89.63,73.4 C89.24,73.58 89.97,73.27 89.96,73.28 C90.7,72.99 91.46,72.77 92.23,72.57 C92.6,72.48 92.98,72.4 93.36,72.33 C93.51,72.3 93.66,72.27 93.81,72.25 C93.86,72.24 94.6,72.14 94.08,72.2 C95.47,72.03 96.87,72.01 98.26,72.07 C98.62,72.09 98.97,72.12 99.32,72.15 C99.46,72.17 99.6,72.18 99.74,72.19 C99.82,72.2 100.51,72.29 99.93,72.21 C100.59,72.3 101.25,72.42 101.9,72.55 C104.01,72.98 106.08,73.63 108.07,74.45 C108.3,74.55 108.23,74.52 107.85,74.36 C107.95,74.4 108.06,74.45 108.17,74.5 C108.33,74.57 108.49,74.64 108.66,74.72 C108.92,74.84 109.17,74.96 109.43,75.09 C109.65,75.19 109.87,75.3 110.08,75.42 C111.21,76.06 112.67,75.7 113.33,74.57 C113.98,73.47 113.6,71.96 112.48,71.32" id="Fill-598" fill="#E77F6E"></path>
            <path d="M59.56,89.83 C59.56,94.27 57.37,97.87 54.66,97.87 C51.96,97.87 49.76,94.27 49.76,89.83 C49.76,85.39 51.96,81.8 54.66,81.8 C57.37,81.8 59.56,85.39 59.56,89.83" id="Fill-599" fill="#4C5159"></path>
            <path d="M102.99,89.83 C102.99,94.27 100.79,97.87 98.09,97.87 C95.38,97.87 93.19,94.27 93.19,89.83 C93.19,85.39 95.38,81.8 98.09,81.8 C100.79,81.8 102.99,85.39 102.99,89.83" id="Fill-600" fill="#4C5159"></path>
            <path d="M71.07,114.08 C72.05,116.57 74.76,117.95 77.28,118.3 C79.52,118.62 81.72,118.32 83.58,116.95 C84.5,116.27 85.37,115.38 85.92,114.37 C86.65,113.02 84.6,111.82 83.87,113.17 C83.5,113.85 83.17,114.2 82.52,114.77 C81.19,115.95 79.53,116.16 77.83,116 C76.47,115.87 75.07,115.29 74.14,114.42 C73.98,114.27 73.83,114.1 73.69,113.93 C73.48,113.68 73.82,114.12 73.65,113.88 C73.59,113.79 73.53,113.71 73.48,113.62 C73.38,113.47 73.13,112.87 73.36,113.45 C73.12,112.85 72.57,112.44 71.9,112.62 C71.32,112.78 70.83,113.48 71.07,114.08" id="Fill-601" fill="#4C5159"></path>
            <path d="M60.15,211.07 C60.85,211.05 61.56,211.1 62.26,211.16 C62.59,211.18 62.93,211.22 63.26,211.26 C63.37,211.27 63.71,211.32 63.21,211.25 C63.3,211.27 63.4,211.28 63.49,211.3 C63.72,211.33 63.95,211.37 64.18,211.41 C65.1,211.57 66,211.78 66.89,212.04 C67.35,212.18 67.81,212.34 68.26,212.5 C68.5,212.59 68.73,212.68 68.96,212.78 C68.59,212.63 68.98,212.79 69.04,212.82 C69.2,212.89 69.35,212.96 69.5,213.03 C69.97,213.26 70.43,213.51 70.87,213.77 C71.1,213.9 71.32,214.05 71.54,214.19 C71.65,214.27 71.76,214.34 71.86,214.42 C71.92,214.45 72.37,214.79 72.08,214.57 C72.51,214.9 72.91,215.26 73.3,215.64 C73.5,215.84 73.68,216.04 73.87,216.25 C73.96,216.35 74.05,216.46 74.14,216.56 C74.2,216.64 74.26,216.71 74.32,216.78 C74.22,216.65 74.22,216.66 74.33,216.8 C74.68,217.27 74.99,217.77 75.27,218.28 C75.66,218.98 75.74,219.2 75.99,219.89 C76.69,221.89 76.85,223.69 76.78,225.81 C76.71,227.85 79.88,227.85 79.95,225.81 C80.05,222.7 79.53,219.59 78.08,216.81 C76.92,214.59 75.1,212.77 73.02,211.38 C69.78,209.23 65.8,208.26 61.96,207.96 C61.36,207.92 60.75,207.88 60.15,207.9 C58.11,207.96 58.11,211.13 60.15,211.07" id="Fill-602" fill="#1F93A9"></path>
            <path d="M98.78,207.9 C96.33,207.83 93.77,208.26 91.43,208.92 C86.88,210.22 82.66,212.99 80.58,217.36 C79.32,219.99 78.89,222.91 78.99,225.81 C79.05,227.85 82.22,227.85 82.15,225.81 C82.06,222.94 82.52,220.23 83.88,217.89 C84.51,216.8 84.95,216.28 85.93,215.36 C86.12,215.17 86.33,215 86.54,214.82 C86.64,214.73 86.75,214.65 86.85,214.57 C86.57,214.79 86.92,214.52 86.96,214.5 C87.42,214.16 87.9,213.86 88.4,213.57 C88.84,213.32 89.3,213.09 89.77,212.87 C89.89,212.82 90,212.77 90.12,212.72 C89.76,212.88 90.14,212.71 90.2,212.68 C90.47,212.58 90.74,212.48 91.01,212.38 C91.93,212.05 92.87,211.8 93.81,211.59 C94.22,211.5 94.63,211.43 95.05,211.36 C95.24,211.32 95.43,211.3 95.63,211.27 C95.97,211.22 95.24,211.32 95.58,211.27 C95.7,211.26 95.81,211.24 95.93,211.23 C96.54,211.16 97.14,211.11 97.75,211.09 C98.09,211.07 98.44,211.06 98.78,211.07 C100.82,211.13 100.82,207.96 98.78,207.9" id="Fill-603" fill="#1F93A9"></path>
            <path d="M61.16,136.49 C64.19,138.63 67.85,140.11 71.39,141.14 C78.86,143.3 86.83,142.78 93.74,139.11 C95.16,138.36 96.5,137.46 97.77,136.49 C98.45,135.97 98.82,135.14 98.34,134.32 C97.94,133.65 96.86,133.23 96.17,133.75 C92.71,136.4 88.83,138.22 84.53,138.97 C81.13,139.56 77.6,139.33 74.27,138.6 C71.48,137.99 68.89,137.05 66.54,135.91 C65.27,135.29 64.02,134.61 62.86,133.82 C62.82,133.8 62.79,133.78 62.76,133.75 C62.05,133.26 61,133.63 60.59,134.32 C60.13,135.12 60.46,135.99 61.16,136.49" id="Fill-604" fill="#4C5159"></path>
            <path d="M69.91,171.81 C69.91,171.81 78.67,173.31 87.42,171.81 L87.42,176.13 C87.42,176.13 84.52,177.51 78.99,177.51 C73.59,177.51 69.91,176.13 69.91,176.13 L69.91,171.81" id="Fill-605" fill="#E7CEBB"></path>
            <path d="M120.87,55.486 L120.87,123.69 C120.87,123.69 118.28,161.27 77.31,168.03 C77.31,168.03 89.79,168.41 101.92,161.7 C112.83,155.68 124.43,142.11 124.95,123.69 L124.95,59.5 L120.87,55.486" id="Fill-606" fill="#E7CEBB"></path>
        </g>
    </g>
</svg>