<?xml version="1.0" encoding="UTF-8"?>
<svg width="152px" height="252px" viewBox="0 0 152 252" version="1.1" xmlns="http://www.w3.org/2000/svg" xmlns:xlink="http://www.w3.org/1999/xlink">
    <!-- Generator: Sketch 48.2 (47327) - http://www.bohemiancoding.com/sketch -->
    <title>female4</title>
    <desc>Created with Sketch.</desc>
    <defs></defs>
    <g id="Page-1" stroke="none" stroke-width="1" fill="none" fill-rule="evenodd">
        <g id="female4">
            <path d="M125.12,131.34 C116.65,143.12 145.45,147.82 131.58,174.09 C123.84,188.74 182.13,208.53 109.44,233.47 C109.44,233.47 123.97,219.22 104.71,205.92 C104.71,205.92 91.3,215.81 70.68,210.35 C63.17,212.81 25.11,208.75 17.38,194.1 C3.5,167.83 38.9,143.12 30.43,131.34 C10.06,102.98 -18.35,7.825 74.76,7.825 C172.65,7.825 146.72,101.26 125.12,131.34" id="Fill-548" fill="#4C5159"></path>
            <path d="M111.72,109.98 C111.72,120.23 117.56,128.54 124.77,128.54 C131.99,128.54 137.83,120.23 137.83,109.98 C137.83,99.72 131.99,91.41 124.77,91.41 C117.56,91.41 111.72,99.72 111.72,109.98" id="Fill-549" fill="#E1C490"></path>
            <path d="M109.34,109.98 C109.38,117.39 112.36,126.34 119.58,129.71 C122.96,131.29 126.58,131.22 129.97,129.71 C133.2,128.27 135.7,125.29 137.32,122.22 C141.25,114.78 141.15,105.18 137.32,97.73 C135.72,94.62 133.17,91.74 129.97,90.24 C126.58,88.66 122.97,88.73 119.58,90.24 C116.35,91.68 113.85,94.67 112.23,97.73 C110.25,101.48 109.36,105.76 109.34,109.98 C109.33,113.04 114.08,113.04 114.09,109.98 C114.11,106.19 114.92,102.55 116.74,99.37 C116.95,99.01 117.18,98.65 117.42,98.3 C117.53,98.13 117.65,97.96 117.77,97.79 C118.17,97.24 117.48,98.15 117.9,97.63 C118.43,96.96 119.03,96.35 119.67,95.79 C119.81,95.66 119.96,95.54 120.11,95.42 C119.66,95.78 120.15,95.4 120.23,95.34 C120.53,95.13 120.85,94.94 121.17,94.76 C121.48,94.57 121.81,94.42 122.14,94.27 C121.58,94.52 122.14,94.28 122.24,94.25 C122.47,94.16 122.69,94.1 122.92,94.03 C123.27,93.93 123.62,93.87 123.97,93.81 C123.33,93.91 123.93,93.82 124.05,93.81 C124.23,93.79 124.41,93.79 124.59,93.78 C124.95,93.77 125.31,93.79 125.67,93.82 C126.29,93.88 125.15,93.74 125.75,93.84 C125.99,93.88 126.22,93.93 126.45,93.99 C126.8,94.07 127.14,94.18 127.47,94.31 C128.05,94.51 127.01,94.09 127.57,94.34 C127.74,94.42 127.9,94.5 128.06,94.58 C128.39,94.75 128.7,94.94 129.01,95.14 C129.17,95.24 129.32,95.34 129.47,95.45 C129.68,95.61 129.67,95.6 129.44,95.42 C129.54,95.5 129.64,95.58 129.73,95.66 C130.33,96.16 130.88,96.73 131.39,97.32 C131.52,97.47 131.65,97.63 131.78,97.78 C131.44,97.37 131.86,97.91 131.89,97.96 C132.18,98.36 132.44,98.77 132.7,99.19 C133.15,99.94 133.53,100.72 133.88,101.53 C133.68,101.08 133.97,101.76 133.98,101.8 C134.06,102.01 134.14,102.22 134.21,102.44 C134.39,102.95 134.55,103.47 134.69,104 C134.94,104.93 135.13,105.88 135.27,106.83 C135.2,106.38 135.31,107.18 135.31,107.19 C135.33,107.44 135.36,107.69 135.38,107.93 C135.42,108.53 135.44,109.12 135.45,109.72 C135.47,110.74 135.41,111.75 135.31,112.76 C135.31,112.77 135.21,113.58 135.27,113.12 C135.24,113.36 135.2,113.6 135.15,113.84 C135.06,114.4 134.94,114.95 134.81,115.49 C134.59,116.4 134.3,117.28 133.98,118.15 C133.97,118.19 133.69,118.88 133.88,118.42 C133.79,118.63 133.7,118.83 133.61,119.03 C133.39,119.5 133.16,119.95 132.91,120.39 C132.71,120.76 132.48,121.12 132.25,121.48 C132.13,121.65 132.02,121.82 131.89,121.99 C131.86,122.05 131.44,122.59 131.78,122.17 C131.25,122.84 130.66,123.46 130.02,124.04 C129.88,124.17 129.73,124.29 129.59,124.41 C129.1,124.82 129.98,124.13 129.47,124.5 C129.17,124.72 128.86,124.92 128.54,125.1 C128.22,125.29 127.9,125.45 127.57,125.61 C127.01,125.87 128.04,125.42 127.47,125.64 C127.25,125.73 127.02,125.8 126.8,125.87 C126.45,125.97 126.1,126.05 125.75,126.11 C125.15,126.23 126.29,126.06 125.67,126.13 C125.5,126.14 125.32,126.15 125.14,126.16 C124.77,126.18 124.41,126.17 124.05,126.14 C123.93,126.13 123.32,126.05 123.97,126.14 C123.73,126.11 123.5,126.06 123.27,126.01 C122.92,125.93 122.58,125.82 122.24,125.71 C122.14,125.67 121.58,125.44 122.14,125.68 C121.98,125.61 121.81,125.53 121.65,125.45 C121.32,125.29 121,125.11 120.69,124.91 C120.54,124.82 120.38,124.71 120.23,124.61 C120.13,124.54 120.03,124.46 119.93,124.39 C120.16,124.57 120.17,124.58 119.96,124.41 C119.35,123.92 118.8,123.37 118.29,122.78 C118.15,122.63 118.03,122.48 117.9,122.32 C117.47,121.8 118.18,122.71 117.77,122.16 C117.48,121.77 117.22,121.36 116.96,120.94 C116.46,120.14 116.04,119.29 115.67,118.42 C115.86,118.88 115.58,118.19 115.57,118.15 C115.48,117.94 115.41,117.73 115.33,117.51 C115.16,117 115,116.48 114.86,115.95 C114.73,115.49 114.63,115.02 114.53,114.56 C114.48,114.32 114.44,114.08 114.39,113.84 C114.38,113.76 114.24,112.87 114.29,113.26 C114.15,112.17 114.1,111.07 114.09,109.98 C114.08,106.91 109.33,106.91 109.34,109.98" id="Fill-550" fill="#4C5159"></path>
            <path d="M131.8,110.64 C131.8,110.64 132.63,113.54 131,114.97 C125.88,119.48 126.04,126.08 126.04,126.08 L126.04,114.32 L127.71,112.46 L131.8,110.64" id="Fill-551" fill="#D2AA71"></path>
            <path d="M130.14,127.61 C132.22,128.42 132.98,130.73 132.29,132.71 C131.57,134.82 129.11,135.52 127.19,134.86 C126.38,134.58 125.46,135.18 125.24,135.97 C125,136.84 125.54,137.64 126.35,137.92 C130.1,139.21 133.95,137.14 135.35,133.55 C136.01,131.85 135.81,129.85 135.06,128.22 C134.24,126.46 132.76,125.25 130.98,124.55 C130.17,124.24 129.24,124.89 129.03,125.66 C128.79,126.56 129.33,127.29 130.14,127.61" id="Fill-552" fill="#E36A84"></path>
            <path d="M124.82,120.23 C124.69,118.74 124.89,117.73 125.35,116.33 C126.24,113.63 128.51,111.82 131.32,111.12 C132.8,110.75 132.17,108.46 130.69,108.83 C127.18,109.7 124.5,111.95 123.19,115.32 C122.61,116.83 122.3,118.61 122.44,120.23 C122.58,121.74 124.95,121.75 124.82,120.23" id="Fill-553" fill="#4C5159"></path>
            <path d="M77.69,249.61 C118.57,249.61 132.4,241.18 132.4,241.18 C132.4,241.18 132.74,218.01 125.56,212.21 C125.56,212.21 98.71,195 87.25,192.02 L65,192.02 C53.54,195 26.68,212.21 26.68,212.21 C19.5,218.01 19.84,241.18 19.84,241.18 C19.84,241.18 38.31,249.61 79.19,249.61 L77.69,249.61" id="Fill-554" fill="#E26983"></path>
            <path d="M77.69,251.99 C92.2,251.98 107,251.14 121.14,247.66 C124.26,246.88 127.37,245.97 130.35,244.74 C131.56,244.25 133.72,243.63 134.45,242.38 C135.05,241.36 134.78,239.64 134.75,238.52 C134.69,236.24 134.56,233.97 134.35,231.7 C133.83,225.91 132.98,219.84 130.33,214.59 C129.46,212.88 128.24,211.1 126.59,210.06 C125.59,209.42 124.58,208.78 123.56,208.16 C119.05,205.35 114.48,202.63 109.86,200.02 C104.42,196.95 98.89,194 93.12,191.58 C91.99,191.11 90.85,190.66 89.69,190.27 C88.82,189.98 87.91,189.64 86.98,189.64 C84.79,189.64 82.6,189.64 80.41,189.64 C77.22,189.64 74.03,189.64 70.84,189.64 C68.91,189.64 66.98,189.64 65.05,189.64 C64.02,189.64 62.87,190.16 61.91,190.5 C60.57,190.97 59.26,191.51 57.96,192.07 C52.32,194.49 46.9,197.46 41.56,200.49 C37.06,203.04 32.62,205.7 28.23,208.44 C27.33,208.99 26.44,209.55 25.55,210.12 C23.74,211.28 22.48,213.36 21.59,215.26 C19.1,220.61 18.31,226.68 17.82,232.5 C17.58,235.38 17.43,238.29 17.47,241.18 C17.48,241.96 17.9,242.89 18.64,243.23 C23.39,245.39 28.64,246.63 33.71,247.72 C48.61,250.94 63.98,251.98 79.19,251.99 C79.19,250.4 79.19,248.82 79.19,247.24 C78.69,247.24 78.19,247.24 77.69,247.24 C74.63,247.24 74.63,251.99 77.69,251.99 C78.19,251.99 78.69,251.99 79.19,251.99 C82.26,251.99 82.26,247.24 79.19,247.24 C70.26,247.23 61.33,246.84 52.45,245.9 C51.56,245.8 50.68,245.7 49.8,245.6 C49.37,245.54 48.94,245.49 48.52,245.44 C48.31,245.41 48.1,245.38 47.89,245.36 C47.79,245.34 46.9,245.23 47.48,245.3 C45.86,245.09 44.24,244.84 42.62,244.58 C39.86,244.13 37.11,243.61 34.38,243.01 C30.86,242.24 27.35,241.33 23.93,240.19 C23.07,239.9 22.21,239.59 21.36,239.26 C21.07,239.14 20.18,238.77 21.26,239.23 C21.19,239.2 21.11,239.16 21.04,239.13 C21.43,239.82 21.83,240.5 22.22,241.18 C22.17,237.91 22.36,234.63 22.67,231.37 C22.73,230.71 22.81,230.04 22.88,229.38 C22.92,229.04 22.97,228.7 23.01,228.36 C22.92,229.03 23,228.43 23.02,228.31 C23.05,228.08 23.08,227.85 23.12,227.62 C23.33,226.18 23.6,224.74 23.92,223.33 C24.22,221.96 24.6,220.6 25.06,219.28 C25.16,218.97 25.27,218.67 25.39,218.38 C25.44,218.23 25.5,218.08 25.56,217.94 C25.31,218.57 25.51,218.06 25.57,217.94 C25.82,217.35 26.11,216.78 26.43,216.23 C26.57,215.99 26.72,215.75 26.87,215.52 C26.98,215.36 27.55,214.61 27.05,215.24 C27.39,214.81 27.77,214.41 28.18,214.05 C28.53,213.74 27.61,214.44 27.99,214.2 C28.11,214.12 28.24,214.04 28.37,213.96 C29.6,213.18 30.83,212.41 32.07,211.64 C36.8,208.73 41.59,205.89 46.45,203.19 C49.22,201.65 52.01,200.16 54.84,198.75 C56.17,198.09 57.5,197.45 58.84,196.84 C59.44,196.57 60.05,196.31 60.66,196.05 C60,196.33 60.94,195.93 61.11,195.86 C61.43,195.73 61.76,195.6 62.09,195.48 C63.14,195.07 64.2,194.71 65.29,194.4 C65.9,194.23 64.54,194.39 65.29,194.39 C65.66,194.39 66.03,194.39 66.39,194.39 C68.79,194.39 71.19,194.39 73.59,194.39 C76.83,194.39 80.08,194.39 83.32,194.39 C84.39,194.39 85.47,194.39 86.55,194.39 C86.77,194.39 86.99,194.39 87.21,194.39 C86.72,194.39 86.6,194.3 87.08,194.43 C87.36,194.51 87.64,194.6 87.92,194.69 C89.06,195.05 90.18,195.47 91.28,195.92 C91.42,195.98 91.57,196.04 91.71,196.1 C92.23,196.32 91.22,195.89 91.74,196.11 C92.04,196.24 92.33,196.37 92.64,196.5 C93.31,196.8 93.98,197.11 94.65,197.42 C104.46,202.01 113.83,207.64 122.99,213.4 C123.38,213.64 123.76,213.88 124.14,214.13 C124.21,214.17 124.28,214.21 124.35,214.26 C124.09,214.09 123.81,213.83 124.16,214.13 C124.38,214.32 124.58,214.53 124.78,214.74 C124.9,214.88 125.46,215.6 124.98,214.97 C125.14,215.18 125.3,215.41 125.45,215.63 C125.79,216.15 126.08,216.7 126.36,217.26 C126.49,217.53 126.62,217.8 126.74,218.08 C126.96,218.58 126.53,217.57 126.74,218.08 C126.8,218.23 126.86,218.38 126.91,218.52 C127.17,219.18 127.39,219.85 127.59,220.53 C128.01,221.89 128.34,223.29 128.62,224.69 C128.75,225.37 128.88,226.06 128.99,226.75 C129.05,227.1 129.1,227.44 129.15,227.79 C129.18,227.96 129.2,228.13 129.22,228.31 C129.24,228.42 129.26,228.53 129.27,228.65 C129.23,228.3 129.22,228.26 129.26,228.53 C129.59,231.1 129.8,233.69 129.92,236.29 C130,237.92 130.05,239.55 130.03,241.18 C130.42,240.5 130.81,239.82 131.2,239.13 C130.98,239.27 130.75,239.38 130.52,239.5 C130.22,239.65 129.92,239.79 129.63,239.92 C129.44,240.01 129.25,240.09 129.06,240.17 C128.54,240.4 129.44,240.01 129.26,240.09 C129.12,240.15 128.99,240.2 128.85,240.26 C125.78,241.5 122.57,242.42 119.35,243.2 C116.95,243.79 114.52,244.27 112.08,244.7 C110.63,244.95 109.18,245.18 107.72,245.39 C107.53,245.42 107.33,245.44 107.14,245.47 C107.05,245.48 106.39,245.57 106.98,245.49 C106.58,245.54 106.18,245.6 105.78,245.65 C104.87,245.76 103.96,245.87 103.06,245.97 C94.64,246.9 86.16,247.23 77.69,247.24 C74.63,247.24 74.63,251.99 77.69,251.99" id="Fill-555" fill="#4C5159"></path>
            <path d="M87.29,197.04 L87.29,184.76 L64.95,184.76 L64.95,197.04 L42.09,202.92 L43.51,210.41 C43.51,216.58 58.11,221.59 76.12,221.59 C94.13,221.59 108.73,216.58 108.73,210.41 L111.09,203.17 L87.29,197.04" id="Fill-556" fill="#E1C490"></path>
            <path d="M89.67,197.04 C89.67,192.94 89.67,188.85 89.67,184.76 C89.67,183.46 88.59,182.38 87.29,182.38 C79.91,182.38 72.54,182.38 65.16,182.38 C65.09,182.38 65.02,182.38 64.95,182.38 C63.65,182.38 62.57,183.46 62.57,184.76 C62.57,188.85 62.57,192.94 62.57,197.04 C63.15,196.27 63.74,195.51 64.32,194.74 C56.94,196.64 49.57,198.54 42.19,200.44 C41.95,200.51 41.71,200.57 41.46,200.63 C40.13,200.97 39.57,202.3 39.8,203.55 C40.17,205.46 40.53,207.37 40.89,209.28 C40.97,209.71 41.05,210.15 41.13,210.59 C41.16,210.71 41.18,210.82 41.2,210.94 C41.28,211.36 41.11,210.1 41.15,210.72 C41.23,211.96 41.63,213.15 42.33,214.19 C43.89,216.5 46.38,218.04 48.87,219.18 C52.28,220.75 55.92,221.75 59.59,222.46 C68.8,224.24 78.42,224.43 87.71,223.24 C91.77,222.71 95.82,221.95 99.71,220.64 C102.72,219.62 105.65,218.3 108.09,216.24 C109.25,215.26 110.12,214.05 110.69,212.65 C110.95,212 111.06,211.31 111.1,210.62 C111.13,210.18 110.92,211.37 111.07,210.91 C111.13,210.72 111.19,210.53 111.25,210.35 C111.96,208.17 112.67,205.98 113.38,203.8 C113.78,202.59 112.93,201.19 111.73,200.88 C104.22,198.95 96.72,197.01 89.22,195.08 C88.79,194.97 88.36,194.86 87.93,194.74 C86.67,194.42 85.35,195.14 85,196.4 C84.67,197.63 85.41,199 86.66,199.32 C94.16,201.26 101.67,203.19 109.17,205.13 C109.6,205.24 110.03,205.35 110.46,205.46 C109.91,204.49 109.36,203.52 108.8,202.54 C108.2,204.39 107.6,206.23 107,208.08 C106.74,208.86 106.37,209.68 106.36,210.51 C106.35,211.24 106.47,210.04 106.36,210.59 C106.32,210.8 106.25,210.99 106.19,211.19 C106.04,211.6 106.44,210.62 106.26,211.02 C106.21,211.12 106.16,211.21 106.11,211.31 C105.98,211.54 105.83,211.76 105.67,211.98 C106.17,211.31 105.64,212 105.5,212.15 C105.32,212.34 105.13,212.53 104.94,212.7 C104.8,212.83 104.06,213.41 104.66,212.95 C104.38,213.17 104.1,213.36 103.8,213.56 C103.26,213.92 102.68,214.24 102.1,214.54 C101.79,214.7 101.46,214.86 101.14,215.01 C100.98,215.08 100.81,215.16 100.64,215.23 C100.39,215.34 100.41,215.33 100.69,215.22 C100.57,215.26 100.45,215.31 100.33,215.36 C96.84,216.78 93.11,217.62 89.4,218.23 C87.35,218.57 85.37,218.78 83.08,218.96 C80.67,219.14 78.25,219.21 75.82,219.21 C73.42,219.21 71.01,219.1 68.6,218.91 C66.28,218.73 64.5,218.51 62.34,218.15 C58.67,217.53 55,216.64 51.56,215.22 C52.1,215.44 51.52,215.2 51.43,215.16 C51.27,215.08 51.1,215.01 50.94,214.93 C50.62,214.78 50.3,214.62 49.99,214.46 C49.37,214.14 48.77,213.78 48.18,213.38 C48.03,213.28 47.23,212.68 47.83,213.15 C47.62,212.98 47.41,212.8 47.21,212.61 C47.02,212.44 46.84,212.25 46.66,212.06 C46.58,211.97 46.5,211.88 46.42,211.78 C46.15,211.46 46.78,212.29 46.43,211.79 C46.3,211.6 46.19,211.41 46.08,211.21 C45.73,210.56 46.21,211.61 46.02,211.09 C45.95,210.9 45.91,210.69 45.87,210.49 C45.78,210.07 45.94,211.14 45.9,210.72 C45.89,210.62 45.89,210.51 45.89,210.41 C45.88,209.59 45.59,208.69 45.44,207.88 C45.09,206.02 44.74,204.15 44.38,202.29 C43.83,203.26 43.28,204.24 42.73,205.21 C50.1,203.31 57.48,201.41 64.85,199.51 C65.09,199.45 65.34,199.39 65.58,199.32 C66.6,199.06 67.32,198.08 67.32,197.04 C67.32,192.94 67.32,188.85 67.32,184.76 C66.53,185.55 65.74,186.34 64.95,187.13 C72.33,187.13 79.71,187.13 87.09,187.13 C87.16,187.13 87.23,187.13 87.29,187.13 C86.5,186.34 85.71,185.55 84.92,184.76 C84.92,188.85 84.92,192.94 84.92,197.04 C84.92,200.1 89.67,200.1 89.67,197.04" id="Fill-557" fill="#4C5159"></path>
            <path d="M39.22,109.98 C39.22,120.23 33.38,128.54 26.16,128.54 C18.96,128.54 13.11,120.23 13.11,109.98 C13.11,99.72 18.96,91.41 26.16,91.41 C33.38,91.41 39.22,99.72 39.22,109.98" id="Fill-558" fill="#E1C490"></path>
            <path d="M36.85,109.98 C36.83,113.76 36.01,117.4 34.2,120.58 C33.99,120.94 33.76,121.3 33.52,121.65 C33.41,121.82 33.29,121.99 33.17,122.16 C32.77,122.71 33.46,121.8 33.04,122.32 C32.51,122.99 31.91,123.6 31.27,124.17 C31.13,124.29 30.98,124.41 30.83,124.53 C31.28,124.17 30.78,124.55 30.71,124.61 C30.41,124.82 30.09,125.01 29.77,125.2 C29.46,125.38 29.13,125.53 28.8,125.68 C29.36,125.43 28.8,125.67 28.7,125.71 C28.47,125.79 28.24,125.85 28.01,125.92 C27.67,126.02 27.32,126.09 26.97,126.14 C27.61,126.04 27.01,126.13 26.89,126.14 C26.71,126.16 26.53,126.16 26.35,126.17 C25.99,126.18 25.62,126.16 25.26,126.13 C24.65,126.07 25.79,126.21 25.19,126.11 C24.95,126.07 24.72,126.02 24.49,125.96 C24.14,125.88 23.8,125.77 23.46,125.64 C22.89,125.44 23.93,125.86 23.37,125.61 C23.2,125.53 23.04,125.45 22.88,125.37 C22.55,125.2 22.24,125.01 21.93,124.81 C21.77,124.71 21.62,124.61 21.47,124.5 C21.26,124.34 21.27,124.35 21.5,124.53 C21.4,124.45 21.3,124.37 21.21,124.29 C20.6,123.79 20.06,123.22 19.55,122.63 C19.42,122.48 19.29,122.32 19.16,122.17 C19.5,122.58 19.08,122.05 19.04,121.99 C18.76,121.59 18.49,121.18 18.24,120.76 C17.79,120.01 17.41,119.23 17.06,118.42 C17.25,118.88 16.97,118.19 16.96,118.15 C16.88,117.94 16.8,117.73 16.73,117.51 C16.55,117 16.39,116.48 16.25,115.95 C16,115.02 15.81,114.07 15.67,113.12 C15.74,113.57 15.63,112.77 15.63,112.76 C15.6,112.51 15.58,112.26 15.56,112.02 C15.51,111.42 15.49,110.83 15.49,110.23 C15.47,109.22 15.53,108.2 15.63,107.19 C15.63,107.18 15.73,106.38 15.67,106.83 C15.7,106.59 15.74,106.35 15.78,106.11 C15.88,105.55 16,105.01 16.13,104.46 C16.35,103.55 16.63,102.67 16.96,101.8 C16.97,101.77 17.25,101.07 17.06,101.53 C17.14,101.32 17.24,101.12 17.33,100.92 C17.54,100.46 17.78,100.01 18.03,99.56 C18.23,99.19 18.46,98.83 18.69,98.47 C18.8,98.3 18.92,98.13 19.04,97.96 C19.08,97.91 19.49,97.36 19.16,97.78 C19.69,97.11 20.28,96.49 20.92,95.91 C21.06,95.79 21.21,95.66 21.35,95.54 C21.84,95.13 20.96,95.83 21.47,95.45 C21.77,95.23 22.08,95.04 22.4,94.85 C22.71,94.66 23.04,94.5 23.37,94.34 C23.92,94.08 22.9,94.53 23.46,94.31 C23.69,94.22 23.92,94.15 24.14,94.08 C24.49,93.98 24.83,93.9 25.19,93.84 C25.79,93.72 24.65,93.89 25.26,93.82 C25.44,93.81 25.62,93.8 25.8,93.79 C26.16,93.77 26.53,93.79 26.89,93.81 C27.01,93.82 27.62,93.9 26.97,93.81 C27.2,93.84 27.44,93.89 27.67,93.94 C28.02,94.02 28.36,94.13 28.7,94.25 C28.8,94.28 29.36,94.51 28.8,94.27 C28.96,94.34 29.13,94.42 29.29,94.5 C29.62,94.66 29.93,94.84 30.24,95.04 C30.4,95.13 30.56,95.24 30.71,95.34 C30.81,95.42 30.91,95.49 31.01,95.56 C30.78,95.38 30.77,95.37 30.98,95.54 C31.58,96.03 32.13,96.58 32.65,97.17 C32.79,97.32 32.91,97.47 33.04,97.63 C33.47,98.15 32.76,97.25 33.17,97.79 C33.46,98.18 33.72,98.59 33.98,99.01 C34.47,99.81 34.9,100.66 35.27,101.53 C35.08,101.08 35.36,101.76 35.37,101.8 C35.45,102.01 35.53,102.22 35.6,102.44 C35.78,102.95 35.94,103.47 36.08,104 C36.21,104.46 36.31,104.93 36.41,105.39 C36.46,105.63 36.5,105.87 36.55,106.11 C36.56,106.19 36.69,107.09 36.64,106.69 C36.79,107.78 36.84,108.88 36.85,109.98 C36.86,113.04 41.61,113.04 41.6,109.98 C41.56,102.56 38.58,93.61 31.36,90.24 C27.98,88.66 24.36,88.73 20.97,90.24 C17.74,91.68 15.24,94.67 13.62,97.73 C9.69,105.17 9.79,114.77 13.62,122.22 C15.21,125.33 17.76,128.21 20.97,129.71 C24.35,131.29 27.97,131.22 31.36,129.71 C34.59,128.27 37.09,125.29 38.71,122.22 C40.69,118.47 41.58,114.2 41.6,109.98 C41.61,106.91 36.86,106.91 36.85,109.98" id="Fill-559" fill="#4C5159"></path>
            <path d="M19.53,124.88 C16.11,126.82 14.96,131.04 16.75,134.49 C18.54,137.98 23.01,139 26.36,137.27 C28.17,136.34 26.57,133.6 24.76,134.54 C22.82,135.54 20.55,134.78 19.48,132.89 C18.41,131 19.29,128.65 21.13,127.61 C22.9,126.61 21.31,123.87 19.53,124.88" id="Fill-560" fill="#E36A84"></path>
            <path d="M27.4,62.779 L27.4,138.14 C27.4,165.05 49.21,186.86 76.12,186.86 C103.03,186.86 124.85,165.05 124.85,138.14 L124.85,62.779 C124.85,62.779 108.73,72.669 91.87,70.769 C80.68,69.509 68.31,61.58 57.02,64.594 C39.22,69.344 27.4,62.779 27.4,62.779" id="Fill-561" fill="#E1C490"></path>
            <path d="M25.02,62.779 C25.02,67.587 25.02,72.397 25.02,77.204 C25.02,87.21 25.02,97.22 25.02,107.23 C25.02,115.82 25.02,124.41 25.02,132.99 C25.02,134.68 25.02,136.37 25.02,138.05 C25.02,144.42 26.18,150.79 28.52,156.71 C33.87,170.31 44.86,181.01 58.53,186.12 C72.45,191.32 88.41,189.88 101.31,182.61 C113.85,175.54 123.03,163.06 126.06,148.99 C127.46,142.5 127.22,135.93 127.22,129.35 C127.22,119.98 127.22,110.62 127.22,101.25 C127.22,91.72 127.22,82.19 127.22,72.656 C127.22,69.363 127.22,66.071 127.22,62.779 C127.22,61.006 125.19,59.78 123.65,60.727 C122.62,61.359 121.53,61.911 120.45,62.45 C119.25,63.049 118.03,63.604 116.79,64.131 C117.35,63.894 116.76,64.143 116.67,64.179 C116.49,64.253 116.31,64.325 116.14,64.398 C115.77,64.546 115.39,64.692 115.02,64.834 C114.16,65.162 113.29,65.472 112.42,65.766 C110.58,66.387 108.7,66.918 106.81,67.364 C105.84,67.593 104.86,67.79 103.88,67.967 C102.64,68.188 102.1,68.263 100.95,68.387 C98.74,68.623 96.52,68.689 94.31,68.589 C92.02,68.486 90.64,68.269 88.38,67.757 C79.85,65.825 71.79,61.756 62.91,61.544 C60.72,61.492 58.5,61.753 56.39,62.303 C55.23,62.603 54.08,62.875 52.91,63.108 C52.35,63.218 51.79,63.315 51.23,63.406 C50.96,63.45 50.68,63.492 50.41,63.532 C50.11,63.574 50.05,63.583 50.23,63.557 C50.05,63.58 49.88,63.602 49.7,63.623 C47.63,63.867 45.54,63.965 43.46,63.938 C42.57,63.925 41.67,63.88 40.78,63.814 C40.36,63.783 39.93,63.743 39.51,63.699 C39.31,63.68 39.11,63.654 38.9,63.631 C38.77,63.614 38.64,63.599 38.5,63.582 C38.81,63.623 38.82,63.625 38.55,63.587 C35.93,63.219 33.34,62.599 30.85,61.7 C30.47,61.563 30.09,61.417 29.72,61.264 C29.22,61.061 30.33,61.531 29.75,61.278 C29.61,61.216 29.46,61.151 29.32,61.084 C29.08,60.972 28.83,60.858 28.6,60.727 C27.46,60.101 26.01,60.444 25.35,61.58 C24.71,62.676 25.07,64.203 26.2,64.83 C29.32,66.557 33.04,67.481 36.52,68.053 C40.36,68.68 44.25,68.843 48.13,68.53 C50.54,68.335 52.95,67.963 55.31,67.451 C56.42,67.213 57.51,66.894 58.62,66.652 C59.73,66.408 60.17,66.371 61.42,66.311 C63.56,66.209 65.47,66.415 67.28,66.737 C69.42,67.117 71.52,67.681 73.6,68.293 C77.79,69.527 81.89,71.035 86.13,72.102 C94.7,74.257 103.58,73.436 111.97,70.896 C116.8,69.432 121.72,67.478 126.04,64.83 C124.85,64.146 123.66,63.461 122.47,62.779 C122.47,67.587 122.47,72.397 122.47,77.204 C122.47,87.21 122.47,97.22 122.47,107.23 C122.47,115.82 122.47,124.41 122.47,132.99 C122.47,134.68 122.47,136.37 122.47,138.05 C122.47,138.9 122.45,139.74 122.41,140.59 C122.37,141.46 122.3,142.34 122.21,143.22 C122.16,143.65 122.11,144.08 122.06,144.52 C122.13,143.97 122.03,144.69 122.02,144.75 C121.98,145.03 121.93,145.32 121.88,145.6 C121.31,149.11 120.32,152.55 118.99,155.84 C118.97,155.9 118.7,156.54 118.9,156.05 C118.82,156.25 118.74,156.44 118.65,156.63 C118.48,157.01 118.31,157.4 118.13,157.78 C117.74,158.6 117.33,159.4 116.9,160.2 C116.07,161.73 115.15,163.2 114.17,164.63 C113.93,164.98 113.69,165.31 113.44,165.65 C113.32,165.82 113.2,165.98 113.07,166.15 C113.04,166.2 112.62,166.75 112.94,166.33 C112.39,167.04 111.82,167.73 111.23,168.41 C110.1,169.72 108.89,170.96 107.63,172.14 C107.02,172.7 106.4,173.25 105.76,173.78 C105.45,174.05 105.13,174.31 104.8,174.57 C104.64,174.7 104.47,174.83 104.31,174.96 C104.72,174.64 104.04,175.16 103.97,175.21 C102.58,176.25 101.13,177.21 99.63,178.09 C98.14,178.98 96.58,179.78 95,180.5 C94.8,180.59 94.61,180.67 94.42,180.76 C94.37,180.78 93.72,181.05 94.21,180.85 C93.82,181.01 93.43,181.16 93.04,181.32 C92.19,181.65 91.32,181.95 90.45,182.23 C88.75,182.78 87.03,183.23 85.28,183.59 C84.44,183.76 83.58,183.91 82.73,184.04 C82.67,184.05 81.95,184.15 82.5,184.07 C82.28,184.1 82.07,184.13 81.85,184.16 C81.34,184.21 80.83,184.26 80.33,184.31 C78.48,184.47 76.63,184.52 74.78,184.47 C73.9,184.45 73.02,184.4 72.14,184.33 C71.7,184.29 71.26,184.25 70.83,184.21 C70.61,184.18 70.39,184.16 70.18,184.13 C70.03,184.11 69.89,184.09 69.74,184.07 C70.02,184.11 70.01,184.11 69.73,184.07 C66.2,183.57 62.73,182.65 59.4,181.39 C59.01,181.24 58.62,181.09 58.22,180.93 C57.58,180.66 58.66,181.12 58.02,180.84 C57.82,180.76 57.63,180.67 57.44,180.59 C56.61,180.22 55.79,179.82 54.98,179.4 C53.44,178.61 51.94,177.72 50.49,176.77 C49.79,176.31 49.12,175.83 48.44,175.34 C48.28,175.21 48.11,175.09 47.95,174.97 C47.39,174.55 48.31,175.25 47.77,174.83 C47.39,174.53 47.01,174.23 46.64,173.92 C45.31,172.82 44.05,171.63 42.84,170.4 C41.63,169.16 40.5,167.85 39.43,166.49 C39.01,165.95 39.71,166.87 39.3,166.32 C39.17,166.15 39.05,165.98 38.92,165.82 C38.68,165.48 38.44,165.14 38.2,164.8 C37.68,164.07 37.19,163.31 36.71,162.55 C35.79,161.07 34.96,159.53 34.21,157.96 C34.02,157.59 33.85,157.21 33.68,156.82 C33.59,156.63 33.51,156.44 33.42,156.24 C33.14,155.6 33.6,156.68 33.33,156.04 C32.98,155.19 32.67,154.33 32.36,153.47 C31.78,151.79 31.3,150.08 30.9,148.35 C30.71,147.51 30.54,146.67 30.39,145.82 C30.32,145.39 30.25,144.96 30.19,144.53 C30.09,143.82 30.25,145.02 30.16,144.3 C30.12,144.01 30.09,143.72 30.06,143.43 C29.78,140.88 29.77,138.32 29.77,135.76 C29.77,132.73 29.77,129.69 29.77,126.66 C29.77,116.92 29.77,107.19 29.77,97.45 C29.77,88.35 29.77,79.241 29.77,70.135 C29.77,67.684 29.77,65.231 29.77,62.779 C29.77,59.715 25.02,59.715 25.02,62.779" id="Fill-562" fill="#4C5159"></path>
            <path d="M19.13,110.64 C19.13,110.64 18.31,113.54 19.94,114.97 C25.06,119.48 24.89,126.08 24.89,126.08 L24.89,114.32 L23.23,112.46 L19.13,110.64" id="Fill-563" fill="#D2AA71"></path>
            <path d="M28.49,120.23 C28.64,118.6 28.31,116.84 27.74,115.32 C26.49,111.95 23.72,109.69 20.25,108.83 C18.76,108.46 18.13,110.75 19.62,111.12 C22.46,111.82 24.67,113.64 25.59,116.33 C26.06,117.72 26.25,118.75 26.12,120.23 C25.99,121.75 28.36,121.74 28.49,120.23" id="Fill-564" fill="#4C5159"></path>
            <path d="M40.13,95.42 C40.32,95.31 40.52,95.21 40.71,95.12 C40.96,94.99 41.21,94.87 41.46,94.76 C41.62,94.68 41.77,94.61 41.93,94.54 C42.1,94.47 42.77,94.18 42.02,94.5 C43.98,93.68 46.03,93.04 48.11,92.59 C48.69,92.47 49.28,92.36 49.87,92.27 C50.01,92.25 50.14,92.23 50.28,92.21 C49.7,92.29 50.39,92.2 50.47,92.19 C50.82,92.15 51.17,92.13 51.52,92.1 C52.97,91.99 54.44,92.02 55.9,92.18 C56.18,92.21 56.2,92.21 55.94,92.18 C56.17,92.21 56.39,92.25 56.62,92.29 C57,92.35 57.38,92.43 57.75,92.52 C58.52,92.69 59.27,92.93 60.01,93.19 C60.17,93.25 60.32,93.3 60.47,93.36 C61.2,93.65 60.07,93.18 60.8,93.51 C61.18,93.67 61.55,93.86 61.92,94.05 C62.68,94.46 63.41,94.93 64.11,95.42 C65.17,96.17 66.75,95.61 67.36,94.57 C68.06,93.38 67.56,92.07 66.51,91.32 C60.92,87.36 54.01,86.64 47.42,87.89 C44.11,88.52 40.68,89.66 37.73,91.32 C36.6,91.96 36.23,93.47 36.88,94.57 C37.54,95.7 39,96.06 40.13,95.42" id="Fill-565" fill="#4C5159"></path>
            <path d="M109.93,91.32 C107.03,89.69 103.68,88.59 100.43,87.93 C93.81,86.59 86.76,87.34 81.15,91.32 C80.1,92.07 79.6,93.38 80.3,94.57 C80.91,95.61 82.49,96.17 83.55,95.42 C84.19,94.97 84.84,94.56 85.52,94.18 C85.89,93.97 86.26,93.79 86.64,93.61 C86.79,93.54 86.94,93.47 87.09,93.4 C86.69,93.58 87.42,93.27 87.42,93.28 C88.16,92.99 88.92,92.77 89.68,92.57 C90.06,92.48 90.44,92.4 90.82,92.33 C90.97,92.3 91.12,92.27 91.27,92.25 C91.31,92.24 92.06,92.14 91.54,92.2 C92.92,92.03 94.33,92.01 95.72,92.07 C96.07,92.09 96.42,92.12 96.78,92.15 C96.92,92.17 97.05,92.18 97.19,92.19 C97.27,92.2 97.96,92.29 97.38,92.21 C98.05,92.3 98.7,92.42 99.36,92.55 C101.47,92.98 103.53,93.63 105.52,94.45 C105.75,94.55 105.68,94.52 105.3,94.36 C105.41,94.4 105.52,94.45 105.62,94.5 C105.79,94.57 105.95,94.64 106.11,94.72 C106.37,94.84 106.63,94.96 106.88,95.09 C107.1,95.19 107.32,95.3 107.54,95.42 C108.66,96.06 110.12,95.7 110.78,94.57 C111.43,93.47 111.06,91.96 109.93,91.32" id="Fill-566" fill="#4C5159"></path>
            <path d="M57.02,102.61 C57.02,107.04 54.82,110.64 52.12,110.64 C49.41,110.64 47.22,107.04 47.22,102.61 C47.22,98.17 49.41,94.57 52.12,94.57 C54.82,94.57 57.02,98.17 57.02,102.61" id="Fill-567" fill="#4C5159"></path>
            <path d="M100.44,102.61 C100.44,107.04 98.25,110.64 95.54,110.64 C92.83,110.64 90.64,107.04 90.64,102.61 C90.64,98.17 92.83,94.57 95.54,94.57 C98.25,94.57 100.44,98.17 100.44,102.61" id="Fill-568" fill="#4C5159"></path>
            <path d="M68.52,134.08 C69.51,136.57 72.22,137.95 74.73,138.3 C76.97,138.62 79.18,138.32 81.03,136.95 C81.95,136.27 82.83,135.38 83.38,134.37 C84.1,133.02 82.05,131.82 81.33,133.17 C80.96,133.85 80.62,134.2 79.97,134.77 C78.65,135.95 76.99,136.16 75.28,136 C73.92,135.87 72.53,135.29 71.59,134.42 C71.43,134.27 71.29,134.1 71.14,133.93 C70.93,133.68 71.28,134.12 71.1,133.88 C71.04,133.79 70.99,133.71 70.93,133.62 C70.84,133.47 70.58,132.87 70.81,133.45 C70.57,132.85 70.03,132.44 69.35,132.62 C68.78,132.78 68.28,133.48 68.52,134.08" id="Fill-569" fill="#4C5159"></path>
            <path d="M57.61,231.07 C58.31,231.05 59.01,231.1 59.71,231.16 C60.05,231.18 60.38,231.22 60.72,231.26 C60.82,231.27 61.16,231.32 60.66,231.25 C60.76,231.27 60.85,231.28 60.95,231.3 C61.18,231.33 61.41,231.37 61.64,231.41 C62.55,231.57 63.45,231.78 64.34,232.04 C64.81,232.18 65.26,232.34 65.72,232.5 C65.95,232.59 66.18,232.68 66.41,232.78 C66.05,232.63 66.44,232.79 66.5,232.82 C66.65,232.89 66.81,232.96 66.96,233.03 C67.43,233.26 67.88,233.51 68.33,233.77 C68.55,233.9 68.77,234.05 68.99,234.19 C69.1,234.27 69.21,234.34 69.32,234.42 C69.37,234.45 69.82,234.79 69.53,234.57 C69.96,234.9 70.37,235.26 70.75,235.64 C70.95,235.84 71.14,236.04 71.32,236.25 C71.42,236.35 71.51,236.46 71.6,236.56 C71.66,236.64 71.72,236.71 71.78,236.78 C71.67,236.65 71.68,236.66 71.79,236.8 C72.14,237.27 72.45,237.77 72.73,238.28 C73.12,238.98 73.2,239.2 73.44,239.89 C74.15,241.89 74.3,243.69 74.23,245.81 C74.17,247.85 77.33,247.85 77.4,245.81 C77.5,242.7 76.98,239.59 75.53,236.81 C74.37,234.59 72.56,232.77 70.48,231.38 C67.24,229.23 63.26,228.26 59.41,227.96 C58.81,227.92 58.21,227.88 57.61,227.9 C55.57,227.96 55.56,231.13 57.61,231.07" id="Fill-570" fill="#D35D77"></path>
            <path d="M96.23,227.9 C93.78,227.83 91.23,228.26 88.88,228.92 C84.33,230.22 80.12,232.99 78.03,237.36 C76.78,239.99 76.34,242.91 76.44,245.81 C76.51,247.85 79.67,247.85 79.61,245.81 C79.51,242.94 79.97,240.23 81.33,237.89 C81.97,236.8 82.4,236.28 83.38,235.36 C83.58,235.17 83.78,235 83.99,234.82 C84.1,234.73 84.2,234.65 84.31,234.57 C84.02,234.79 84.37,234.52 84.41,234.5 C84.87,234.16 85.36,233.86 85.85,233.57 C86.3,233.32 86.76,233.09 87.23,232.87 C87.34,232.82 87.46,232.77 87.57,232.72 C87.21,232.88 87.6,232.71 87.66,232.68 C87.93,232.58 88.2,232.48 88.47,232.38 C89.38,232.05 90.32,231.8 91.27,231.59 C91.68,231.5 92.09,231.43 92.5,231.36 C92.7,231.32 92.89,231.3 93.08,231.27 C93.43,231.22 92.69,231.32 93.03,231.27 C93.15,231.26 93.27,231.24 93.39,231.23 C93.99,231.16 94.6,231.11 95.21,231.09 C95.55,231.07 95.89,231.06 96.23,231.07 C98.28,231.13 98.27,227.96 96.23,227.9" id="Fill-571" fill="#D35D77"></path>
            <path d="M58.62,156.49 C61.65,158.63 65.3,160.11 68.84,161.14 C76.31,163.3 84.28,162.78 91.2,159.11 C92.61,158.36 93.95,157.46 95.22,156.49 C95.91,155.97 96.27,155.14 95.79,154.32 C95.4,153.65 94.31,153.23 93.63,153.75 C90.17,156.4 86.28,158.22 81.99,158.97 C78.59,159.56 75.06,159.33 71.72,158.6 C68.94,157.99 66.34,157.05 64,155.91 C62.73,155.29 61.48,154.61 60.31,153.82 C60.28,153.8 60.25,153.78 60.21,153.75 C59.51,153.26 58.45,153.63 58.05,154.32 C57.58,155.12 57.91,155.99 58.62,156.49" id="Fill-572" fill="#4C5159"></path>
            <path d="M67.37,188.4 C67.37,188.4 76.12,189.9 84.88,188.4 L84.88,192.73 C84.88,192.73 81.97,194.1 76.44,194.1 C71.05,194.1 67.37,192.73 67.37,192.73 L67.37,188.4" id="Fill-573" fill="#D2AA71"></path>
            <path d="M118.32,68.658 L118.32,140.17 C118.32,140.17 115.74,177.76 74.76,184.51 C74.76,184.51 87.25,184.89 99.38,178.19 C110.29,172.16 121.89,158.6 122.4,140.17 L122.47,66.803 L118.32,68.658" id="Fill-574" fill="#D2AA71"></path>
            <path d="M137.22,194.66 C137.22,194.66 146.23,223.42 106.09,236.72 C106.09,236.72 122.64,220.14 116.47,214.92 C110.29,209.69 109.03,223.79 109.03,223.79 C109.03,223.79 102.22,215.08 108.71,206.21 C115.2,197.34 113.14,189.17 113.14,189.17 C113.14,189.17 128.84,182.95 137.22,194.66" id="Fill-575" fill="#4C5159"></path>
            <path d="M120.11,72.715 C120.11,72.715 99.59,82.96 76.12,74.51 C52.65,66.065 40.43,77.931 29.77,71.426 L29.77,66.41 C29.77,66.41 39.87,70.34 52.12,67.807 C64.36,65.273 68.22,65.323 76.72,68.861 C86.49,72.926 101.42,75.961 118.88,68.459 L120.11,72.715" id="Fill-576" fill="#D2AA71"></path>
            <path d="M100.44,18.242 C100.44,28.036 87.77,35.977 72.13,35.977 C56.5,35.977 43.83,28.036 43.83,18.242 C43.83,8.447 56.5,0.506 72.13,0.506 C87.77,0.506 100.44,8.447 100.44,18.242" id="Fill-577" fill="#4C5159"></path>
            <path d="M148.43,59.192 C142.13,66.687 127.32,64.602 115.35,54.537 C103.39,44.471 98.8,30.235 105.11,22.74 C111.42,15.245 126.23,17.329 138.19,27.395 C150.15,37.462 154.74,51.697 148.43,59.192" id="Fill-578" fill="#4C5159"></path>
            <path d="M37.88,21.496 C45.54,27.166 44.42,41.672 35.37,53.9 C26.33,66.128 12.78,71.445 5.12,65.777 C-2.54,60.11 -1.42,45.601 7.63,33.374 C16.68,21.148 30.22,15.83 37.88,21.496" id="Fill-579" fill="#4C5159"></path>
        </g>
    </g>
</svg>