<?xml version="1.0" encoding="UTF-8"?>
<svg width="188px" height="251px" viewBox="0 0 188 251" version="1.1" xmlns="http://www.w3.org/2000/svg" xmlns:xlink="http://www.w3.org/1999/xlink">
    <!-- Generator: Sketch 48.2 (47327) - http://www.bohemiancoding.com/sketch -->
    <title>female6</title>
    <desc>Created with Sketch.</desc>
    <defs></defs>
    <g id="Page-1" stroke="none" stroke-width="1" fill="none" fill-rule="evenodd">
        <g id="female6" transform="translate(0.000000, -1.000000)">
            <path d="M184.42,99.92 C184.42,149.55 145.205,189.78 96.83,189.78 C48.456,189.78 9.24,149.55 9.24,99.92 C9.24,50.3 48.456,10.07 96.83,10.07 C145.205,10.07 184.42,50.3 184.42,99.92" id="Fill-637" fill="#4C5159"></path>
            <path d="M177.84,49.59 C177.84,54.44 174.008,58.37 169.283,58.37 C164.556,58.37 160.725,54.44 160.725,49.59 C160.725,44.74 164.556,40.81 169.283,40.81 C174.008,40.81 177.84,44.74 177.84,49.59" id="Fill-638" fill="#4C5159"></path>
            <path d="M176.583,148.03 C176.583,151.06 174.19,153.52 171.238,153.52 C168.286,153.52 165.892,151.06 165.892,148.03 C165.892,145 168.286,142.55 171.238,142.55 C174.19,142.55 176.583,145 176.583,148.03" id="Fill-639" fill="#4C5159"></path>
            <path d="M170.489,154.94 C170.489,157.96 168.096,160.42 165.144,160.42 C162.191,160.42 159.797,157.96 159.797,154.94 C159.797,151.91 162.191,149.45 165.144,149.45 C168.096,149.45 170.489,151.91 170.489,154.94" id="Fill-640" fill="#4C5159"></path>
            <path d="M165.144,160.42 C165.144,163.45 162.75,165.9 159.797,165.9 C156.845,165.9 154.452,163.45 154.452,160.42 C154.452,157.39 156.845,154.94 159.797,154.94 C162.75,154.94 165.144,157.39 165.144,160.42" id="Fill-641" fill="#4C5159"></path>
            <path d="M163.888,164.47 C163.888,167.5 161.494,169.96 158.542,169.96 C155.59,169.96 153.196,167.5 153.196,164.47 C153.196,161.44 155.59,158.99 158.542,158.99 C161.494,158.99 163.888,161.44 163.888,164.47" id="Fill-642" fill="#4C5159"></path>
            <path d="M160.517,173.36 C160.517,176.39 158.124,178.85 155.171,178.85 C152.219,178.85 149.825,176.39 149.825,173.36 C149.825,170.34 152.219,167.88 155.171,167.88 C158.124,167.88 160.517,170.34 160.517,173.36" id="Fill-643" fill="#4C5159"></path>
            <path d="M167.344,170.67 C167.344,173.7 164.951,176.16 161.998,176.16 C159.046,176.16 156.653,173.7 156.653,170.67 C156.653,167.64 159.046,165.19 161.998,165.19 C164.951,165.19 167.344,167.64 167.344,170.67" id="Fill-644" fill="#4C5159"></path>
            <path d="M153.196,176.16 C153.196,179.18 150.804,181.64 147.852,181.64 C144.899,181.64 142.505,179.18 142.505,176.16 C142.505,173.13 144.899,170.67 147.852,170.67 C150.804,170.67 153.196,173.13 153.196,176.16" id="Fill-645" fill="#4C5159"></path>
            <path d="M143.669,180.1 C143.669,183.13 141.275,185.58 138.323,185.58 C135.371,185.58 132.977,183.13 132.977,180.1 C132.977,177.07 135.371,174.62 138.323,174.62 C141.275,174.62 143.669,177.07 143.669,180.1" id="Fill-646" fill="#4C5159"></path>
            <path d="M138.323,182.73 C138.323,185.76 135.93,188.22 132.977,188.22 C130.024,188.22 127.631,185.76 127.631,182.73 C127.631,179.71 130.024,177.25 132.977,177.25 C135.93,177.25 138.323,179.71 138.323,182.73" id="Fill-647" fill="#4C5159"></path>
            <path d="M85.275,186.68 C85.275,189.71 82.881,192.16 79.928,192.16 C76.976,192.16 74.583,189.71 74.583,186.68 C74.583,183.65 76.976,181.19 79.928,181.19 C82.881,181.19 85.275,183.65 85.275,186.68" id="Fill-648" fill="#4C5159"></path>
            <path d="M78.238,186.68 C78.238,189.71 75.844,192.16 72.891,192.16 C69.939,192.16 67.545,189.71 67.545,186.68 C67.545,183.65 69.939,181.19 72.891,181.19 C75.844,181.19 78.238,183.65 78.238,186.68" id="Fill-649" fill="#4C5159"></path>
            <path d="M69.686,184.33 C69.686,187.36 67.292,189.82 64.339,189.82 C61.388,189.82 58.994,187.36 58.994,184.33 C58.994,181.3 61.388,178.85 64.339,178.85 C67.292,178.85 69.686,181.3 69.686,184.33" id="Fill-650" fill="#4C5159"></path>
            <path d="M63.095,179.56 C63.095,182.59 60.701,185.05 57.749,185.05 C54.796,185.05 52.403,182.59 52.403,179.56 C52.403,176.54 54.796,174.08 57.749,174.08 C60.701,174.08 63.095,176.54 63.095,179.56" id="Fill-651" fill="#4C5159"></path>
            <path d="M56.913,176.16 C56.913,179.18 54.519,181.64 51.566,181.64 C48.614,181.64 46.22,179.18 46.22,176.16 C46.22,173.13 48.614,170.67 51.566,170.67 C54.519,170.67 56.913,173.13 56.913,176.16" id="Fill-652" fill="#4C5159"></path>
            <path d="M50.333,171.77 C50.333,174.8 47.939,177.25 44.987,177.25 C42.035,177.25 39.642,174.8 39.642,171.77 C39.642,168.74 42.035,166.28 44.987,166.28 C47.939,166.28 50.333,168.74 50.333,171.77" id="Fill-653" fill="#4C5159"></path>
            <path d="M42.453,166.28 C42.453,169.31 40.061,171.77 37.108,171.77 C34.155,171.77 31.762,169.31 31.762,166.28 C31.762,163.25 34.155,160.8 37.108,160.8 C40.061,160.8 42.453,163.25 42.453,166.28" id="Fill-654" fill="#4C5159"></path>
            <path d="M37.277,160.42 C37.277,163.45 34.883,165.9 31.932,165.9 C28.979,165.9 26.586,163.45 26.586,160.42 C26.586,157.39 28.979,154.94 31.932,154.94 C34.883,154.94 37.277,157.39 37.277,160.42" id="Fill-655" fill="#4C5159"></path>
            <path d="M44.008,173.36 C44.008,176.39 41.615,178.85 38.662,178.85 C35.71,178.85 33.317,176.39 33.317,173.36 C33.317,170.34 35.71,167.88 38.662,167.88 C41.615,167.88 44.008,170.34 44.008,173.36" id="Fill-656" fill="#4C5159"></path>
            <path d="M56.913,182.35 C56.913,185.38 54.519,187.84 51.566,187.84 C48.614,187.84 46.22,185.38 46.22,182.35 C46.22,179.33 48.614,176.87 51.566,176.87 C54.519,176.87 56.913,179.33 56.913,182.35" id="Fill-657" fill="#4C5159"></path>
            <path d="M50.333,179.56 C50.333,182.59 47.939,185.05 44.987,185.05 C42.035,185.05 39.642,182.59 39.642,179.56 C39.642,176.54 42.035,174.08 44.987,174.08 C47.939,174.08 50.333,176.54 50.333,179.56" id="Fill-658" fill="#4C5159"></path>
            <path d="M63.39,184.33 C63.39,187.36 60.997,189.82 58.044,189.82 C55.092,189.82 52.698,187.36 52.698,184.33 C52.698,181.3 55.092,178.85 58.044,178.85 C60.997,178.85 63.39,181.3 63.39,184.33" id="Fill-659" fill="#4C5159"></path>
            <path d="M30.837,155.31 C30.837,158.34 28.444,160.8 25.491,160.8 C22.539,160.8 20.146,158.34 20.146,155.31 C20.146,152.29 22.539,149.83 25.491,149.83 C28.444,149.83 30.837,152.29 30.837,155.31" id="Fill-660" fill="#4C5159"></path>
            <path d="M25.491,148.03 C25.491,151.06 23.099,153.52 20.146,153.52 C17.193,153.52 14.8,151.06 14.8,148.03 C14.8,145 17.193,142.55 20.146,142.55 C23.099,142.55 25.491,145 25.491,148.03" id="Fill-661" fill="#4C5159"></path>
            <path d="M23.274,140.81 C23.274,143.83 20.881,146.29 17.929,146.29 C14.977,146.29 12.583,143.83 12.583,140.81 C12.583,137.78 14.977,135.32 17.929,135.32 C20.881,135.32 23.274,137.78 23.274,140.81" id="Fill-662" fill="#4C5159"></path>
            <path d="M20.146,132.73 C20.146,135.76 17.752,138.21 14.8,138.21 C11.848,138.21 9.454,135.76 9.454,132.73 C9.454,129.7 11.848,127.25 14.8,127.25 C17.752,127.25 20.146,129.7 20.146,132.73" id="Fill-663" fill="#4C5159"></path>
            <path d="M16.662,123.16 C16.662,126.19 14.269,128.65 11.316,128.65 C8.364,128.65 5.97,126.19 5.97,123.16 C5.97,120.13 8.364,117.68 11.316,117.68 C14.269,117.68 16.662,120.13 16.662,123.16" id="Fill-664" fill="#4C5159"></path>
            <path d="M15.554,113.66 C15.554,116.69 13.16,119.15 10.208,119.15 C7.256,119.15 4.862,116.69 4.862,113.66 C4.862,110.63 7.256,108.18 10.208,108.18 C13.16,108.18 15.554,110.63 15.554,113.66" id="Fill-665" fill="#4C5159"></path>
            <path d="M12.583,117.68 C12.583,120.71 10.19,123.16 7.237,123.16 C4.285,123.16 1.891,120.71 1.891,117.68 C1.891,114.65 4.285,112.2 7.237,112.2 C10.19,112.2 12.583,114.65 12.583,117.68" id="Fill-666" fill="#4C5159"></path>
            <path d="M12.583,130.12 C12.583,133.15 10.19,135.6 7.237,135.6 C4.285,135.6 1.891,133.15 1.891,130.12 C1.891,127.09 4.285,124.63 7.237,124.63 C10.19,124.63 12.583,127.09 12.583,130.12" id="Fill-667" fill="#4C5159"></path>
            <path d="M11.95,137.06 C11.95,140.09 9.557,142.55 6.604,142.55 C3.651,142.55 1.259,140.09 1.259,137.06 C1.259,134.03 3.651,131.58 6.604,131.58 C9.557,131.58 11.95,134.03 11.95,137.06" id="Fill-668" fill="#4C5159"></path>
            <path d="M17.295,137.06 C17.295,140.09 14.901,142.55 11.95,142.55 C8.997,142.55 6.604,140.09 6.604,137.06 C6.604,134.03 8.997,131.58 11.95,131.58 C14.901,131.58 17.295,134.03 17.295,137.06" id="Fill-669" fill="#4C5159"></path>
            <path d="M11.316,104.31 C11.316,107.33 8.923,109.79 5.97,109.79 C3.018,109.79 0.625,107.33 0.625,104.31 C0.625,101.28 3.018,98.82 5.97,98.82 C8.923,98.82 11.316,101.28 11.316,104.31" id="Fill-670" fill="#4C5159"></path>
            <path d="M14.586,99.92 C14.586,102.95 12.192,105.41 9.24,105.41 C6.288,105.41 3.895,102.95 3.895,99.92 C3.895,96.9 6.288,94.44 9.24,94.44 C12.192,94.44 14.586,96.9 14.586,99.92" id="Fill-671" fill="#4C5159"></path>
            <path d="M14.8,91.22 C14.8,94.25 12.407,96.7 9.454,96.7 C6.502,96.7 4.108,94.25 4.108,91.22 C4.108,88.19 6.502,85.74 9.454,85.74 C12.407,85.74 14.8,88.19 14.8,91.22" id="Fill-672" fill="#4C5159"></path>
            <path d="M15.554,82.2 C15.554,85.22 13.16,87.68 10.208,87.68 C7.256,87.68 4.862,85.22 4.862,82.2 C4.862,79.17 7.256,76.71 10.208,76.71 C13.16,76.71 15.554,79.17 15.554,82.2" id="Fill-673" fill="#4C5159"></path>
            <path d="M17.295,72.85 C17.295,75.88 14.901,78.34 11.95,78.34 C8.997,78.34 6.604,75.88 6.604,72.85 C6.604,69.82 8.997,67.37 11.95,67.37 C14.901,67.37 17.295,69.82 17.295,72.85" id="Fill-674" fill="#4C5159"></path>
            <path d="M19.932,65.08 C19.932,68.11 17.539,70.56 14.586,70.56 C11.634,70.56 9.24,68.11 9.24,65.08 C9.24,62.05 11.634,59.6 14.586,59.6 C17.539,59.6 19.932,62.05 19.932,65.08" id="Fill-675" fill="#4C5159"></path>
            <path d="M22.642,57.8 C22.642,60.82 20.248,63.28 17.295,63.28 C14.343,63.28 11.949,60.82 11.949,57.8 C11.949,54.77 14.343,52.31 17.295,52.31 C20.248,52.31 22.642,54.77 22.642,57.8" id="Fill-676" fill="#4C5159"></path>
            <path d="M18.999,57.8 C18.999,60.82 16.606,63.28 13.654,63.28 C10.701,63.28 8.307,60.82 8.307,57.8 C8.307,54.77 10.701,52.31 13.654,52.31 C16.606,52.31 18.999,54.77 18.999,57.8" id="Fill-677" fill="#4C5159"></path>
            <path d="M20.146,49.59 C20.146,52.62 17.752,55.07 14.8,55.07 C11.848,55.07 9.454,52.62 9.454,49.59 C9.454,46.56 11.848,44.11 14.8,44.11 C17.752,44.11 20.146,46.56 20.146,49.59" id="Fill-678" fill="#4C5159"></path>
            <path d="M29.69,51.49 C29.69,54.52 27.297,56.97 24.344,56.97 C21.392,56.97 18.999,54.52 18.999,51.49 C18.999,48.46 21.392,46.01 24.344,46.01 C27.297,46.01 29.69,48.46 29.69,51.49" id="Fill-679" fill="#4C5159"></path>
            <path d="M31.931,44.11 C31.931,47.13 29.539,49.59 26.586,49.59 C23.633,49.59 21.239,47.13 21.239,44.11 C21.239,41.08 23.633,38.62 26.586,38.62 C29.539,38.62 31.931,41.08 31.931,44.11" id="Fill-680" fill="#4C5159"></path>
            <path d="M26.586,46.83 C26.586,49.86 24.192,52.31 21.239,52.31 C18.287,52.31 15.894,49.86 15.894,46.83 C15.894,43.8 18.287,41.34 21.239,41.34 C24.192,41.34 26.586,43.8 26.586,46.83" id="Fill-681" fill="#4C5159"></path>
            <path d="M35.77,37.64 C35.77,40.67 33.377,43.13 30.425,43.13 C27.473,43.13 25.078,40.67 25.078,37.64 C25.078,34.61 27.473,32.16 30.425,32.16 C33.377,32.16 35.77,34.61 35.77,37.64" id="Fill-682" fill="#4C5159"></path>
            <path d="M42.622,32.16 C42.622,35.19 40.229,37.64 37.277,37.64 C34.325,37.64 31.931,35.19 31.931,32.16 C31.931,29.13 34.325,26.67 37.277,26.67 C40.229,26.67 42.622,29.13 42.622,32.16" id="Fill-683" fill="#4C5159"></path>
            <path d="M47.799,25.35 C47.799,28.38 45.405,30.83 42.453,30.83 C39.5,30.83 37.108,28.38 37.108,25.35 C37.108,22.32 39.5,19.87 42.453,19.87 C45.405,19.87 47.799,22.32 47.799,25.35" id="Fill-684" fill="#4C5159"></path>
            <path d="M54.408,21.19 C54.408,24.22 52.016,26.67 49.063,26.67 C46.111,26.67 43.717,24.22 43.717,21.19 C43.717,18.16 46.111,15.71 49.063,15.71 C52.016,15.71 54.408,18.16 54.408,21.19" id="Fill-685" fill="#4C5159"></path>
            <path d="M61.376,18.34 C61.376,21.37 58.983,23.82 56.03,23.82 C53.078,23.82 50.684,21.37 50.684,18.34 C50.684,15.31 53.078,12.86 56.03,12.86 C58.983,12.86 61.376,15.31 61.376,18.34" id="Fill-686" fill="#4C5159"></path>
            <path d="M56.913,17.23 C56.913,20.26 54.519,22.72 51.566,22.72 C48.614,22.72 46.22,20.26 46.22,17.23 C46.22,14.2 48.614,11.75 51.566,11.75 C54.519,11.75 56.913,14.2 56.913,17.23" id="Fill-687" fill="#4C5159"></path>
            <path d="M68.735,15.71 C68.735,18.74 66.342,21.19 63.39,21.19 C60.438,21.19 58.044,18.74 58.044,15.71 C58.044,12.68 60.438,10.22 63.39,10.22 C66.342,10.22 68.735,12.68 68.735,15.71" id="Fill-688" fill="#4C5159"></path>
            <path d="M77.92,12.86 C77.92,15.88 75.526,18.34 72.575,18.34 C69.623,18.34 67.229,15.88 67.229,12.86 C67.229,9.83 69.623,7.37 72.575,7.37 C75.526,7.37 77.92,9.83 77.92,12.86" id="Fill-689" fill="#4C5159"></path>
            <path d="M86.629,8.9 C86.629,11.92 84.237,14.38 81.284,14.38 C78.332,14.38 75.938,11.92 75.938,8.9 C75.938,5.87 78.332,3.41 81.284,3.41 C84.237,3.41 86.629,5.87 86.629,8.9" id="Fill-690" fill="#4C5159"></path>
            <path d="M94.908,10.07 C94.908,13.1 92.515,15.55 89.563,15.55 C86.61,15.55 84.216,13.1 84.216,10.07 C84.216,7.04 86.61,4.58 89.563,4.58 C92.515,4.58 94.908,7.04 94.908,10.07" id="Fill-691" fill="#4C5159"></path>
            <path d="M115.398,10.07 C115.398,13.1 113.006,15.55 110.054,15.55 C107.101,15.55 104.708,13.1 104.708,10.07 C104.708,7.04 107.101,4.58 110.054,4.58 C113.006,4.58 115.398,7.04 115.398,10.07" id="Fill-694" fill="#4C5159"></path>
            <path d="M122.751,10.07 C122.751,13.1 120.357,15.55 117.405,15.55 C114.452,15.55 112.059,13.1 112.059,10.07 C112.059,7.04 114.452,4.58 117.405,4.58 C120.357,4.58 122.751,7.04 122.751,10.07" id="Fill-695" fill="#4C5159"></path>
            <path d="M130.352,11.01 C130.352,14.04 127.959,16.5 125.007,16.5 C122.054,16.5 119.66,14.04 119.66,11.01 C119.66,7.98 122.054,5.53 125.007,5.53 C127.959,5.53 130.352,7.98 130.352,11.01" id="Fill-696" fill="#4C5159"></path>
            <path d="M138.745,15.55 C138.745,18.58 136.351,21.04 133.398,21.04 C130.446,21.04 128.053,18.58 128.053,15.55 C128.053,12.52 130.446,10.07 133.398,10.07 C136.351,10.07 138.745,12.52 138.745,15.55" id="Fill-697" fill="#4C5159"></path>
            <path d="M146.57,18.34 C146.57,21.37 144.178,23.82 141.225,23.82 C138.273,23.82 135.879,21.37 135.879,18.34 C135.879,15.31 138.273,12.86 141.225,12.86 C144.178,12.86 146.57,15.31 146.57,18.34" id="Fill-698" fill="#4C5159"></path>
            <path d="M151.163,22.72 C151.163,25.74 148.77,28.2 145.817,28.2 C142.864,28.2 140.472,25.74 140.472,22.72 C140.472,19.69 142.864,17.23 145.817,17.23 C148.77,17.23 151.163,19.69 151.163,22.72" id="Fill-699" fill="#4C5159"></path>
            <path d="M160.031,21.04 C160.031,24.06 157.637,26.52 154.685,26.52 C151.732,26.52 149.34,24.06 149.34,21.04 C149.34,18.01 151.732,15.55 154.685,15.55 C157.637,15.55 160.031,18.01 160.031,21.04" id="Fill-700" fill="#4C5159"></path>
            <path d="M156.51,27.21 C156.51,30.24 154.115,32.7 151.163,32.7 C148.211,32.7 145.817,30.24 145.817,27.21 C145.817,24.18 148.211,21.73 151.163,21.73 C154.115,21.73 156.51,24.18 156.51,27.21" id="Fill-701" fill="#4C5159"></path>
            <path d="M165.376,27.21 C165.376,30.24 162.983,32.7 160.031,32.7 C157.078,32.7 154.685,30.24 154.685,27.21 C154.685,24.18 157.078,21.73 160.031,21.73 C162.983,21.73 165.376,24.18 165.376,27.21" id="Fill-702" fill="#4C5159"></path>
            <path d="M160.725,33.14 C160.725,36.17 158.332,38.62 155.379,38.62 C152.427,38.62 150.033,36.17 150.033,33.14 C150.033,30.11 152.427,27.65 155.379,27.65 C158.332,27.65 160.725,30.11 160.725,33.14" id="Fill-703" fill="#4C5159"></path>
            <path d="M165.376,38.62 C165.376,41.65 162.983,44.11 160.031,44.11 C157.078,44.11 154.685,41.65 154.685,38.62 C154.685,35.59 157.078,33.14 160.031,33.14 C162.983,33.14 165.376,35.59 165.376,38.62" id="Fill-704" fill="#4C5159"></path>
            <path d="M171.416,40.81 C171.416,43.84 169.023,46.3 166.071,46.3 C163.118,46.3 160.725,43.84 160.725,40.81 C160.725,37.78 163.118,35.33 166.071,35.33 C169.023,35.33 171.416,37.78 171.416,40.81" id="Fill-705" fill="#4C5159"></path>
            <path d="M176.068,39.54 C176.068,42.57 173.675,45.03 170.723,45.03 C167.77,45.03 165.376,42.57 165.376,39.54 C165.376,36.52 167.77,34.06 170.723,34.06 C173.675,34.06 176.068,36.52 176.068,39.54" id="Fill-706" fill="#4C5159"></path>
            <path d="M170.723,34.64 C170.723,37.66 168.329,40.12 165.376,40.12 C162.424,40.12 160.031,37.66 160.031,34.64 C160.031,31.61 162.424,29.15 165.376,29.15 C168.329,29.15 170.723,31.61 170.723,34.64" id="Fill-707" fill="#4C5159"></path>
            <path d="M133.398,17.23 C133.398,20.26 131.006,22.72 128.053,22.72 C125.101,22.72 122.707,20.26 122.707,17.23 C122.707,14.2 125.101,11.75 128.053,11.75 C131.006,11.75 133.398,14.2 133.398,17.23" id="Fill-708" fill="#4C5159"></path>
            <path d="M158.542,165.9 C158.542,168.93 156.149,171.39 153.196,171.39 C150.245,171.39 147.852,168.93 147.852,165.9 C147.852,162.88 150.245,160.42 153.196,160.42 C156.149,160.42 158.542,162.88 158.542,165.9" id="Fill-709" fill="#4C5159"></path>
            <path d="M153.196,171.39 C153.196,174.42 150.804,176.87 147.852,176.87 C144.899,176.87 142.505,174.42 142.505,171.39 C142.505,168.36 144.899,165.9 147.852,165.9 C150.804,165.9 153.196,168.36 153.196,171.39" id="Fill-710" fill="#4C5159"></path>
            <path d="M144.867,176.87 C144.867,179.9 142.474,182.35 139.521,182.35 C136.568,182.35 134.176,179.9 134.176,176.87 C134.176,173.84 136.568,171.39 139.521,171.39 C142.474,171.39 144.867,173.84 144.867,176.87" id="Fill-711" fill="#4C5159"></path>
            <path d="M139.521,178.85 C139.521,181.88 137.128,184.33 134.176,184.33 C131.223,184.33 128.829,181.88 128.829,178.85 C128.829,175.82 131.223,173.36 134.176,173.36 C137.128,173.36 139.521,175.82 139.521,178.85" id="Fill-712" fill="#4C5159"></path>
            <path d="M134.176,182.35 C134.176,185.38 131.782,187.84 128.829,187.84 C125.877,187.84 123.484,185.38 123.484,182.35 C123.484,179.33 125.877,176.87 128.829,176.87 C131.782,176.87 134.176,179.33 134.176,182.35" id="Fill-713" fill="#4C5159"></path>
            <path d="M126.891,185.05 C126.891,188.08 124.498,190.53 121.546,190.53 C118.594,190.53 116.199,188.08 116.199,185.05 C116.199,182.02 118.594,179.56 121.546,179.56 C124.498,179.56 126.891,182.02 126.891,185.05" id="Fill-714" fill="#4C5159"></path>
            <path d="M119.71,185.58 C119.71,188.61 117.316,191.07 114.365,191.07 C111.413,191.07 109.019,188.61 109.019,185.58 C109.019,182.55 111.413,180.1 114.365,180.1 C117.316,180.1 119.71,182.55 119.71,185.58" id="Fill-715" fill="#4C5159"></path>
            <path d="M114.812,185.58 C114.812,188.61 112.417,191.07 109.465,191.07 C106.513,191.07 104.119,188.61 104.119,185.58 C104.119,182.55 106.513,180.1 109.465,180.1 C112.417,180.1 114.812,182.55 114.812,185.58" id="Fill-716" fill="#4C5159"></path>
            <path d="M183.872,64.47 C183.872,70.35 179.221,75.12 173.486,75.12 C167.75,75.12 163.101,70.35 163.101,64.47 C163.101,58.58 167.75,53.81 173.486,53.81 C179.221,53.81 183.872,58.58 183.872,64.47" id="Fill-717" fill="#4C5159"></path>
            <path d="M187.275,78.51 C187.275,83.6 183.247,87.74 178.278,87.74 C173.311,87.74 169.283,83.6 169.283,78.51 C169.283,73.41 173.311,69.28 178.278,69.28 C183.247,69.28 187.275,73.41 187.275,78.51" id="Fill-718" fill="#4C5159"></path>
            <path d="M130.541,109.79 C130.541,120.05 136.385,128.36 143.596,128.36 C150.808,128.36 156.653,120.05 156.653,109.79 C156.653,99.53 150.808,91.22 143.596,91.22 C136.385,91.22 130.541,99.53 130.541,109.79" id="Fill-719" fill="#9B716C"></path>
            <path d="M128.165,109.79 C128.2,117.21 131.186,126.15 138.401,129.52 C141.786,131.1 145.403,131.04 148.791,129.52 C152.021,128.08 154.525,125.1 156.145,122.03 C160.074,114.59 159.973,105 156.145,97.55 C154.545,94.44 151.996,91.55 148.791,90.05 C145.407,88.47 141.789,88.54 138.401,90.05 C135.17,91.5 132.667,94.48 131.048,97.55 C129.068,101.3 128.184,105.57 128.165,109.79 C128.15,112.85 132.901,112.85 132.915,109.79 C132.933,106.01 133.748,102.37 135.565,99.19 C135.775,98.82 136.004,98.47 136.238,98.11 C136.353,97.94 136.474,97.77 136.595,97.61 C136.993,97.05 136.3,97.97 136.722,97.44 C137.253,96.77 137.852,96.16 138.491,95.6 C138.634,95.47 138.783,95.35 138.931,95.24 C138.484,95.6 138.977,95.21 139.053,95.16 C139.354,94.95 139.67,94.75 139.99,94.57 C140.304,94.39 140.633,94.23 140.964,94.08 C140.405,94.33 140.96,94.1 141.064,94.06 C141.289,93.98 141.518,93.91 141.746,93.85 C142.09,93.75 142.441,93.68 142.793,93.62 C142.15,93.73 142.749,93.63 142.874,93.62 C143.053,93.61 143.234,93.6 143.414,93.6 C143.776,93.59 144.138,93.61 144.497,93.64 C145.11,93.69 143.971,93.55 144.575,93.65 C144.81,93.69 145.042,93.74 145.273,93.8 C145.621,93.88 145.961,94 146.296,94.12 C146.87,94.33 145.833,93.91 146.394,94.16 C146.559,94.23 146.719,94.31 146.881,94.4 C147.208,94.56 147.522,94.75 147.832,94.95 C147.988,95.05 148.14,95.16 148.291,95.27 C148.503,95.42 148.494,95.41 148.261,95.24 C148.36,95.31 148.458,95.39 148.555,95.48 C149.157,95.97 149.703,96.54 150.214,97.13 C150.345,97.28 150.472,97.44 150.598,97.6 C150.264,97.18 150.679,97.72 150.718,97.77 C151.004,98.17 151.266,98.59 151.519,99 C151.97,99.75 152.355,100.54 152.704,101.34 C152.507,100.89 152.79,101.58 152.801,101.61 C152.884,101.82 152.96,102.04 153.035,102.25 C153.215,102.77 153.368,103.29 153.512,103.81 C153.766,104.75 153.95,105.69 154.093,106.65 C154.023,106.19 154.13,107 154.131,107 C154.158,107.25 154.179,107.5 154.199,107.75 C154.248,108.34 154.268,108.94 154.276,109.53 C154.29,110.55 154.233,111.57 154.131,112.58 C154.13,112.58 154.029,113.39 154.093,112.93 C154.059,113.17 154.018,113.41 153.976,113.66 C153.883,114.21 153.762,114.76 153.63,115.31 C153.411,116.21 153.127,117.1 152.801,117.97 C152.791,118 152.512,118.69 152.704,118.24 C152.617,118.44 152.523,118.65 152.432,118.85 C152.218,119.31 151.981,119.76 151.733,120.2 C151.526,120.58 151.301,120.94 151.071,121.29 C150.957,121.47 150.837,121.63 150.718,121.8 C150.681,121.86 150.268,122.4 150.598,121.98 C150.071,122.66 149.479,123.28 148.845,123.85 C148.703,123.98 148.556,124.1 148.409,124.22 C147.919,124.63 148.8,123.94 148.291,124.31 C147.993,124.53 147.679,124.73 147.36,124.92 C147.048,125.11 146.723,125.27 146.394,125.42 C145.837,125.68 146.866,125.24 146.296,125.46 C146.073,125.54 145.846,125.62 145.618,125.68 C145.275,125.79 144.926,125.86 144.575,125.93 C143.972,126.04 145.109,125.87 144.497,125.94 C144.318,125.96 144.138,125.97 143.958,125.98 C143.597,125.99 143.234,125.98 142.874,125.96 C142.752,125.95 142.146,125.86 142.793,125.96 C142.558,125.92 142.324,125.87 142.092,125.82 C141.743,125.74 141.402,125.63 141.064,125.52 C140.963,125.48 140.397,125.26 140.964,125.5 C140.797,125.42 140.635,125.35 140.473,125.27 C140.144,125.11 139.827,124.92 139.517,124.73 C139.359,124.63 139.206,124.52 139.053,124.42 C138.951,124.35 138.85,124.28 138.75,124.2 C138.98,124.38 138.992,124.39 138.784,124.22 C138.176,123.74 137.626,123.18 137.11,122.6 C136.976,122.45 136.848,122.29 136.722,122.14 C136.294,121.62 137,122.52 136.595,121.97 C136.306,121.58 136.04,121.17 135.783,120.76 C135.287,119.95 134.865,119.1 134.49,118.24 C134.685,118.69 134.403,118 134.391,117.97 C134.308,117.76 134.232,117.54 134.157,117.32 C133.977,116.81 133.824,116.29 133.68,115.76 C133.555,115.3 133.45,114.84 133.351,114.37 C133.302,114.13 133.259,113.89 133.216,113.66 C133.201,113.57 133.067,112.68 133.118,113.07 C132.976,111.98 132.92,110.89 132.915,109.79 C132.901,106.73 128.15,106.72 128.165,109.79" id="Fill-720" fill="#4C5159"></path>
            <path d="M145.846,128.66 C149.21,129.95 150.659,133.71 149.502,137 C148.307,140.4 144.377,141.79 141.159,140.66 C140.344,140.37 139.427,140.98 139.211,141.76 C138.97,142.64 139.503,143.42 140.317,143.71 C145.353,145.48 150.687,142.73 152.557,137.84 C153.462,135.48 153.174,132.86 152.19,130.59 C151.167,128.21 149.052,126.51 146.688,125.6 C145.881,125.3 144.953,125.94 144.741,126.71 C144.494,127.6 145.041,128.35 145.846,128.66" id="Fill-721" fill="#E0C267"></path>
            <path d="M150.628,110.46 C150.628,110.46 151.449,113.35 149.825,114.78 C144.705,119.3 144.867,125.9 144.867,125.9 L144.867,114.14 L146.529,112.28 L150.628,110.46" id="Fill-722" fill="#875D5B"></path>
            <path d="M143.642,120.04 C143.512,118.56 143.712,117.55 144.173,116.14 C145.058,113.45 147.332,111.63 150.142,110.93 C151.627,110.57 150.997,108.28 149.509,108.64 C146.006,109.51 143.319,111.77 142.018,115.14 C141.438,116.64 141.125,118.43 141.267,120.04 C141.399,121.55 143.776,121.57 143.642,120.04" id="Fill-723" fill="#4C5159"></path>
            <path d="M96.514,249.43 C137.394,249.43 151.224,241 151.224,241 C151.224,241 151.566,217.82 144.382,212.03 C144.382,212.03 117.528,194.82 106.067,191.83 L83.821,191.83 C72.361,194.82 45.506,212.03 45.506,212.03 C38.323,217.82 38.664,241 38.664,241 C38.664,241 57.138,249.43 98.018,249.43 L96.514,249.43" id="Fill-724" fill="#78B8C3"></path>
            <path d="M96.514,251.8 C111.021,251.79 125.823,250.96 139.959,247.47 C143.085,246.7 146.192,245.78 149.172,244.56 C150.382,244.06 152.542,243.45 153.275,242.2 C153.871,241.18 153.6,239.45 153.573,238.34 C153.516,236.06 153.383,233.78 153.178,231.51 C152.651,225.73 151.801,219.65 149.151,214.41 C148.285,212.69 147.059,210.92 145.414,209.87 C144.408,209.23 143.398,208.6 142.385,207.97 C137.871,205.17 133.305,202.45 128.679,199.84 C123.239,196.76 117.71,193.82 111.946,191.4 C110.816,190.92 109.672,190.48 108.51,190.09 C107.64,189.79 106.73,189.46 105.804,189.46 C103.613,189.46 101.422,189.46 99.231,189.46 C96.041,189.46 92.851,189.46 89.66,189.46 C87.73,189.46 85.8,189.46 83.87,189.46 C82.839,189.46 81.692,189.97 80.731,190.31 C79.396,190.78 78.088,191.33 76.785,191.89 C71.139,194.3 65.723,197.27 60.387,200.3 C55.887,202.86 51.445,205.52 47.05,208.25 C46.157,208.81 45.265,209.37 44.378,209.93 C42.564,211.09 41.3,213.17 40.412,215.08 C37.921,220.42 37.131,226.49 36.643,232.31 C36.399,235.19 36.248,238.1 36.29,241 C36.3,241.77 36.72,242.71 37.466,243.05 C42.212,245.21 47.459,246.44 52.528,247.53 C67.428,250.75 82.803,251.79 98.018,251.8 C98.018,250.22 98.018,248.63 98.018,247.05 C97.516,247.05 97.016,247.05 96.514,247.05 C93.45,247.05 93.45,251.8 96.514,251.8 C97.016,251.8 97.516,251.8 98.018,251.8 C101.082,251.8 101.081,247.05 98.018,247.05 C89.087,247.05 80.154,246.65 71.271,245.71 C70.387,245.62 69.503,245.51 68.619,245.41 C68.192,245.36 67.766,245.3 67.338,245.25 C67.128,245.23 66.918,245.2 66.709,245.17 C66.608,245.16 65.722,245.04 66.306,245.12 C64.681,244.9 63.06,244.66 61.441,244.39 C58.682,243.95 55.935,243.42 53.205,242.82 C49.679,242.05 46.175,241.14 42.75,240 C41.889,239.71 41.034,239.41 40.188,239.08 C39.89,238.96 39.005,238.58 40.086,239.04 C40.011,239.01 39.937,238.98 39.864,238.95 C40.255,239.63 40.647,240.31 41.04,241 C40.994,237.73 41.186,234.44 41.492,231.19 C41.556,230.52 41.628,229.86 41.706,229.2 C41.745,228.85 41.789,228.51 41.833,228.17 C41.745,228.84 41.823,228.24 41.841,228.12 C41.873,227.89 41.906,227.66 41.94,227.43 C42.155,225.99 42.419,224.56 42.739,223.14 C43.048,221.77 43.422,220.42 43.88,219.09 C43.984,218.79 44.097,218.49 44.211,218.19 C44.268,218.04 44.327,217.9 44.386,217.75 C44.129,218.38 44.333,217.88 44.389,217.75 C44.646,217.17 44.936,216.6 45.254,216.04 C45.394,215.8 45.542,215.56 45.696,215.33 C45.8,215.17 46.368,214.42 45.875,215.05 C46.211,214.62 46.59,214.22 47,213.86 C47.356,213.55 46.434,214.25 46.81,214.01 C46.937,213.93 47.063,213.85 47.19,213.77 C48.42,212.99 49.656,212.22 50.896,211.46 C55.627,208.54 60.414,205.71 65.272,203.01 C68.038,201.47 70.832,199.97 73.666,198.56 C74.987,197.9 76.32,197.27 77.665,196.66 C78.267,196.38 78.872,196.12 79.479,195.86 C78.819,196.14 79.768,195.74 79.931,195.68 C80.257,195.55 80.585,195.42 80.915,195.29 C81.963,194.89 83.025,194.52 84.108,194.22 C84.726,194.04 83.36,194.21 84.111,194.21 C84.48,194.21 84.849,194.21 85.216,194.21 C87.616,194.21 90.015,194.21 92.414,194.21 C95.655,194.21 98.898,194.21 102.14,194.21 C103.216,194.21 104.293,194.21 105.371,194.21 C105.593,194.21 105.814,194.21 106.038,194.21 C105.543,194.21 105.425,194.12 105.898,194.25 C106.182,194.33 106.463,194.41 106.743,194.5 C107.881,194.86 108.998,195.29 110.103,195.74 C110.248,195.8 110.393,195.86 110.537,195.92 C111.053,196.13 110.039,195.7 110.558,195.92 C110.859,196.05 111.159,196.18 111.458,196.32 C112.134,196.61 112.807,196.92 113.476,197.23 C123.287,201.82 132.651,207.45 141.814,213.21 C142.197,213.45 142.582,213.7 142.965,213.94 C143.034,213.98 143.102,214.03 143.169,214.07 C142.911,213.9 142.636,213.64 142.98,213.94 C143.199,214.13 143.402,214.34 143.598,214.56 C143.727,214.7 144.286,215.41 143.804,214.78 C143.969,215 144.12,215.22 144.269,215.45 C144.609,215.97 144.906,216.51 145.182,217.07 C145.316,217.34 145.441,217.62 145.562,217.89 C145.782,218.39 145.354,217.39 145.562,217.9 C145.622,218.04 145.678,218.19 145.735,218.34 C145.988,219 146.209,219.67 146.415,220.34 C146.832,221.71 147.159,223.1 147.44,224.5 C147.577,225.19 147.699,225.88 147.813,226.57 C147.87,226.91 147.922,227.26 147.974,227.6 C148,227.78 148.024,227.95 148.049,228.12 C148.063,228.23 148.08,228.35 148.096,228.46 C148.049,228.12 148.043,228.08 148.079,228.34 C148.413,230.92 148.619,233.51 148.741,236.1 C148.818,237.73 148.873,239.37 148.849,241 C149.241,240.31 149.633,239.63 150.026,238.95 C149.803,239.08 149.569,239.2 149.337,239.31 C149.044,239.46 148.746,239.6 148.448,239.74 C148.26,239.82 148.071,239.91 147.883,239.99 C147.364,240.21 148.262,239.83 148.078,239.91 C147.944,239.96 147.809,240.02 147.675,240.07 C144.601,241.32 141.394,242.24 138.174,243.02 C135.769,243.6 133.341,244.09 130.901,244.51 C129.452,244.77 127.999,244.99 126.542,245.2 C126.348,245.23 126.156,245.26 125.963,245.28 C125.87,245.3 125.211,245.38 125.809,245.3 C125.406,245.36 125.004,245.41 124.602,245.46 C123.695,245.58 122.787,245.68 121.879,245.78 C113.461,246.71 104.981,247.05 96.514,247.05 C93.45,247.05 93.45,251.8 96.514,251.8" id="Fill-725" fill="#4C5159"></path>
            <path d="M83.771,185.05 L83.771,198.43 C83.771,204.6 88.773,209.6 94.945,209.6 C101.115,209.6 106.118,204.6 106.118,198.43 L106.118,185.05 L83.771,185.05" id="Fill-726" fill="#9B716C"></path>
            <path d="M81.396,185.05 C81.396,188.99 81.396,192.93 81.396,196.87 C81.396,199.35 81.602,201.71 82.619,204.02 C84.195,207.61 87.392,210.27 91.104,211.42 C94.906,212.6 99.273,211.88 102.541,209.64 C105.974,207.28 107.998,203.63 108.439,199.53 C108.615,197.9 108.493,196.21 108.493,194.58 C108.493,192.11 108.493,189.64 108.493,187.17 C108.493,186.46 108.493,185.75 108.493,185.05 C108.493,183.75 107.412,182.67 106.118,182.67 C98.738,182.67 91.358,182.67 83.979,182.67 C83.909,182.67 83.84,182.67 83.771,182.67 C80.708,182.67 80.708,187.42 83.771,187.42 C91.151,187.42 98.531,187.42 105.911,187.42 C105.98,187.42 106.049,187.42 106.118,187.42 C105.326,186.63 104.535,185.84 103.743,185.05 C103.743,188.99 103.743,192.93 103.743,196.87 C103.743,197.38 103.743,197.9 103.743,198.42 C103.743,198.71 103.729,199.01 103.708,199.31 C103.703,199.37 103.611,200.09 103.691,199.54 C103.66,199.76 103.616,199.97 103.572,200.18 C103.486,200.59 103.364,201 103.231,201.41 C103.165,201.61 103.088,201.8 103.009,202 C103.203,201.51 102.853,202.3 102.81,202.38 C102.621,202.75 102.401,203.11 102.173,203.45 C102.059,203.63 101.936,203.79 101.812,203.96 C102.125,203.54 101.702,204.07 101.661,204.12 C101.39,204.43 101.095,204.72 100.792,205 C100.641,205.14 100.481,205.28 100.323,205.41 C100.72,205.08 100.051,205.6 99.971,205.65 C99.628,205.89 99.266,206.09 98.899,206.29 C98.715,206.39 98.525,206.48 98.335,206.57 C98.816,206.34 98.186,206.62 98.124,206.64 C97.726,206.79 97.317,206.9 96.905,207.01 C96.696,207.06 96.486,207.1 96.275,207.14 C95.995,207.18 95.99,207.18 96.263,207.15 C96.119,207.16 95.974,207.18 95.829,207.19 C95.387,207.23 94.943,207.23 94.501,207.22 C94.282,207.21 94.062,207.19 93.843,207.17 C93.128,207.11 94.317,207.25 93.615,207.14 C93.193,207.07 92.779,206.96 92.367,206.84 C92.164,206.78 91.965,206.71 91.766,206.64 C91.634,206.59 91.503,206.54 91.373,206.49 C91.618,206.59 91.614,206.59 91.365,206.48 C90.986,206.3 90.623,206.09 90.267,205.88 C90.089,205.77 89.918,205.65 89.747,205.54 C89.694,205.5 89.158,205.08 89.567,205.41 C89.244,205.15 88.943,204.87 88.65,204.57 C88.505,204.43 88.366,204.27 88.229,204.12 C88.138,204.02 88.049,203.91 87.961,203.8 C88.119,204.01 88.116,204.01 87.953,203.79 C87.706,203.46 87.487,203.11 87.279,202.75 C87.174,202.57 87.079,202.38 86.984,202.19 C86.955,202.14 86.675,201.51 86.879,202 C86.717,201.61 86.587,201.21 86.471,200.8 C86.411,200.59 86.363,200.38 86.316,200.18 C86.295,200.08 86.155,199.2 86.225,199.75 C86.134,199.04 86.147,198.33 86.147,197.62 C86.147,193.48 86.147,189.34 86.147,185.2 C86.147,185.15 86.147,185.1 86.147,185.05 C86.147,181.98 81.396,181.98 81.396,185.05" id="Fill-727" fill="#4C5159"></path>
            <path d="M58.044,109.79 C58.044,120.05 52.199,128.36 44.987,128.36 C37.777,128.36 31.931,120.05 31.931,109.79 C31.931,99.53 37.777,91.22 44.987,91.22 C52.199,91.22 58.044,99.53 58.044,109.79" id="Fill-728" fill="#9B716C"></path>
            <path d="M55.669,109.79 C55.651,113.57 54.837,117.21 53.019,120.39 C52.809,120.76 52.581,121.11 52.346,121.46 C52.231,121.64 52.11,121.8 51.989,121.97 C51.591,122.52 52.284,121.61 51.862,122.14 C51.329,122.8 50.732,123.42 50.092,123.98 C49.949,124.11 49.801,124.22 49.653,124.34 C50.101,123.98 49.606,124.37 49.53,124.42 C49.229,124.63 48.914,124.83 48.593,125.01 C48.278,125.19 47.952,125.35 47.62,125.5 C48.18,125.25 47.623,125.48 47.519,125.52 C47.295,125.6 47.067,125.67 46.838,125.73 C46.494,125.83 46.143,125.9 45.792,125.96 C46.433,125.85 45.834,125.94 45.71,125.96 C45.53,125.97 45.35,125.98 45.169,125.98 C44.807,125.99 44.446,125.97 44.086,125.94 C43.474,125.89 44.614,126.03 44.008,125.93 C43.774,125.89 43.542,125.84 43.311,125.78 C42.963,125.7 42.623,125.58 42.288,125.46 C41.713,125.25 42.751,125.67 42.191,125.42 C42.025,125.35 41.863,125.27 41.702,125.18 C41.375,125.02 41.062,124.83 40.752,124.63 C40.596,124.53 40.444,124.42 40.292,124.31 C40.081,124.15 40.09,124.17 40.323,124.34 C40.223,124.26 40.125,124.18 40.029,124.1 C39.427,123.6 38.881,123.04 38.371,122.45 C38.238,122.3 38.112,122.14 37.987,121.98 C38.321,122.4 37.904,121.86 37.866,121.8 C37.58,121.41 37.318,120.99 37.065,120.57 C36.615,119.83 36.229,119.04 35.88,118.24 C36.076,118.69 35.793,118 35.783,117.97 C35.7,117.76 35.624,117.54 35.549,117.32 C35.369,116.81 35.216,116.29 35.072,115.76 C34.818,114.83 34.634,113.88 34.491,112.93 C34.561,113.39 34.453,112.58 34.453,112.58 C34.425,112.33 34.405,112.08 34.385,111.83 C34.335,111.24 34.316,110.64 34.308,110.05 C34.293,109.03 34.351,108.01 34.453,107 C34.453,107 34.556,106.19 34.491,106.65 C34.525,106.41 34.566,106.16 34.607,105.92 C34.702,105.37 34.822,104.82 34.954,104.27 C35.173,103.37 35.457,102.48 35.783,101.61 C35.793,101.58 36.072,100.89 35.88,101.34 C35.967,101.13 36.061,100.93 36.153,100.73 C36.366,100.27 36.603,99.82 36.851,99.37 C37.057,99 37.282,98.64 37.513,98.29 C37.627,98.11 37.747,97.94 37.866,97.77 C37.903,97.72 38.316,97.18 37.987,97.6 C38.512,96.92 39.105,96.3 39.74,95.73 C39.881,95.6 40.028,95.48 40.175,95.35 C40.665,94.95 39.783,95.64 40.292,95.27 C40.591,95.05 40.905,94.85 41.222,94.66 C41.536,94.47 41.861,94.31 42.191,94.16 C42.747,93.9 41.718,94.34 42.288,94.12 C42.511,94.04 42.738,93.96 42.966,93.89 C43.309,93.79 43.658,93.71 44.008,93.65 C44.612,93.54 43.475,93.7 44.086,93.64 C44.266,93.62 44.446,93.61 44.625,93.6 C44.987,93.59 45.35,93.6 45.71,93.62 C45.832,93.63 46.439,93.72 45.792,93.62 C46.026,93.66 46.259,93.71 46.491,93.76 C46.84,93.84 47.182,93.94 47.519,94.06 C47.622,94.09 48.186,94.32 47.62,94.08 C47.786,94.15 47.949,94.23 48.111,94.31 C48.44,94.47 48.756,94.66 49.067,94.85 C49.225,94.95 49.378,95.05 49.53,95.16 C49.633,95.23 49.734,95.3 49.835,95.38 C49.604,95.2 49.593,95.19 49.801,95.35 C50.407,95.84 50.959,96.4 51.474,96.98 C51.608,97.13 51.735,97.29 51.862,97.44 C52.29,97.96 51.585,97.06 51.989,97.61 C52.279,98 52.544,98.41 52.801,98.82 C53.298,99.63 53.718,100.47 54.096,101.34 C53.898,100.89 54.181,101.58 54.193,101.61 C54.275,101.82 54.351,102.04 54.427,102.25 C54.606,102.77 54.76,103.29 54.904,103.81 C55.029,104.28 55.134,104.74 55.231,105.21 C55.282,105.45 55.325,105.68 55.368,105.92 C55.383,106.01 55.517,106.9 55.465,106.51 C55.607,107.59 55.664,108.69 55.669,109.79 C55.684,112.85 60.434,112.85 60.419,109.79 C60.384,102.37 57.399,93.43 50.182,90.05 C46.799,88.47 43.181,88.54 39.793,90.05 C36.562,91.5 34.059,94.48 32.439,97.55 C28.51,104.99 28.611,114.58 32.439,122.03 C34.037,125.14 36.588,128.03 39.793,129.52 C43.178,131.1 46.795,131.04 50.182,129.52 C53.414,128.08 55.917,125.1 57.537,122.03 C59.515,118.28 60.399,114.01 60.419,109.79 C60.434,106.72 55.684,106.73 55.669,109.79" id="Fill-729" fill="#4C5159"></path>
            <path d="M42.472,126 C37.847,128.59 36.229,134.38 38.671,139.04 C41.13,143.73 47.144,145.23 51.706,142.84 C53.515,141.89 51.915,139.16 50.107,140.1 C46.956,141.76 43.139,140.54 41.404,137.44 C39.669,134.33 41.03,130.44 44.071,128.74 C45.854,127.74 44.257,125 42.472,126" id="Fill-730" fill="#E0C267"></path>
            <path d="M46.22,62.59 L46.22,137.95 C46.22,164.86 68.035,186.68 94.944,186.68 C121.855,186.68 143.669,164.86 143.669,137.95 L143.669,62.59 L46.22,62.59" id="Fill-731" fill="#9B716C"></path>
            <path d="M43.846,62.59 C43.846,67.4 43.846,72.21 43.846,77.02 C43.846,87.03 43.846,97.04 43.846,107.05 C43.846,115.63 43.846,124.22 43.846,132.8 C43.846,134.49 43.846,136.18 43.846,137.87 C43.846,144.23 45.007,150.6 47.34,156.53 C52.695,170.13 63.681,180.82 77.355,185.94 C91.27,191.14 107.235,189.7 120.133,182.42 C132.677,175.35 141.853,162.87 144.887,148.8 C146.285,142.32 146.044,135.74 146.044,129.16 C146.044,119.8 146.044,110.43 146.044,101.06 C146.044,91.53 146.044,82 146.044,72.47 C146.044,69.18 146.044,65.88 146.044,62.59 C146.044,61.3 144.964,60.22 143.669,60.22 C139.762,60.22 135.855,60.22 131.949,60.22 C122.863,60.22 113.779,60.22 104.693,60.22 C94.384,60.22 84.074,60.22 73.763,60.22 C66.18,60.22 58.598,60.22 51.015,60.22 C49.417,60.22 47.818,60.22 46.22,60.22 C43.157,60.22 43.157,64.97 46.22,64.97 C50.127,64.97 54.034,64.97 57.94,64.97 C67.026,64.97 76.11,64.97 85.195,64.97 C95.506,64.97 105.816,64.97 116.126,64.97 C123.709,64.97 131.292,64.97 138.875,64.97 C140.473,64.97 142.071,64.97 143.669,64.97 C142.877,64.17 142.085,63.38 141.293,62.59 C141.293,67.4 141.293,72.21 141.293,77.02 C141.293,87.03 141.293,97.04 141.293,107.05 C141.293,115.63 141.293,124.22 141.293,132.8 C141.293,134.49 141.293,136.18 141.293,137.87 C141.293,138.71 141.272,139.55 141.233,140.4 C141.192,141.28 141.12,142.16 141.033,143.03 C140.988,143.46 140.935,143.9 140.879,144.33 C140.95,143.79 140.853,144.5 140.845,144.56 C140.802,144.85 140.756,145.13 140.709,145.42 C140.129,148.92 139.143,152.36 137.811,155.66 C137.79,155.71 137.519,156.36 137.728,155.87 C137.645,156.06 137.56,156.25 137.476,156.44 C137.307,156.83 137.13,157.21 136.951,157.59 C136.565,158.41 136.15,159.22 135.718,160.01 C134.891,161.54 133.973,163.02 132.989,164.45 C132.753,164.79 132.511,165.13 132.266,165.46 C132.144,165.63 132.02,165.8 131.895,165.96 C131.86,166.01 131.441,166.56 131.762,166.14 C131.212,166.85 130.639,167.55 130.05,168.23 C128.919,169.53 127.712,170.77 126.45,171.95 C125.845,172.52 125.221,173.06 124.586,173.6 C124.27,173.87 123.947,174.13 123.624,174.39 C123.461,174.52 123.298,174.64 123.135,174.77 C123.545,174.45 122.86,174.98 122.789,175.03 C121.4,176.07 119.948,177.02 118.457,177.9 C116.958,178.79 115.405,179.59 113.819,180.31 C113.628,180.4 113.435,180.48 113.243,180.57 C113.188,180.59 112.545,180.87 113.036,180.66 C112.648,180.82 112.255,180.98 111.863,181.13 C111.008,181.46 110.143,181.76 109.27,182.05 C107.577,182.6 105.851,183.04 104.106,183.4 C103.259,183.58 102.407,183.72 101.552,183.85 C101.491,183.86 100.776,183.96 101.323,183.89 C101.106,183.92 100.89,183.94 100.673,183.97 C100.166,184.03 99.657,184.08 99.148,184.12 C97.307,184.29 95.456,184.33 93.607,184.29 C92.723,184.26 91.841,184.21 90.959,184.14 C90.522,184.11 90.086,184.06 89.65,184.02 C89.433,184 89.216,183.97 88.999,183.94 C88.855,183.93 88.711,183.91 88.567,183.89 C88.839,183.93 88.834,183.92 88.552,183.88 C85.022,183.38 81.556,182.47 78.224,181.21 C77.829,181.06 77.438,180.9 77.048,180.74 C76.4,180.48 77.48,180.93 76.84,180.65 C76.647,180.57 76.454,180.48 76.263,180.4 C75.432,180.03 74.615,179.63 73.808,179.22 C72.262,178.42 70.764,177.54 69.312,176.58 C68.617,176.12 67.938,175.64 67.268,175.15 C67.099,175.03 66.934,174.9 66.768,174.78 C66.218,174.36 67.135,175.07 66.591,174.64 C66.209,174.35 65.834,174.04 65.461,173.73 C64.132,172.63 62.868,171.45 61.662,170.21 C60.456,168.97 59.323,167.67 58.255,166.31 C57.828,165.77 58.536,166.68 58.119,166.13 C57.993,165.96 57.87,165.8 57.747,165.63 C57.499,165.3 57.258,164.96 57.02,164.62 C56.502,163.88 56.009,163.13 55.533,162.36 C54.614,160.88 53.783,159.35 53.028,157.78 C52.846,157.4 52.671,157.02 52.499,156.64 C52.412,156.44 52.328,156.25 52.245,156.06 C51.967,155.42 52.425,156.5 52.157,155.85 C51.808,155.01 51.487,154.15 51.186,153.28 C50.601,151.61 50.119,149.9 49.722,148.17 C49.529,147.33 49.364,146.48 49.217,145.63 C49.143,145.2 49.076,144.78 49.014,144.35 C48.909,143.63 49.074,144.83 48.981,144.12 C48.945,143.83 48.912,143.54 48.881,143.25 C48.598,140.69 48.596,138.14 48.596,135.57 C48.596,132.54 48.596,129.51 48.596,126.47 C48.596,116.74 48.596,107 48.596,97.27 C48.596,88.16 48.596,79.05 48.596,69.95 C48.596,67.5 48.596,65.04 48.596,62.59 C48.596,59.53 43.846,59.53 43.846,62.59" id="Fill-732" fill="#4C5159"></path>
            <path d="M37.957,110.46 C37.957,110.46 37.135,113.35 38.759,114.78 C43.879,119.3 43.717,125.9 43.717,125.9 L43.717,114.14 L42.054,112.28 L37.957,110.46" id="Fill-733" fill="#875D5B"></path>
            <path d="M47.318,120.04 C47.459,118.41 47.129,116.65 46.566,115.14 C45.315,111.76 42.542,109.5 39.074,108.64 C37.588,108.28 36.957,110.57 38.443,110.93 C41.28,111.64 43.488,113.45 44.41,116.14 C44.887,117.53 45.071,118.57 44.942,120.04 C44.808,121.57 47.185,121.55 47.318,120.04" id="Fill-734" fill="#4C5159"></path>
            <path d="M58.947,95.24 C59.14,95.13 59.337,95.03 59.536,94.93 C59.782,94.81 60.031,94.69 60.281,94.57 C60.438,94.5 60.597,94.43 60.756,94.36 C60.923,94.28 61.596,94 60.842,94.31 C62.807,93.49 64.851,92.86 66.934,92.41 C67.517,92.28 68.105,92.17 68.693,92.08 C68.829,92.06 68.963,92.04 69.099,92.03 C68.519,92.11 69.209,92.02 69.288,92.01 C69.638,91.97 69.987,91.94 70.337,91.92 C71.798,91.81 73.266,91.84 74.721,91.99 C75.005,92.03 75.02,92.03 74.763,91.99 C74.989,92.02 75.214,92.06 75.439,92.1 C75.819,92.17 76.197,92.25 76.572,92.33 C77.34,92.51 78.095,92.74 78.837,93.01 C78.988,93.06 79.138,93.12 79.288,93.18 C80.025,93.46 78.894,92.99 79.621,93.32 C80,93.49 80.371,93.68 80.737,93.87 C81.502,94.27 82.229,94.74 82.934,95.24 C83.991,95.99 85.572,95.43 86.183,94.39 C86.88,93.19 86.384,91.88 85.331,91.13 C79.745,87.17 72.833,86.46 66.246,87.71 C62.93,88.34 59.503,89.47 56.55,91.13 C55.423,91.77 55.052,93.28 55.698,94.39 C56.359,95.51 57.819,95.87 58.947,95.24" id="Fill-735" fill="#4C5159"></path>
            <path d="M128.754,91.13 C125.849,89.5 122.505,88.41 119.251,87.75 C112.635,86.4 105.588,87.15 99.975,91.13 C98.92,91.88 98.424,93.19 99.122,94.39 C99.733,95.43 101.314,95.99 102.373,95.24 C103.008,94.79 103.665,94.37 104.345,93.99 C104.708,93.79 105.083,93.6 105.46,93.42 C105.609,93.35 105.758,93.28 105.909,93.22 C105.518,93.39 106.248,93.09 106.242,93.09 C106.98,92.81 107.74,92.58 108.506,92.39 C108.88,92.29 109.26,92.21 109.639,92.14 C109.79,92.11 109.94,92.09 110.091,92.06 C110.135,92.06 110.881,91.95 110.36,92.02 C111.745,91.84 113.147,91.82 114.541,91.89 C114.895,91.91 115.247,91.93 115.599,91.97 C115.739,91.98 115.878,91.99 116.016,92.01 C116.095,92.02 116.787,92.1 116.207,92.03 C116.868,92.11 117.527,92.23 118.181,92.37 C120.291,92.79 122.356,93.45 124.346,94.27 C124.576,94.36 124.502,94.33 124.123,94.17 C124.231,94.22 124.34,94.26 124.447,94.31 C124.609,94.38 124.771,94.46 124.934,94.53 C125.194,94.65 125.451,94.77 125.708,94.9 C125.926,95.01 126.145,95.12 126.357,95.24 C127.486,95.87 128.945,95.51 129.607,94.39 C130.253,93.28 129.882,91.77 128.754,91.13" id="Fill-736" fill="#4C5159"></path>
            <path d="M75.841,109.64 C75.841,114.08 73.647,117.68 70.94,117.68 C68.233,117.68 66.041,114.08 66.041,109.64 C66.041,105.21 68.233,101.61 70.94,101.61 C73.647,101.61 75.841,105.21 75.841,109.64" id="Fill-737" fill="#4C5159"></path>
            <path d="M119.265,109.64 C119.265,114.08 117.071,117.68 114.364,117.68 C111.659,117.68 109.465,114.08 109.465,109.64 C109.465,105.21 111.659,101.61 114.364,101.61 C117.071,101.61 119.265,105.21 119.265,109.64" id="Fill-738" fill="#4C5159"></path>
            <path d="M87.344,133.9 C88.332,136.38 91.04,137.76 93.557,138.12 C95.797,138.43 98.003,138.13 99.854,136.76 C100.774,136.08 101.65,135.2 102.199,134.18 C102.927,132.83 100.875,131.63 100.148,132.98 C99.779,133.66 99.445,134.01 98.795,134.59 C97.471,135.76 95.81,135.97 94.106,135.81 C92.745,135.68 91.349,135.11 90.416,134.23 C90.255,134.08 90.107,133.91 89.966,133.75 C89.756,133.5 90.101,133.93 89.925,133.69 C89.865,133.61 89.809,133.52 89.753,133.43 C89.661,133.29 89.405,132.69 89.635,133.27 C89.396,132.66 88.849,132.25 88.173,132.44 C87.601,132.59 87.104,133.29 87.344,133.9" id="Fill-739" fill="#4C5159"></path>
            <path d="M76.429,230.88 C77.13,230.86 77.838,230.91 78.536,230.97 C78.872,231 79.207,231.03 79.541,231.07 C79.647,231.09 79.983,231.13 79.485,231.07 C79.581,231.08 79.675,231.09 79.771,231.11 C80,231.14 80.23,231.18 80.46,231.22 C81.373,231.38 82.275,231.6 83.164,231.86 C83.628,232 84.087,232.15 84.54,232.32 C84.773,232.41 85.004,232.5 85.235,232.59 C84.869,232.44 85.262,232.61 85.319,232.63 C85.475,232.7 85.628,232.77 85.782,232.85 C86.248,233.07 86.703,233.32 87.148,233.58 C87.374,233.72 87.594,233.86 87.814,234.01 C87.924,234.08 88.033,234.16 88.141,234.23 C88.192,234.27 88.645,234.61 88.355,234.38 C88.785,234.71 89.189,235.08 89.576,235.46 C89.773,235.65 89.962,235.85 90.146,236.06 C90.24,236.16 90.33,236.27 90.42,236.38 C90.48,236.45 90.54,236.53 90.599,236.6 C90.495,236.46 90.5,236.47 90.609,236.62 C90.959,237.09 91.27,237.58 91.55,238.09 C91.938,238.8 92.022,239.01 92.267,239.7 C92.972,241.7 93.126,243.51 93.056,245.63 C92.989,247.67 96.156,247.66 96.223,245.63 C96.325,242.51 95.804,239.41 94.357,236.63 C93.195,234.4 91.381,232.58 89.302,231.2 C86.057,229.04 82.08,228.07 78.235,227.78 C77.636,227.73 77.03,227.7 76.429,227.72 C74.391,227.78 74.386,230.95 76.429,230.88" id="Fill-740" fill="#3CAAB1"></path>
            <path d="M115.057,227.72 C112.605,227.64 110.053,228.07 107.706,228.74 C103.155,230.03 98.942,232.8 96.858,237.17 C95.602,239.8 95.167,242.73 95.262,245.63 C95.329,247.66 98.496,247.67 98.429,245.63 C98.335,242.75 98.796,240.04 100.155,237.71 C100.789,236.62 101.227,236.09 102.204,235.17 C102.401,234.99 102.607,234.81 102.815,234.64 C102.918,234.55 103.024,234.47 103.129,234.38 C102.845,234.61 103.198,234.34 103.236,234.31 C103.696,233.97 104.181,233.67 104.675,233.39 C105.122,233.13 105.583,232.9 106.051,232.69 C106.165,232.63 106.281,232.58 106.397,232.53 C106.036,232.69 106.424,232.52 106.481,232.5 C106.75,232.39 107.02,232.29 107.292,232.19 C108.204,231.87 109.143,231.61 110.089,231.41 C110.498,231.32 110.911,231.24 111.325,231.17 C111.518,231.14 111.712,231.11 111.906,231.08 C112.25,231.03 111.515,231.13 111.854,231.09 C111.973,231.07 112.09,231.06 112.209,231.04 C112.814,230.97 113.422,230.92 114.031,230.9 C114.372,230.88 114.715,230.87 115.057,230.88 C117.1,230.95 117.094,227.78 115.057,227.72" id="Fill-741" fill="#3CAAB1"></path>
            <path d="M77.438,156.3 C80.47,158.44 84.128,159.93 87.667,160.95 C95.138,163.11 103.106,162.59 110.019,158.93 C111.437,158.17 112.774,157.28 114.048,156.3 C114.731,155.78 115.092,154.95 114.616,154.14 C114.22,153.46 113.137,153.04 112.449,153.57 C108.992,156.21 105.106,158.04 100.81,158.79 C97.41,159.38 93.88,159.14 90.548,158.41 C87.763,157.81 85.167,156.86 82.82,155.72 C81.552,155.11 80.301,154.43 79.133,153.63 C79.101,153.61 79.068,153.59 79.036,153.57 C78.33,153.07 77.277,153.44 76.87,154.14 C76.404,154.93 76.734,155.81 77.438,156.3" id="Fill-742" fill="#4C5159"></path>
            <path d="M86.19,188.22 C86.19,188.22 94.944,189.71 103.7,188.22 L103.7,192.54 C103.7,192.54 100.796,193.91 95.263,193.91 C89.872,193.91 86.19,192.54 86.19,192.54 L86.19,188.22" id="Fill-743" fill="#875D5B"></path>
            <path d="M137.145,65.88 L137.145,139.99 C137.145,139.99 134.559,177.57 93.585,184.33 C93.585,184.33 106.072,184.71 118.202,178 C129.109,171.98 140.71,158.41 141.225,139.99 L141.225,68.41 L137.145,65.88" id="Fill-744" fill="#875D5B"></path>
            <path d="M140.18,67.2 C139.432,65.31 137.625,63.97 135.51,63.97 C134.119,63.97 132.86,64.55 131.949,65.49 C131.118,63.8 129.416,62.64 127.45,62.64 C127.193,62.64 126.942,62.66 126.696,62.7 C125.92,60.87 124.144,59.59 122.076,59.59 C119.522,59.59 117.413,61.54 117.083,64.07 C116.767,64.01 116.439,63.97 116.105,63.97 C115.164,63.97 114.285,64.24 113.531,64.7 C112.611,63.45 111.153,62.64 109.51,62.64 C108.328,62.64 107.24,63.06 106.381,63.76 C105.706,63.42 104.943,63.22 104.136,63.22 C102.274,63.22 100.648,64.26 99.776,65.8 C98.904,64.26 97.279,63.22 95.417,63.22 C93.677,63.22 92.142,64.12 91.237,65.5 C90.332,64.12 88.797,63.22 87.057,63.22 C85.177,63.22 83.538,64.28 82.671,65.84 C82.099,63.63 80.136,62.01 77.802,62.01 C75.158,62.01 72.99,64.1 72.781,66.76 C72.032,66.3 71.16,66.04 70.228,66.04 C69.829,66.04 69.439,66.09 69.067,66.18 C68.615,63.8 66.574,62.01 64.121,62.01 C62.843,62.01 61.677,62.5 60.788,63.3 C59.899,62.5 58.733,62.01 57.454,62.01 C55.184,62.01 53.266,63.55 52.635,65.66 C51.826,65.1 50.848,64.76 49.793,64.76 C47.01,64.76 44.753,67.08 44.753,69.93 C44.753,72.79 47.01,75.1 49.793,75.1 C49.793,75.38 49.815,75.65 49.856,75.92 C47.374,76.24 45.454,78.41 45.454,81.05 C45.454,83.9 47.709,86.22 50.492,86.22 C53.275,86.22 55.532,83.9 55.532,81.05 C55.532,80.77 55.509,80.5 55.468,80.23 C57.95,79.91 59.872,77.74 59.872,75.1 C59.872,73.99 59.527,72.96 58.943,72.12 C59.633,71.9 60.259,71.53 60.788,71.05 C61.677,71.86 62.843,72.35 64.121,72.35 C64.522,72.35 64.91,72.3 65.283,72.21 C65.734,74.59 67.776,76.38 70.228,76.38 C72.873,76.38 75.041,74.29 75.249,71.63 C75.998,72.09 76.871,72.35 77.802,72.35 C79.684,72.35 81.323,71.29 82.188,69.72 C82.762,71.93 84.724,73.56 87.057,73.56 C88.797,73.56 90.332,72.65 91.237,71.28 C92.142,72.65 93.677,73.56 95.417,73.56 C97.279,73.56 98.904,72.52 99.776,70.98 C100.648,72.52 102.274,73.56 104.136,73.56 C105.318,73.56 106.405,73.14 107.264,72.44 C107.941,72.79 108.703,72.98 109.51,72.98 C110.45,72.98 111.331,72.72 112.083,72.26 C113.004,73.51 114.462,74.31 116.105,74.31 C116.586,74.31 117.052,74.24 117.493,74.11 C117.802,75.53 118.683,76.74 119.875,77.45 C119.866,77.58 119.859,77.72 119.859,77.85 C119.859,80.47 121.75,82.63 124.204,82.97 C124.948,84.87 126.76,86.22 128.878,86.22 C131.662,86.22 133.917,83.9 133.917,81.05 C133.917,79.82 133.501,78.69 132.806,77.81 C133.935,77 134.729,75.74 134.927,74.28 C134.961,74.28 134.996,74.28 135.03,74.29 C135.778,76.18 137.585,77.52 139.7,77.52 C142.483,77.52 144.738,75.2 144.738,72.35 C144.738,69.66 142.738,67.45 140.18,67.2" id="Fill-745" fill="#875D5B"></path>
            <path d="M142.946,63.82 C142.152,61.81 140.233,60.39 137.991,60.39 C136.516,60.39 135.18,61.01 134.213,62 C133.332,60.21 131.526,58.98 129.439,58.98 C129.168,58.98 128.901,59 128.641,59.05 C127.817,57.11 125.933,55.75 123.74,55.75 C121.029,55.75 118.793,57.82 118.442,60.5 C118.106,60.43 117.759,60.39 117.405,60.39 C116.407,60.39 115.474,60.68 114.674,61.16 C113.699,59.84 112.151,58.98 110.409,58.98 C109.153,58.98 108,59.43 107.089,60.17 C106.373,59.8 105.564,59.6 104.708,59.6 C102.731,59.6 101.008,60.7 100.083,62.33 C99.158,60.7 97.434,59.6 95.458,59.6 C93.612,59.6 91.983,60.56 91.023,62.02 C90.063,60.56 88.435,59.6 86.59,59.6 C84.595,59.6 82.856,60.72 81.938,62.38 C81.329,60.04 79.247,58.31 76.771,58.31 C73.965,58.31 71.666,60.53 71.445,63.35 C70.65,62.87 69.725,62.59 68.735,62.59 C68.312,62.59 67.899,62.65 67.504,62.74 C67.025,60.22 64.858,58.31 62.258,58.31 C60.902,58.31 59.664,58.83 58.722,59.68 C57.779,58.83 56.542,58.31 55.184,58.31 C52.776,58.31 50.742,59.94 50.072,62.19 C49.213,61.59 48.176,61.23 47.058,61.23 C44.105,61.23 41.711,63.69 41.711,66.72 C41.711,69.75 41.288,72.34 44.24,72.34 C44.24,72.34 44.944,72.9 44.987,73.18 C42.354,73.52 42.453,75.71 42.453,78.51 C42.453,81.54 44.847,83.99 47.799,83.99 C50.751,83.99 53.144,81.54 53.144,78.51 C53.144,78.21 53.122,77.92 53.078,77.64 C55.712,77.3 57.749,75 57.749,72.2 C57.749,71.02 57.384,69.93 56.765,69.03 C57.496,68.8 58.162,68.41 58.722,67.9 C59.664,68.76 60.902,69.28 62.258,69.28 C62.683,69.28 63.094,69.22 63.49,69.13 C63.969,71.65 66.134,73.56 68.735,73.56 C71.542,73.56 73.841,71.34 74.062,68.52 C74.856,69 75.783,69.28 76.771,69.28 C78.767,69.28 80.506,68.15 81.424,66.49 C82.032,68.84 84.113,70.56 86.59,70.56 C88.435,70.56 90.063,69.6 91.023,68.14 C91.983,69.6 93.612,70.56 95.458,70.56 C97.434,70.56 99.158,69.46 100.083,67.83 C101.008,69.46 102.731,70.56 104.708,70.56 C105.963,70.56 107.114,70.12 108.026,69.38 C108.744,69.74 109.552,69.95 110.409,69.95 C111.407,69.95 112.339,69.67 113.139,69.18 C114.115,70.51 115.663,71.36 117.405,71.36 C117.916,71.36 118.409,71.29 118.877,71.15 C119.206,72.66 120.14,73.93 121.406,74.69 C121.395,74.83 121.387,74.98 121.387,75.12 C121.387,77.89 123.393,80.18 125.996,80.55 C126.786,82.57 128.709,83.99 130.957,83.99 C133.909,83.99 136.302,81.54 136.302,78.51 C136.302,77.21 135.86,76.01 135.122,75.07 C136.321,74.22 137.162,72.88 137.372,71.32 C137.409,71.33 137.444,71.33 137.481,71.34 C138.275,73.34 140.193,74.76 142.436,74.76 C145.388,74.76 147.781,72.31 147.781,69.28 C147.781,66.43 145.658,64.08 142.946,63.82" id="Fill-746" fill="#4C5159"></path>
            <path d="M146.592,75.12 C146.592,78.15 143.638,80.61 139.996,80.61 C136.352,80.61 133.398,78.15 133.398,75.12 C133.398,72.09 136.352,69.64 139.996,69.64 C143.638,69.64 146.592,72.09 146.592,75.12" id="Fill-747" fill="#4C5159"></path>
            <path d="M48.885,84.25 C48.885,87.28 46.542,89.73 43.651,89.73 C40.762,89.73 38.419,87.28 38.419,84.25 C38.419,81.22 40.762,78.76 43.651,78.76 C46.542,78.76 48.885,81.22 48.885,84.25" id="Fill-748" fill="#4C5159"></path>
            <path d="M106.172,7.37 C106.172,10.4 103.778,12.86 100.826,12.86 C97.873,12.86 95.48,10.4 95.48,7.37 C95.48,4.34 97.873,1.89 100.826,1.89 C103.778,1.89 106.172,4.34 106.172,7.37" id="Fill-692" fill="#4C5159"></path>
        </g>
    </g>
</svg>