<?xml version="1.0" encoding="UTF-8"?>
<svg width="131px" height="226px" viewBox="0 0 131 226" version="1.1" xmlns="http://www.w3.org/2000/svg" xmlns:xlink="http://www.w3.org/1999/xlink">
    <!-- Generator: Sketch 48.2 (47327) - http://www.bohemiancoding.com/sketch -->
    <title>male7</title>
    <desc>Created with Sketch.</desc>
    <defs></defs>
    <g id="Page-1" stroke="none" stroke-width="1" fill="none" fill-rule="evenodd">
        <g id="male7">
            <g id="Group-14">
                <path d="M68.425,223.13 C109.304,223.13 123.136,214.7 123.136,214.7 C123.136,214.7 123.478,191.527 116.294,185.732 C116.294,185.732 89.439,168.522 77.979,165.536 L55.731,165.536 C44.272,168.522 17.417,185.732 17.417,185.732 C10.233,191.527 10.575,214.7 10.575,214.7 C10.575,214.7 29.049,223.13 69.929,223.13 L68.425,223.13" id="Fill-367" fill="#79B8C3"></path>
                <path d="M68.425,225.505 C82.932,225.497 97.734,224.662 111.871,221.174 C114.995,220.402 118.104,219.485 121.082,218.26 C122.294,217.762 124.452,217.152 125.186,215.899 C125.782,214.882 125.511,213.157 125.482,212.04 C125.427,209.762 125.296,207.485 125.088,205.215 C124.563,199.431 123.712,193.355 121.062,188.111 C120.195,186.396 118.97,184.622 117.324,183.573 C116.319,182.934 115.309,182.302 114.296,181.673 C109.782,178.872 105.216,176.152 100.591,173.539 C95.15,170.467 89.622,167.521 83.857,165.099 C82.728,164.624 81.582,164.181 80.421,163.79 C79.551,163.496 78.642,163.161 77.716,163.161 C75.524,163.161 73.333,163.161 71.142,163.161 C67.952,163.161 64.762,163.161 61.571,163.161 C59.642,163.161 57.712,163.161 55.781,163.161 C54.751,163.161 53.603,163.674 52.643,164.013 C51.307,164.485 49.999,165.031 48.696,165.589 C43.05,168.005 37.634,170.975 32.298,174.006 C27.798,176.561 23.356,179.221 18.961,181.954 C18.068,182.511 17.176,183.069 16.289,183.636 C14.476,184.793 13.212,186.876 12.323,188.782 C9.832,194.125 9.043,200.196 8.553,206.014 C8.311,208.897 8.159,211.807 8.2,214.7 C8.212,215.473 8.63,216.411 9.377,216.751 C14.122,218.912 19.37,220.143 24.439,221.237 C39.339,224.456 54.714,225.496 69.929,225.505 C69.929,223.922 69.929,222.338 69.929,220.754 C69.428,220.754 68.927,220.754 68.425,220.754 C65.361,220.754 65.361,225.505 68.425,225.505 C68.927,225.505 69.428,225.505 69.929,225.505 C72.992,225.505 72.992,220.756 69.929,220.754 C60.998,220.749 52.065,220.357 43.183,219.414 C42.298,219.319 41.414,219.219 40.53,219.112 C40.104,219.063 39.676,219.008 39.249,218.955 C39.039,218.928 38.829,218.901 38.619,218.875 C38.52,218.861 37.632,218.743 38.217,218.822 C36.592,218.603 34.971,218.36 33.353,218.097 C30.593,217.648 27.845,217.128 25.116,216.529 C21.59,215.755 18.086,214.847 14.661,213.703 C13.8,213.416 12.943,213.11 12.099,212.779 C11.801,212.662 10.916,212.287 11.997,212.746 C11.922,212.714 11.849,212.682 11.775,212.649 C12.166,213.333 12.559,214.016 12.951,214.7 C12.904,211.43 13.097,208.145 13.403,204.891 C13.467,204.226 13.538,203.562 13.616,202.898 C13.656,202.557 13.699,202.217 13.743,201.878 C13.656,202.547 13.734,201.949 13.752,201.824 C13.784,201.594 13.817,201.365 13.852,201.134 C14.066,199.694 14.33,198.263 14.65,196.842 C14.959,195.474 15.333,194.12 15.791,192.794 C15.895,192.492 16.008,192.192 16.122,191.894 C16.178,191.747 16.238,191.602 16.297,191.457 C16.041,192.085 16.244,191.583 16.3,191.457 C16.558,190.871 16.847,190.301 17.165,189.746 C17.305,189.504 17.454,189.268 17.607,189.035 C17.711,188.877 18.279,188.123 17.786,188.756 C18.123,188.324 18.5,187.927 18.911,187.566 C19.267,187.254 18.345,187.956 18.721,187.716 C18.848,187.635 18.974,187.555 19.101,187.474 C20.331,186.694 21.567,185.925 22.807,185.161 C27.538,182.243 32.325,179.412 37.184,176.709 C39.949,175.17 42.743,173.677 45.576,172.266 C46.898,171.607 48.231,170.97 49.576,170.36 C50.178,170.088 50.783,169.823 51.391,169.564 C50.729,169.846 51.68,169.448 51.842,169.381 C52.167,169.249 52.497,169.12 52.825,168.993 C53.874,168.59 54.937,168.223 56.02,167.919 C56.637,167.746 55.271,167.911 56.024,167.911 C56.392,167.911 56.761,167.911 57.128,167.911 C59.527,167.911 61.925,167.911 64.324,167.911 C67.566,167.911 70.81,167.911 74.051,167.911 C75.128,167.911 76.205,167.911 77.282,167.911 C77.505,167.911 77.726,167.911 77.949,167.911 C77.454,167.911 77.335,167.818 77.81,167.951 C78.093,168.03 78.374,168.118 78.654,168.207 C79.793,168.565 80.909,168.991 82.015,169.441 C82.159,169.5 82.304,169.56 82.447,169.619 C82.964,169.833 81.95,169.406 82.47,169.627 C82.771,169.756 83.07,169.886 83.37,170.019 C84.046,170.317 84.718,170.624 85.387,170.937 C95.198,175.524 104.563,181.157 113.725,186.915 C114.109,187.156 114.493,187.4 114.876,187.643 C114.946,187.687 115.014,187.73 115.081,187.774 C114.82,187.607 114.548,187.345 114.892,187.647 C115.11,187.839 115.313,188.048 115.51,188.263 C115.638,188.402 116.197,189.117 115.715,188.484 C115.878,188.7 116.031,188.924 116.181,189.15 C116.521,189.669 116.816,190.216 117.094,190.773 C117.227,191.044 117.351,191.319 117.473,191.597 C117.694,192.098 117.265,191.089 117.473,191.601 C117.534,191.747 117.59,191.895 117.646,192.041 C117.9,192.698 118.12,193.37 118.327,194.044 C118.743,195.411 119.069,196.804 119.351,198.204 C119.488,198.891 119.61,199.581 119.726,200.271 C119.781,200.616 119.834,200.962 119.885,201.307 C119.91,201.48 119.935,201.651 119.959,201.824 C119.976,201.937 119.992,202.052 120.008,202.167 C119.96,201.821 119.954,201.781 119.99,202.049 C120.325,204.622 120.53,207.212 120.653,209.803 C120.729,211.432 120.783,213.068 120.76,214.7 C121.151,214.016 121.544,213.333 121.937,212.649 C121.714,212.784 121.48,212.901 121.249,213.018 C120.954,213.166 120.657,213.305 120.358,213.442 C120.171,213.526 119.982,213.61 119.793,213.692 C119.274,213.914 120.173,213.531 119.989,213.609 C119.854,213.666 119.72,213.72 119.586,213.775 C116.513,215.022 113.304,215.941 110.086,216.719 C107.681,217.303 105.252,217.79 102.813,218.216 C101.363,218.47 99.91,218.697 98.453,218.904 C98.26,218.932 98.067,218.959 97.873,218.985 C97.782,218.999 97.122,219.088 97.719,219.008 C97.316,219.063 96.916,219.114 96.514,219.164 C95.606,219.278 94.699,219.385 93.791,219.485 C85.372,220.414 76.892,220.749 68.425,220.754 C65.361,220.756 65.361,225.506 68.425,225.505" id="Fill-368" fill="#4C5159"></path>
                <path d="M101.653,83.493 C101.653,93.748 107.499,102.062 114.709,102.062 C121.921,102.062 127.766,93.748 127.766,83.493 C127.766,73.238 121.921,64.923 114.709,64.923 C107.499,64.923 101.653,73.238 101.653,83.493" id="Fill-369" fill="#9B716C"></path>
                <path d="M99.277,83.493 C99.313,90.91 102.298,99.857 109.515,103.227 C112.898,104.809 116.517,104.739 119.904,103.227 C123.134,101.785 125.638,98.803 127.258,95.736 C131.187,88.295 131.087,78.699 127.258,71.251 C125.66,68.14 123.11,65.256 119.904,63.758 C116.52,62.177 112.901,62.246 109.515,63.758 C106.283,65.2 103.781,68.184 102.161,71.251 C100.181,75 99.298,79.273 99.277,83.493 C99.263,86.557 104.013,86.556 104.027,83.493 C104.046,79.708 104.86,76.071 106.678,72.892 C106.888,72.525 107.116,72.169 107.352,71.818 C107.467,71.646 107.587,71.478 107.709,71.309 C108.106,70.758 107.414,71.67 107.835,71.144 C108.367,70.478 108.965,69.866 109.604,69.304 C109.748,69.178 109.896,69.058 110.044,68.939 C109.597,69.299 110.091,68.916 110.166,68.862 C110.468,68.649 110.784,68.457 111.103,68.272 C111.418,68.092 111.746,67.935 112.077,67.787 C111.518,68.037 112.075,67.8 112.177,67.763 C112.401,67.682 112.631,67.614 112.86,67.548 C113.202,67.452 113.554,67.384 113.905,67.324 C113.265,67.43 113.862,67.338 113.987,67.327 C114.167,67.312 114.347,67.306 114.527,67.301 C114.89,67.29 115.251,67.311 115.609,67.343 C116.223,67.397 115.083,67.254 115.688,67.354 C115.923,67.393 116.155,67.447 116.386,67.504 C116.733,67.589 117.073,67.702 117.408,67.824 C117.983,68.033 116.946,67.611 117.506,67.861 C117.673,67.935 117.833,68.016 117.996,68.098 C118.322,68.266 118.636,68.457 118.944,68.655 C119.101,68.755 119.253,68.863 119.404,68.97 C119.618,69.128 119.606,69.118 119.374,68.939 C119.474,69.017 119.571,69.098 119.669,69.179 C120.271,69.679 120.815,70.243 121.327,70.834 C121.458,70.986 121.586,71.144 121.712,71.302 C121.377,70.884 121.793,71.424 121.831,71.477 C122.118,71.874 122.38,72.288 122.632,72.707 C123.083,73.457 123.469,74.242 123.816,75.044 C123.62,74.592 123.903,75.282 123.915,75.313 C123.997,75.527 124.072,75.742 124.147,75.958 C124.327,76.471 124.482,76.993 124.624,77.519 C124.879,78.449 125.063,79.398 125.206,80.352 C125.137,79.893 125.243,80.701 125.243,80.704 C125.271,80.954 125.292,81.203 125.313,81.453 C125.361,82.046 125.381,82.641 125.389,83.235 C125.404,84.252 125.347,85.269 125.243,86.281 C125.243,86.286 125.142,87.094 125.206,86.634 C125.172,86.877 125.13,87.119 125.09,87.36 C124.995,87.914 124.875,88.463 124.743,89.009 C124.524,89.914 124.241,90.801 123.915,91.673 C123.903,91.703 123.624,92.395 123.816,91.942 C123.729,92.148 123.638,92.349 123.544,92.552 C123.331,93.014 123.094,93.464 122.846,93.908 C122.64,94.278 122.415,94.639 122.184,94.994 C122.07,95.169 121.95,95.339 121.831,95.508 C121.793,95.562 121.381,96.108 121.712,95.684 C121.185,96.36 120.593,96.982 119.958,97.556 C119.817,97.684 119.669,97.806 119.522,97.928 C119.032,98.334 119.914,97.643 119.404,98.016 C119.105,98.235 118.793,98.432 118.474,98.622 C118.161,98.808 117.835,98.971 117.506,99.126 C116.951,99.385 117.979,98.943 117.408,99.162 C117.187,99.248 116.958,99.318 116.731,99.388 C116.39,99.492 116.04,99.567 115.688,99.632 C115.085,99.743 116.222,99.578 115.609,99.643 C115.432,99.663 115.253,99.671 115.071,99.68 C114.711,99.697 114.349,99.683 113.987,99.66 C113.864,99.651 113.259,99.566 113.905,99.661 C113.671,99.626 113.438,99.577 113.204,99.524 C112.856,99.446 112.516,99.339 112.177,99.223 C112.075,99.188 111.511,98.958 112.077,99.199 C111.909,99.128 111.748,99.048 111.585,98.969 C111.257,98.81 110.941,98.624 110.629,98.431 C110.474,98.333 110.318,98.228 110.166,98.124 C110.063,98.052 109.962,97.98 109.862,97.904 C110.093,98.087 110.104,98.094 109.897,97.928 C109.29,97.44 108.739,96.885 108.222,96.303 C108.09,96.153 107.962,95.997 107.835,95.842 C107.407,95.321 108.112,96.223 107.709,95.676 C107.419,95.284 107.152,94.875 106.896,94.46 C106.398,93.657 105.979,92.808 105.603,91.942 C105.799,92.393 105.516,91.704 105.504,91.673 C105.421,91.46 105.347,91.244 105.271,91.027 C105.09,90.515 104.937,89.993 104.793,89.467 C104.669,89.008 104.563,88.541 104.465,88.074 C104.414,87.837 104.372,87.598 104.329,87.36 C104.313,87.277 104.18,86.383 104.231,86.777 C104.09,85.688 104.034,84.589 104.027,83.493 C104.013,80.43 99.263,80.429 99.277,83.493" id="Fill-370" fill="#4C5159"></path>
                <path d="M121.741,84.159 C121.741,84.159 122.563,87.055 120.938,88.488 C115.818,93 115.98,99.598 115.98,99.598 L115.98,87.84 L117.643,85.98 L121.741,84.159" id="Fill-371" fill="#875D5B"></path>
                <path d="M114.755,93.745 C114.625,92.262 114.826,91.252 115.286,89.847 C116.171,87.153 118.444,85.334 121.254,84.638 C122.741,84.27 122.11,81.979 120.622,82.348 C117.118,83.215 114.432,85.47 113.131,88.839 C112.55,90.342 112.238,92.13 112.38,93.745 C112.512,95.259 114.888,95.272 114.755,93.745" id="Fill-372" fill="#4C5159"></path>
                <path d="M54.886,158.752 L54.886,172.13 C54.886,178.3 59.888,183.303 66.058,183.303 C72.229,183.303 77.231,178.3 77.231,172.13 L77.231,158.752 L54.886,158.752" id="Fill-373" fill="#9B716C"></path>
                <path d="M52.51,158.752 C52.51,162.692 52.51,166.633 52.51,170.573 C52.51,173.056 52.714,175.412 53.731,177.725 C55.309,181.31 58.505,183.975 62.218,185.126 C66.02,186.303 70.386,185.583 73.653,183.343 C77.087,180.987 79.11,177.336 79.554,173.232 C79.728,171.605 79.606,169.911 79.606,168.282 C79.606,165.812 79.606,163.342 79.606,160.872 C79.606,160.164 79.606,159.459 79.606,158.752 C79.606,157.457 78.526,156.376 77.231,156.376 C69.851,156.376 62.472,156.376 55.091,156.376 C55.022,156.376 54.954,156.376 54.886,156.376 C51.821,156.376 51.821,161.127 54.886,161.127 C62.265,161.127 69.646,161.127 77.024,161.127 C77.094,161.127 77.162,161.127 77.231,161.127 C76.439,160.335 75.647,159.544 74.855,158.752 C74.855,162.692 74.855,166.633 74.855,170.573 C74.855,171.088 74.855,171.604 74.855,172.12 C74.855,172.419 74.841,172.716 74.821,173.014 C74.816,173.078 74.725,173.793 74.806,173.246 C74.773,173.46 74.729,173.671 74.687,173.881 C74.6,174.298 74.478,174.707 74.344,175.11 C74.277,175.31 74.2,175.506 74.123,175.701 C74.317,175.212 73.966,176 73.923,176.084 C73.733,176.455 73.515,176.809 73.286,177.156 C73.172,177.329 73.049,177.496 72.925,177.662 C73.237,177.241 72.813,177.775 72.773,177.823 C72.503,178.136 72.208,178.426 71.905,178.708 C71.754,178.848 71.595,178.981 71.435,179.112 C71.834,178.781 71.163,179.305 71.085,179.358 C70.742,179.593 70.38,179.8 70.012,179.995 C69.827,180.093 69.639,180.181 69.448,180.269 C69.931,180.046 69.299,180.323 69.237,180.346 C68.84,180.494 68.43,180.608 68.018,180.71 C67.81,180.761 67.599,180.801 67.388,180.84 C67.107,180.884 67.104,180.888 67.376,180.85 C67.231,180.867 67.087,180.881 66.941,180.894 C66.499,180.932 66.056,180.932 65.614,180.919 C65.395,180.912 65.175,180.894 64.956,180.874 C64.242,180.811 65.43,180.958 64.729,180.84 C64.307,180.77 63.892,180.664 63.481,180.545 C63.276,180.486 63.077,180.416 62.878,180.346 C62.747,180.297 62.616,180.247 62.486,180.194 C62.73,180.298 62.728,180.293 62.478,180.181 C62.099,180.006 61.735,179.8 61.38,179.583 C61.202,179.476 61.031,179.358 60.86,179.24 C60.808,179.205 60.271,178.785 60.68,179.112 C60.356,178.855 60.057,178.569 59.765,178.277 C59.617,178.131 59.479,177.977 59.342,177.823 C59.251,177.719 59.161,177.614 59.075,177.506 C59.231,177.718 59.229,177.714 59.067,177.496 C58.819,177.163 58.601,176.809 58.392,176.45 C58.287,176.27 58.192,176.084 58.097,175.898 C58.069,175.842 57.788,175.21 57.993,175.701 C57.83,175.312 57.7,174.908 57.584,174.503 C57.524,174.298 57.478,174.089 57.431,173.881 C57.409,173.787 57.268,172.906 57.337,173.448 C57.247,172.742 57.261,172.03 57.261,171.321 C57.261,167.182 57.261,163.044 57.261,158.903 C57.261,158.853 57.261,158.803 57.261,158.752 C57.261,155.688 52.51,155.688 52.51,158.752" id="Fill-374" fill="#4C5159"></path>
                <path d="M14.829,63.813 L117.107,62.795 L117.107,4.972 C117.107,4.972 98.669,0.648 65.944,0.648 C33.829,0.648 13.495,5.364 13.495,5.364 L14.829,63.813" id="Fill-375" fill="#4C5159"></path>
                <path d="M29.157,83.493 C29.157,93.748 23.312,102.062 16.101,102.062 C8.89,102.062 3.045,93.748 3.045,83.493 C3.045,73.238 8.89,64.923 16.101,64.923 C23.312,64.923 29.157,73.238 29.157,83.493" id="Fill-376" fill="#9B716C"></path>
                <path d="M26.781,83.493 C26.764,87.278 25.949,90.915 24.132,94.094 C23.922,94.461 23.693,94.817 23.459,95.168 C23.344,95.34 23.223,95.508 23.102,95.676 C22.703,96.228 23.396,95.317 22.976,95.842 C22.442,96.509 21.845,97.12 21.205,97.682 C21.063,97.808 20.914,97.927 20.766,98.047 C21.214,97.687 20.719,98.07 20.645,98.124 C20.343,98.338 20.026,98.529 19.707,98.713 C19.393,98.894 19.064,99.051 18.732,99.199 C19.292,98.95 18.735,99.186 18.632,99.223 C18.408,99.304 18.18,99.372 17.95,99.438 C17.607,99.534 17.256,99.603 16.904,99.661 C17.546,99.556 16.948,99.648 16.823,99.66 C16.644,99.674 16.463,99.68 16.282,99.685 C15.921,99.696 15.56,99.674 15.199,99.643 C14.586,99.59 15.727,99.732 15.121,99.632 C14.887,99.593 14.654,99.538 14.424,99.483 C14.077,99.398 13.735,99.284 13.4,99.162 C12.827,98.953 13.863,99.375 13.304,99.126 C13.138,99.051 12.977,98.969 12.814,98.887 C12.488,98.72 12.175,98.529 11.865,98.331 C11.709,98.231 11.558,98.123 11.405,98.016 C11.193,97.859 11.204,97.868 11.436,98.047 C11.337,97.969 11.238,97.889 11.142,97.807 C10.539,97.307 9.994,96.742 9.482,96.152 C9.352,96 9.225,95.842 9.1,95.684 C9.434,96.103 9.017,95.562 8.979,95.508 C8.693,95.112 8.431,94.698 8.179,94.277 C7.728,93.529 7.342,92.743 6.993,91.942 C7.189,92.393 6.907,91.704 6.895,91.673 C6.813,91.46 6.737,91.244 6.661,91.027 C6.481,90.515 6.328,89.993 6.185,89.467 C5.932,88.537 5.747,87.588 5.604,86.634 C5.673,87.093 5.565,86.286 5.565,86.281 C5.538,86.033 5.518,85.783 5.497,85.533 C5.449,84.94 5.43,84.345 5.421,83.751 C5.406,82.733 5.464,81.716 5.565,80.704 C5.565,80.701 5.669,79.892 5.604,80.352 C5.638,80.109 5.68,79.867 5.72,79.626 C5.814,79.072 5.936,78.523 6.066,77.977 C6.285,77.073 6.569,76.185 6.895,75.313 C6.907,75.282 7.185,74.589 6.993,75.044 C7.081,74.839 7.173,74.637 7.266,74.434 C7.479,73.972 7.716,73.522 7.964,73.078 C8.17,72.707 8.396,72.347 8.627,71.991 C8.74,71.818 8.859,71.647 8.979,71.477 C9.017,71.424 9.429,70.879 9.1,71.302 C9.626,70.627 10.218,70.005 10.853,69.43 C10.993,69.301 11.142,69.18 11.288,69.058 C11.778,68.652 10.896,69.343 11.405,68.97 C11.703,68.751 12.018,68.553 12.336,68.363 C12.649,68.176 12.975,68.014 13.304,67.861 C13.859,67.601 12.831,68.043 13.4,67.824 C13.623,67.738 13.852,67.667 14.079,67.598 C14.421,67.494 14.771,67.419 15.121,67.354 C15.725,67.243 14.587,67.408 15.199,67.343 C15.378,67.323 15.559,67.315 15.738,67.306 C16.1,67.288 16.462,67.302 16.823,67.327 C16.945,67.336 17.552,67.419 16.904,67.324 C17.14,67.359 17.372,67.409 17.604,67.461 C17.953,67.539 18.295,67.647 18.632,67.763 C18.734,67.798 19.299,68.027 18.732,67.787 C18.898,67.858 19.062,67.937 19.225,68.016 C19.553,68.176 19.869,68.362 20.18,68.554 C20.338,68.652 20.491,68.757 20.645,68.862 C20.746,68.934 20.848,69.006 20.947,69.081 C20.717,68.899 20.705,68.892 20.913,69.058 C21.52,69.546 22.07,70.101 22.587,70.683 C22.721,70.833 22.849,70.988 22.976,71.144 C23.402,71.664 22.697,70.762 23.102,71.309 C23.392,71.702 23.657,72.111 23.914,72.525 C24.41,73.329 24.831,74.178 25.208,75.044 C25.012,74.592 25.295,75.282 25.307,75.313 C25.389,75.527 25.464,75.742 25.539,75.958 C25.719,76.471 25.873,76.993 26.017,77.519 C26.142,77.978 26.246,78.445 26.345,78.911 C26.395,79.148 26.438,79.387 26.48,79.626 C26.495,79.709 26.63,80.603 26.579,80.21 C26.721,81.298 26.776,82.397 26.781,83.493 C26.796,86.556 31.547,86.557 31.532,83.493 C31.497,76.076 28.512,67.13 21.296,63.758 C17.911,62.177 14.293,62.246 10.906,63.758 C7.675,65.2 5.173,68.184 3.553,71.251 C-0.377,78.692 -0.277,88.286 3.553,95.736 C5.15,98.846 7.7,101.73 10.906,103.227 C14.29,104.809 17.908,104.739 21.296,103.227 C24.526,101.785 27.029,98.803 28.649,95.736 C30.629,91.986 31.513,87.713 31.532,83.493 C31.547,80.429 26.796,80.43 26.781,83.493" id="Fill-377" fill="#4C5159"></path>
                <path d="M17.334,36.296 L17.334,111.658 C17.334,138.567 39.147,160.381 66.058,160.381 C92.968,160.381 114.782,138.567 114.782,111.658 L114.782,36.296 L17.334,36.296" id="Fill-378" fill="#9B716C"></path>
                <path d="M14.958,36.296 C14.958,41.105 14.958,45.914 14.958,50.722 C14.958,60.733 14.958,70.742 14.958,80.752 C14.958,89.337 14.958,97.922 14.958,106.507 C14.958,108.195 14.958,109.884 14.958,111.572 C14.958,117.935 16.12,124.308 18.453,130.231 C23.808,143.83 34.793,154.528 48.469,159.64 C62.383,164.84 78.348,163.401 91.247,156.127 C103.789,149.054 112.966,136.573 116,122.504 C117.396,116.022 117.157,109.444 117.157,102.866 C117.157,93.5 117.157,84.134 117.157,74.768 C117.157,65.237 117.157,55.706 117.157,46.174 C117.157,42.881 117.157,39.589 117.157,36.296 C117.157,35.001 116.077,33.921 114.782,33.921 C110.875,33.921 106.968,33.921 103.062,33.921 C93.977,33.921 84.892,33.921 75.808,33.921 C65.497,33.921 55.187,33.921 44.877,33.921 C37.293,33.921 29.71,33.921 22.128,33.921 C20.529,33.921 18.931,33.921 17.334,33.921 C14.27,33.921 14.27,38.671 17.334,38.671 C21.24,38.671 25.146,38.671 29.053,38.671 C38.139,38.671 47.223,38.671 56.309,38.671 C66.619,38.671 76.929,38.671 87.239,38.671 C94.822,38.671 102.404,38.671 109.988,38.671 C111.585,38.671 113.184,38.671 114.782,38.671 C113.989,37.879 113.198,37.088 112.406,36.296 C112.406,41.105 112.406,45.914 112.406,50.722 C112.406,60.733 112.406,70.742 112.406,80.752 C112.406,89.337 112.406,97.922 112.406,106.507 C112.406,108.195 112.406,109.884 112.406,111.572 C112.406,112.416 112.386,113.259 112.346,114.103 C112.304,114.981 112.234,115.859 112.145,116.734 C112.101,117.169 112.049,117.602 111.993,118.035 C112.063,117.488 111.966,118.204 111.957,118.264 C111.916,118.551 111.868,118.836 111.822,119.121 C111.243,122.629 110.255,126.065 108.925,129.359 C108.901,129.415 108.633,130.06 108.84,129.569 C108.758,129.763 108.675,129.955 108.589,130.147 C108.419,130.532 108.243,130.913 108.064,131.293 C107.678,132.113 107.263,132.921 106.831,133.718 C106.004,135.245 105.087,136.721 104.102,138.151 C103.865,138.493 103.624,138.831 103.379,139.167 C103.257,139.336 103.133,139.502 103.008,139.668 C102.973,139.715 102.555,140.263 102.876,139.847 C102.325,140.558 101.752,141.25 101.163,141.93 C100.033,143.235 98.825,144.475 97.563,145.654 C96.958,146.22 96.335,146.767 95.7,147.302 C95.383,147.57 95.061,147.831 94.737,148.09 C94.575,148.219 94.411,148.347 94.249,148.475 C94.658,148.154 93.973,148.678 93.902,148.732 C92.513,149.77 91.063,150.724 89.571,151.608 C88.071,152.496 86.518,153.295 84.933,154.016 C84.74,154.104 84.548,154.189 84.356,154.273 C84.301,154.297 83.659,154.569 84.149,154.363 C83.761,154.527 83.37,154.682 82.976,154.834 C82.122,155.166 81.255,155.469 80.384,155.752 C78.69,156.301 76.963,156.747 75.22,157.106 C74.372,157.28 73.521,157.427 72.667,157.557 C72.604,157.566 71.89,157.664 72.436,157.592 C72.22,157.621 72.003,157.647 71.786,157.673 C71.278,157.733 70.771,157.782 70.262,157.827 C68.42,157.988 66.568,158.033 64.72,157.988 C63.837,157.966 62.953,157.914 62.072,157.845 C61.636,157.811 61.2,157.767 60.763,157.721 C60.546,157.698 60.329,157.673 60.112,157.647 C59.968,157.629 59.824,157.611 59.68,157.592 C59.952,157.629 59.946,157.628 59.664,157.588 C56.136,157.087 52.669,156.172 49.336,154.91 C48.941,154.761 48.551,154.604 48.16,154.443 C47.514,154.18 48.594,154.632 47.952,154.357 C47.76,154.274 47.567,154.189 47.375,154.103 C46.546,153.734 45.728,153.336 44.921,152.921 C43.375,152.126 41.877,151.238 40.426,150.283 C39.73,149.827 39.051,149.348 38.38,148.856 C38.213,148.733 38.046,148.608 37.881,148.482 C37.33,148.068 38.247,148.772 37.705,148.347 C37.323,148.05 36.946,147.743 36.574,147.435 C35.245,146.332 33.98,145.151 32.775,143.914 C31.568,142.677 30.437,141.368 29.367,140.011 C28.94,139.47 29.649,140.383 29.232,139.834 C29.106,139.669 28.982,139.502 28.859,139.335 C28.611,139 28.371,138.662 28.132,138.321 C27.614,137.584 27.122,136.828 26.646,136.063 C25.727,134.583 24.896,133.05 24.142,131.482 C23.959,131.103 23.784,130.722 23.611,130.34 C23.525,130.148 23.442,129.955 23.358,129.762 C23.08,129.122 23.537,130.201 23.271,129.554 C22.921,128.71 22.6,127.852 22.3,126.988 C21.714,125.311 21.231,123.6 20.835,121.87 C20.642,121.029 20.477,120.184 20.33,119.335 C20.255,118.908 20.189,118.479 20.126,118.05 C20.022,117.336 20.187,118.537 20.096,117.818 C20.058,117.53 20.024,117.241 19.993,116.953 C19.712,114.397 19.709,111.841 19.709,109.277 C19.709,106.244 19.709,103.211 19.709,100.177 C19.709,90.442 19.709,80.707 19.709,70.972 C19.709,61.865 19.709,52.759 19.709,43.653 C19.709,41.201 19.709,38.749 19.709,36.296 C19.709,33.233 14.958,33.233 14.958,36.296" id="Fill-379" fill="#4C5159"></path>
                <path d="M9.069,84.159 C9.069,84.159 8.247,87.055 9.871,88.488 C14.992,93 14.829,99.598 14.829,99.598 L14.829,87.84 L13.167,85.98 L9.069,84.159" id="Fill-380" fill="#875D5B"></path>
                <path d="M18.431,93.745 C18.573,92.118 18.243,90.358 17.679,88.839 C16.428,85.465 13.655,83.206 10.188,82.348 C8.7,81.979 8.069,84.27 9.556,84.638 C12.393,85.34 14.602,87.155 15.522,89.847 C15.999,91.237 16.185,92.272 16.055,93.745 C15.921,95.272 18.298,95.259 18.431,93.745" id="Fill-381" fill="#4C5159"></path>
                <path d="M112.338,66.42 C112.338,66.42 97.017,55.858 95.555,45.797 C95.555,45.797 47.802,56.999 27.766,47.443 C27.766,47.443 23.345,46.348 23.646,41.111 C24.401,27.991 111.876,36.925 111.876,36.925 C111.876,36.925 112.338,46.808 112.338,66.42" id="Fill-382" fill="#875D5B"></path>
                <path d="M114.782,60.736 C114.782,60.736 101.281,50.415 100.895,40.939 C100.895,40.939 49.055,52.737 28.163,42.68 C28.163,42.68 26.844,58.48 16.469,62.981 C16.469,62.981 14.451,44.19 19.867,36.296 C27.69,24.89 116.723,31.073 116.723,31.073 C116.723,31.073 117.244,46.191 114.782,60.736" id="Fill-383" fill="#4C5159"></path>
                <path d="M30.062,74.507 C30.254,74.399 30.451,74.299 30.648,74.199 C30.895,74.076 31.144,73.957 31.395,73.841 C31.552,73.768 31.71,73.697 31.868,73.626 C32.036,73.552 32.709,73.268 31.954,73.586 C33.921,72.761 35.964,72.124 38.046,71.675 C38.63,71.549 39.218,71.445 39.807,71.354 C39.941,71.333 40.076,71.314 40.211,71.296 C39.632,71.377 40.321,71.288 40.401,71.278 C40.75,71.239 41.101,71.211 41.45,71.185 C42.91,71.077 44.378,71.107 45.833,71.262 C46.118,71.297 46.133,71.297 45.876,71.262 C46.103,71.295 46.328,71.332 46.553,71.371 C46.933,71.436 47.31,71.518 47.686,71.603 C48.453,71.778 49.208,72.012 49.949,72.277 C50.102,72.332 50.252,72.389 50.401,72.448 C51.138,72.732 50.006,72.265 50.734,72.589 C51.114,72.757 51.483,72.945 51.852,73.139 C52.614,73.54 53.343,74.009 54.046,74.507 C55.104,75.258 56.685,74.698 57.296,73.655 C57.994,72.464 57.497,71.153 56.444,70.406 C50.857,66.443 43.946,65.727 37.359,66.977 C34.043,67.607 30.616,68.743 27.663,70.406 C26.536,71.039 26.165,72.552 26.811,73.655 C27.474,74.785 28.932,75.143 30.062,74.507" id="Fill-384" fill="#4C5159"></path>
                <path d="M99.868,64.728 C96.963,63.092 93.619,61.998 90.365,61.338 C83.747,59.996 76.701,60.746 71.088,64.728 C70.033,65.475 69.538,66.786 70.235,67.977 C70.847,69.022 72.427,69.58 73.485,68.831 C74.122,68.378 74.778,67.964 75.458,67.582 C75.822,67.378 76.196,67.194 76.573,67.015 C76.722,66.944 76.87,66.877 77.022,66.811 C76.63,66.985 77.36,66.681 77.354,66.682 C78.094,66.399 78.853,66.173 79.619,65.979 C79.995,65.885 80.373,65.808 80.753,65.735 C80.903,65.707 81.054,65.68 81.204,65.654 C81.249,65.647 81.994,65.545 81.474,65.61 C82.858,65.435 84.261,65.411 85.653,65.481 C86.008,65.498 86.36,65.527 86.713,65.559 C86.852,65.572 86.99,65.586 87.13,65.601 C87.21,65.609 87.899,65.696 87.319,65.618 C87.982,65.707 88.64,65.825 89.294,65.958 C91.404,66.385 93.469,67.042 95.459,67.859 C95.69,67.955 95.616,67.923 95.236,67.764 C95.344,67.81 95.452,67.857 95.56,67.903 C95.723,67.975 95.886,68.048 96.047,68.122 C96.307,68.241 96.564,68.364 96.82,68.492 C97.039,68.6 97.258,68.711 97.471,68.831 C98.599,69.465 100.059,69.108 100.721,67.977 C101.367,66.876 100.995,65.362 99.868,64.728" id="Fill-385" fill="#4C5159"></path>
                <path d="M46.953,83.348 C46.953,87.785 44.76,91.383 42.053,91.383 C39.347,91.383 37.153,87.785 37.153,83.348 C37.153,78.91 39.347,75.312 42.053,75.312 C44.76,75.312 46.953,78.91 46.953,83.348" id="Fill-386" fill="#4C5159"></path>
                <path d="M90.377,83.348 C90.377,87.785 88.184,91.383 85.478,91.383 C82.771,91.383 80.577,87.785 80.577,83.348 C80.577,78.91 82.771,75.312 85.478,75.312 C88.184,75.312 90.377,78.91 90.377,83.348" id="Fill-387" fill="#4C5159"></path>
                <path d="M58.458,107.6 C59.444,110.086 62.153,111.469 64.671,111.82 C66.909,112.132 69.115,111.836 70.967,110.465 C71.888,109.784 72.763,108.902 73.312,107.884 C74.04,106.537 71.988,105.337 71.261,106.686 C70.893,107.368 70.559,107.712 69.909,108.291 C68.584,109.468 66.923,109.676 65.219,109.515 C63.857,109.385 62.462,108.811 61.53,107.934 C61.369,107.782 61.222,107.618 61.079,107.449 C60.87,107.199 61.215,107.637 61.039,107.396 C60.979,107.312 60.923,107.225 60.868,107.138 C60.774,106.99 60.518,106.392 60.747,106.97 C60.509,106.368 59.962,105.954 59.286,106.14 C58.714,106.298 58.218,106.998 58.458,107.6" id="Fill-388" fill="#4C5159"></path>
                <path d="M62.87,136.14 C65.878,137.15 69.268,137.445 72.417,137.335 C79.077,137.103 85.363,134.338 89.68,129.192 C90.124,128.661 90.544,128.106 90.951,127.544 C91.458,126.844 91.072,125.781 90.383,125.378 C89.583,124.909 88.721,125.248 88.216,125.946 C86.226,128.693 83.62,130.866 80.554,132.314 C79.339,132.888 77.856,133.347 76.445,133.664 C75.014,133.986 74.063,134.092 72.573,134.162 C71.397,134.217 70.218,134.184 69.044,134.092 C68.78,134.072 68.518,134.045 68.253,134.019 C68.134,134.006 67.368,133.909 67.81,133.969 C67.334,133.903 66.858,133.825 66.384,133.737 C65.487,133.571 64.579,133.376 63.712,133.086 C61.771,132.433 60.944,135.492 62.87,136.14" id="Fill-389" fill="#4C5159"></path>
                <path d="M57.303,161.673 C57.303,161.673 66.058,163.168 74.813,161.673 L74.813,165.652 C74.813,165.652 71.909,168.073 66.376,168.073 C60.985,168.073 57.303,165.652 57.303,165.652 L57.303,161.673" id="Fill-390" fill="#875D5B"></path>
                <path d="M108.218,61.119 L108.218,113.692 C108.218,113.692 105.631,151.275 64.657,158.031 C64.657,158.031 77.144,158.41 89.274,151.707 C100.181,145.679 111.782,132.114 112.297,113.692 L112.297,63.179 L108.218,61.119" id="Fill-391" fill="#875D5B"></path>
            </g>
        </g>
    </g>
</svg>