<?xml version="1.0" encoding="UTF-8"?>
<svg width="136px" height="246px" viewBox="0 0 136 246" version="1.1" xmlns="http://www.w3.org/2000/svg" xmlns:xlink="http://www.w3.org/1999/xlink">
    <!-- Generator: Sketch 48.2 (47327) - http://www.bohemiancoding.com/sketch -->
    <title>male1</title>
    <desc>Created with Sketch.</desc>
    <defs></defs>
    <g id="Page-1" stroke="none" stroke-width="1" fill="none" fill-rule="evenodd">
        <g id="male1">
            <path d="M106.8,103.352 C106.8,113.609 112.645,121.922 119.855,121.922 C127.067,121.922 132.913,113.609 132.913,103.352 C132.913,93.097 127.067,84.783 119.855,84.783 C112.645,84.783 106.8,93.097 106.8,103.352" id="Fill-1" fill="#F4E0CD"></path>
            <path d="M104.424,103.352 C104.459,110.77 107.445,119.716 114.661,123.087 C118.046,124.668 121.663,124.598 125.051,123.087 C128.282,121.645 130.785,118.663 132.405,115.595 C136.334,108.154 136.233,98.559 132.405,91.109 C130.805,87.999 128.256,85.115 125.051,83.618 C121.667,82.037 118.049,82.107 114.661,83.618 C111.431,85.06 108.927,88.043 107.308,91.109 C105.328,94.859 104.445,99.133 104.424,103.352 C104.409,106.417 109.161,106.415 109.175,103.352 C109.193,99.568 110.007,95.931 111.826,92.751 C112.035,92.385 112.263,92.029 112.498,91.677 C112.613,91.505 112.734,91.337 112.855,91.17 C113.253,90.618 112.56,91.529 112.981,91.003 C113.513,90.337 114.111,89.726 114.751,89.163 C114.895,89.037 115.043,88.918 115.191,88.798 C114.743,89.159 115.237,88.776 115.313,88.722 C115.615,88.508 115.929,88.316 116.25,88.133 C116.564,87.951 116.892,87.795 117.223,87.647 C116.665,87.896 117.22,87.66 117.324,87.622 C117.549,87.541 117.777,87.473 118.006,87.409 C118.351,87.311 118.701,87.243 119.054,87.185 C118.411,87.291 119.008,87.198 119.134,87.187 C119.313,87.171 119.494,87.166 119.674,87.16 C120.035,87.15 120.398,87.171 120.757,87.202 C121.37,87.255 120.23,87.114 120.835,87.214 C121.07,87.253 121.301,87.307 121.533,87.363 C121.881,87.448 122.22,87.562 122.556,87.684 C123.129,87.893 122.093,87.47 122.654,87.72 C122.818,87.794 122.98,87.876 123.141,87.959 C123.468,88.125 123.782,88.316 124.091,88.514 C124.248,88.614 124.4,88.722 124.551,88.83 C124.763,88.987 124.753,88.977 124.521,88.798 C124.62,88.878 124.718,88.958 124.814,89.039 C125.417,89.538 125.963,90.103 126.473,90.694 C126.605,90.847 126.732,91.004 126.858,91.162 C126.522,90.743 126.939,91.283 126.979,91.336 C127.264,91.734 127.526,92.148 127.779,92.567 C128.23,93.316 128.615,94.103 128.963,94.904 C128.767,94.452 129.049,95.142 129.061,95.173 C129.144,95.386 129.22,95.602 129.295,95.818 C129.475,96.331 129.628,96.853 129.772,97.377 C130.026,98.309 130.209,99.258 130.353,100.211 C130.283,99.752 130.391,100.56 130.392,100.564 C130.418,100.813 130.439,101.063 130.459,101.312 C130.507,101.905 130.527,102.5 130.536,103.094 C130.55,104.112 130.494,105.13 130.392,106.142 C130.391,106.145 130.288,106.953 130.353,106.494 C130.319,106.736 130.278,106.978 130.236,107.219 C130.143,107.773 130.021,108.322 129.89,108.869 C129.671,109.773 129.387,110.661 129.061,111.532 C129.05,111.563 128.772,112.255 128.963,111.802 C128.877,112.006 128.783,112.209 128.69,112.411 C128.478,112.873 128.241,113.323 127.993,113.768 C127.787,114.138 127.562,114.498 127.331,114.854 C127.217,115.028 127.097,115.198 126.979,115.368 C126.94,115.421 126.528,115.966 126.858,115.543 C126.331,116.219 125.739,116.841 125.104,117.416 C124.963,117.544 124.816,117.666 124.669,117.788 C124.179,118.194 125.06,117.502 124.551,117.875 C124.253,118.094 123.938,118.293 123.62,118.482 C123.309,118.668 122.982,118.831 122.654,118.985 C122.097,119.245 123.126,118.802 122.556,119.021 C122.333,119.108 122.106,119.178 121.877,119.248 C121.536,119.351 121.186,119.426 120.835,119.491 C120.231,119.603 121.369,119.438 120.757,119.504 C120.578,119.522 120.398,119.531 120.218,119.54 C119.856,119.557 119.494,119.543 119.134,119.519 C119.012,119.51 118.406,119.426 119.054,119.52 C118.817,119.486 118.584,119.436 118.353,119.384 C118.003,119.306 117.662,119.199 117.324,119.083 C117.222,119.048 116.658,118.818 117.223,119.059 C117.058,118.988 116.895,118.908 116.733,118.829 C116.403,118.669 116.087,118.484 115.776,118.291 C115.619,118.193 115.465,118.089 115.313,117.983 C115.21,117.912 115.109,117.839 115.01,117.765 C115.24,117.946 115.252,117.954 115.043,117.788 C114.436,117.299 113.886,116.745 113.37,116.163 C113.235,116.012 113.108,115.857 112.981,115.702 C112.554,115.181 113.26,116.082 112.855,115.536 C112.565,115.144 112.3,114.735 112.042,114.32 C111.546,113.516 111.125,112.668 110.75,111.802 C110.945,112.253 110.663,111.563 110.651,111.532 C110.568,111.319 110.492,111.103 110.417,110.887 C110.237,110.374 110.084,109.852 109.94,109.328 C109.815,108.867 109.709,108.401 109.611,107.934 C109.562,107.697 109.519,107.458 109.476,107.219 C109.461,107.137 109.327,106.243 109.378,106.635 C109.237,105.548 109.18,104.449 109.175,103.352 C109.161,100.29 104.409,100.288 104.424,103.352" id="Fill-2" fill="#4C5159"></path>
            <path d="M126.887,104.018 C126.887,104.018 127.709,106.915 126.085,108.346 C120.965,112.86 121.127,119.458 121.127,119.458 L121.127,107.7 L122.79,105.839 L126.887,104.018" id="Fill-3" fill="#E7CEBB"></path>
            <path d="M119.901,113.604 C119.772,112.122 119.972,111.11 120.433,109.707 C121.318,107.013 123.591,105.193 126.401,104.498 C127.887,104.13 127.257,101.839 125.77,102.207 C122.265,103.075 119.579,105.329 118.277,108.699 C117.697,110.201 117.386,111.988 117.527,113.604 C117.659,115.118 120.035,115.131 119.901,113.604" id="Fill-4" fill="#4C5159"></path>
            <path d="M72.773,242.989 C113.654,242.989 127.484,234.56 127.484,234.56 C127.484,234.56 127.826,211.386 120.643,205.591 C120.643,205.591 93.788,188.381 82.328,185.395 L60.081,185.395 C48.621,188.381 21.766,205.591 21.766,205.591 C14.582,211.386 14.925,234.56 14.925,234.56 C14.925,234.56 33.398,242.989 74.277,242.989 L72.773,242.989" id="Fill-5" fill="#F4D58B"></path>
            <path d="M72.773,245.364 C87.28,245.357 102.083,244.521 116.219,241.033 C119.345,240.262 122.452,239.344 125.432,238.12 C126.643,237.622 128.802,237.011 129.535,235.758 C130.131,234.742 129.859,233.017 129.833,231.9 C129.776,229.622 129.644,227.345 129.437,225.075 C128.911,219.29 128.062,213.214 125.411,207.97 C124.545,206.256 123.318,204.481 121.673,203.433 C120.668,202.793 119.658,202.161 118.646,201.533 C114.131,198.732 109.565,196.011 104.939,193.399 C99.5,190.326 93.97,187.38 88.206,184.959 C87.076,184.484 85.932,184.041 84.77,183.65 C83.899,183.356 82.99,183.02 82.064,183.02 C79.873,183.02 77.683,183.02 75.491,183.02 C72.301,183.02 69.11,183.02 65.92,183.02 C63.99,183.02 62.06,183.02 60.13,183.02 C59.099,183.02 57.952,183.533 56.991,183.873 C55.655,184.345 54.347,184.892 53.045,185.449 C47.398,187.864 41.982,190.835 36.647,193.865 C32.146,196.421 27.705,199.081 23.31,201.815 C22.417,202.37 21.525,202.929 20.638,203.495 C18.824,204.653 17.561,206.735 16.671,208.642 C14.18,213.985 13.391,220.056 12.902,225.875 C12.659,228.756 12.508,231.665 12.55,234.56 C12.56,235.333 12.979,236.27 13.726,236.61 C18.472,238.772 23.719,240.001 28.788,241.096 C43.688,244.316 59.064,245.357 74.277,245.364 C74.277,243.781 74.277,242.197 74.277,240.614 C73.776,240.614 73.275,240.614 72.773,240.614 C69.71,240.614 69.71,245.364 72.773,245.364 C73.275,245.364 73.776,245.364 74.277,245.364 C77.342,245.364 77.342,240.615 74.277,240.614 C65.346,240.61 56.414,240.216 47.531,239.273 C46.647,239.178 45.762,239.077 44.88,238.972 C44.453,238.922 44.026,238.868 43.598,238.815 C43.388,238.788 43.178,238.761 42.969,238.734 C42.868,238.72 41.981,238.603 42.566,238.682 C40.942,238.463 39.319,238.22 37.701,237.957 C34.941,237.507 32.195,236.987 29.464,236.388 C25.938,235.614 22.435,234.706 19.01,233.563 C18.149,233.275 17.294,232.97 16.448,232.638 C16.149,232.522 15.265,232.147 16.346,232.605 C16.271,232.573 16.197,232.542 16.124,232.508 C16.516,233.192 16.908,233.876 17.3,234.56 C17.254,231.29 17.445,228.004 17.752,224.751 C17.815,224.086 17.887,223.421 17.965,222.757 C18.005,222.417 18.048,222.077 18.092,221.737 C18.005,222.405 18.083,221.808 18.101,221.683 C18.133,221.453 18.166,221.224 18.201,220.994 C18.415,219.555 18.68,218.122 18.999,216.702 C19.308,215.334 19.682,213.98 20.14,212.653 C20.244,212.351 20.356,212.051 20.471,211.753 C20.528,211.606 20.587,211.461 20.646,211.316 C20.39,211.945 20.593,211.442 20.649,211.317 C20.906,210.731 21.196,210.16 21.514,209.606 C21.653,209.364 21.802,209.128 21.956,208.894 C22.06,208.736 22.628,207.983 22.135,208.615 C22.471,208.184 22.85,207.787 23.26,207.425 C23.616,207.114 22.693,207.816 23.069,207.575 C23.196,207.495 23.323,207.414 23.45,207.334 C24.68,206.554 25.916,205.785 27.155,205.021 C31.887,202.103 36.674,199.271 41.532,196.568 C44.298,195.029 47.092,193.537 49.925,192.125 C51.247,191.467 52.58,190.83 53.925,190.22 C54.527,189.948 55.132,189.683 55.739,189.424 C55.078,189.705 56.028,189.307 56.19,189.241 C56.518,189.109 56.845,188.98 57.174,188.854 C58.223,188.449 59.285,188.082 60.368,187.779 C60.985,187.606 59.62,187.771 60.372,187.771 C60.74,187.771 61.109,187.771 61.478,187.771 C63.875,187.771 66.275,187.771 68.673,187.771 C71.915,187.771 75.158,187.771 78.399,187.771 C79.477,187.771 80.554,187.771 81.631,187.771 C81.853,187.771 82.075,187.771 82.298,187.771 C81.804,187.771 81.685,187.679 82.158,187.812 C82.441,187.891 82.723,187.977 83.003,188.066 C84.142,188.425 85.258,188.851 86.363,189.299 C86.507,189.359 86.652,189.418 86.797,189.479 C87.313,189.693 86.299,189.266 86.817,189.487 C87.118,189.615 87.419,189.746 87.718,189.878 C88.395,190.175 89.066,190.484 89.736,190.797 C99.547,195.382 108.911,201.017 118.074,206.775 C118.458,207.017 118.841,207.258 119.225,207.503 C119.294,207.546 119.361,207.589 119.43,207.634 C119.17,207.467 118.896,207.204 119.24,207.506 C119.458,207.698 119.661,207.908 119.857,208.122 C119.986,208.262 120.546,208.977 120.064,208.343 C120.229,208.559 120.379,208.783 120.528,209.009 C120.87,209.529 121.167,210.077 121.442,210.633 C121.576,210.904 121.7,211.18 121.821,211.456 C122.042,211.957 121.614,210.949 121.821,211.461 C121.882,211.606 121.938,211.753 121.995,211.901 C122.248,212.558 122.469,213.229 122.675,213.903 C123.092,215.269 123.417,216.663 123.7,218.064 C123.837,218.75 123.959,219.441 124.073,220.131 C124.13,220.476 124.182,220.821 124.233,221.167 C124.259,221.338 124.284,221.511 124.309,221.683 C124.324,221.798 124.339,221.912 124.356,222.026 C124.309,221.68 124.303,221.641 124.338,221.907 C124.673,224.481 124.879,227.071 125.001,229.663 C125.079,231.292 125.132,232.928 125.108,234.56 C125.501,233.876 125.893,233.192 126.286,232.508 C126.063,232.644 125.829,232.761 125.597,232.878 C125.304,233.026 125.006,233.165 124.708,233.301 C124.52,233.386 124.331,233.469 124.143,233.55 C123.624,233.774 124.522,233.391 124.337,233.468 C124.204,233.525 124.069,233.58 123.935,233.634 C120.861,234.881 117.655,235.8 114.434,236.58 C112.029,237.163 109.6,237.651 107.162,238.076 C105.712,238.329 104.258,238.556 102.803,238.765 C102.608,238.792 102.416,238.818 102.222,238.846 C102.13,238.858 101.471,238.948 102.067,238.867 C101.666,238.922 101.264,238.973 100.862,239.024 C99.955,239.139 99.048,239.244 98.139,239.344 C89.72,240.273 81.24,240.61 72.773,240.614 C69.71,240.616 69.71,245.366 72.773,245.364" id="Fill-6" fill="#4C5159"></path>
            <path d="M60.031,178.611 L60.031,191.989 C60.031,198.16 65.034,203.162 71.205,203.162 C77.376,203.162 82.378,198.16 82.378,191.989 L82.378,178.611 L60.031,178.611" id="Fill-7" fill="#F4E0CD"></path>
            <g id="Group-11" fill="#4C5159">
                <path d="M57.656,178.611 C57.656,182.551 57.656,186.492 57.656,190.433 C57.656,192.915 57.862,195.272 58.879,197.586 C60.455,201.17 63.651,203.835 67.364,204.985 C71.165,206.162 75.532,205.443 78.8,203.202 C82.233,200.848 84.257,197.195 84.699,193.091 C84.875,191.465 84.752,189.771 84.752,188.141 C84.752,185.671 84.752,183.201 84.752,180.731 C84.752,180.025 84.752,179.318 84.752,178.611 C84.752,177.316 83.672,176.236 82.378,176.236 C74.998,176.236 67.618,176.236 60.238,176.236 C60.169,176.236 60.1,176.236 60.031,176.236 C56.968,176.236 56.968,180.986 60.031,180.986 C67.411,180.986 74.791,180.986 82.171,180.986 C82.24,180.986 82.308,180.986 82.378,180.986 C81.586,180.195 80.794,179.403 80.002,178.611 C80.002,182.551 80.002,186.492 80.002,190.433 C80.002,190.948 80.002,191.464 80.002,191.979 C80.002,192.278 79.988,192.575 79.968,192.873 C79.964,192.938 79.871,193.652 79.951,193.107 C79.92,193.319 79.875,193.53 79.832,193.741 C79.746,194.157 79.624,194.566 79.491,194.97 C79.424,195.17 79.347,195.365 79.269,195.561 C79.463,195.071 79.113,195.859 79.07,195.943 C78.881,196.315 78.662,196.669 78.433,197.016 C78.319,197.189 78.196,197.355 78.072,197.522 C78.385,197.101 77.961,197.635 77.92,197.682 C77.65,197.996 77.354,198.286 77.052,198.567 C76.901,198.708 76.741,198.84 76.582,198.972 C76.981,198.641 76.31,199.163 76.231,199.217 C75.888,199.453 75.527,199.659 75.159,199.855 C74.974,199.953 74.785,200.04 74.595,200.128 C75.077,199.906 74.445,200.182 74.384,200.205 C73.986,200.354 73.577,200.468 73.165,200.57 C72.957,200.621 72.746,200.661 72.534,200.7 C72.255,200.745 72.251,200.748 72.523,200.71 C72.379,200.727 72.233,200.741 72.088,200.753 C71.647,200.791 71.203,200.791 70.76,200.778 C70.542,200.772 70.322,200.753 70.104,200.733 C69.388,200.671 70.577,200.818 69.875,200.7 C69.452,200.63 69.039,200.523 68.627,200.404 C68.424,200.346 68.225,200.275 68.025,200.205 C67.894,200.157 67.763,200.107 67.632,200.054 C67.877,200.157 67.875,200.153 67.625,200.04 C67.246,199.865 66.883,199.658 66.527,199.443 C66.349,199.335 66.179,199.217 66.007,199.1 C65.955,199.065 65.417,198.644 65.827,198.972 C65.504,198.714 65.203,198.429 64.911,198.137 C64.764,197.99 64.627,197.836 64.489,197.682 C64.398,197.579 64.309,197.474 64.221,197.367 C64.379,197.577 64.375,197.573 64.213,197.355 C63.966,197.022 63.747,196.668 63.539,196.309 C63.434,196.13 63.339,195.943 63.244,195.757 C63.215,195.702 62.935,195.07 63.139,195.561 C62.977,195.171 62.848,194.768 62.731,194.362 C62.671,194.157 62.624,193.949 62.576,193.741 C62.555,193.646 62.415,192.765 62.484,193.308 C62.394,192.602 62.407,191.891 62.407,191.181 C62.407,187.042 62.407,182.903 62.407,178.763 C62.407,178.713 62.407,178.662 62.407,178.611 C62.407,175.548 57.656,175.548 57.656,178.611" id="Fill-8"></path>
                <path d="M128.023,86.75 C128.023,86.75 143.668,14.568 115.428,28.108 C115.428,28.108 71.366,-21.797 22.408,12.247 C22.408,12.247 22.968,14.569 27.998,15.343 C27.998,15.343 15.232,16.89 9.815,13.021 C4.399,9.152 10.203,22.693 18.713,26.561 C18.713,26.561 12.136,24.627 0.917,26.948 C0.917,26.948 4.632,32.751 8.19,35.072 C8.19,35.072 0.917,51.32 9.815,61.765 C9.815,61.765 8.815,72.567 15.019,84.783 L128.023,86.75" id="Fill-10"></path>
            </g>
            <path d="M34.305,103.352 C34.305,113.609 28.459,121.922 21.247,121.922 C14.037,121.922 8.19,113.609 8.19,103.352 C8.19,93.097 14.037,84.783 21.247,84.783 C28.459,84.783 34.305,93.097 34.305,103.352" id="Fill-12" fill="#F4E0CD"></path>
            <path d="M31.929,103.352 C31.911,107.137 31.097,110.774 29.279,113.954 C29.068,114.32 28.84,114.676 28.605,115.027 C28.491,115.2 28.37,115.368 28.249,115.536 C27.851,116.087 28.544,115.176 28.122,115.702 C27.589,116.367 26.992,116.979 26.352,117.542 C26.209,117.668 26.06,117.787 25.913,117.906 C26.361,117.547 25.867,117.929 25.79,117.983 C25.489,118.197 25.174,118.389 24.854,118.573 C24.539,118.754 24.211,118.911 23.88,119.059 C24.439,118.809 23.883,119.045 23.779,119.083 C23.555,119.165 23.327,119.232 23.097,119.296 C22.753,119.394 22.403,119.463 22.051,119.52 C22.692,119.414 22.095,119.507 21.97,119.519 C21.79,119.534 21.61,119.54 21.429,119.545 C21.068,119.555 20.706,119.534 20.347,119.504 C19.733,119.449 20.874,119.591 20.269,119.491 C20.033,119.453 19.802,119.398 19.571,119.342 C19.223,119.257 18.883,119.144 18.548,119.021 C17.975,118.813 19.011,119.235 18.451,118.985 C18.285,118.912 18.123,118.829 17.962,118.746 C17.635,118.58 17.321,118.389 17.013,118.191 C16.856,118.091 16.704,117.983 16.551,117.875 C16.34,117.718 16.35,117.728 16.583,117.906 C16.483,117.828 16.386,117.748 16.289,117.667 C15.687,117.168 15.141,116.602 14.63,116.011 C14.498,115.859 14.372,115.701 14.247,115.543 C14.581,115.962 14.164,115.422 14.125,115.368 C13.839,114.971 13.578,114.558 13.325,114.138 C12.875,113.389 12.488,112.603 12.14,111.802 C12.336,112.253 12.055,111.563 12.042,111.532 C11.96,111.319 11.884,111.103 11.809,110.887 C11.629,110.374 11.475,109.852 11.332,109.328 C11.078,108.396 10.894,107.448 10.75,106.494 C10.82,106.953 10.713,106.145 10.713,106.142 C10.685,105.893 10.665,105.642 10.645,105.392 C10.595,104.8 10.576,104.205 10.567,103.61 C10.552,102.593 10.61,101.575 10.713,100.564 C10.713,100.56 10.816,99.752 10.75,100.211 C10.785,99.968 10.826,99.727 10.868,99.486 C10.962,98.932 11.082,98.383 11.214,97.837 C11.433,96.932 11.717,96.044 12.042,95.173 C12.054,95.142 12.332,94.45 12.14,94.904 C12.227,94.698 12.32,94.496 12.414,94.294 C12.626,93.832 12.863,93.382 13.11,92.937 C13.317,92.567 13.541,92.207 13.773,91.851 C13.886,91.677 14.006,91.507 14.125,91.336 C14.163,91.283 14.576,90.738 14.247,91.162 C14.772,90.486 15.365,89.864 16,89.289 C16.141,89.161 16.288,89.039 16.435,88.917 C16.924,88.512 16.044,89.203 16.551,88.83 C16.851,88.611 17.165,88.413 17.482,88.223 C17.795,88.037 18.121,87.874 18.451,87.72 C19.006,87.461 17.978,87.903 18.548,87.684 C18.771,87.598 18.998,87.527 19.227,87.458 C19.568,87.354 19.918,87.278 20.269,87.214 C20.872,87.102 19.734,87.268 20.347,87.202 C20.525,87.183 20.706,87.174 20.885,87.166 C21.247,87.148 21.61,87.162 21.97,87.187 C22.092,87.195 22.698,87.279 22.051,87.185 C22.286,87.219 22.519,87.269 22.752,87.32 C23.1,87.399 23.441,87.507 23.779,87.622 C23.881,87.657 24.446,87.887 23.88,87.647 C24.046,87.718 24.209,87.797 24.371,87.876 C24.7,88.037 25.017,88.221 25.327,88.414 C25.485,88.512 25.638,88.617 25.79,88.722 C25.894,88.793 25.994,88.866 26.095,88.941 C25.863,88.759 25.853,88.752 26.06,88.917 C26.667,89.406 27.218,89.961 27.734,90.542 C27.868,90.693 27.995,90.848 28.122,91.003 C28.55,91.524 27.844,90.623 28.249,91.17 C28.539,91.561 28.804,91.971 29.06,92.385 C29.558,93.189 29.978,94.037 30.355,94.904 C30.159,94.452 30.441,95.142 30.453,95.173 C30.535,95.386 30.61,95.602 30.686,95.818 C30.867,96.331 31.02,96.853 31.164,97.377 C31.289,97.839 31.394,98.304 31.492,98.771 C31.542,99.008 31.585,99.247 31.627,99.486 C31.643,99.568 31.776,100.462 31.725,100.069 C31.867,101.157 31.923,102.256 31.929,103.352 C31.944,106.415 36.694,106.417 36.679,103.352 C36.644,95.935 33.658,86.989 26.442,83.618 C23.058,82.037 19.44,82.107 16.053,83.618 C12.822,85.06 10.319,88.042 8.699,91.109 C4.77,98.55 4.871,108.146 8.699,115.595 C10.297,118.705 12.848,121.589 16.053,123.087 C19.437,124.668 23.055,124.598 26.442,123.087 C29.673,121.645 32.176,118.663 33.796,115.595 C35.775,111.846 36.659,107.572 36.679,103.352 C36.694,100.288 31.944,100.29 31.929,103.352" id="Fill-13" fill="#4C5159"></path>
            <path d="M22.48,56.155 L22.48,131.517 C22.48,158.427 44.295,180.241 71.204,180.241 C98.114,180.241 119.928,158.427 119.928,131.517 L119.928,56.155 L22.48,56.155" id="Fill-14" fill="#F4E0CD"></path>
            <path d="M20.105,56.155 C20.105,60.964 20.105,65.773 20.105,70.582 C20.105,80.591 20.105,90.601 20.105,100.611 C20.105,109.196 20.105,117.781 20.105,126.367 C20.105,128.055 20.105,129.743 20.105,131.431 C20.105,137.795 21.268,144.168 23.601,150.091 C28.955,163.689 39.94,174.388 53.615,179.5 C67.529,184.699 83.495,183.26 96.393,175.987 C108.937,168.913 118.112,156.433 121.146,142.363 C122.544,135.882 122.304,129.304 122.304,122.725 C122.304,113.36 122.304,103.993 122.304,94.628 C122.304,85.096 122.304,75.565 122.304,66.033 C122.304,62.741 122.304,59.448 122.304,56.155 C122.304,54.861 121.223,53.78 119.928,53.78 C116.022,53.78 112.115,53.78 108.208,53.78 C99.123,53.78 90.039,53.78 80.954,53.78 C70.643,53.78 60.333,53.78 50.023,53.78 C42.44,53.78 34.858,53.78 27.274,53.78 C25.677,53.78 24.079,53.78 22.48,53.78 C19.418,53.78 19.418,58.531 22.48,58.531 C26.388,58.531 30.294,58.531 34.201,58.531 C43.285,58.531 52.371,58.531 61.455,58.531 C71.766,58.531 82.076,58.531 92.385,58.531 C99.969,58.531 107.552,58.531 115.134,58.531 C116.733,58.531 118.331,58.531 119.928,58.531 C119.137,57.739 118.345,56.947 117.553,56.155 C117.553,60.964 117.553,65.773 117.553,70.582 C117.553,80.591 117.553,90.601 117.553,100.611 C117.553,109.196 117.553,117.781 117.553,126.367 C117.553,128.055 117.553,129.743 117.553,131.431 C117.553,132.276 117.532,133.119 117.493,133.962 C117.452,134.841 117.38,135.718 117.292,136.593 C117.248,137.028 117.194,137.462 117.139,137.895 C117.209,137.349 117.113,138.063 117.104,138.125 C117.062,138.411 117.016,138.696 116.968,138.981 C116.39,142.489 115.402,145.924 114.071,149.219 C114.049,149.275 113.779,149.919 113.987,149.428 C113.904,149.622 113.82,149.815 113.735,150.007 C113.566,150.391 113.39,150.773 113.211,151.152 C112.825,151.973 112.41,152.78 111.978,153.577 C111.151,155.104 110.232,156.581 109.249,158.011 C109.013,158.353 108.771,158.691 108.526,159.027 C108.404,159.194 108.28,159.361 108.155,159.527 C108.12,159.575 107.701,160.122 108.022,159.707 C107.473,160.418 106.898,161.11 106.31,161.79 C105.179,163.096 103.972,164.334 102.71,165.514 C102.104,166.079 101.481,166.627 100.847,167.161 C100.529,167.429 100.208,167.69 99.884,167.95 C99.722,168.08 99.557,168.207 99.395,168.335 C99.805,168.014 99.12,168.538 99.049,168.591 C97.66,169.629 96.209,170.583 94.717,171.467 C93.218,172.356 91.665,173.154 90.078,173.876 C89.888,173.963 89.695,174.048 89.502,174.132 C89.448,174.156 88.805,174.429 89.296,174.223 C88.908,174.386 88.516,174.541 88.123,174.694 C87.269,175.027 86.403,175.329 85.531,175.612 C83.837,176.162 82.11,176.606 80.366,176.965 C79.52,177.14 78.668,177.287 77.813,177.416 C77.751,177.425 77.036,177.524 77.583,177.451 C77.366,177.481 77.15,177.506 76.933,177.532 C76.426,177.593 75.918,177.642 75.409,177.687 C73.567,177.848 71.715,177.893 69.867,177.847 C68.983,177.825 68.101,177.774 67.22,177.705 C66.782,177.671 66.346,177.627 65.91,177.581 C65.692,177.558 65.477,177.532 65.259,177.506 C65.115,177.489 64.971,177.47 64.827,177.451 C65.099,177.489 65.093,177.487 64.812,177.447 C61.282,176.946 57.815,176.032 54.483,174.77 C54.089,174.621 53.698,174.464 53.308,174.304 C52.66,174.039 53.741,174.491 53.1,174.215 C52.906,174.133 52.714,174.048 52.522,173.962 C51.692,173.593 50.875,173.195 50.067,172.78 C48.522,171.985 47.024,171.098 45.572,170.143 C44.877,169.686 44.197,169.207 43.527,168.715 C43.36,168.592 43.194,168.467 43.027,168.342 C42.478,167.927 43.395,168.631 42.851,168.207 C42.469,167.909 42.094,167.604 41.721,167.294 C40.392,166.192 39.128,165.01 37.921,163.774 C36.716,162.537 35.583,161.228 34.515,159.87 C34.088,159.329 34.796,160.242 34.38,159.693 C34.253,159.528 34.13,159.361 34.006,159.194 C33.759,158.86 33.518,158.522 33.28,158.181 C32.762,157.443 32.269,156.688 31.793,155.922 C30.874,154.443 30.044,152.91 29.287,151.341 C29.106,150.964 28.932,150.582 28.759,150.199 C28.672,150.008 28.588,149.815 28.505,149.622 C28.228,148.982 28.685,150.06 28.418,149.414 C28.067,148.569 27.747,147.711 27.446,146.848 C26.86,145.171 26.379,143.46 25.982,141.729 C25.79,140.889 25.624,140.043 25.476,139.194 C25.402,138.767 25.335,138.338 25.274,137.909 C25.169,137.196 25.333,138.396 25.242,137.679 C25.205,137.39 25.172,137.101 25.141,136.811 C24.857,134.256 24.855,131.701 24.855,129.137 C24.855,126.104 24.855,123.07 24.855,120.037 C24.855,110.301 24.855,100.566 24.855,90.831 C24.855,81.724 24.855,72.619 24.855,63.513 C24.855,61.06 24.855,58.608 24.855,56.155 C24.855,53.091 20.105,53.091 20.105,56.155" id="Fill-15" fill="#4C5159"></path>
            <path d="M14.217,104.018 C14.217,104.018 13.395,106.915 15.019,108.346 C20.139,112.86 19.977,119.458 19.977,119.458 L19.977,107.7 L18.314,105.839 L14.217,104.018" id="Fill-16" fill="#E7CEBB"></path>
            <path d="M23.578,113.604 C23.719,111.978 23.389,110.216 22.827,108.699 C21.575,105.326 18.802,103.066 15.333,102.207 C13.847,101.839 13.216,104.13 14.703,104.498 C17.54,105.2 19.749,107.015 20.67,109.707 C21.146,111.098 21.331,112.131 21.202,113.604 C21.068,115.131 23.444,115.118 23.578,113.604" id="Fill-17" fill="#4C5159"></path>
            <path d="M117.485,86.279 C117.485,86.279 102.163,75.718 100.702,65.656 C100.702,65.656 52.947,76.858 32.912,67.302 C32.912,67.302 28.492,66.208 28.793,60.97 C29.549,47.852 117.023,56.786 117.023,56.786 C117.023,56.786 117.485,66.667 117.485,86.279" id="Fill-18" fill="#E7CEBB"></path>
            <path d="M122.178,84.783 C122.178,84.783 103.822,70.275 103.435,60.798 C103.435,60.798 51.596,72.597 30.705,62.539 C30.705,62.539 28.771,79.561 22.408,86.524 C22.408,86.524 14.884,67.761 22.408,56.155 C29.932,44.55 119.856,50.934 119.856,50.934 C119.856,50.934 127.766,71.823 122.178,84.783" id="Fill-19" fill="#4C5159"></path>
            <path d="M35.207,88.801 C35.4,88.692 35.599,88.592 35.796,88.493 C36.043,88.369 36.291,88.251 36.541,88.134 C36.698,88.062 36.857,87.99 37.016,87.919 C37.183,87.845 37.856,87.562 37.102,87.878 C39.066,87.053 41.111,86.418 43.194,85.969 C43.777,85.843 44.364,85.739 44.953,85.647 C45.088,85.627 45.224,85.607 45.358,85.588 C44.778,85.671 45.469,85.581 45.548,85.572 C45.898,85.532 46.247,85.504 46.598,85.478 C48.058,85.37 49.525,85.401 50.98,85.555 C51.266,85.59 51.279,85.591 51.023,85.556 C51.249,85.587 51.474,85.626 51.699,85.664 C52.08,85.729 52.456,85.81 52.832,85.896 C53.6,86.071 54.355,86.304 55.097,86.57 C55.248,86.625 55.398,86.681 55.548,86.741 C56.285,87.025 55.154,86.557 55.88,86.882 C56.26,87.05 56.631,87.24 56.998,87.432 C57.762,87.834 58.49,88.302 59.193,88.801 C60.252,89.551 61.831,88.991 62.442,87.949 C63.141,86.757 62.644,85.446 61.59,84.698 C56.005,80.736 49.092,80.021 42.506,81.271 C39.19,81.901 35.763,83.036 32.81,84.698 C31.684,85.333 31.312,86.846 31.958,87.949 C32.619,89.078 34.08,89.436 35.207,88.801" id="Fill-20" fill="#4C5159"></path>
            <path d="M105.014,84.698 C102.109,83.063 98.766,81.969 95.512,81.308 C88.895,79.966 81.849,80.716 76.234,84.698 C75.181,85.446 74.684,86.757 75.382,87.949 C75.993,88.991 77.574,89.551 78.632,88.801 C79.268,88.349 79.924,87.934 80.605,87.552 C80.969,87.349 81.343,87.164 81.72,86.985 C81.869,86.916 82.018,86.847 82.169,86.781 C81.778,86.955 82.508,86.651 82.502,86.654 C83.24,86.369 84,86.144 84.767,85.95 C85.141,85.856 85.52,85.778 85.898,85.705 C86.05,85.677 86.2,85.651 86.351,85.626 C86.395,85.618 87.141,85.516 86.62,85.581 C88.005,85.406 89.407,85.382 90.801,85.452 C91.155,85.469 91.506,85.498 91.859,85.529 C91.999,85.543 92.138,85.556 92.276,85.572 C92.356,85.58 93.047,85.667 92.467,85.588 C93.128,85.677 93.787,85.796 94.441,85.928 C96.551,86.357 98.616,87.012 100.606,87.83 C100.836,87.925 100.763,87.894 100.383,87.734 C100.491,87.781 100.599,87.827 100.707,87.874 C100.87,87.945 101.032,88.019 101.193,88.093 C101.454,88.212 101.711,88.336 101.967,88.463 C102.186,88.57 102.405,88.681 102.617,88.801 C103.746,89.436 105.205,89.078 105.866,87.949 C106.513,86.846 106.142,85.333 105.014,84.698" id="Fill-21" fill="#4C5159"></path>
            <path d="M52.101,103.207 C52.101,107.646 49.907,111.243 47.2,111.243 C44.494,111.243 42.301,107.646 42.301,103.207 C42.301,98.769 44.494,95.172 47.2,95.172 C49.907,95.172 52.101,98.769 52.101,103.207" id="Fill-22" fill="#4C5159"></path>
            <path d="M95.524,103.207 C95.524,107.646 93.331,111.243 90.624,111.243 C87.918,111.243 85.725,107.646 85.725,103.207 C85.725,98.769 87.918,95.172 90.624,95.172 C93.331,95.172 95.524,98.769 95.524,103.207" id="Fill-23" fill="#4C5159"></path>
            <path d="M63.603,127.46 C64.592,129.945 67.301,131.328 69.817,131.68 C72.056,131.992 74.263,131.696 76.114,130.325 C77.034,129.643 77.91,128.761 78.458,127.744 C79.187,126.396 77.135,125.197 76.408,126.545 C76.039,127.228 75.705,127.571 75.055,128.15 C73.731,129.328 72.069,129.537 70.366,129.374 C69.004,129.245 67.608,128.67 66.676,127.794 C66.515,127.642 66.367,127.478 66.226,127.309 C66.015,127.059 66.36,127.497 66.185,127.255 C66.125,127.172 66.069,127.085 66.013,126.998 C65.921,126.85 65.665,126.252 65.895,126.829 C65.655,126.228 65.11,125.813 64.433,126 C63.861,126.156 63.364,126.858 63.603,127.46" id="Fill-24" fill="#4C5159"></path>
            <path d="M53.698,149.866 C56.729,152.007 60.388,153.489 63.927,154.514 C71.398,156.677 79.367,156.159 86.279,152.489 C87.697,151.737 89.034,150.84 90.308,149.866 C90.992,149.343 91.352,148.514 90.876,147.7 C90.479,147.025 89.396,146.606 88.708,147.131 C85.252,149.777 81.366,151.6 77.069,152.349 C73.67,152.941 70.14,152.707 66.808,151.978 C64.023,151.369 61.427,150.423 59.081,149.285 C57.813,148.67 56.561,147.989 55.393,147.198 C55.36,147.176 55.329,147.154 55.296,147.131 C54.59,146.633 53.538,147.004 53.129,147.7 C52.666,148.493 52.995,149.369 53.698,149.866" id="Fill-25" fill="#4C5159"></path>
            <path d="M62.45,181.782 C62.45,181.782 71.204,183.277 79.959,181.782 L79.959,186.103 C79.959,186.103 77.055,187.478 71.523,187.478 C66.132,187.478 62.45,186.103 62.45,186.103 L62.45,181.782" id="Fill-26" fill="#E7CEBB"></path>
            <path d="M113.405,80.977 L113.405,133.551 C113.405,133.551 110.819,171.134 69.845,177.89 C69.845,177.89 82.332,178.27 94.462,171.567 C105.369,165.539 116.97,151.974 117.485,133.551 L117.485,83.039 L113.405,80.977" id="Fill-27" fill="#E7CEBB"></path>
        </g>
    </g>
</svg>