<?xml version="1.0" encoding="UTF-8"?>
<svg width="131px" height="238px" viewBox="0 0 131 238" version="1.1" xmlns="http://www.w3.org/2000/svg" xmlns:xlink="http://www.w3.org/1999/xlink">
    <!-- Generator: Sketch 48.2 (47327) - http://www.bohemiancoding.com/sketch -->
    <title>male5</title>
    <desc>Created with Sketch.</desc>
    <defs></defs>
    <g id="Page-1" stroke="none" stroke-width="1" fill="none" fill-rule="evenodd">
        <g id="male5">
            <path d="M68.333,235.13 C109.212,235.13 123.043,226.7 123.043,226.7 C123.043,226.7 123.384,203.527 116.201,197.732 C116.201,197.732 89.347,180.522 77.887,177.536 L55.641,177.536 C44.179,180.522 17.326,197.732 17.326,197.732 C10.141,203.527 10.484,226.7 10.484,226.7 C10.484,226.7 28.956,235.13 69.836,235.13 L68.333,235.13" id="Fill-302" fill="#F3F4F1"></path>
            <path d="M68.333,237.505 C82.84,237.497 97.642,236.662 111.779,233.174 C114.903,232.402 118.01,231.485 120.991,230.26 C122.201,229.762 124.36,229.152 125.094,227.899 C125.689,226.882 125.419,225.157 125.392,224.04 C125.335,221.762 125.203,219.485 124.996,217.215 C124.47,211.431 123.621,205.355 120.97,200.111 C120.103,198.396 118.878,196.622 117.232,195.573 C116.227,194.934 115.217,194.302 114.204,193.673 C109.689,190.872 105.124,188.152 100.498,185.539 C95.058,182.467 89.529,179.521 83.764,177.099 C82.634,176.624 81.49,176.181 80.329,175.79 C79.459,175.496 78.55,175.161 77.624,175.161 C75.432,175.161 73.241,175.161 71.05,175.161 C67.859,175.161 64.669,175.161 61.479,175.161 C59.549,175.161 57.618,175.161 55.689,175.161 C54.657,175.161 53.511,175.674 52.549,176.013 C51.214,176.485 49.906,177.031 48.604,177.589 C42.957,180.005 37.541,182.975 32.206,186.006 C27.705,188.561 23.264,191.221 18.87,193.954 C17.976,194.511 17.083,195.069 16.197,195.636 C14.383,196.793 13.119,198.876 12.23,200.782 C9.74,206.125 8.951,212.196 8.461,218.014 C8.218,220.897 8.067,223.807 8.108,226.7 C8.119,227.473 8.539,228.411 9.285,228.751 C14.03,230.912 19.278,232.143 24.347,233.237 C39.247,236.456 54.622,237.496 69.836,237.505 C69.836,235.922 69.836,234.338 69.836,232.754 C69.335,232.754 68.834,232.754 68.333,232.754 C65.27,232.754 65.27,237.505 68.333,237.505 C68.834,237.505 69.335,237.505 69.836,237.505 C72.9,237.505 72.9,232.756 69.836,232.754 C60.906,232.749 51.973,232.357 43.09,231.414 C42.206,231.319 41.322,231.219 40.439,231.112 C40.011,231.063 39.585,231.008 39.157,230.955 C38.947,230.928 38.736,230.901 38.527,230.875 C38.427,230.861 37.54,230.743 38.125,230.822 C36.5,230.603 34.878,230.36 33.259,230.097 C30.501,229.648 27.753,229.128 25.023,228.529 C21.497,227.755 17.994,226.847 14.568,225.703 C13.708,225.416 12.851,225.11 12.006,224.779 C11.708,224.662 10.824,224.287 11.904,224.746 C11.831,224.714 11.755,224.682 11.683,224.649 C12.075,225.333 12.467,226.016 12.858,226.7 C12.812,223.43 13.004,220.145 13.312,216.891 C13.374,216.226 13.446,215.562 13.524,214.898 C13.563,214.557 13.606,214.217 13.651,213.878 C13.563,214.547 13.642,213.949 13.659,213.824 C13.691,213.594 13.726,213.365 13.76,213.134 C13.975,211.694 14.238,210.263 14.558,208.842 C14.866,207.474 15.241,206.12 15.698,204.794 C15.804,204.492 15.915,204.192 16.03,203.894 C16.086,203.747 16.145,203.602 16.205,203.457 C15.948,204.085 16.151,203.583 16.208,203.457 C16.465,202.871 16.755,202.301 17.073,201.746 C17.212,201.504 17.361,201.268 17.514,201.035 C17.618,200.877 18.187,200.123 17.693,200.756 C18.03,200.324 18.408,199.927 18.819,199.566 C19.175,199.254 18.252,199.956 18.628,199.716 C18.754,199.635 18.882,199.555 19.009,199.474 C20.238,198.694 21.474,197.925 22.713,197.161 C27.445,194.243 32.232,191.412 37.091,188.709 C39.857,187.17 42.651,185.677 45.483,184.266 C46.806,183.607 48.138,182.97 49.483,182.36 C50.085,182.088 50.691,181.823 51.298,181.564 C50.636,181.846 51.587,181.448 51.749,181.381 C52.076,181.249 52.404,181.12 52.733,180.993 C53.781,180.59 54.845,180.223 55.927,179.919 C56.544,179.746 55.178,179.911 55.93,179.911 C56.298,179.911 56.668,179.911 57.036,179.911 C59.434,179.911 61.834,179.911 64.232,179.911 C67.474,179.911 70.717,179.911 73.958,179.911 C75.036,179.911 76.112,179.911 77.19,179.911 C77.412,179.911 77.634,179.911 77.856,179.911 C77.362,179.911 77.243,179.818 77.717,179.951 C78.001,180.03 78.282,180.118 78.563,180.207 C79.7,180.565 80.816,180.991 81.921,181.441 C82.066,181.5 82.21,181.56 82.356,181.619 C82.871,181.833 81.857,181.406 82.376,181.627 C82.677,181.756 82.977,181.886 83.276,182.019 C83.953,182.317 84.625,182.624 85.295,182.937 C95.106,187.524 104.47,193.157 113.632,198.915 C114.016,199.156 114.401,199.4 114.784,199.643 C114.852,199.687 114.92,199.73 114.988,199.774 C114.729,199.607 114.455,199.345 114.799,199.647 C115.018,199.839 115.22,200.048 115.416,200.263 C115.545,200.402 116.104,201.117 115.623,200.484 C115.787,200.7 115.938,200.924 116.087,201.15 C116.428,201.669 116.725,202.216 117.001,202.773 C117.135,203.044 117.259,203.319 117.381,203.597 C117.601,204.098 117.172,203.089 117.381,203.601 C117.44,203.747 117.497,203.895 117.554,204.041 C117.807,204.698 118.028,205.37 118.233,206.044 C118.65,207.411 118.977,208.804 119.258,210.204 C119.396,210.891 119.518,211.581 119.631,212.271 C119.688,212.616 119.741,212.962 119.792,213.307 C119.818,213.48 119.843,213.651 119.867,213.824 C119.884,213.937 119.898,214.052 119.915,214.167 C119.868,213.821 119.862,213.781 119.897,214.049 C120.231,216.622 120.438,219.212 120.56,221.803 C120.637,223.432 120.69,225.068 120.667,226.7 C121.06,226.016 121.452,225.333 121.844,224.649 C121.622,224.784 121.387,224.901 121.156,225.018 C120.862,225.166 120.565,225.305 120.266,225.442 C120.078,225.526 119.89,225.61 119.701,225.692 C119.182,225.914 120.081,225.531 119.896,225.609 C119.762,225.666 119.628,225.72 119.493,225.775 C116.419,227.022 113.213,227.941 109.993,228.719 C107.587,229.303 105.159,229.79 102.72,230.216 C101.271,230.47 99.817,230.697 98.361,230.904 C98.167,230.932 97.974,230.959 97.78,230.985 C97.688,230.999 97.03,231.088 97.625,231.008 C97.225,231.063 96.823,231.114 96.421,231.164 C95.514,231.278 94.607,231.385 93.698,231.485 C85.279,232.414 76.799,232.749 68.333,232.754 C65.27,232.756 65.269,237.506 68.333,237.505" id="Fill-303" fill="#4C5159"></path>
            <path d="M43.134,179.177 C43.134,179.177 51.527,176.281 55.169,177.258 C58.812,178.236 55.201,192.068 58.353,193.324 C61.503,194.582 70.148,194.582 73.298,193.324 C76.449,192.068 72.839,178.236 76.48,177.258 C80.123,176.281 88.516,179.177 88.516,179.177 C88.516,189.807 77.106,195.791 65.728,195.76 C54.415,195.73 43.134,189.746 43.134,179.177" id="Fill-304" fill="#CDCECA"></path>
            <path d="M43.765,181.467 C45.734,180.791 47.763,180.253 49.803,179.839 C50.179,179.763 50.557,179.695 50.937,179.632 C51.124,179.601 51.312,179.573 51.501,179.545 C50.879,179.636 51.506,179.548 51.614,179.536 C52.362,179.451 53.116,179.414 53.868,179.445 C54.023,179.452 54.177,179.467 54.332,179.482 C53.622,179.412 54.111,179.455 54.273,179.486 C54.389,179.509 54.504,179.539 54.616,179.573 C53.957,179.376 54.134,179.35 54.343,179.468 C54.665,179.65 53.842,179.046 54.122,179.295 C54.185,179.35 54.239,179.416 54.294,179.48 C53.8,178.897 54.017,179.117 54.125,179.296 C54.227,179.462 54.418,179.94 54.099,179.169 C54.276,179.595 54.371,180.056 54.449,180.509 C54.477,180.673 54.534,181.158 54.439,180.399 C54.456,180.536 54.468,180.673 54.482,180.81 C54.515,181.149 54.534,181.489 54.55,181.829 C54.613,183.167 54.579,184.508 54.56,185.847 C54.522,188.438 54.39,191.178 55.447,193.6 C56.005,194.877 57.215,195.507 58.485,195.868 C60.07,196.319 61.766,196.465 63.403,196.57 C66.672,196.78 70.277,196.742 73.437,195.788 C76.357,194.906 76.911,192.161 77.064,189.456 C77.213,186.817 76.975,184.171 77.116,181.53 C77.132,181.197 77.16,180.865 77.196,180.535 C77.243,180.091 77.097,181.161 77.201,180.509 C77.227,180.346 77.26,180.184 77.294,180.022 C77.35,179.765 77.425,179.513 77.514,179.267 C77.65,178.886 77.22,179.876 77.479,179.377 C77.572,179.197 77.878,178.806 77.356,179.48 C77.408,179.414 77.468,179.353 77.528,179.295 C77.784,179.044 76.94,179.676 77.377,179.428 C77.664,179.267 76.658,179.664 77.243,179.516 C77.408,179.474 78.073,179.392 77.318,179.482 C78.217,179.375 79.138,179.442 80.036,179.536 C80.143,179.548 80.772,179.632 80.149,179.545 C80.401,179.58 80.652,179.621 80.903,179.664 C81.407,179.748 81.908,179.85 82.408,179.956 C83.336,180.153 84.257,180.388 85.173,180.641 C86.083,180.892 86.991,181.161 87.884,181.467 C87.303,180.704 86.722,179.941 86.14,179.177 C86.138,179.602 86.12,180.025 86.085,180.447 C86.078,180.529 85.991,181.216 86.072,180.636 C86.043,180.838 86.007,181.039 85.968,181.238 C85.81,182.086 85.55,182.911 85.231,183.71 C85.443,183.18 85.19,183.78 85.154,183.858 C85.071,184.035 84.98,184.207 84.89,184.38 C84.708,184.726 84.506,185.06 84.297,185.389 C84.192,185.553 84.081,185.714 83.97,185.874 C83.925,185.939 83.532,186.461 83.873,186.021 C83.591,186.385 83.285,186.73 82.972,187.068 C82.425,187.655 81.825,188.193 81.203,188.698 C80.678,189.125 81.582,188.42 81.036,188.825 C80.871,188.948 80.703,189.066 80.533,189.184 C80.134,189.462 79.721,189.719 79.305,189.969 C78.572,190.406 77.81,190.791 77.036,191.146 C76.992,191.166 76.335,191.448 76.807,191.252 C76.605,191.336 76.401,191.415 76.198,191.494 C75.718,191.681 75.231,191.848 74.741,192.007 C73.889,192.284 73.019,192.511 72.146,192.71 C71.703,192.811 71.257,192.897 70.81,192.977 C70.585,193.018 70.36,193.054 70.134,193.089 C69.984,193.113 69.833,193.134 69.683,193.156 C69.936,193.123 69.919,193.124 69.633,193.159 C67.727,193.393 65.799,193.436 63.883,193.327 C63.423,193.302 62.964,193.261 62.506,193.216 C62.277,193.193 62.05,193.165 61.822,193.137 C62.335,193.2 61.587,193.102 61.546,193.097 C60.573,192.95 59.609,192.749 58.654,192.51 C57.789,192.294 56.935,192.03 56.093,191.735 C55.679,191.589 55.271,191.429 54.864,191.264 C55.336,191.456 54.678,191.178 54.634,191.159 C54.371,191.041 54.113,190.916 53.856,190.79 C53.221,190.479 52.605,190.132 52.002,189.764 C51.706,189.583 51.417,189.391 51.13,189.196 C51.018,189.12 50.22,188.528 50.618,188.837 C50.086,188.424 49.584,187.975 49.103,187.505 C48.866,187.274 48.64,187.03 48.418,186.785 C48.285,186.639 48.158,186.488 48.031,186.337 C47.979,186.277 47.58,185.756 47.915,186.199 C47.523,185.681 47.174,185.127 46.856,184.559 C46.697,184.275 46.555,183.982 46.417,183.688 C46.138,183.095 46.592,184.143 46.348,183.534 C46.275,183.351 46.21,183.164 46.146,182.979 C45.924,182.349 45.767,181.698 45.645,181.042 C45.62,180.908 45.598,180.774 45.578,180.639 C45.668,181.215 45.573,180.532 45.565,180.449 C45.524,180.027 45.513,179.602 45.509,179.177 C45.5,177.882 44.437,176.802 43.134,176.802 C41.846,176.802 40.75,177.882 40.76,179.177 C40.788,183.048 42.148,186.539 44.547,189.543 C46.879,192.467 50.197,194.425 53.602,195.844 C60.746,198.823 69.349,198.876 76.634,196.377 C80.36,195.099 83.933,193.075 86.599,190.135 C89.339,187.111 90.861,183.26 90.891,179.177 C90.899,178.071 90.15,177.232 89.147,176.886 C87.179,176.209 85.149,175.672 83.11,175.258 C81.472,174.927 79.781,174.664 78.105,174.684 C76.658,174.7 75.084,174.943 74.053,176.056 C72.265,177.984 72.321,181.092 72.316,183.551 C72.313,184.911 72.355,186.271 72.355,187.631 C72.355,188.24 72.344,188.848 72.313,189.456 C72.299,189.735 72.277,190.013 72.25,190.289 C72.236,190.459 72.169,190.956 72.274,190.175 C72.252,190.337 72.225,190.497 72.195,190.657 C72.154,190.876 72.098,191.092 72.035,191.306 C71.832,191.988 72.255,190.908 72.02,191.365 C71.725,191.941 72.379,191.013 72.053,191.355 C71.803,191.616 72.594,190.974 72.298,191.173 C71.896,191.442 72.875,190.962 72.429,191.123 C71.857,191.33 71.253,191.455 70.655,191.563 C70.481,191.595 70.308,191.622 70.133,191.649 C69.516,191.744 70.667,191.584 70.029,191.662 C69.573,191.718 69.114,191.758 68.655,191.792 C66.909,191.925 65.15,191.922 63.403,191.82 C63.001,191.797 62.599,191.762 62.198,191.725 C62.005,191.707 61.814,191.684 61.621,191.662 C60.982,191.589 62.135,191.738 61.516,191.649 C60.828,191.548 60.143,191.408 59.476,191.208 C59.35,191.169 59.224,191.124 59.1,191.08 C59.759,191.318 59.525,191.275 59.352,191.173 C59.045,190.992 59.859,191.603 59.598,191.355 C59.457,191.222 59.287,190.926 59.763,191.588 C59.629,191.401 59.386,190.779 59.714,191.593 C59.622,191.364 59.56,191.123 59.503,190.883 C59.448,190.651 59.411,190.413 59.375,190.175 C59.503,191.042 59.38,190.087 59.363,189.881 C59.313,189.238 59.301,188.592 59.296,187.947 C59.271,185.168 59.463,182.398 59.087,179.634 C58.904,178.286 58.462,176.718 57.356,175.829 C55.75,174.538 53.573,174.578 51.614,174.785 C48.523,175.111 45.441,175.876 42.502,176.886 C41.279,177.308 40.483,178.501 40.844,179.809 C41.171,180.998 42.541,181.89 43.765,181.467" id="Fill-305" fill="#4C5159"></path>
            <path d="M64.888,195.91 C63.187,198.044 62.217,200.835 61.617,203.458 C60.009,210.48 61.333,217.858 63.918,224.473 C64.152,225.076 64.705,225.487 65.378,225.303 C65.953,225.145 66.443,224.445 66.208,223.842 C63.771,217.606 62.43,210.722 63.907,204.09 C64.129,203.094 64.419,202.114 64.769,201.155 C65.058,200.36 65.238,199.949 65.662,199.126 C65.89,198.684 66.139,198.253 66.411,197.836 C66.512,197.681 66.947,197.114 66.568,197.589 C66.971,197.084 67.064,196.406 66.568,195.91 C66.148,195.491 65.294,195.402 64.888,195.91" id="Fill-306" fill="#4C5159"></path>
            <path d="M54.792,170.752 L54.792,184.13 C54.792,190.3 59.795,195.303 65.965,195.303 C72.136,195.303 77.138,190.3 77.138,184.13 L77.138,170.752 L54.792,170.752" id="Fill-307" fill="#F6C593"></path>
            <path d="M52.417,170.752 C52.417,174.692 52.417,178.633 52.417,182.573 C52.417,185.056 52.622,187.412 53.64,189.725 C55.216,193.31 58.413,195.975 62.125,197.126 C65.927,198.303 70.293,197.583 73.561,195.343 C76.995,192.987 79.017,189.336 79.46,185.232 C79.635,183.605 79.514,181.911 79.514,180.282 C79.514,177.812 79.514,175.342 79.514,172.872 C79.514,172.164 79.514,171.459 79.514,170.752 C79.514,169.457 78.433,168.376 77.138,168.376 C69.758,168.376 62.378,168.376 55,168.376 C54.93,168.376 54.861,168.376 54.792,168.376 C51.728,168.376 51.728,173.127 54.792,173.127 C62.172,173.127 69.551,173.127 76.931,173.127 C77,173.127 77.069,173.127 77.138,173.127 C76.347,172.335 75.555,171.544 74.763,170.752 C74.763,174.692 74.763,178.633 74.763,182.573 C74.763,183.088 74.763,183.604 74.763,184.12 C74.763,184.419 74.749,184.716 74.728,185.014 C74.724,185.078 74.632,185.793 74.712,185.246 C74.68,185.46 74.637,185.671 74.593,185.881 C74.507,186.298 74.385,186.707 74.251,187.11 C74.185,187.31 74.107,187.506 74.03,187.701 C74.224,187.212 73.874,188 73.831,188.084 C73.642,188.455 73.422,188.809 73.194,189.156 C73.079,189.329 72.956,189.496 72.833,189.662 C73.145,189.241 72.722,189.775 72.681,189.823 C72.412,190.136 72.116,190.426 71.812,190.708 C71.661,190.848 71.502,190.981 71.343,191.112 C71.741,190.781 71.07,191.305 70.992,191.358 C70.649,191.593 70.287,191.8 69.919,191.995 C69.735,192.093 69.545,192.181 69.356,192.269 C69.837,192.046 69.206,192.323 69.144,192.346 C68.747,192.494 68.337,192.608 67.926,192.71 C67.717,192.761 67.505,192.801 67.295,192.84 C67.015,192.884 67.012,192.888 67.284,192.85 C67.139,192.867 66.994,192.881 66.85,192.894 C66.408,192.932 65.964,192.932 65.522,192.919 C65.302,192.912 65.083,192.894 64.864,192.874 C64.149,192.811 65.338,192.958 64.636,192.84 C64.213,192.77 63.798,192.664 63.388,192.545 C63.185,192.486 62.986,192.416 62.786,192.346 C62.653,192.297 62.523,192.247 62.393,192.194 C62.639,192.298 62.636,192.293 62.385,192.181 C62.006,192.006 61.644,191.8 61.288,191.583 C61.11,191.476 60.938,191.358 60.768,191.24 C60.715,191.205 60.178,190.785 60.587,191.112 C60.265,190.855 59.964,190.569 59.671,190.277 C59.525,190.131 59.387,189.977 59.249,189.823 C59.159,189.719 59.068,189.614 58.982,189.506 C59.138,189.718 59.136,189.714 58.975,189.496 C58.727,189.163 58.508,188.809 58.299,188.45 C58.194,188.27 58.1,188.084 58.005,187.898 C57.976,187.842 57.694,187.21 57.9,187.701 C57.737,187.312 57.609,186.908 57.491,186.503 C57.432,186.298 57.385,186.089 57.337,185.881 C57.316,185.787 57.175,184.906 57.244,185.448 C57.154,184.742 57.167,184.03 57.167,183.321 C57.167,179.182 57.167,175.044 57.167,170.903 C57.167,170.853 57.167,170.803 57.167,170.752 C57.167,167.688 52.417,167.688 52.417,170.752" id="Fill-308" fill="#4C5159"></path>
            <path d="M70.364,204.317 C70.364,205.76 69.231,206.93 67.832,206.93 C66.434,206.93 65.301,205.76 65.301,204.317 C65.301,202.875 66.434,201.706 67.832,201.706 C69.231,201.706 70.364,202.875 70.364,204.317" id="Fill-309" fill="#4C5159"></path>
            <path d="M57.21,173.899 C57.21,173.899 65.965,175.393 74.72,173.899 L74.72,180.912 C74.72,180.912 71.816,183.333 66.282,183.333 C60.894,183.333 57.21,180.912 57.21,180.912 L57.21,173.899" id="Fill-310" fill="#F1AE73"></path>
            <path d="M101.56,95.493 C101.56,105.748 107.406,114.062 114.617,114.062 C121.828,114.062 127.673,105.748 127.673,95.493 C127.673,85.238 121.828,76.923 114.617,76.923 C107.406,76.923 101.56,85.238 101.56,95.493" id="Fill-311" fill="#F6C593"></path>
            <path d="M99.185,95.493 C99.221,102.909 102.206,111.857 109.422,115.227 C112.806,116.809 116.424,116.739 119.812,115.227 C123.042,113.785 125.546,110.803 127.165,107.736 C131.095,100.295 130.994,90.699 127.165,83.251 C125.566,80.14 123.017,77.256 119.812,75.758 C116.427,74.177 112.81,74.246 109.422,75.758 C106.191,77.2 103.688,80.184 102.068,83.251 C100.089,87 99.205,91.273 99.185,95.493 C99.17,98.557 103.921,98.556 103.936,95.493 C103.954,91.708 104.768,88.071 106.586,84.892 C106.796,84.525 107.024,84.169 107.258,83.818 C107.374,83.646 107.495,83.478 107.616,83.309 C108.014,82.758 107.321,83.67 107.742,83.144 C108.274,82.478 108.873,81.866 109.513,81.304 C109.655,81.178 109.804,81.058 109.952,80.939 C109.504,81.299 109.998,80.916 110.073,80.862 C110.374,80.649 110.69,80.457 111.01,80.272 C111.326,80.092 111.653,79.935 111.984,79.787 C111.425,80.037 111.981,79.8 112.085,79.763 C112.31,79.682 112.538,79.614 112.768,79.548 C113.11,79.452 113.461,79.384 113.813,79.324 C113.171,79.43 113.77,79.338 113.894,79.327 C114.074,79.312 114.255,79.306 114.436,79.301 C114.796,79.29 115.158,79.311 115.518,79.343 C116.131,79.397 114.991,79.254 115.596,79.354 C115.831,79.393 116.063,79.447 116.294,79.504 C116.642,79.589 116.98,79.702 117.317,79.824 C117.89,80.033 116.854,79.611 117.413,79.861 C117.58,79.935 117.74,80.016 117.902,80.098 C118.229,80.266 118.543,80.457 118.852,80.655 C119.008,80.755 119.161,80.863 119.312,80.97 C119.524,81.128 119.515,81.118 119.282,80.939 C119.38,81.017 119.479,81.098 119.576,81.179 C120.178,81.679 120.724,82.243 121.234,82.834 C121.366,82.986 121.492,83.144 121.618,83.302 C121.284,82.884 121.701,83.424 121.738,83.477 C122.025,83.874 122.287,84.288 122.54,84.707 C122.99,85.457 123.376,86.242 123.724,87.044 C123.527,86.592 123.81,87.282 123.822,87.313 C123.904,87.527 123.979,87.742 124.056,87.958 C124.236,88.471 124.389,88.993 124.532,89.519 C124.787,90.449 124.97,91.398 125.113,92.352 C125.044,91.893 125.151,92.701 125.151,92.704 C125.179,92.954 125.2,93.203 125.22,93.453 C125.268,94.046 125.289,94.641 125.297,95.235 C125.311,96.252 125.254,97.269 125.151,98.281 C125.151,98.286 125.048,99.094 125.113,98.634 C125.08,98.877 125.038,99.119 124.997,99.36 C124.902,99.914 124.782,100.463 124.65,101.009 C124.432,101.914 124.148,102.801 123.822,103.673 C123.811,103.703 123.533,104.395 123.724,103.942 C123.637,104.148 123.544,104.349 123.451,104.552 C123.239,105.014 123.001,105.464 122.754,105.908 C122.547,106.278 122.322,106.639 122.09,106.994 C121.978,107.169 121.858,107.339 121.738,107.508 C121.702,107.562 121.289,108.108 121.618,107.684 C121.091,108.36 120.5,108.982 119.865,109.556 C119.724,109.684 119.577,109.806 119.429,109.928 C118.94,110.334 119.821,109.643 119.312,110.016 C119.013,110.235 118.7,110.432 118.381,110.622 C118.07,110.808 117.743,110.971 117.413,111.126 C116.858,111.385 117.887,110.943 117.317,111.162 C117.094,111.248 116.867,111.318 116.638,111.388 C116.296,111.492 115.947,111.567 115.596,111.632 C114.993,111.743 116.13,111.578 115.518,111.643 C115.339,111.663 115.159,111.671 114.979,111.68 C114.618,111.697 114.255,111.683 113.894,111.66 C113.773,111.651 113.166,111.566 113.813,111.661 C113.578,111.626 113.345,111.577 113.112,111.524 C112.764,111.446 112.423,111.339 112.085,111.223 C111.982,111.188 111.418,110.958 111.984,111.199 C111.818,111.128 111.655,111.048 111.494,110.969 C111.165,110.81 110.848,110.624 110.538,110.431 C110.38,110.333 110.226,110.228 110.073,110.124 C109.971,110.052 109.871,109.98 109.77,109.904 C110.001,110.087 110.012,110.094 109.804,109.928 C109.197,109.44 108.646,108.885 108.129,108.303 C107.997,108.153 107.869,107.997 107.742,107.842 C107.314,107.321 108.021,108.223 107.616,107.676 C107.326,107.284 107.06,106.875 106.803,106.46 C106.307,105.657 105.886,104.808 105.509,103.942 C105.706,104.393 105.423,103.704 105.411,103.673 C105.33,103.46 105.253,103.244 105.178,103.027 C104.998,102.515 104.845,101.993 104.701,101.467 C104.576,101.008 104.471,100.541 104.372,100.074 C104.323,99.837 104.279,99.598 104.236,99.36 C104.222,99.277 104.088,98.383 104.14,98.777 C103.997,97.688 103.941,96.589 103.936,95.493 C103.921,92.43 99.17,92.429 99.185,95.493" id="Fill-312" fill="#4C5159"></path>
            <path d="M121.648,96.159 C121.648,96.159 122.47,99.055 120.846,100.488 C115.726,105 115.888,111.598 115.888,111.598 L115.888,99.84 L117.551,97.98 L121.648,96.159" id="Fill-313" fill="#F1AE73"></path>
            <path d="M114.663,105.745 C114.533,104.262 114.733,103.252 115.194,101.847 C116.079,99.153 118.353,97.334 121.161,96.638 C122.648,96.27 122.017,93.979 120.529,94.348 C117.026,95.215 114.339,97.47 113.037,100.839 C112.458,102.342 112.146,104.13 112.287,105.745 C112.42,107.259 114.795,107.272 114.663,105.745" id="Fill-314" fill="#4C5159"></path>
            <path d="M14.738,75.179 L117.902,74.163 C117.902,74.163 138.161,26.773 110.188,19.59 C110.188,19.59 59.509,-18.168 16.008,19.526 C5.223,28.87 1.98,51.93 14.738,75.179" id="Fill-315" fill="#4C5159"></path>
            <path d="M29.064,95.493 C29.064,105.748 23.22,114.062 16.008,114.062 C8.797,114.062 2.952,105.748 2.952,95.493 C2.952,85.238 8.797,76.923 16.008,76.923 C23.22,76.923 29.064,85.238 29.064,95.493" id="Fill-316" fill="#F6C593"></path>
            <path d="M26.689,95.493 C26.671,99.278 25.857,102.915 24.039,106.094 C23.83,106.461 23.602,106.817 23.366,107.168 C23.252,107.34 23.131,107.508 23.009,107.676 C22.611,108.228 23.303,107.317 22.883,107.842 C22.351,108.509 21.752,109.12 21.112,109.682 C20.969,109.808 20.821,109.927 20.672,110.047 C21.121,109.687 20.627,110.07 20.551,110.124 C20.25,110.338 19.935,110.529 19.615,110.713 C19.299,110.894 18.972,111.051 18.64,111.199 C19.2,110.95 18.644,111.186 18.539,111.223 C18.316,111.304 18.086,111.372 17.857,111.438 C17.514,111.534 17.163,111.603 16.811,111.661 C17.453,111.556 16.855,111.648 16.731,111.66 C16.551,111.674 16.37,111.68 16.19,111.685 C15.828,111.696 15.467,111.674 15.106,111.643 C14.495,111.59 15.634,111.732 15.029,111.632 C14.794,111.593 14.562,111.538 14.331,111.483 C13.984,111.398 13.644,111.284 13.309,111.162 C12.734,110.953 13.771,111.375 13.211,111.126 C13.046,111.051 12.884,110.969 12.723,110.887 C12.396,110.72 12.083,110.529 11.774,110.331 C11.616,110.231 11.465,110.123 11.313,110.016 C11.101,109.859 11.111,109.868 11.344,110.047 C11.244,109.969 11.146,109.889 11.049,109.807 C10.447,109.307 9.901,108.742 9.391,108.152 C9.258,108 9.133,107.842 9.006,107.684 C9.341,108.103 8.925,107.562 8.887,107.508 C8.6,107.112 8.337,106.698 8.085,106.277 C7.634,105.529 7.25,104.743 6.901,103.942 C7.098,104.393 6.814,103.704 6.803,103.673 C6.721,103.46 6.645,103.244 6.569,103.027 C6.389,102.515 6.235,101.993 6.093,101.467 C5.839,100.537 5.656,99.588 5.512,98.634 C5.581,99.093 5.473,98.286 5.473,98.281 C5.445,98.033 5.425,97.783 5.405,97.533 C5.356,96.94 5.337,96.345 5.329,95.751 C5.313,94.733 5.371,93.716 5.473,92.704 C5.473,92.701 5.576,91.892 5.512,92.352 C5.546,92.109 5.587,91.867 5.628,91.626 C5.722,91.072 5.843,90.523 5.975,89.977 C6.193,89.073 6.477,88.185 6.803,87.313 C6.814,87.282 7.093,86.589 6.901,87.044 C6.988,86.839 7.081,86.637 7.173,86.434 C7.387,85.972 7.624,85.522 7.872,85.078 C8.077,84.707 8.302,84.347 8.534,83.991 C8.647,83.818 8.767,83.647 8.887,83.477 C8.924,83.424 9.337,82.879 9.006,83.302 C9.533,82.627 10.125,82.005 10.759,81.43 C10.902,81.301 11.049,81.18 11.195,81.058 C11.686,80.652 10.804,81.343 11.313,80.97 C11.612,80.751 11.925,80.553 12.243,80.363 C12.556,80.176 12.882,80.014 13.211,79.861 C13.767,79.601 12.738,80.043 13.309,79.824 C13.531,79.738 13.759,79.667 13.988,79.598 C14.328,79.494 14.678,79.419 15.029,79.354 C15.632,79.243 14.496,79.408 15.106,79.343 C15.286,79.323 15.466,79.315 15.646,79.306 C16.007,79.288 16.369,79.302 16.731,79.327 C16.853,79.336 17.458,79.419 16.811,79.324 C17.047,79.359 17.28,79.409 17.512,79.461 C17.86,79.539 18.203,79.647 18.539,79.763 C18.642,79.798 19.206,80.027 18.64,79.787 C18.807,79.858 18.969,79.937 19.132,80.016 C19.461,80.176 19.776,80.362 20.087,80.554 C20.246,80.652 20.398,80.757 20.551,80.862 C20.653,80.934 20.755,81.006 20.855,81.081 C20.624,80.899 20.613,80.892 20.82,81.058 C21.428,81.546 21.979,82.101 22.495,82.683 C22.628,82.833 22.755,82.988 22.883,83.144 C23.311,83.664 22.604,82.762 23.009,83.309 C23.299,83.702 23.565,84.111 23.821,84.525 C24.317,85.329 24.739,86.178 25.115,87.044 C24.919,86.592 25.202,87.282 25.214,87.313 C25.296,87.527 25.371,87.742 25.447,87.958 C25.627,88.471 25.781,88.993 25.923,89.519 C26.05,89.978 26.155,90.445 26.252,90.911 C26.303,91.148 26.346,91.387 26.389,91.626 C26.404,91.709 26.537,92.603 26.486,92.21 C26.628,93.298 26.685,94.397 26.689,95.493 C26.704,98.556 31.456,98.557 31.44,95.493 C31.405,88.076 28.419,79.13 21.204,75.758 C17.818,74.177 14.202,74.246 10.814,75.758 C7.583,77.2 5.08,80.184 3.459,83.251 C-0.469,90.692 -0.369,100.286 3.459,107.736 C5.059,110.846 7.608,113.73 10.814,115.227 C14.197,116.809 17.815,116.739 21.204,115.227 C24.433,113.785 26.937,110.803 28.556,107.736 C30.537,103.986 31.419,99.713 31.44,95.493 C31.456,92.429 26.704,92.43 26.689,95.493" id="Fill-317" fill="#4C5159"></path>
            <path d="M17.241,48.296 L17.241,123.658 C17.241,150.567 39.056,172.381 65.965,172.381 C92.875,172.381 114.689,150.567 114.689,123.658 L114.689,48.296 L17.241,48.296" id="Fill-318" fill="#F6C593"></path>
            <path d="M14.866,48.296 C14.866,53.105 14.866,57.914 14.866,62.722 C14.866,72.733 14.866,82.742 14.866,92.752 C14.866,101.337 14.866,109.922 14.866,118.507 C14.866,120.195 14.866,121.884 14.866,123.572 C14.866,129.935 16.029,136.308 18.36,142.231 C23.715,155.83 34.7,166.528 48.377,171.64 C62.29,176.84 78.255,175.401 91.154,168.127 C103.698,161.054 112.874,148.573 115.907,134.504 C117.305,128.022 117.064,121.444 117.064,114.866 C117.064,105.5 117.064,96.134 117.064,86.768 C117.064,77.237 117.064,67.706 117.064,58.174 C117.064,54.881 117.064,51.589 117.064,48.296 C117.064,47.001 115.984,45.921 114.689,45.921 C110.783,45.921 106.875,45.921 102.969,45.921 C93.884,45.921 84.8,45.921 75.714,45.921 C65.404,45.921 55.094,45.921 44.784,45.921 C37.201,45.921 29.618,45.921 22.035,45.921 C20.437,45.921 18.839,45.921 17.241,45.921 C14.178,45.921 14.178,50.671 17.241,50.671 C21.148,50.671 25.055,50.671 28.961,50.671 C38.046,50.671 47.131,50.671 56.216,50.671 C66.526,50.671 76.836,50.671 87.147,50.671 C94.729,50.671 102.313,50.671 109.895,50.671 C111.494,50.671 113.091,50.671 114.689,50.671 C113.897,49.879 113.106,49.088 112.313,48.296 C112.313,53.105 112.313,57.914 112.313,62.722 C112.313,72.733 112.313,82.742 112.313,92.752 C112.313,101.337 112.313,109.922 112.313,118.507 C112.313,120.195 112.313,121.884 112.313,123.572 C112.313,124.416 112.293,125.259 112.254,126.103 C112.212,126.981 112.141,127.859 112.052,128.734 C112.008,129.169 111.956,129.602 111.9,130.035 C111.971,129.488 111.873,130.204 111.864,130.264 C111.823,130.551 111.777,130.836 111.729,131.121 C111.151,134.629 110.162,138.065 108.832,141.359 C108.809,141.415 108.539,142.06 108.747,141.569 C108.666,141.763 108.581,141.955 108.496,142.147 C108.327,142.532 108.151,142.913 107.972,143.293 C107.585,144.113 107.171,144.921 106.739,145.718 C105.912,147.245 104.994,148.721 104.009,150.151 C103.773,150.493 103.53,150.831 103.286,151.167 C103.164,151.336 103.04,151.502 102.916,151.668 C102.881,151.715 102.461,152.263 102.783,151.847 C102.233,152.558 101.659,153.25 101.071,153.93 C99.94,155.235 98.733,156.475 97.471,157.654 C96.864,158.22 96.24,158.767 95.607,159.302 C95.29,159.57 94.968,159.831 94.644,160.09 C94.482,160.219 94.318,160.347 94.156,160.475 C94.566,160.154 93.881,160.678 93.81,160.732 C92.42,161.77 90.969,162.724 89.479,163.608 C87.979,164.496 86.425,165.295 84.839,166.016 C84.648,166.104 84.456,166.189 84.264,166.273 C84.208,166.297 83.566,166.569 84.057,166.363 C83.668,166.527 83.276,166.682 82.883,166.834 C82.028,167.166 81.163,167.469 80.29,167.752 C78.597,168.301 76.871,168.747 75.127,169.106 C74.28,169.28 73.427,169.427 72.573,169.557 C72.511,169.566 71.797,169.664 72.343,169.592 C72.127,169.621 71.911,169.647 71.694,169.673 C71.187,169.733 70.678,169.782 70.17,169.827 C68.327,169.988 66.477,170.033 64.628,169.988 C63.744,169.966 62.862,169.914 61.98,169.845 C61.543,169.811 61.106,169.767 60.67,169.721 C60.454,169.698 60.237,169.673 60.02,169.647 C59.876,169.629 59.731,169.611 59.587,169.592 C59.86,169.629 59.854,169.628 59.573,169.588 C56.044,169.087 52.576,168.172 49.243,166.91 C48.85,166.761 48.458,166.604 48.067,166.443 C47.421,166.18 48.502,166.632 47.859,166.357 C47.667,166.274 47.475,166.189 47.283,166.103 C46.453,165.734 45.636,165.336 44.828,164.921 C43.282,164.126 41.784,163.238 40.333,162.283 C39.638,161.827 38.958,161.348 38.288,160.856 C38.12,160.733 37.955,160.608 37.789,160.482 C37.238,160.068 38.155,160.772 37.612,160.347 C37.231,160.05 36.855,159.743 36.482,159.435 C35.152,158.332 33.889,157.151 32.683,155.914 C31.477,154.677 30.343,153.368 29.274,152.011 C28.849,151.47 29.557,152.383 29.14,151.834 C29.014,151.669 28.891,151.502 28.767,151.335 C28.52,151 28.279,150.662 28.04,150.321 C27.523,149.584 27.03,148.828 26.554,148.063 C25.634,146.583 24.804,145.05 24.048,143.482 C23.866,143.103 23.691,142.722 23.52,142.34 C23.433,142.148 23.35,141.955 23.266,141.762 C22.987,141.122 23.446,142.201 23.178,141.554 C22.829,140.71 22.508,139.852 22.206,138.988 C21.621,137.311 21.14,135.6 20.742,133.87 C20.55,133.029 20.385,132.184 20.237,131.335 C20.164,130.908 20.097,130.479 20.034,130.05 C19.93,129.336 20.095,130.537 20.002,129.818 C19.965,129.53 19.933,129.241 19.9,128.953 C19.619,126.397 19.617,123.841 19.617,121.277 C19.617,118.244 19.617,115.211 19.617,112.177 C19.617,102.442 19.617,92.707 19.617,82.972 C19.617,73.865 19.617,64.759 19.617,55.653 C19.617,53.201 19.617,50.749 19.617,48.296 C19.617,45.233 14.866,45.233 14.866,48.296" id="Fill-319" fill="#4C5159"></path>
            <path d="M8.977,96.159 C8.977,96.159 8.155,99.055 9.779,100.488 C14.899,105 14.737,111.598 14.737,111.598 L14.737,99.84 L13.074,97.98 L8.977,96.159" id="Fill-320" fill="#F1AE73"></path>
            <path d="M18.337,105.745 C18.48,104.118 18.15,102.358 17.587,100.839 C16.335,97.465 13.563,95.206 10.095,94.348 C8.607,93.979 7.978,96.27 9.463,96.638 C12.3,97.34 14.51,99.155 15.431,101.847 C15.906,103.237 16.092,104.272 15.962,105.745 C15.829,107.272 18.205,107.259 18.337,105.745" id="Fill-321" fill="#4C5159"></path>
            <path d="M112.245,78.42 C112.245,78.42 96.924,67.858 95.462,57.797 C95.462,57.797 47.708,68.999 27.673,59.443 C27.673,59.443 23.252,58.348 23.554,53.111 C24.309,39.991 111.783,48.925 111.783,48.925 C111.783,48.925 112.245,58.808 112.245,78.42" id="Fill-322" fill="#F1AE73"></path>
            <path d="M116.938,76.923 C116.938,76.923 98.583,62.415 98.196,52.939 C98.196,52.939 46.356,64.737 25.466,54.68 C25.466,54.68 24.146,70.48 13.771,74.981 C13.771,74.981 9.646,59.902 17.169,48.296 C24.693,36.69 114.617,43.073 114.617,43.073 C114.617,43.073 122.527,63.964 116.938,76.923" id="Fill-323" fill="#4C5159"></path>
            <path d="M30.353,81.623 C31.101,81.189 31.895,80.825 32.685,80.478 C33.365,80.179 32.028,80.75 32.523,80.544 C32.739,80.453 32.957,80.367 33.176,80.281 C33.659,80.09 34.147,79.913 34.638,79.745 C35.775,79.352 36.935,79.027 38.108,78.758 C38.69,78.625 39.277,78.513 39.864,78.413 C40,78.392 40.133,78.371 40.269,78.35 C40.997,78.236 39.508,78.443 40.247,78.35 C40.595,78.307 40.945,78.273 41.294,78.243 C42.752,78.115 44.221,78.127 45.678,78.262 C45.828,78.277 45.978,78.295 46.127,78.311 C45.23,78.21 46.017,78.299 46.19,78.325 C46.57,78.385 46.947,78.462 47.323,78.542 C48.095,78.708 48.853,78.931 49.599,79.187 C49.776,79.247 50.963,79.729 50.2,79.401 C50.581,79.565 50.953,79.748 51.324,79.937 C52.093,80.328 52.826,80.787 53.537,81.277 C54.96,82.257 57.047,81.545 57.87,80.14 C58.792,78.567 58.152,76.785 56.734,75.807 C50.924,71.8 43.769,71.15 36.998,72.527 C33.628,73.212 30.142,74.42 27.156,76.153 C25.666,77.019 25.149,79.001 26.02,80.487 C26.894,81.978 28.859,82.49 30.353,81.623" id="Fill-324" fill="#4C5159"></path>
            <path d="M100.174,76.153 C97.234,74.448 93.831,73.282 90.525,72.567 C83.726,71.094 76.433,71.78 70.597,75.807 C69.178,76.785 68.538,78.567 69.46,80.14 C70.283,81.545 72.371,82.257 73.793,81.277 C74.435,80.833 75.097,80.426 75.782,80.055 C76.149,79.856 76.526,79.675 76.904,79.501 C77.231,79.358 77.206,79.366 76.826,79.529 C77.05,79.436 77.277,79.351 77.505,79.268 C78.248,78.992 79.01,78.777 79.778,78.593 C80.155,78.505 80.534,78.431 80.914,78.363 C81.065,78.337 81.216,78.313 81.367,78.29 C82.152,78.167 80.642,78.376 81.427,78.286 C82.815,78.128 84.218,78.123 85.609,78.211 C85.963,78.233 86.315,78.267 86.668,78.303 C86.806,78.318 86.945,78.334 87.083,78.35 C87.823,78.438 86.331,78.242 87.062,78.35 C87.722,78.448 88.378,78.574 89.031,78.716 C90.162,78.961 91.277,79.277 92.376,79.638 C92.881,79.804 93.381,79.985 93.877,80.173 C94.104,80.259 94.328,80.349 94.552,80.44 C94.638,80.474 94.723,80.509 94.806,80.544 C95.323,80.757 94.032,80.214 94.531,80.429 C95.361,80.786 96.193,81.169 96.977,81.623 C98.471,82.49 100.437,81.978 101.31,80.487 C102.18,79.001 101.664,77.019 100.174,76.153" id="Fill-325" fill="#4C5159"></path>
            <path d="M46.86,95.348 C46.86,99.785 44.667,103.383 41.961,103.383 C39.254,103.383 37.061,99.785 37.061,95.348 C37.061,90.91 39.254,87.312 41.961,87.312 C44.667,87.312 46.86,90.91 46.86,95.348" id="Fill-326" fill="#4C5159"></path>
            <path d="M108.418,73.081 L108.418,125.655 C108.418,125.655 105.832,163.237 64.858,169.993 C64.858,169.993 77.345,170.373 89.475,163.67 C100.382,157.643 111.983,144.078 112.498,125.655 L112.498,75.141 L108.418,73.081" id="Fill-327" fill="#F1AE73"></path>
            <path d="M90.284,95.348 C90.284,99.785 88.091,103.383 85.385,103.383 C82.679,103.383 80.486,99.785 80.486,95.348 C80.486,90.91 82.679,87.312 85.385,87.312 C88.091,87.312 90.284,90.91 90.284,95.348" id="Fill-328" fill="#4C5159"></path>
            <path d="M58.364,119.6 C59.352,122.086 62.061,123.469 64.578,123.82 C66.817,124.132 69.023,123.836 70.874,122.465 C71.795,121.784 72.669,120.902 73.22,119.884 C73.946,118.537 71.896,117.337 71.168,118.686 C70.8,119.368 70.465,119.712 69.816,120.291 C68.492,121.468 66.83,121.676 65.126,121.515 C63.764,121.385 62.369,120.811 61.437,119.934 C61.276,119.782 61.128,119.618 60.986,119.449 C60.776,119.199 61.122,119.637 60.946,119.396 C60.886,119.312 60.829,119.225 60.774,119.138 C60.681,118.99 60.425,118.392 60.654,118.97 C60.417,118.368 59.87,117.954 59.194,118.14 C58.622,118.298 58.125,118.998 58.364,119.6" id="Fill-329" fill="#4C5159"></path>
            <path d="M116.74,76.179 C119.447,70.931 121.581,65.295 123.297,59.653 C124.789,54.749 125.876,49.704 126.303,44.589 C126.708,39.722 126.417,34.579 124.63,29.988 C122.721,25.083 119.211,21.105 114.466,18.771 C113.748,18.417 113.006,18.109 112.262,17.814 C111.948,17.69 111.63,17.575 111.312,17.464 C110.943,17.336 110.892,17.186 111.379,17.533 C111.286,17.467 111.191,17.402 111.098,17.337 C110.536,16.948 109.966,16.574 109.392,16.205 C103.171,12.214 96.456,8.961 89.555,6.335 C79.088,2.35 67.81,0.015 56.579,0.47 C50.198,0.728 43.833,1.91 37.828,4.094 C30.935,6.599 24.649,10.35 18.995,15.002 C15.871,17.572 12.996,20.436 10.334,23.481 C9.455,24.485 8.394,25.457 7.859,26.702 C6.779,29.225 6.245,31.862 5.898,34.579 C5.235,39.769 5.63,45.041 6.408,50.195 C7.665,58.537 10.288,66.646 13.477,74.434 C13.556,74.628 13.637,74.822 13.717,75.016 C14.213,76.212 15.273,77.051 16.64,76.676 C17.772,76.364 18.795,74.952 18.299,73.753 C15.044,65.899 12.387,57.739 11.049,49.325 C10.988,48.937 10.93,48.548 10.874,48.158 C10.86,48.057 10.774,47.406 10.856,48.029 C10.832,47.843 10.809,47.655 10.785,47.469 C10.69,46.693 10.609,45.913 10.541,45.134 C10.421,43.782 10.351,42.426 10.325,41.069 C10.285,38.902 10.381,36.729 10.649,34.579 C10.723,33.989 10.558,35.207 10.665,34.472 C10.694,34.271 10.726,34.071 10.758,33.871 C10.824,33.471 10.897,33.072 10.979,32.675 C11.108,32.032 11.26,31.395 11.436,30.765 C11.566,30.29 11.714,29.822 11.879,29.36 C11.939,29.193 12.001,29.027 12.066,28.861 C12.322,28.212 11.85,29.355 12.008,28.99 C12.068,28.853 12.132,28.717 12.202,28.584 C12.206,28.574 12.21,28.566 12.215,28.556 C11.83,29.274 12.376,28.388 12.514,28.221 C13.229,27.364 13.963,26.524 14.71,25.695 C17.383,22.733 20.294,19.983 23.419,17.501 C23.437,17.485 24.024,17.026 23.648,17.317 C23.827,17.18 24.005,17.043 24.185,16.908 C24.539,16.64 24.898,16.378 25.257,16.117 C26.024,15.562 26.806,15.028 27.596,14.508 C29.068,13.541 30.585,12.645 32.135,11.81 C33.627,11.006 35.158,10.275 36.714,9.603 C37.328,9.339 36.267,9.789 36.882,9.534 C37.065,9.458 37.25,9.383 37.434,9.309 C37.8,9.162 38.168,9.02 38.538,8.88 C39.329,8.58 40.128,8.301 40.932,8.036 C43.928,7.048 47.009,6.325 50.125,5.832 C50.49,5.774 50.855,5.721 51.223,5.67 C50.585,5.759 51.208,5.673 51.321,5.658 C51.503,5.636 51.685,5.614 51.868,5.592 C52.654,5.499 53.441,5.424 54.231,5.361 C55.728,5.241 57.23,5.181 58.732,5.167 C61.663,5.135 64.594,5.308 67.505,5.639 C67.848,5.677 68.19,5.72 68.533,5.763 C68.659,5.779 69.252,5.861 68.582,5.77 C68.751,5.793 68.92,5.817 69.09,5.842 C69.821,5.945 70.549,6.064 71.276,6.188 C72.651,6.423 74.019,6.699 75.381,7.005 C80.434,8.134 85.379,9.727 90.182,11.654 C90.706,11.864 91.228,12.08 91.748,12.298 C91.013,11.991 91.9,12.365 92.07,12.438 C92.362,12.564 92.651,12.691 92.942,12.818 C93.936,13.257 94.922,13.712 95.902,14.179 C97.639,15.007 99.352,15.883 101.042,16.802 C103.312,18.035 105.542,19.347 107.7,20.766 C108.112,21.036 108.522,21.312 108.925,21.596 C109.531,22.024 110.46,22.182 111.154,22.456 C111.271,22.503 111.8,22.731 111.192,22.47 C111.341,22.533 111.488,22.601 111.635,22.667 C111.925,22.799 112.208,22.941 112.49,23.085 C113.08,23.385 113.651,23.722 114.208,24.08 C114.457,24.24 114.699,24.409 114.939,24.581 C115.058,24.665 115.174,24.754 115.291,24.84 C114.739,24.426 115.152,24.735 115.264,24.825 C115.741,25.208 116.194,25.622 116.629,26.053 C117.02,26.442 117.389,26.854 117.741,27.278 C117.828,27.383 117.913,27.49 117.998,27.597 C117.557,27.04 117.866,27.43 117.956,27.55 C118.145,27.806 118.323,28.067 118.497,28.331 C118.795,28.782 119.068,29.25 119.325,29.726 C119.453,29.964 119.573,30.207 119.692,30.449 C119.781,30.634 120.209,31.619 119.896,30.873 C120.339,31.927 120.683,33.022 120.959,34.133 C121.094,34.675 121.207,35.224 121.306,35.774 C121.356,36.053 121.4,36.332 121.442,36.611 C121.466,36.767 121.533,37.286 121.436,36.543 C121.46,36.731 121.482,36.92 121.503,37.11 C121.637,38.312 121.695,39.521 121.705,40.73 C121.714,41.968 121.66,43.206 121.564,44.441 C121.518,45.04 121.458,45.638 121.391,46.236 C121.356,46.536 121.32,46.835 121.28,47.134 C121.373,46.412 121.305,46.953 121.284,47.102 C121.256,47.302 121.227,47.501 121.196,47.699 C120.473,52.504 119.182,57.219 117.608,61.811 C117.032,63.497 116.408,65.167 115.749,66.824 C115.611,67.165 115.473,67.507 115.334,67.848 C115.266,68.011 115.198,68.174 115.131,68.339 C115.05,68.531 114.74,69.267 115.093,68.429 C114.831,69.052 114.561,69.671 114.287,70.288 C113.763,71.463 113.228,72.638 112.638,73.782 C112.045,74.933 112.33,76.352 113.49,77.031 C114.563,77.66 116.147,77.33 116.74,76.179" id="Fill-330" fill="#4C5159"></path>
            <path d="M65.728,129.285 C65.728,129.285 31.951,126.519 36.137,147.362 C36.137,147.362 39.107,148.202 46.233,148.202 C52.25,148.202 56.434,147.362 56.434,147.362 C56.434,147.362 56.4,138.073 65.728,137.027 C75.056,138.073 75.023,147.362 75.023,147.362 C75.023,147.362 79.206,148.202 85.224,148.202 C92.349,148.202 95.32,147.362 95.32,147.362 C99.503,126.519 65.728,129.285 65.728,129.285" id="Fill-331" fill="#4C5159"></path>
        </g>
    </g>
</svg>