<?xml version="1.0" encoding="UTF-8"?>
<svg width="130px" height="243px" viewBox="0 0 130 243" version="1.1" xmlns="http://www.w3.org/2000/svg" xmlns:xlink="http://www.w3.org/1999/xlink">
    <!-- Generator: Sketch 48.2 (47327) - http://www.bohemiancoding.com/sketch -->
    <title>male2</title>
    <desc>Created with Sketch.</desc>
    <defs></defs>
    <g id="Page-1" stroke="none" stroke-width="1" fill="none" fill-rule="evenodd">
        <g id="male2">
            <path d="M80.134,194.924 C80.134,194.924 101.097,204.25 106.081,220.069 C107.678,225.143 104.766,232.823 104.723,237.203 C104.723,237.203 119.028,235.264 121.505,230.552 C121.505,230.552 121.13,203.95 108.066,197.537 C95.002,191.124 81.464,185.015 81.464,185.015 L80.134,194.924" id="Fill-28" fill="#CA6335"></path>
            <path d="M49.398,194.924 C49.398,194.924 28.436,204.25 23.452,220.069 C21.854,225.143 24.766,232.823 24.809,237.203 C24.809,237.203 10.504,235.264 8.027,230.552 C8.027,230.552 8.402,203.95 21.465,197.537 C34.529,191.124 48.068,185.015 48.068,185.015 L49.398,194.924" id="Fill-29" fill="#CA6335"></path>
            <path d="M46.194,187.21 C46.194,187.21 45.752,201.39 66.43,201.39 C85.868,201.39 84.391,186.195 84.391,186.195 L79.901,185.162 L51.326,185.015 L46.194,187.21" id="Fill-30" fill="#CA6335"></path>
            <path d="M67.043,242.364 C81.551,242.357 96.353,241.521 110.49,238.033 C113.615,237.262 116.722,236.344 119.702,235.12 C120.912,234.622 123.071,234.011 123.804,232.758 C124.4,231.742 124.13,230.017 124.103,228.9 C124.046,226.622 123.913,224.345 123.707,222.075 C123.18,216.29 122.332,210.214 119.682,204.97 C118.814,203.256 117.587,201.481 115.943,200.433 C114.938,199.793 113.928,199.161 112.915,198.533 C108.4,195.732 103.834,193.011 99.209,190.399 C93.769,187.326 88.24,184.38 82.476,181.959 C81.345,181.484 80.201,181.041 79.039,180.65 C78.17,180.356 77.26,180.02 76.335,180.02 C74.143,180.02 71.952,180.02 69.761,180.02 C66.57,180.02 63.38,180.02 60.191,180.02 C58.26,180.02 56.329,180.02 54.399,180.02 C53.368,180.02 52.221,180.533 51.261,180.873 C49.925,181.345 48.617,181.892 47.314,182.449 C41.668,184.864 36.252,187.835 30.917,190.865 C26.417,193.421 21.975,196.081 17.58,198.815 C16.686,199.37 15.794,199.929 14.908,200.495 C13.094,201.653 11.83,203.735 10.941,205.642 C8.45,210.985 7.662,217.056 7.172,222.875 C6.929,225.756 6.777,228.665 6.819,231.56 C6.83,232.333 7.249,233.27 7.995,233.61 C12.741,235.772 17.989,237.001 23.057,238.096 C37.958,241.316 53.333,242.357 68.547,242.364 C68.547,240.781 68.547,239.197 68.547,237.614 C68.046,237.614 67.545,237.614 67.043,237.614 C63.979,237.614 63.979,242.364 67.043,242.364 C67.545,242.364 68.046,242.364 68.547,242.364 C71.611,242.364 71.611,237.615 68.547,237.614 C59.617,237.61 50.684,237.216 41.801,236.273 C40.917,236.178 40.033,236.077 39.15,235.972 C38.722,235.922 38.295,235.868 37.867,235.815 C37.657,235.788 37.449,235.761 37.238,235.734 C37.138,235.72 36.251,235.603 36.836,235.682 C35.211,235.463 33.589,235.22 31.97,234.957 C29.211,234.507 26.464,233.987 23.733,233.388 C20.208,232.614 16.705,231.706 13.28,230.563 C12.418,230.275 11.563,229.97 10.717,229.638 C10.42,229.522 9.535,229.147 10.615,229.605 C10.541,229.573 10.467,229.542 10.393,229.508 C10.786,230.192 11.178,230.876 11.569,231.56 C11.523,228.29 11.715,225.004 12.023,221.751 C12.085,221.086 12.157,220.421 12.235,219.757 C12.275,219.417 12.318,219.077 12.363,218.737 C12.275,219.405 12.353,218.808 12.37,218.683 C12.402,218.453 12.437,218.224 12.471,217.994 C12.685,216.555 12.949,215.122 13.27,213.702 C13.577,212.334 13.951,210.98 14.409,209.653 C14.514,209.351 14.625,209.051 14.741,208.753 C14.797,208.606 14.856,208.461 14.915,208.316 C14.659,208.945 14.863,208.442 14.918,208.317 C15.176,207.731 15.466,207.16 15.785,206.606 C15.923,206.364 16.072,206.128 16.226,205.894 C16.33,205.736 16.897,204.983 16.404,205.615 C16.741,205.184 17.119,204.787 17.53,204.425 C17.886,204.114 16.963,204.816 17.339,204.575 C17.466,204.495 17.593,204.414 17.72,204.334 C18.949,203.554 20.186,202.785 21.425,202.021 C26.157,199.103 30.943,196.271 35.802,193.568 C38.568,192.029 41.361,190.537 44.195,189.125 C45.517,188.467 46.851,187.83 48.194,187.22 C48.796,186.948 49.402,186.683 50.009,186.424 C49.348,186.705 50.298,186.307 50.46,186.241 C50.787,186.109 51.115,185.98 51.444,185.854 C52.492,185.449 53.555,185.082 54.637,184.779 C55.255,184.606 53.889,184.771 54.642,184.771 C55.009,184.771 55.378,184.771 55.747,184.771 C58.145,184.771 60.544,184.771 62.942,184.771 C66.186,184.771 69.427,184.771 72.669,184.771 C73.747,184.771 74.823,184.771 75.9,184.771 C76.122,184.771 76.344,184.771 76.567,184.771 C76.074,184.771 75.954,184.679 76.428,184.812 C76.711,184.891 76.993,184.977 77.273,185.066 C78.411,185.425 79.527,185.851 80.632,186.299 C80.777,186.359 80.922,186.418 81.067,186.479 C81.582,186.693 80.568,186.266 81.086,186.487 C81.388,186.615 81.688,186.746 81.987,186.878 C82.665,187.175 83.336,187.484 84.005,187.797 C93.816,192.382 103.18,198.017 112.343,203.775 C112.727,204.017 113.112,204.258 113.495,204.503 C113.563,204.546 113.632,204.589 113.699,204.634 C113.44,204.467 113.166,204.204 113.51,204.506 C113.728,204.698 113.931,204.908 114.127,205.122 C114.256,205.262 114.815,205.977 114.334,205.343 C114.498,205.559 114.65,205.783 114.798,206.009 C115.139,206.529 115.436,207.077 115.711,207.633 C115.845,207.904 115.97,208.18 116.091,208.456 C116.312,208.957 115.883,207.949 116.092,208.461 C116.151,208.606 116.208,208.753 116.265,208.901 C116.518,209.558 116.738,210.229 116.945,210.903 C117.362,212.269 117.688,213.663 117.969,215.064 C118.106,215.75 118.229,216.441 118.342,217.131 C118.399,217.476 118.452,217.821 118.503,218.167 C118.529,218.338 118.553,218.511 118.578,218.683 C118.594,218.798 118.61,218.912 118.625,219.026 C118.579,218.68 118.574,218.641 118.608,218.907 C118.943,221.481 119.148,224.071 119.271,226.663 C119.348,228.292 119.401,229.928 119.378,231.56 C119.771,230.876 120.163,230.192 120.555,229.508 C120.333,229.644 120.098,229.761 119.867,229.878 C119.573,230.026 119.276,230.165 118.977,230.301 C118.79,230.386 118.601,230.469 118.412,230.55 C117.895,230.774 118.792,230.391 118.608,230.468 C118.473,230.525 118.339,230.58 118.204,230.634 C115.131,231.881 111.924,232.8 108.705,233.58 C106.298,234.163 103.87,234.651 101.432,235.076 C99.983,235.329 98.528,235.556 97.072,235.765 C96.878,235.792 96.685,235.818 96.492,235.846 C96.4,235.858 95.741,235.948 96.337,235.867 C95.936,235.922 95.534,235.973 95.132,236.024 C94.226,236.139 93.318,236.244 92.41,236.344 C83.99,237.273 75.51,237.61 67.043,237.614 C63.98,237.616 63.979,242.366 67.043,242.364" id="Fill-31" fill="#4C5159"></path>
            <path d="M101.209,95.894 C101.209,106.15 107.054,114.464 114.264,114.464 C121.476,114.464 127.322,106.15 127.322,95.894 C127.322,85.639 121.476,77.326 114.264,77.326 C107.054,77.326 101.209,85.639 101.209,95.894" id="Fill-32" fill="#F4E0CD"></path>
            <path d="M98.833,95.894 C98.869,103.312 101.854,112.258 109.07,115.63 C112.455,117.21 116.072,117.141 119.459,115.63 C122.69,114.188 125.194,111.205 126.813,108.137 C130.743,100.696 130.642,91.102 126.813,83.651 C125.214,80.542 122.665,77.657 119.459,76.16 C116.076,74.579 112.458,74.649 109.07,76.16 C105.839,77.602 103.336,80.585 101.717,83.651 C99.737,87.401 98.853,91.675 98.833,95.894 C98.818,98.959 103.57,98.957 103.584,95.894 C103.602,92.109 104.417,88.473 106.235,85.294 C106.443,84.927 106.672,84.571 106.907,84.22 C107.021,84.047 107.143,83.88 107.264,83.712 C107.662,83.159 106.969,84.071 107.391,83.546 C107.922,82.879 108.521,82.268 109.161,81.705 C109.304,81.579 109.452,81.46 109.6,81.341 C109.153,81.701 109.646,81.318 109.722,81.264 C110.023,81.05 110.338,80.858 110.659,80.675 C110.973,80.493 111.301,80.337 111.632,80.189 C111.074,80.438 111.629,80.203 111.733,80.164 C111.957,80.083 112.187,80.016 112.415,79.951 C112.759,79.854 113.109,79.785 113.462,79.727 C112.82,79.833 113.417,79.74 113.543,79.729 C113.722,79.713 113.903,79.708 114.083,79.702 C114.444,79.692 114.807,79.713 115.166,79.744 C115.779,79.797 114.64,79.656 115.244,79.756 C115.479,79.795 115.711,79.849 115.942,79.906 C116.289,79.99 116.629,80.104 116.964,80.226 C117.538,80.435 116.502,80.012 117.062,80.262 C117.228,80.336 117.39,80.418 117.55,80.501 C117.877,80.667 118.191,80.859 118.5,81.056 C118.656,81.156 118.809,81.264 118.96,81.372 C119.172,81.529 119.163,81.52 118.93,81.341 C119.028,81.42 119.127,81.5 119.224,81.581 C119.826,82.08 120.372,82.645 120.882,83.235 C121.014,83.389 121.14,83.546 121.267,83.704 C120.932,83.285 121.349,83.825 121.387,83.879 C121.673,84.276 121.935,84.69 122.188,85.109 C122.64,85.858 123.024,86.645 123.373,87.446 C123.176,86.994 123.458,87.684 123.47,87.715 C123.552,87.928 123.628,88.144 123.704,88.36 C123.884,88.873 124.037,89.395 124.181,89.92 C124.435,90.851 124.618,91.8 124.762,92.753 C124.693,92.295 124.799,93.102 124.8,93.106 C124.827,93.355 124.848,93.605 124.868,93.855 C124.916,94.447 124.937,95.042 124.945,95.636 C124.959,96.654 124.902,97.672 124.8,98.684 C124.799,98.687 124.697,99.496 124.762,99.036 C124.727,99.278 124.687,99.52 124.646,99.762 C124.551,100.316 124.43,100.864 124.299,101.411 C124.08,102.315 123.796,103.203 123.47,104.074 C123.459,104.105 123.18,104.797 123.373,104.344 C123.285,104.549 123.192,104.751 123.1,104.953 C122.887,105.415 122.65,105.865 122.402,106.31 C122.195,106.681 121.97,107.04 121.74,107.396 C121.626,107.569 121.506,107.74 121.387,107.911 C121.35,107.964 120.937,108.509 121.267,108.086 C120.739,108.761 120.147,109.383 119.513,109.957 C119.372,110.086 119.225,110.208 119.078,110.33 C118.588,110.736 119.469,110.045 118.96,110.417 C118.662,110.637 118.348,110.835 118.029,111.024 C117.718,111.211 117.392,111.373 117.062,111.527 C116.506,111.787 117.535,111.344 116.964,111.563 C116.742,111.649 116.514,111.721 116.286,111.79 C115.945,111.893 115.595,111.968 115.244,112.034 C114.641,112.145 115.778,111.98 115.166,112.045 C114.987,112.065 114.807,112.073 114.628,112.082 C114.266,112.1 113.903,112.086 113.543,112.061 C113.42,112.052 112.815,111.968 113.462,112.063 C113.227,112.029 112.993,111.979 112.762,111.927 C112.412,111.848 112.071,111.741 111.733,111.625 C111.631,111.589 111.067,111.36 111.632,111.601 C111.466,111.53 111.304,111.45 111.141,111.371 C110.813,111.211 110.497,111.025 110.185,110.834 C110.028,110.736 109.875,110.631 109.722,110.526 C109.619,110.454 109.519,110.381 109.418,110.307 C109.649,110.489 109.661,110.496 109.453,110.33 C108.846,109.842 108.295,109.287 107.778,108.705 C107.646,108.555 107.517,108.399 107.391,108.244 C106.962,107.723 107.669,108.625 107.264,108.078 C106.975,107.686 106.708,107.277 106.452,106.862 C105.955,106.059 105.534,105.21 105.159,104.344 C105.354,104.795 105.071,104.105 105.06,104.074 C104.978,103.861 104.901,103.645 104.826,103.43 C104.646,102.916 104.493,102.394 104.349,101.869 C104.224,101.409 104.119,100.943 104.02,100.476 C103.971,100.239 103.928,100 103.885,99.762 C103.87,99.679 103.736,98.784 103.788,99.178 C103.646,98.089 103.589,96.991 103.584,95.894 C103.57,92.832 98.818,92.83 98.833,95.894" id="Fill-33" fill="#4C5159"></path>
            <path d="M121.296,96.56 C121.296,96.56 122.118,99.457 120.494,100.889 C115.374,105.402 115.536,111.999 115.536,111.999 L115.536,100.242 L117.2,98.381 L121.296,96.56" id="Fill-34" fill="#E7CEBB"></path>
            <path d="M114.311,106.147 C114.181,104.664 114.381,103.652 114.842,102.25 C115.727,99.555 118,97.735 120.81,97.04 C122.296,96.672 121.666,94.381 120.178,94.749 C116.674,95.617 113.988,97.871 112.686,101.242 C112.106,102.743 111.794,104.53 111.936,106.147 C112.068,107.66 114.444,107.673 114.311,106.147" id="Fill-35" fill="#4C5159"></path>
            <path d="M54.44,171.153 L54.44,184.532 C54.44,190.702 59.442,195.705 65.613,195.705 C71.785,195.705 76.787,190.702 76.787,184.532 L76.787,171.153 L54.44,171.153" id="Fill-36" fill="#F4E0CD"></path>
            <g id="Group-40" transform="translate(6.000000, 3.000000)" fill="#4C5159">
                <path d="M46.064,168.153 C46.064,172.094 46.064,176.034 46.064,179.974 C46.064,182.458 46.271,184.814 47.288,187.128 C48.865,190.712 52.061,193.378 55.773,194.527 C59.574,195.704 63.942,194.985 67.209,192.744 C70.642,190.39 72.666,186.738 73.108,182.633 C73.284,181.007 73.162,179.313 73.162,177.683 C73.162,175.213 73.162,172.743 73.162,170.273 C73.162,169.567 73.162,168.86 73.162,168.153 C73.162,166.859 72.081,165.778 70.787,165.778 C63.407,165.778 56.027,165.778 48.647,165.778 C48.578,165.778 48.509,165.778 48.44,165.778 C45.376,165.778 45.376,170.528 48.44,170.528 C55.82,170.528 63.2,170.528 70.58,170.528 C70.648,170.528 70.717,170.528 70.787,170.528 C69.995,169.737 69.204,168.945 68.411,168.153 C68.411,172.094 68.411,176.034 68.411,179.974 C68.411,180.491 68.411,181.006 68.411,181.522 C68.411,181.82 68.397,182.117 68.377,182.415 C68.373,182.481 68.279,183.194 68.36,182.649 C68.329,182.861 68.285,183.072 68.242,183.283 C68.155,183.7 68.033,184.108 67.9,184.511 C67.833,184.712 67.756,184.907 67.679,185.104 C67.872,184.613 67.522,185.401 67.479,185.485 C67.29,185.856 67.07,186.211 66.842,186.558 C66.729,186.731 66.604,186.898 66.48,187.064 C66.793,186.643 66.37,187.177 66.329,187.224 C66.06,187.538 65.764,187.828 65.461,188.109 C65.31,188.25 65.15,188.382 64.992,188.514 C65.389,188.183 64.719,188.706 64.64,188.759 C64.297,188.995 63.936,189.201 63.567,189.397 C63.383,189.495 63.193,189.583 63.004,189.671 C63.485,189.448 62.854,189.724 62.792,189.747 C62.395,189.896 61.985,190.01 61.574,190.111 C61.366,190.163 61.154,190.203 60.943,190.243 C60.664,190.286 60.66,190.29 60.932,190.252 C60.788,190.269 60.642,190.284 60.498,190.295 C60.056,190.334 59.612,190.334 59.169,190.321 C58.951,190.314 58.73,190.295 58.512,190.276 C57.797,190.212 58.986,190.36 58.284,190.243 C57.861,190.172 57.447,190.065 57.037,189.947 C56.833,189.887 56.634,189.818 56.435,189.747 C56.303,189.699 56.172,189.649 56.041,189.596 C56.287,189.699 56.283,189.695 56.034,189.583 C55.655,189.407 55.292,189.201 54.936,188.985 C54.759,188.878 54.587,188.76 54.416,188.642 C54.363,188.607 53.826,188.187 54.235,188.514 C53.913,188.256 53.612,187.971 53.32,187.679 C53.173,187.533 53.035,187.379 52.898,187.224 C52.807,187.121 52.717,187.016 52.63,186.909 C52.787,187.12 52.784,187.116 52.623,186.898 C52.375,186.564 52.156,186.21 51.948,185.851 C51.843,185.672 51.749,185.485 51.653,185.3 C51.624,185.244 51.343,184.612 51.548,185.104 C51.386,184.713 51.257,184.31 51.14,183.904 C51.08,183.699 51.033,183.491 50.985,183.283 C50.964,183.189 50.823,182.308 50.893,182.85 C50.803,182.144 50.816,181.433 50.816,180.723 C50.816,176.584 50.816,172.445 50.816,168.306 C50.816,168.255 50.816,168.204 50.816,168.153 C50.816,165.09 46.064,165.09 46.064,168.153" id="Fill-37"></path>
                <path d="M8.386,72.581 L111.55,71.564 C111.55,71.564 131.809,24.175 103.837,16.992 C103.837,16.992 53.157,-20.766 9.656,16.927 C-1.129,26.272 -4.372,49.331 8.386,72.581" id="Fill-39"></path>
            </g>
            <path d="M28.714,95.894 C28.714,106.15 22.868,114.464 15.657,114.464 C8.445,114.464 2.6,106.15 2.6,95.894 C2.6,85.639 8.445,77.326 15.657,77.326 C22.868,77.326 28.714,85.639 28.714,95.894" id="Fill-41" fill="#F4E0CD"></path>
            <path d="M26.338,95.894 C26.319,99.679 25.506,103.317 23.688,106.496 C23.478,106.863 23.25,107.218 23.015,107.569 C22.9,107.742 22.779,107.91 22.658,108.078 C22.26,108.63 22.952,107.718 22.531,108.244 C22,108.91 21.401,109.522 20.761,110.085 C20.617,110.21 20.469,110.329 20.321,110.448 C20.77,110.089 20.275,110.472 20.199,110.526 C19.898,110.739 19.583,110.932 19.263,111.115 C18.948,111.296 18.62,111.453 18.289,111.601 C18.849,111.351 18.292,111.587 18.188,111.625 C17.964,111.707 17.736,111.774 17.506,111.839 C17.162,111.936 16.812,112.005 16.46,112.063 C17.101,111.957 16.504,112.05 16.378,112.061 C16.2,112.076 16.018,112.082 15.838,112.087 C15.477,112.097 15.115,112.077 14.756,112.045 C14.142,111.991 15.283,112.133 14.677,112.034 C14.442,111.995 14.211,111.941 13.979,111.884 C13.632,111.799 13.292,111.686 12.957,111.563 C12.383,111.355 13.42,111.777 12.86,111.527 C12.694,111.454 12.532,111.371 12.372,111.289 C12.044,111.122 11.73,110.932 11.422,110.734 C11.265,110.633 11.113,110.525 10.96,110.417 C10.749,110.26 10.759,110.271 10.991,110.448 C10.892,110.37 10.794,110.29 10.698,110.209 C10.095,109.709 9.549,109.144 9.04,108.553 C8.906,108.401 8.781,108.243 8.655,108.086 C8.99,108.504 8.573,107.964 8.534,107.911 C8.248,107.514 7.986,107.1 7.733,106.68 C7.282,105.931 6.897,105.145 6.549,104.344 C6.746,104.795 6.463,104.105 6.452,104.074 C6.369,103.861 6.292,103.645 6.218,103.43 C6.038,102.916 5.884,102.394 5.741,101.869 C5.487,100.939 5.304,99.99 5.16,99.036 C5.229,99.495 5.122,98.687 5.122,98.684 C5.094,98.434 5.074,98.185 5.054,97.934 C5.005,97.342 4.985,96.747 4.977,96.153 C4.962,95.135 5.019,94.117 5.122,93.106 C5.122,93.102 5.225,92.293 5.16,92.753 C5.194,92.511 5.235,92.27 5.277,92.028 C5.371,91.474 5.491,90.925 5.623,90.379 C5.841,89.474 6.125,88.587 6.452,87.715 C6.462,87.685 6.741,86.992 6.549,87.446 C6.636,87.24 6.729,87.038 6.823,86.836 C7.035,86.374 7.272,85.924 7.52,85.48 C7.726,85.109 7.95,84.749 8.182,84.394 C8.295,84.219 8.416,84.049 8.534,83.879 C8.572,83.826 8.985,83.281 8.655,83.704 C9.181,83.029 9.773,82.406 10.409,81.832 C10.55,81.704 10.696,81.582 10.843,81.46 C11.333,81.054 10.453,81.745 10.96,81.372 C11.26,81.153 11.574,80.955 11.891,80.766 C12.204,80.579 12.53,80.416 12.86,80.262 C13.416,80.003 12.386,80.445 12.957,80.226 C13.18,80.14 13.407,80.069 13.635,79.999 C13.977,79.896 14.327,79.82 14.677,79.756 C15.281,79.644 14.144,79.81 14.756,79.744 C14.935,79.725 15.115,79.716 15.293,79.708 C15.656,79.691 16.018,79.705 16.378,79.729 C16.501,79.737 17.107,79.821 16.46,79.727 C16.695,79.761 16.929,79.811 17.16,79.863 C17.509,79.942 17.851,80.049 18.188,80.164 C18.291,80.199 18.855,80.43 18.289,80.189 C18.455,80.259 18.618,80.339 18.78,80.418 C19.109,80.579 19.425,80.764 19.736,80.957 C19.894,81.054 20.047,81.159 20.199,81.264 C20.302,81.335 20.403,81.408 20.504,81.483 C20.272,81.302 20.262,81.293 20.469,81.46 C21.077,81.948 21.627,82.503 22.143,83.085 C22.277,83.234 22.403,83.39 22.531,83.546 C22.958,84.066 22.253,83.165 22.658,83.712 C22.948,84.103 23.213,84.513 23.47,84.927 C23.967,85.731 24.387,86.58 24.764,87.446 C24.567,86.994 24.85,87.684 24.862,87.715 C24.944,87.928 25.019,88.144 25.095,88.36 C25.275,88.873 25.429,89.395 25.572,89.92 C25.698,90.381 25.803,90.846 25.901,91.313 C25.951,91.55 25.994,91.789 26.037,92.028 C26.052,92.11 26.186,93.005 26.134,92.612 C26.275,93.7 26.333,94.797 26.338,95.894 C26.353,98.957 31.103,98.959 31.088,95.894 C31.053,88.477 28.068,79.531 20.851,76.16 C17.468,74.579 13.85,74.649 10.462,76.16 C7.231,77.602 4.728,80.585 3.107,83.651 C-0.821,91.093 -0.72,100.689 3.107,108.137 C4.708,111.247 7.256,114.132 10.462,115.63 C13.846,117.21 17.463,117.141 20.851,115.63 C24.082,114.188 26.585,111.205 28.205,108.137 C30.185,104.388 31.067,100.114 31.088,95.894 C31.103,92.83 26.353,92.832 26.338,95.894" id="Fill-42" fill="#4C5159"></path>
            <path d="M16.889,48.697 L16.889,124.059 C16.889,150.969 38.704,172.783 65.613,172.783 C92.523,172.783 114.337,150.969 114.337,124.059 L114.337,48.697 L16.889,48.697" id="Fill-43" fill="#F4E0CD"></path>
            <path d="M14.514,48.697 C14.514,53.507 14.514,58.315 14.514,63.124 C14.514,73.133 14.514,83.144 14.514,93.153 C14.514,101.738 14.514,110.324 14.514,118.909 C14.514,120.597 14.514,122.285 14.514,123.973 C14.514,130.337 15.677,136.71 18.009,142.633 C23.364,156.232 34.349,166.93 48.024,172.042 C61.938,177.242 77.904,175.802 90.802,168.529 C103.346,161.455 112.521,148.976 115.555,134.905 C116.953,128.424 116.713,121.846 116.713,115.267 C116.713,105.901 116.713,96.535 116.713,87.171 C116.713,77.639 116.713,68.107 116.713,58.575 C116.713,55.283 116.713,51.99 116.713,48.697 C116.713,47.403 115.632,46.323 114.337,46.323 C110.431,46.323 106.524,46.323 102.618,46.323 C93.532,46.323 84.447,46.323 75.362,46.323 C65.052,46.323 54.743,46.323 44.432,46.323 C36.85,46.323 29.267,46.323 21.683,46.323 C20.086,46.323 18.487,46.323 16.889,46.323 C13.826,46.323 13.826,51.073 16.889,51.073 C20.796,51.073 24.703,51.073 28.609,51.073 C37.695,51.073 46.78,51.073 55.864,51.073 C66.175,51.073 76.484,51.073 86.795,51.073 C94.378,51.073 101.96,51.073 109.543,51.073 C111.141,51.073 112.74,51.073 114.337,51.073 C113.546,50.281 112.754,49.489 111.961,48.697 C111.961,53.507 111.961,58.315 111.961,63.124 C111.961,73.133 111.961,83.144 111.961,93.153 C111.961,101.738 111.961,110.324 111.961,118.909 C111.961,120.597 111.961,122.285 111.961,123.973 C111.961,124.818 111.941,125.661 111.901,126.504 C111.861,127.383 111.789,128.261 111.701,129.136 C111.657,129.57 111.604,130.004 111.548,130.437 C111.618,129.891 111.522,130.605 111.513,130.667 C111.471,130.953 111.425,131.238 111.377,131.523 C110.8,135.031 109.811,138.466 108.479,141.762 C108.458,141.817 108.188,142.462 108.396,141.971 C108.313,142.165 108.229,142.357 108.144,142.549 C107.976,142.934 107.799,143.315 107.62,143.694 C107.234,144.515 106.819,145.322 106.387,146.119 C105.561,147.647 104.642,149.124 103.657,150.553 C103.422,150.896 103.179,151.233 102.935,151.569 C102.813,151.737 102.688,151.903 102.564,152.07 C102.529,152.117 102.109,152.665 102.431,152.249 C101.881,152.96 101.308,153.652 100.719,154.332 C99.588,155.638 98.381,156.876 97.119,158.056 C96.513,158.622 95.89,159.169 95.255,159.704 C94.938,159.971 94.616,160.233 94.292,160.492 C94.13,160.622 93.966,160.75 93.804,160.877 C94.215,160.557 93.529,161.081 93.458,161.134 C92.069,162.171 90.618,163.126 89.126,164.009 C87.626,164.899 86.074,165.696 84.487,166.419 C84.297,166.506 84.104,166.59 83.912,166.675 C83.857,166.699 83.214,166.971 83.705,166.765 C83.317,166.928 82.924,167.084 82.532,167.236 C81.677,167.569 80.811,167.871 79.939,168.153 C78.246,168.703 76.519,169.148 74.775,169.508 C73.929,169.683 73.076,169.829 72.221,169.958 C72.16,169.967 71.445,170.067 71.992,169.994 C71.775,170.023 71.559,170.048 71.342,170.074 C70.835,170.135 70.327,170.184 69.817,170.229 C67.976,170.39 66.125,170.435 64.276,170.389 C63.392,170.368 62.51,170.316 61.628,170.247 C61.191,170.213 60.754,170.17 60.319,170.124 C60.102,170.101 59.885,170.074 59.667,170.048 C59.524,170.031 59.38,170.013 59.235,169.994 C59.508,170.031 59.502,170.029 59.221,169.99 C55.691,169.488 52.225,168.574 48.893,167.312 C48.498,167.163 48.106,167.006 47.716,166.846 C47.069,166.581 48.15,167.034 47.508,166.758 C47.315,166.675 47.122,166.59 46.932,166.505 C46.101,166.135 45.284,165.737 44.477,165.322 C42.931,164.527 41.434,163.64 39.98,162.685 C39.286,162.228 38.606,161.749 37.936,161.257 C37.768,161.134 37.603,161.009 37.437,160.884 C36.887,160.47 37.803,161.173 37.26,160.75 C36.878,160.452 36.503,160.146 36.13,159.837 C34.8,158.734 33.536,157.552 32.331,156.316 C31.125,155.078 29.991,153.77 28.923,152.413 C28.497,151.871 29.204,152.784 28.787,152.235 C28.662,152.07 28.539,151.903 28.415,151.736 C28.168,151.402 27.927,151.064 27.688,150.724 C27.171,149.985 26.678,149.23 26.202,148.464 C25.283,146.986 24.452,145.452 23.697,143.884 C23.515,143.506 23.34,143.124 23.168,142.741 C23.082,142.549 22.998,142.357 22.914,142.164 C22.636,141.524 23.094,142.602 22.827,141.956 C22.477,141.11 22.156,140.254 21.854,139.389 C21.269,137.714 20.788,136.002 20.391,134.272 C20.198,133.431 20.033,132.586 19.885,131.736 C19.812,131.309 19.746,130.881 19.683,130.452 C19.578,129.737 19.743,130.939 19.65,130.221 C19.614,129.932 19.581,129.643 19.55,129.354 C19.267,126.798 19.265,124.244 19.265,121.679 C19.265,118.647 19.265,115.612 19.265,112.579 C19.265,102.844 19.265,93.109 19.265,83.373 C19.265,74.267 19.265,65.161 19.265,56.055 C19.265,53.603 19.265,51.15 19.265,48.697 C19.265,45.634 14.514,45.634 14.514,48.697" id="Fill-44" fill="#4C5159"></path>
            <path d="M8.625,96.56 C8.625,96.56 7.803,99.457 9.427,100.889 C14.547,105.402 14.386,111.999 14.386,111.999 L14.386,100.242 L12.723,98.381 L8.625,96.56" id="Fill-45" fill="#E7CEBB"></path>
            <path d="M17.986,106.147 C18.128,104.52 17.798,102.759 17.235,101.242 C15.984,97.868 13.211,95.608 9.744,94.749 C8.255,94.381 7.625,96.672 9.112,97.04 C11.949,97.742 14.157,99.556 15.08,102.25 C15.556,103.64 15.74,104.673 15.611,106.147 C15.477,107.673 17.854,107.66 17.986,106.147" id="Fill-46" fill="#4C5159"></path>
            <path d="M111.895,78.821 C111.895,78.821 96.571,68.26 95.111,58.199 C95.111,58.199 47.356,69.4 27.321,59.844 C27.321,59.844 22.901,58.75 23.202,53.512 C23.958,40.394 111.432,49.328 111.432,49.328 C111.432,49.328 111.895,59.21 111.895,78.821" id="Fill-47" fill="#E7CEBB"></path>
            <path d="M116.586,77.326 C116.586,77.326 98.23,62.817 97.844,53.34 C97.844,53.34 46.005,65.139 25.114,55.081 C25.114,55.081 23.794,70.881 13.419,75.383 C13.419,75.383 9.293,60.303 16.817,48.697 C24.341,37.092 114.266,43.476 114.266,43.476 C114.266,43.476 122.176,64.365 116.586,77.326" id="Fill-48" fill="#4C5159"></path>
            <path d="M29.616,81.343 C29.809,81.234 30.008,81.135 30.205,81.035 C30.451,80.912 30.7,80.793 30.95,80.677 C31.107,80.604 31.266,80.532 31.425,80.462 C31.592,80.387 32.265,80.104 31.51,80.421 C33.476,79.595 35.52,78.96 37.603,78.511 C38.186,78.385 38.773,78.281 39.363,78.189 C39.497,78.169 39.632,78.149 39.767,78.13 C39.188,78.213 39.877,78.123 39.957,78.114 C40.307,78.074 40.656,78.046 41.007,78.02 C42.466,77.912 43.934,77.943 45.389,78.097 C45.674,78.132 45.688,78.133 45.432,78.098 C45.658,78.13 45.883,78.168 46.108,78.206 C46.489,78.271 46.865,78.352 47.24,78.438 C48.009,78.614 48.764,78.847 49.505,79.112 C49.657,79.167 49.807,79.224 49.957,79.283 C50.693,79.567 49.563,79.1 50.29,79.424 C50.669,79.593 51.04,79.781 51.407,79.974 C52.17,80.376 52.898,80.844 53.602,81.343 C54.66,82.094 56.241,81.534 56.851,80.491 C57.549,79.299 57.054,77.988 55.999,77.241 C50.414,73.279 43.501,72.563 36.915,73.813 C33.599,74.443 30.171,75.578 27.219,77.241 C26.092,77.875 25.72,79.388 26.367,80.491 C27.028,81.62 28.488,81.978 29.616,81.343" id="Fill-49" fill="#4C5159"></path>
            <path d="M99.423,80.952 C96.518,79.316 93.174,78.222 89.921,77.562 C83.304,76.219 76.257,76.97 70.643,80.952 C69.589,81.7 69.093,83.01 69.791,84.201 C70.402,85.245 71.983,85.804 73.041,85.054 C73.677,84.602 74.333,84.187 75.014,83.806 C75.377,83.602 75.752,83.418 76.128,83.238 C76.278,83.168 76.427,83.101 76.578,83.034 C76.187,83.209 76.917,82.904 76.912,82.906 C77.649,82.622 78.409,82.397 79.176,82.203 C79.55,82.109 79.929,82.031 80.308,81.958 C80.458,81.93 80.608,81.904 80.76,81.879 C80.804,81.871 81.55,81.768 81.029,81.835 C82.414,81.659 83.816,81.635 85.21,81.704 C85.563,81.722 85.915,81.751 86.268,81.782 C86.407,81.795 86.547,81.81 86.686,81.825 C86.766,81.833 87.456,81.92 86.876,81.841 C87.538,81.93 88.195,82.049 88.849,82.182 C90.959,82.61 93.025,83.265 95.015,84.082 C95.246,84.178 95.171,84.147 94.792,83.988 C94.9,84.033 95.008,84.08 95.115,84.128 C95.279,84.198 95.441,84.272 95.603,84.346 C95.863,84.465 96.12,84.589 96.376,84.715 C96.595,84.823 96.813,84.934 97.026,85.054 C98.155,85.689 99.614,85.332 100.276,84.201 C100.922,83.098 100.551,81.586 99.423,80.952" id="Fill-50" fill="#4C5159"></path>
            <path d="M46.509,95.75 C46.509,100.188 44.316,103.784 41.609,103.784 C38.903,103.784 36.71,100.188 36.71,95.75 C36.71,91.311 38.903,87.714 41.609,87.714 C44.316,87.714 46.509,91.311 46.509,95.75" id="Fill-51" fill="#4C5159"></path>
            <path d="M89.933,95.75 C89.933,100.188 87.74,103.784 85.033,103.784 C82.327,103.784 80.134,100.188 80.134,95.75 C80.134,91.311 82.327,87.714 85.033,87.714 C87.74,87.714 89.933,91.311 89.933,95.75" id="Fill-52" fill="#4C5159"></path>
            <path d="M58.012,120.002 C59.001,122.487 61.71,123.87 64.226,124.222 C66.465,124.535 68.672,124.237 70.523,122.867 C71.443,122.186 72.319,121.304 72.868,120.286 C73.595,118.938 71.543,117.739 70.817,119.087 C70.448,119.77 70.113,120.114 69.464,120.692 C68.14,121.87 66.478,122.079 64.775,121.917 C63.413,121.787 62.018,121.213 61.085,120.336 C60.924,120.184 60.776,120.02 60.635,119.851 C60.424,119.601 60.77,120.039 60.595,119.797 C60.534,119.714 60.478,119.627 60.422,119.54 C60.33,119.393 60.074,118.794 60.303,119.371 C60.064,118.77 59.519,118.355 58.842,118.541 C58.27,118.699 57.773,119.4 58.012,120.002" id="Fill-53" fill="#4C5159"></path>
            <path d="M48.106,142.409 C51.139,144.549 54.797,146.031 58.336,147.056 C65.807,149.219 73.776,148.701 80.688,145.032 C82.105,144.279 83.443,143.383 84.717,142.409 C85.401,141.885 85.761,141.056 85.285,140.242 C84.888,139.567 83.806,139.148 83.117,139.674 C79.661,142.319 75.775,144.141 71.478,144.89 C68.079,145.483 64.549,145.249 61.217,144.521 C58.432,143.912 55.836,142.965 53.489,141.827 C52.221,141.213 50.97,140.531 49.802,139.74 C49.77,139.718 49.737,139.696 49.705,139.674 C48.999,139.175 47.947,139.546 47.539,140.242 C47.073,141.034 47.403,141.912 48.106,142.409" id="Fill-54" fill="#4C5159"></path>
            <path d="M56.859,178.205 C56.859,178.205 65.613,179.7 74.368,178.205 L74.368,185.219 C74.368,185.219 71.464,187.641 65.931,187.641 C60.542,187.641 56.859,185.219 56.859,185.219 L56.859,178.205" id="Fill-55" fill="#E7CEBB"></path>
            <path d="M107.815,73.52 C107.815,73.52 110.834,101.892 104.554,125.144 C98.225,148.58 78.198,165.189 60.286,164.485 C60.286,164.485 76.741,170.812 88.871,164.109 C99.778,158.08 111.379,144.517 111.895,126.094 L111.895,75.581 L107.815,73.52" id="Fill-56" fill="#E7CEBB"></path>
            <path d="M111.997,101.021 C111.997,101.021 108.355,163.465 67.541,164.732 C67.541,164.732 67.527,164.741 67.502,164.759 C65.38,164.58 63.62,164.732 63.62,164.732 C22.805,163.465 19.267,101.021 19.267,101.021 C19.267,101.021 13.519,115.938 18.055,142.225 C22.593,168.512 48.934,180.02 48.934,180.02 C48.934,180.02 52.26,176.133 56.792,178.645 C61.325,181.157 63.62,183.429 63.62,183.429 C63.62,183.429 63.65,182.732 65.613,182.038 C67.236,182.467 67.541,183.429 67.541,183.429 C67.541,183.429 69.835,181.157 74.368,178.645 C78.901,176.133 82.226,180.02 82.226,180.02 C82.226,180.02 108.567,168.512 113.104,142.225 C117.643,115.938 111.997,101.021 111.997,101.021" id="Fill-57" fill="#4C5159"></path>
            <path d="M97.844,53.34 C97.844,53.34 122.491,50.796 124.146,36.544 C124.146,36.544 125.673,45.671 123.009,56.877 C122.178,60.372 117.308,75.383 117.308,75.383 C117.308,75.383 101.209,71.831 97.844,53.34" id="Fill-58" fill="#5F646B"></path>
            <path d="M25.114,55.081 C25.114,55.081 8.392,51.321 6.736,37.07 C6.736,37.07 4.609,46.161 7.273,57.367 C8.103,60.862 13.419,75.383 13.419,75.383 C13.419,75.383 23.899,71.356 25.114,55.081" id="Fill-59" fill="#5F646B"></path>
            <path d="M116.389,76.581 C119.095,71.332 121.229,65.697 122.945,60.055 C124.437,55.151 125.525,50.106 125.951,44.991 C126.357,40.123 126.065,34.981 124.278,30.39 C122.369,25.484 118.859,21.508 114.114,19.173 C113.396,18.82 112.654,18.511 111.91,18.216 C111.596,18.091 111.278,17.977 110.959,17.866 C110.591,17.737 110.54,17.587 111.027,17.936 C110.934,17.868 110.84,17.804 110.746,17.738 C110.184,17.35 109.614,16.975 109.041,16.608 C102.819,12.616 96.104,9.363 89.204,6.736 C78.736,2.752 67.459,0.417 56.227,0.871 C49.846,1.13 43.481,2.312 37.476,4.496 C30.583,7.001 24.296,10.751 18.643,15.404 C15.519,17.974 12.644,20.839 9.983,23.883 C9.103,24.887 8.042,25.858 7.507,27.105 C6.427,29.627 5.894,32.263 5.547,34.98 C4.884,40.172 5.279,45.443 6.056,50.598 C7.314,58.939 9.936,67.047 13.125,74.835 C13.205,75.03 13.286,75.224 13.366,75.418 C13.862,76.613 14.921,77.453 16.288,77.077 C17.42,76.766 18.443,75.354 17.947,74.156 C14.691,66.301 12.035,58.141 10.698,49.727 C10.636,49.339 10.579,48.949 10.523,48.56 C10.508,48.458 10.422,47.809 10.505,48.431 C10.48,48.244 10.457,48.058 10.433,47.871 C10.338,47.094 10.257,46.316 10.188,45.536 C10.069,44.184 9.999,42.828 9.973,41.471 C9.933,39.304 10.029,37.132 10.297,34.98 C10.371,34.39 10.206,35.609 10.313,34.874 C10.342,34.673 10.374,34.473 10.406,34.274 C10.471,33.873 10.545,33.474 10.626,33.076 C10.756,32.435 10.909,31.797 11.084,31.166 C11.215,30.693 11.362,30.224 11.528,29.761 C11.586,29.594 11.649,29.428 11.714,29.263 C11.97,28.613 11.498,29.757 11.657,29.393 C11.718,29.255 11.779,29.118 11.849,28.985 C11.854,28.976 11.859,28.967 11.863,28.958 C11.478,29.675 12.025,28.789 12.163,28.624 C12.876,27.765 13.61,26.925 14.359,26.096 C17.033,23.134 19.942,20.385 23.066,17.903 C23.085,17.887 23.673,17.428 23.297,17.718 C23.475,17.581 23.653,17.445 23.832,17.31 C24.188,17.042 24.545,16.78 24.905,16.519 C25.672,15.964 26.454,15.43 27.245,14.91 C28.716,13.943 30.234,13.047 31.784,12.212 C33.276,11.408 34.806,10.676 36.362,10.005 C36.977,9.741 35.915,10.191 36.531,9.935 C36.713,9.859 36.897,9.785 37.082,9.711 C37.449,9.563 37.817,9.422 38.186,9.281 C38.977,8.982 39.777,8.703 40.581,8.438 C43.577,7.451 46.657,6.727 49.774,6.234 C50.14,6.176 50.505,6.123 50.871,6.072 C50.233,6.161 50.857,6.074 50.969,6.06 C51.151,6.037 51.333,6.016 51.516,5.994 C52.303,5.901 53.089,5.826 53.878,5.763 C55.376,5.644 56.878,5.583 58.38,5.568 C61.311,5.537 64.242,5.71 67.153,6.04 C67.497,6.08 67.838,6.122 68.181,6.166 C68.307,6.182 68.901,6.263 68.23,6.171 C68.4,6.195 68.569,6.219 68.739,6.243 C69.469,6.347 70.197,6.465 70.924,6.59 C72.3,6.826 73.668,7.102 75.03,7.406 C80.083,8.536 85.028,10.129 89.831,12.056 C90.354,12.266 90.875,12.482 91.396,12.7 C90.662,12.392 91.549,12.767 91.718,12.839 C92.01,12.965 92.3,13.093 92.59,13.221 C93.584,13.659 94.57,14.113 95.55,14.581 C97.286,15.41 99,16.285 100.69,17.204 C102.96,18.437 105.189,19.749 107.348,21.167 C107.761,21.438 108.171,21.713 108.574,21.998 C109.18,22.426 110.108,22.583 110.802,22.858 C110.919,22.905 111.448,23.133 110.841,22.871 C110.989,22.935 111.136,23.002 111.284,23.07 C111.573,23.201 111.856,23.342 112.14,23.486 C112.729,23.787 113.299,24.124 113.855,24.482 C114.104,24.643 114.347,24.811 114.588,24.983 C114.706,25.068 114.823,25.155 114.938,25.242 C114.387,24.828 114.8,25.136 114.913,25.227 C115.39,25.61 115.842,26.023 116.277,26.454 C116.669,26.843 117.037,27.256 117.39,27.68 C117.476,27.785 117.562,27.892 117.646,27.999 C117.205,27.442 117.515,27.831 117.605,27.952 C117.792,28.207 117.972,28.469 118.145,28.732 C118.444,29.183 118.717,29.652 118.973,30.128 C119.101,30.366 119.223,30.608 119.34,30.852 C119.431,31.036 119.858,32.021 119.545,31.274 C119.987,32.33 120.331,33.425 120.606,34.534 C120.742,35.077 120.854,35.626 120.954,36.176 C121.005,36.454 121.048,36.734 121.091,37.013 C121.115,37.169 121.181,37.688 121.083,36.945 C121.108,37.133 121.13,37.323 121.151,37.512 C121.286,38.714 121.344,39.924 121.353,41.132 C121.362,42.37 121.308,43.608 121.212,44.841 C121.166,45.442 121.106,46.041 121.039,46.638 C121.005,46.938 120.968,47.237 120.929,47.536 C121.022,46.814 120.953,47.355 120.933,47.504 C120.905,47.703 120.874,47.902 120.844,48.102 C120.122,52.907 118.831,57.62 117.257,62.213 C116.68,63.898 116.057,65.569 115.396,67.225 C115.26,67.568 115.122,67.908 114.981,68.25 C114.914,68.413 114.848,68.576 114.779,68.74 C114.698,68.933 114.389,69.668 114.742,68.832 C114.479,69.454 114.21,70.073 113.935,70.69 C113.411,71.865 112.876,73.04 112.286,74.184 C111.692,75.334 111.979,76.754 113.139,77.433 C114.211,78.062 115.795,77.731 116.389,76.581" id="Fill-60" fill="#4C5159"></path>
        </g>
    </g>
</svg>