<?xml version="1.0" encoding="UTF-8"?>
<svg width="135px" height="241px" viewBox="0 0 135 241" version="1.1" xmlns="http://www.w3.org/2000/svg" xmlns:xlink="http://www.w3.org/1999/xlink">
    <!-- Generator: Sketch 48.2 (47327) - http://www.bohemiancoding.com/sketch -->
    <title>male6</title>
    <desc>Created with Sketch.</desc>
    <defs></defs>
    <g id="Page-1" stroke="none" stroke-width="1" fill="none" fill-rule="evenodd">
        <g id="male6">
            <path d="M106.468,98.493 C106.468,108.748 112.313,117.062 119.524,117.062 C126.736,117.062 132.582,108.748 132.582,98.493 C132.582,88.238 126.736,79.923 119.524,79.923 C112.313,79.923 106.468,88.238 106.468,98.493" id="Fill-332" fill="#F4E0CD"></path>
            <path d="M104.093,98.493 C104.128,105.909 107.113,114.857 114.33,118.227 C117.714,119.809 121.331,119.739 124.719,118.227 C127.95,116.785 130.454,113.803 132.073,110.736 C136.001,103.295 135.901,93.699 132.073,86.251 C130.474,83.14 127.924,80.256 124.719,78.758 C121.334,77.177 117.716,77.246 114.33,78.758 C111.099,80.2 108.595,83.184 106.976,86.251 C104.997,90 104.112,94.273 104.093,98.493 C104.078,101.557 108.828,101.556 108.843,98.493 C108.861,94.708 109.675,91.071 111.493,87.892 C111.704,87.525 111.932,87.169 112.166,86.818 C112.281,86.646 112.403,86.478 112.523,86.309 C112.921,85.758 112.229,86.67 112.65,86.144 C113.182,85.478 113.78,84.866 114.42,84.304 C114.563,84.178 114.711,84.058 114.859,83.939 C114.411,84.299 114.906,83.916 114.98,83.862 C115.283,83.649 115.598,83.457 115.918,83.272 C116.233,83.092 116.561,82.935 116.892,82.787 C116.333,83.037 116.889,82.8 116.993,82.763 C117.217,82.682 117.445,82.614 117.674,82.548 C118.018,82.452 118.369,82.384 118.721,82.324 C118.079,82.43 118.677,82.338 118.802,82.327 C118.981,82.312 119.163,82.306 119.343,82.301 C119.704,82.29 120.067,82.311 120.426,82.343 C121.039,82.397 119.898,82.254 120.504,82.354 C120.739,82.393 120.97,82.447 121.201,82.504 C121.549,82.589 121.889,82.702 122.224,82.824 C122.798,83.033 121.761,82.611 122.321,82.861 C122.487,82.935 122.648,83.016 122.81,83.098 C123.137,83.266 123.451,83.457 123.76,83.655 C123.916,83.755 124.067,83.863 124.219,83.97 C124.432,84.128 124.421,84.118 124.189,83.939 C124.288,84.017 124.387,84.098 124.483,84.179 C125.085,84.679 125.63,85.243 126.142,85.834 C126.273,85.986 126.4,86.144 126.526,86.302 C126.191,85.884 126.608,86.424 126.646,86.477 C126.932,86.874 127.194,87.288 127.446,87.707 C127.897,88.457 128.284,89.242 128.632,90.044 C128.435,89.592 128.718,90.282 128.73,90.313 C128.812,90.527 128.887,90.742 128.963,90.958 C129.143,91.471 129.296,91.993 129.44,92.519 C129.695,93.449 129.878,94.398 130.021,95.352 C129.952,94.893 130.059,95.701 130.059,95.704 C130.086,95.954 130.107,96.203 130.127,96.453 C130.176,97.046 130.196,97.641 130.204,98.235 C130.219,99.252 130.161,100.269 130.059,101.281 C130.059,101.286 129.956,102.094 130.021,101.634 C129.987,101.877 129.946,102.119 129.904,102.36 C129.81,102.914 129.69,103.463 129.558,104.009 C129.339,104.914 129.056,105.801 128.73,106.673 C128.718,106.703 128.44,107.395 128.632,106.942 C128.545,107.148 128.452,107.349 128.359,107.552 C128.146,108.014 127.91,108.464 127.662,108.908 C127.455,109.278 127.23,109.639 126.998,109.994 C126.886,110.169 126.766,110.339 126.646,110.508 C126.608,110.562 126.196,111.108 126.526,110.684 C125.999,111.36 125.407,111.982 124.773,112.556 C124.631,112.684 124.484,112.806 124.337,112.928 C123.846,113.334 124.729,112.643 124.219,113.016 C123.921,113.235 123.607,113.432 123.289,113.622 C122.976,113.808 122.651,113.971 122.321,114.126 C121.766,114.385 122.795,113.943 122.224,114.162 C122.001,114.248 121.773,114.318 121.546,114.388 C121.204,114.492 120.854,114.567 120.504,114.632 C119.9,114.743 121.038,114.578 120.426,114.643 C120.247,114.663 120.067,114.671 119.886,114.68 C119.525,114.697 119.163,114.683 118.802,114.66 C118.68,114.651 118.074,114.566 118.721,114.661 C118.486,114.626 118.253,114.577 118.021,114.524 C117.671,114.446 117.331,114.339 116.993,114.223 C116.891,114.188 116.326,113.958 116.892,114.199 C116.726,114.128 116.563,114.048 116.4,113.969 C116.072,113.81 115.755,113.624 115.445,113.431 C115.288,113.333 115.134,113.228 114.98,113.124 C114.879,113.052 114.778,112.98 114.677,112.904 C114.909,113.087 114.92,113.094 114.711,112.928 C114.105,112.44 113.554,111.885 113.038,111.303 C112.904,111.153 112.777,110.997 112.65,110.842 C112.222,110.321 112.928,111.223 112.523,110.676 C112.233,110.284 111.967,109.875 111.711,109.46 C111.215,108.657 110.793,107.808 110.418,106.942 C110.613,107.393 110.33,106.704 110.319,106.673 C110.237,106.46 110.161,106.244 110.085,106.027 C109.906,105.515 109.752,104.993 109.608,104.467 C109.483,104.008 109.378,103.541 109.28,103.074 C109.23,102.837 109.187,102.598 109.145,102.36 C109.129,102.277 108.996,101.383 109.047,101.777 C108.904,100.688 108.849,99.589 108.843,98.493 C108.828,95.43 104.078,95.429 104.093,98.493" id="Fill-333" fill="#4C5159"></path>
            <path d="M126.555,99.159 C126.555,99.159 127.377,102.055 125.753,103.488 C120.632,108 120.795,114.598 120.795,114.598 L120.795,102.84 L122.458,100.98 L126.555,99.159" id="Fill-334" fill="#E7CEBB"></path>
            <path d="M119.57,108.745 C119.44,107.262 119.641,106.252 120.102,104.847 C120.986,102.153 123.26,100.334 126.069,99.638 C127.555,99.27 126.925,96.979 125.437,97.348 C121.934,98.215 119.247,100.47 117.946,103.839 C117.365,105.342 117.053,107.13 117.194,108.745 C117.328,110.259 119.704,110.272 119.57,108.745" id="Fill-335" fill="#4C5159"></path>
            <path d="M33.972,98.493 C33.972,108.748 28.127,117.062 20.916,117.062 C13.705,117.062 7.859,108.748 7.859,98.493 C7.859,88.238 13.705,79.923 20.916,79.923 C28.127,79.923 33.972,88.238 33.972,98.493" id="Fill-336" fill="#F4E0CD"></path>
            <path d="M31.598,98.493 C31.579,102.278 30.764,105.915 28.946,109.094 C28.737,109.461 28.509,109.817 28.274,110.168 C28.16,110.34 28.038,110.508 27.916,110.676 C27.52,111.228 28.212,110.317 27.791,110.842 C27.258,111.509 26.66,112.12 26.021,112.682 C25.877,112.808 25.729,112.927 25.581,113.047 C26.028,112.687 25.534,113.07 25.459,113.124 C25.158,113.338 24.841,113.529 24.522,113.713 C24.207,113.894 23.88,114.051 23.548,114.199 C24.107,113.95 23.55,114.186 23.448,114.223 C23.223,114.304 22.995,114.372 22.766,114.438 C22.422,114.534 22.071,114.603 21.719,114.661 C22.361,114.556 21.763,114.648 21.638,114.66 C21.458,114.674 21.278,114.68 21.098,114.685 C20.735,114.696 20.375,114.674 20.015,114.643 C19.402,114.59 20.542,114.732 19.937,114.632 C19.702,114.593 19.469,114.538 19.239,114.483 C18.892,114.398 18.552,114.284 18.216,114.162 C17.642,113.953 18.679,114.375 18.119,114.126 C17.954,114.051 17.792,113.969 17.631,113.887 C17.303,113.72 16.99,113.529 16.681,113.331 C16.523,113.231 16.373,113.123 16.22,113.016 C16.008,112.859 16.019,112.868 16.251,113.047 C16.151,112.969 16.054,112.889 15.956,112.807 C15.355,112.307 14.809,111.742 14.298,111.152 C14.166,111 14.041,110.842 13.914,110.684 C14.249,111.103 13.833,110.562 13.794,110.508 C13.508,110.112 13.246,109.698 12.993,109.277 C12.542,108.529 12.157,107.743 11.809,106.942 C12.004,107.393 11.722,106.704 11.71,106.673 C11.627,106.46 11.552,106.244 11.478,106.027 C11.297,105.515 11.143,104.993 11,104.467 C10.747,103.537 10.563,102.588 10.419,101.634 C10.489,102.093 10.382,101.286 10.381,101.281 C10.354,101.033 10.333,100.783 10.313,100.533 C10.264,99.94 10.245,99.345 10.236,98.751 C10.221,97.733 10.279,96.716 10.381,95.704 C10.382,95.701 10.483,94.892 10.419,95.352 C10.454,95.109 10.495,94.867 10.537,94.626 C10.629,94.072 10.75,93.523 10.882,92.977 C11.1,92.073 11.385,91.185 11.71,90.313 C11.722,90.282 12,89.589 11.809,90.044 C11.896,89.839 11.988,89.637 12.081,89.434 C12.294,88.972 12.531,88.522 12.779,88.078 C12.985,87.707 13.21,87.347 13.441,86.991 C13.555,86.818 13.675,86.647 13.794,86.477 C13.832,86.424 14.245,85.879 13.914,86.302 C14.44,85.627 15.032,85.005 15.667,84.43 C15.81,84.301 15.956,84.18 16.103,84.058 C16.593,83.652 15.712,84.343 16.22,83.97 C16.519,83.751 16.833,83.553 17.15,83.363 C17.464,83.176 17.79,83.014 18.119,82.861 C18.675,82.601 17.646,83.043 18.216,82.824 C18.439,82.738 18.667,82.667 18.894,82.598 C19.237,82.494 19.586,82.419 19.937,82.354 C20.541,82.243 19.403,82.408 20.015,82.343 C20.193,82.323 20.373,82.315 20.553,82.306 C20.916,82.288 21.277,82.302 21.638,82.327 C21.761,82.336 22.366,82.419 21.719,82.324 C21.954,82.359 22.187,82.409 22.42,82.461 C22.768,82.539 23.11,82.647 23.448,82.763 C23.549,82.798 24.113,83.027 23.548,82.787 C23.715,82.858 23.877,82.937 24.04,83.016 C24.367,83.176 24.685,83.362 24.996,83.554 C25.152,83.652 25.307,83.757 25.459,83.862 C25.562,83.934 25.663,84.006 25.762,84.081 C25.532,83.899 25.52,83.892 25.728,84.058 C26.335,84.546 26.886,85.101 27.402,85.683 C27.537,85.833 27.663,85.988 27.791,86.144 C28.218,86.664 27.512,85.762 27.916,86.309 C28.207,86.702 28.472,87.111 28.729,87.525 C29.226,88.329 29.646,89.178 30.023,90.044 C29.827,89.592 30.109,90.282 30.122,90.313 C30.204,90.527 30.279,90.742 30.355,90.958 C30.535,91.471 30.688,91.993 30.832,92.519 C30.958,92.978 31.063,93.445 31.16,93.911 C31.21,94.148 31.253,94.387 31.296,94.626 C31.311,94.709 31.445,95.603 31.394,95.21 C31.536,96.298 31.591,97.397 31.598,98.493 C31.612,101.556 36.363,101.557 36.348,98.493 C36.312,91.076 33.327,82.13 26.111,78.758 C22.726,77.177 19.108,77.246 15.722,78.758 C12.491,80.2 9.988,83.184 8.367,86.251 C4.438,93.692 4.539,103.286 8.367,110.736 C9.966,113.846 12.516,116.73 15.722,118.227 C19.105,119.809 22.723,119.739 26.111,118.227 C29.342,116.785 31.844,113.803 33.464,110.736 C35.444,106.986 36.327,102.713 36.348,98.493 C36.363,95.429 31.612,95.43 31.598,98.493" id="Fill-337" fill="#4C5159"></path>
            <path d="M22.148,51.296 L22.148,126.658 C22.148,153.567 43.963,175.381 70.873,175.381 C97.783,175.381 119.597,153.567 119.597,126.658 L119.597,51.296 L22.148,51.296" id="Fill-338" fill="#F4E0CD"></path>
            <path d="M19.774,51.296 C19.774,56.105 19.774,60.914 19.774,65.722 C19.774,75.733 19.774,85.742 19.774,95.752 C19.774,104.337 19.774,112.922 19.774,121.507 C19.774,123.195 19.774,124.884 19.774,126.572 C19.774,132.935 20.936,139.308 23.268,145.231 C28.623,158.83 39.608,169.528 53.284,174.64 C67.198,179.84 83.163,178.401 96.062,171.127 C108.605,164.054 117.781,151.573 120.815,137.504 C122.213,131.022 121.972,124.444 121.972,117.866 C121.972,108.5 121.972,99.134 121.972,89.768 C121.972,80.237 121.972,70.706 121.972,61.174 C121.972,57.881 121.972,54.589 121.972,51.296 C121.972,50.001 120.892,48.921 119.597,48.921 C115.69,48.921 111.784,48.921 107.876,48.921 C98.792,48.921 89.706,48.921 80.622,48.921 C70.311,48.921 60.001,48.921 49.691,48.921 C42.107,48.921 34.525,48.921 26.943,48.921 C25.346,48.921 23.747,48.921 22.148,48.921 C19.085,48.921 19.085,53.671 22.148,53.671 C26.055,53.671 29.962,53.671 33.869,53.671 C42.954,53.671 52.04,53.671 61.124,53.671 C71.435,53.671 81.744,53.671 92.054,53.671 C99.637,53.671 107.22,53.671 114.803,53.671 C116.401,53.671 118,53.671 119.597,53.671 C118.805,52.879 118.014,52.088 117.221,51.296 C117.221,56.105 117.221,60.914 117.221,65.722 C117.221,75.733 117.221,85.742 117.221,95.752 C117.221,104.337 117.221,112.922 117.221,121.507 C117.221,123.195 117.221,124.884 117.221,126.572 C117.221,127.416 117.201,128.259 117.161,129.103 C117.119,129.981 117.048,130.859 116.96,131.734 C116.917,132.169 116.863,132.602 116.808,133.035 C116.878,132.488 116.782,133.204 116.772,133.264 C116.73,133.551 116.684,133.836 116.637,134.121 C116.058,137.629 115.071,141.065 113.739,144.359 C113.716,144.415 113.448,145.06 113.656,144.569 C113.573,144.763 113.488,144.955 113.404,145.147 C113.234,145.532 113.059,145.913 112.88,146.293 C112.494,147.113 112.079,147.921 111.646,148.718 C110.819,150.245 109.901,151.721 108.917,153.151 C108.681,153.493 108.438,153.831 108.193,154.167 C108.073,154.336 107.948,154.502 107.824,154.668 C107.789,154.715 107.369,155.263 107.691,154.847 C107.141,155.558 106.567,156.25 105.979,156.93 C104.848,158.235 103.641,159.475 102.379,160.654 C101.773,161.22 101.149,161.767 100.515,162.302 C100.198,162.57 99.875,162.831 99.552,163.09 C99.39,163.219 99.226,163.347 99.063,163.475 C99.474,163.154 98.789,163.678 98.717,163.732 C97.329,164.77 95.877,165.724 94.386,166.608 C92.886,167.496 91.334,168.295 89.747,169.016 C89.555,169.104 89.363,169.189 89.17,169.273 C89.117,169.297 88.474,169.569 88.965,169.363 C88.575,169.527 88.184,169.682 87.792,169.834 C86.936,170.166 86.07,170.469 85.198,170.752 C83.505,171.301 81.779,171.747 80.035,172.106 C79.188,172.28 78.335,172.427 77.481,172.557 C77.418,172.566 76.705,172.664 77.251,172.592 C77.035,172.621 76.818,172.647 76.602,172.673 C76.094,172.733 75.585,172.782 75.078,172.827 C73.235,172.988 71.383,173.033 69.535,172.988 C68.651,172.966 67.769,172.914 66.888,172.845 C66.451,172.811 66.014,172.767 65.578,172.721 C65.361,172.698 65.144,172.673 64.927,172.647 C64.784,172.629 64.639,172.611 64.495,172.592 C64.767,172.629 64.762,172.628 64.48,172.588 C60.95,172.087 57.484,171.172 54.151,169.91 C53.758,169.761 53.366,169.604 52.976,169.443 C52.329,169.18 53.409,169.632 52.768,169.357 C52.575,169.274 52.382,169.189 52.19,169.103 C51.36,168.734 50.543,168.336 49.736,167.921 C48.189,167.126 46.692,166.238 45.24,165.283 C44.545,164.827 43.866,164.348 43.195,163.856 C43.027,163.733 42.863,163.608 42.696,163.482 C42.146,163.068 43.062,163.772 42.52,163.347 C42.138,163.05 41.762,162.743 41.389,162.435 C40.06,161.332 38.796,160.151 37.59,158.914 C36.384,157.677 35.251,156.368 34.183,155.011 C33.757,154.47 34.464,155.383 34.047,154.834 C33.921,154.669 33.798,154.502 33.675,154.335 C33.427,154 33.187,153.662 32.948,153.321 C32.429,152.584 31.938,151.828 31.461,151.063 C30.543,149.583 29.711,148.05 28.956,146.482 C28.774,146.103 28.599,145.722 28.428,145.34 C28.341,145.148 28.257,144.955 28.173,144.762 C27.895,144.122 28.354,145.201 28.085,144.554 C27.736,143.71 27.416,142.852 27.114,141.988 C26.529,140.311 26.047,138.6 25.65,136.87 C25.457,136.029 25.293,135.184 25.145,134.335 C25.071,133.908 25.004,133.479 24.942,133.05 C24.837,132.336 25.002,133.537 24.91,132.818 C24.873,132.53 24.84,132.241 24.808,131.953 C24.526,129.397 24.524,126.841 24.524,124.277 C24.524,121.244 24.524,118.211 24.524,115.177 C24.524,105.442 24.524,95.707 24.524,85.972 C24.524,76.865 24.524,67.759 24.524,58.653 C24.524,56.201 24.524,53.749 24.524,51.296 C24.524,48.233 19.774,48.233 19.774,51.296" id="Fill-339" fill="#4C5159"></path>
            <path d="M13.884,99.159 C13.884,99.159 13.062,102.055 14.687,103.488 C19.807,108 19.645,114.598 19.645,114.598 L19.645,102.84 L17.981,100.98 L13.884,99.159" id="Fill-340" fill="#E7CEBB"></path>
            <path d="M23.245,108.745 C23.388,107.118 23.058,105.358 22.495,103.839 C21.243,100.465 18.47,98.206 15.002,97.348 C13.515,96.979 12.885,99.27 14.371,99.638 C17.208,100.34 19.417,102.155 20.339,104.847 C20.814,106.237 21,107.272 20.871,108.745 C20.737,110.272 23.113,110.259 23.245,108.745" id="Fill-341" fill="#4C5159"></path>
            <path d="M117.153,81.42 C117.153,81.42 101.831,70.858 100.37,60.797 C100.37,60.797 52.616,71.999 32.581,62.443 C32.581,62.443 28.161,61.348 28.462,56.111 C29.217,42.991 116.692,51.925 116.692,51.925 C116.692,51.925 117.153,61.808 117.153,81.42" id="Fill-342" fill="#E7CEBB"></path>
            <path d="M105.163,78.163 C102.167,76.614 98.778,75.619 95.463,75.079 C88.831,73.998 81.855,74.931 76.4,79.102 C75.373,79.887 74.832,81.131 75.548,82.351 C76.141,83.365 77.766,83.992 78.797,83.203 C81.435,81.187 83.753,80.196 87.009,79.621 C87.153,79.596 87.299,79.572 87.442,79.551 C88.158,79.44 86.961,79.606 87.676,79.523 C88.032,79.482 88.39,79.454 88.748,79.428 C89.449,79.38 90.153,79.371 90.856,79.382 C91.535,79.392 92.215,79.437 92.892,79.497 C93.221,79.528 93.548,79.566 93.875,79.607 C93.267,79.531 93.913,79.615 94.011,79.63 C94.199,79.658 94.387,79.69 94.575,79.722 C96.679,80.078 98.746,80.656 100.745,81.399 C101.096,81.528 101.443,81.666 101.788,81.808 C102.327,82.028 101.232,81.568 101.729,81.783 C101.847,81.835 101.964,81.886 102.081,81.94 C102.312,82.043 102.541,82.15 102.766,82.266 C103.917,82.86 105.337,82.572 106.017,81.413 C106.645,80.34 106.313,78.758 105.163,78.163" id="Fill-343" fill="#F0A457"></path>
            <path d="M34.884,82.266 C35.089,82.159 35.298,82.063 35.507,81.968 C35.62,81.916 35.732,81.867 35.845,81.817 C36.414,81.567 35.474,81.97 35.771,81.845 C36.107,81.705 36.448,81.571 36.791,81.442 C38.824,80.671 40.934,80.097 43.076,79.722 C43.39,79.667 43.705,79.62 44.02,79.574 C43.399,79.663 44.417,79.532 44.561,79.517 C45.234,79.447 45.91,79.407 46.587,79.386 C47.288,79.364 47.989,79.38 48.689,79.415 C49.046,79.433 49.403,79.465 49.76,79.5 C49.904,79.515 50.047,79.53 50.191,79.547 C49.644,79.484 50.363,79.575 50.425,79.585 C51.914,79.817 53.371,80.227 54.772,80.777 C55.035,80.885 55.061,80.896 54.853,80.812 C55.07,80.906 55.283,81.009 55.498,81.112 C55.859,81.286 56.211,81.478 56.562,81.674 C57.364,82.124 58.123,82.646 58.853,83.203 C59.884,83.992 61.509,83.365 62.103,82.351 C62.818,81.131 62.277,79.887 61.25,79.102 C55.771,74.912 48.841,74.036 42.187,75.079 C38.876,75.598 35.474,76.618 32.487,78.163 C31.338,78.758 31.005,80.34 31.635,81.413 C32.313,82.572 33.734,82.86 34.884,82.266" id="Fill-344" fill="#F0A457"></path>
            <path d="M73.24,238.13 C114.12,238.13 127.95,229.7 127.95,229.7 C127.95,229.7 128.292,206.527 121.109,200.732 C121.109,200.732 94.255,183.522 82.795,180.536 L60.546,180.536 C49.087,183.522 22.233,200.732 22.233,200.732 C15.049,206.527 15.392,229.7 15.392,229.7 C15.392,229.7 33.864,238.13 74.744,238.13 L73.24,238.13" id="Fill-345" fill="#ACC264"></path>
            <path d="M73.24,240.505 C87.748,240.497 102.549,239.662 116.687,236.174 C119.811,235.402 122.918,234.485 125.898,233.26 C127.109,232.762 129.268,232.152 130.001,230.899 C130.597,229.882 130.327,228.157 130.299,227.04 C130.243,224.762 130.109,222.485 129.903,220.215 C129.378,214.431 128.528,208.355 125.878,203.111 C125.011,201.396 123.785,199.622 122.14,198.573 C121.134,197.934 120.125,197.302 119.111,196.673 C114.597,193.872 110.031,191.152 105.405,188.539 C99.966,185.467 94.436,182.521 88.673,180.099 C87.542,179.624 86.398,179.181 85.236,178.79 C84.367,178.496 83.456,178.161 82.53,178.161 C80.34,178.161 78.148,178.161 75.958,178.161 C72.767,178.161 69.577,178.161 66.387,178.161 C64.457,178.161 62.526,178.161 60.596,178.161 C59.565,178.161 58.419,178.674 57.457,179.013 C56.122,179.485 54.813,180.031 53.512,180.589 C47.865,183.005 42.449,185.975 37.113,189.006 C32.614,191.561 28.171,194.221 23.777,196.954 C22.883,197.511 21.991,198.069 21.104,198.636 C19.29,199.793 18.028,201.876 17.138,203.782 C14.646,209.125 13.858,215.196 13.368,221.014 C13.125,223.897 12.974,226.807 13.016,229.7 C13.028,230.473 13.445,231.411 14.192,231.751 C18.938,233.912 24.186,235.143 29.254,236.237 C44.155,239.456 59.53,240.496 74.744,240.505 C74.744,238.922 74.744,237.338 74.744,235.754 C74.243,235.754 73.742,235.754 73.24,235.754 C70.177,235.754 70.177,240.505 73.24,240.505 C73.742,240.505 74.243,240.505 74.744,240.505 C77.808,240.505 77.808,235.756 74.744,235.754 C65.813,235.749 56.88,235.357 47.998,234.414 C47.113,234.319 46.23,234.219 45.346,234.112 C44.918,234.063 44.492,234.008 44.064,233.955 C43.855,233.928 43.645,233.901 43.435,233.875 C43.334,233.861 42.448,233.743 43.032,233.822 C41.408,233.603 39.786,233.36 38.167,233.097 C35.407,232.648 32.661,232.128 29.931,231.529 C26.404,230.755 22.901,229.847 19.477,228.703 C18.615,228.416 17.76,228.11 16.915,227.779 C16.617,227.662 15.731,227.287 16.812,227.746 C16.738,227.714 16.664,227.682 16.59,227.649 C16.982,228.333 17.374,229.016 17.766,229.7 C17.72,226.43 17.912,223.145 18.219,219.891 C18.282,219.226 18.354,218.562 18.432,217.898 C18.471,217.557 18.514,217.217 18.559,216.878 C18.471,217.547 18.55,216.949 18.567,216.824 C18.599,216.594 18.633,216.365 18.667,216.134 C18.882,214.694 19.146,213.263 19.466,211.842 C19.774,210.474 20.148,209.12 20.606,207.794 C20.71,207.492 20.822,207.192 20.937,206.894 C20.994,206.747 21.053,206.602 21.112,206.457 C20.855,207.085 21.059,206.583 21.115,206.457 C21.373,205.871 21.663,205.301 21.981,204.746 C22.12,204.504 22.269,204.268 22.423,204.035 C22.526,203.877 23.094,203.123 22.601,203.756 C22.938,203.324 23.316,202.927 23.727,202.566 C24.083,202.254 23.161,202.956 23.536,202.716 C23.662,202.635 23.789,202.555 23.916,202.474 C25.146,201.694 26.382,200.925 27.622,200.161 C32.353,197.243 37.14,194.412 41.999,191.709 C44.764,190.17 47.558,188.677 50.391,187.266 C51.713,186.607 53.047,185.97 54.391,185.36 C54.993,185.088 55.599,184.823 56.206,184.564 C55.544,184.846 56.495,184.448 56.656,184.381 C56.983,184.249 57.311,184.12 57.641,183.993 C58.689,183.59 59.752,183.223 60.834,182.919 C61.452,182.746 60.086,182.911 60.838,182.911 C61.206,182.911 61.575,182.911 61.944,182.911 C64.342,182.911 66.741,182.911 69.139,182.911 C72.382,182.911 75.624,182.911 78.866,182.911 C79.943,182.911 81.02,182.911 82.097,182.911 C82.319,182.911 82.541,182.911 82.764,182.911 C82.271,182.911 82.151,182.818 82.625,182.951 C82.907,183.03 83.189,183.118 83.47,183.207 C84.608,183.565 85.725,183.991 86.829,184.441 C86.974,184.5 87.118,184.56 87.263,184.619 C87.779,184.833 86.765,184.406 87.284,184.627 C87.584,184.756 87.885,184.886 88.184,185.019 C88.86,185.317 89.532,185.624 90.201,185.937 C100.013,190.524 109.377,196.157 118.54,201.915 C118.924,202.156 119.309,202.4 119.691,202.643 C119.76,202.687 119.828,202.73 119.896,202.774 C119.636,202.607 119.363,202.345 119.706,202.647 C119.925,202.839 120.127,203.048 120.324,203.263 C120.452,203.402 121.012,204.117 120.531,203.484 C120.695,203.7 120.847,203.924 120.995,204.15 C121.336,204.669 121.632,205.216 121.908,205.773 C122.042,206.044 122.167,206.319 122.288,206.597 C122.509,207.098 122.08,206.089 122.289,206.601 C122.348,206.747 122.405,206.895 122.461,207.041 C122.714,207.698 122.936,208.37 123.141,209.044 C123.559,210.411 123.885,211.804 124.166,213.204 C124.303,213.891 124.425,214.581 124.539,215.271 C124.596,215.616 124.648,215.962 124.7,216.307 C124.726,216.48 124.75,216.651 124.775,216.824 C124.791,216.937 124.806,217.052 124.822,217.167 C124.776,216.821 124.771,216.781 124.805,217.049 C125.139,219.622 125.345,222.212 125.468,224.803 C125.544,226.432 125.598,228.068 125.575,229.7 C125.967,229.016 126.359,228.333 126.751,227.649 C126.528,227.784 126.295,227.901 126.063,228.018 C125.77,228.166 125.473,228.305 125.174,228.442 C124.986,228.526 124.797,228.61 124.608,228.692 C124.091,228.914 124.988,228.531 124.804,228.609 C124.67,228.666 124.536,228.72 124.401,228.775 C121.327,230.022 118.121,230.941 114.901,231.719 C112.495,232.303 110.067,232.79 107.628,233.216 C106.179,233.47 104.725,233.697 103.269,233.904 C103.075,233.932 102.882,233.959 102.688,233.985 C102.596,233.999 101.938,234.088 102.534,234.008 C102.132,234.063 101.73,234.114 101.329,234.164 C100.422,234.278 99.515,234.385 98.606,234.485 C90.187,235.414 81.707,235.749 73.24,235.754 C70.177,235.756 70.176,240.506 73.24,240.505" id="Fill-346" fill="#4C5159"></path>
            <path d="M80.009,178.507 C80.009,178.507 89.942,174.705 94.022,180.566 C98.103,186.424 94.022,199.568 94.022,199.568 C94.022,199.568 86.04,190.383 72.735,198.142 L80.009,178.507" id="Fill-347" fill="#ACC264"></path>
            <path d="M80.64,180.797 C81.082,180.629 81.539,180.495 81.994,180.365 C82.461,180.234 82.935,180.122 83.411,180.02 C83.69,179.96 83.97,179.908 84.25,179.859 C84.4,179.833 84.547,179.81 84.697,179.787 C84.957,179.751 84.899,179.758 84.526,179.809 C84.631,179.795 84.736,179.784 84.841,179.772 C85.498,179.699 86.158,179.668 86.818,179.671 C87.159,179.673 87.499,179.692 87.837,179.718 C88.008,179.731 88.18,179.752 88.349,179.772 C87.648,179.688 88.426,179.8 88.565,179.827 C88.902,179.894 89.233,179.986 89.563,180.088 C89.727,180.138 89.888,180.2 90.048,180.26 C89.46,180.039 90,180.243 90.113,180.298 C90.426,180.447 90.725,180.629 91.014,180.82 C91.512,181.151 90.63,180.495 91.097,180.876 C91.284,181.029 91.456,181.199 91.625,181.37 C91.756,181.502 91.876,181.645 91.996,181.786 C91.644,181.368 92.003,181.809 92.063,181.899 C92.25,182.173 92.408,182.467 92.558,182.763 C92.612,182.871 92.839,183.404 92.594,182.815 C92.661,182.974 92.718,183.137 92.775,183.3 C92.914,183.689 93.02,184.09 93.115,184.492 C93.201,184.847 93.264,185.208 93.322,185.568 C93.423,186.194 93.261,185.043 93.335,185.678 C93.357,185.865 93.373,186.054 93.39,186.242 C93.46,187.072 93.47,187.907 93.453,188.74 C93.437,189.511 93.383,190.281 93.313,191.048 C93.278,191.423 93.234,191.798 93.189,192.171 C93.112,192.8 93.263,191.649 93.177,192.27 C93.143,192.506 93.107,192.744 93.069,192.979 C92.87,194.25 92.611,195.51 92.313,196.76 C92.14,197.489 91.954,198.219 91.732,198.936 C93.055,198.586 94.379,198.238 95.702,197.888 C93.975,195.911 91.421,194.546 89,193.654 C83.154,191.503 76.76,193.079 71.536,196.092 C72.7,196.985 73.862,197.88 75.025,198.774 C77.45,192.229 79.874,185.683 82.299,179.138 C82.749,177.923 81.807,176.536 80.64,176.216 C79.31,175.85 78.167,176.662 77.717,177.874 C75.293,184.42 72.869,190.966 70.444,197.511 C69.691,199.544 72.246,201.166 73.933,200.193 C75.399,199.348 76.577,198.782 78.042,198.286 C78.71,198.059 79.392,197.878 80.08,197.724 C80.438,197.644 80.798,197.581 81.16,197.522 C81.443,197.48 81.442,197.48 81.159,197.521 C81.364,197.495 81.569,197.477 81.776,197.458 C82.364,197.407 82.955,197.396 83.544,197.409 C83.793,197.415 84.042,197.43 84.29,197.448 C84.444,197.458 85.424,197.577 84.729,197.48 C85.755,197.624 86.763,197.888 87.737,198.236 C87.925,198.302 88.109,198.376 88.293,198.45 C87.588,198.167 88.357,198.484 88.51,198.555 C88.87,198.723 89.222,198.91 89.569,199.106 C89.882,199.283 90.186,199.472 90.485,199.671 C90.701,199.814 91.678,200.544 90.925,199.962 C91.424,200.349 91.926,200.769 92.343,201.247 C93.57,202.652 95.817,201.802 96.313,200.198 C96.78,198.691 97.12,197.139 97.415,195.59 C98.022,192.408 98.416,189.104 98.105,185.865 C97.758,182.228 96.5,178.878 93.411,176.719 C90.853,174.93 87.375,174.69 84.372,175.079 C82.683,175.296 80.974,175.608 79.377,176.216 C78.168,176.676 77.35,177.799 77.717,179.138 C78.036,180.298 79.427,181.257 80.64,180.797" id="Fill-348" fill="#4C5159"></path>
            <path d="M62.696,178.507 C62.696,178.507 52.761,174.705 48.683,180.566 C44.602,186.424 48.683,199.568 48.683,199.568 C48.683,199.568 56.665,190.383 69.97,198.142 L62.696,178.507" id="Fill-349" fill="#ACC264"></path>
            <path d="M63.328,176.216 C61.68,175.589 59.918,175.283 58.179,175.059 C55.135,174.666 51.721,175.021 49.149,176.819 C43.25,180.944 44.146,189.588 45.32,195.752 C45.605,197.246 45.941,198.745 46.391,200.198 C46.888,201.802 49.135,202.652 50.361,201.247 C50.76,200.791 51.235,200.394 51.707,200.018 C52,199.787 51.154,200.438 51.608,200.099 C51.749,199.995 51.893,199.894 52.036,199.795 C52.323,199.596 52.62,199.411 52.92,199.232 C53.254,199.032 53.599,198.849 53.947,198.674 C54.155,198.57 54.366,198.473 54.579,198.379 C54.811,198.279 54.755,198.303 54.412,198.45 C54.548,198.393 54.687,198.341 54.827,198.288 C55.733,197.944 56.677,197.7 57.631,197.534 C57.746,197.515 57.86,197.497 57.976,197.48 C57.635,197.525 57.601,197.53 57.872,197.497 C58.175,197.463 58.48,197.442 58.785,197.424 C59.432,197.388 60.081,197.402 60.726,197.443 C61,197.46 61.274,197.489 61.546,197.521 C61.263,197.48 61.262,197.48 61.544,197.522 C61.76,197.554 61.975,197.593 62.189,197.634 C62.947,197.776 63.694,197.979 64.43,198.21 C66.02,198.709 67.229,199.305 68.771,200.193 C70.459,201.166 73.013,199.544 72.26,197.511 C69.836,190.966 67.411,184.42 64.987,177.874 C64.538,176.662 63.395,175.85 62.065,176.216 C60.899,176.536 59.956,177.923 60.407,179.138 C62.83,185.683 65.255,192.229 67.68,198.774 C68.842,197.88 70.005,196.985 71.168,196.092 C65.942,193.078 59.705,191.579 53.849,193.604 C51.379,194.458 48.75,195.889 47.002,197.888 C48.326,198.238 49.65,198.586 50.973,198.936 C50.506,197.428 50.165,195.876 49.869,194.328 C49.74,193.644 49.628,192.958 49.528,192.27 C49.438,191.65 49.595,192.8 49.516,192.171 C49.492,191.985 49.47,191.799 49.45,191.613 C49.4,191.172 49.361,190.728 49.328,190.285 C49.206,188.689 49.207,187.081 49.391,185.491 C49.318,186.121 49.395,185.497 49.412,185.386 C49.44,185.205 49.477,185.025 49.511,184.846 C49.582,184.493 49.672,184.146 49.77,183.801 C49.865,183.466 49.983,183.138 50.11,182.815 C49.878,183.405 50.093,182.874 50.147,182.763 C50.243,182.563 50.354,182.369 50.465,182.177 C50.549,182.036 50.641,181.9 50.733,181.764 C51.093,181.233 50.425,182.122 50.83,181.644 C51.064,181.363 51.332,181.114 51.608,180.876 C52.064,180.483 51.202,181.162 51.691,180.82 C51.833,180.721 51.983,180.631 52.133,180.541 C52.283,180.454 52.438,180.376 52.592,180.298 C52.695,180.247 52.8,180.199 52.905,180.152 C52.602,180.279 52.573,180.295 52.817,180.2 C53.139,180.079 53.471,179.986 53.805,179.903 C53.984,179.857 55.061,179.676 54.356,179.772 C55.085,179.673 55.825,179.658 56.559,179.679 C56.888,179.688 57.216,179.712 57.544,179.74 C57.704,179.755 57.863,179.772 58.021,179.79 C58.581,179.853 57.461,179.709 58.008,179.787 C58.613,179.875 59.213,179.996 59.809,180.134 C60.569,180.311 61.335,180.519 62.065,180.797 C63.276,181.257 64.668,180.298 64.987,179.138 C65.355,177.799 64.537,176.676 63.328,176.216" id="Fill-350" fill="#4C5159"></path>
            <path d="M69.796,198.728 C68.094,200.862 67.125,203.652 66.525,206.275 C64.917,213.297 66.24,220.676 68.825,227.291 C69.06,227.894 69.612,228.305 70.285,228.121 C70.861,227.962 71.351,227.263 71.115,226.66 C68.679,220.423 67.339,213.54 68.814,206.907 C69.037,205.911 69.327,204.932 69.676,203.973 C69.966,203.177 70.146,202.767 70.569,201.944 C70.797,201.502 71.046,201.07 71.318,200.653 C71.419,200.499 71.855,199.932 71.476,200.408 C71.878,199.902 71.972,199.224 71.476,198.728 C71.056,198.309 70.199,198.22 69.796,198.728" id="Fill-351" fill="#4C5159"></path>
            <path d="M59.7,173.752 L59.7,187.13 C59.7,193.3 64.702,198.303 70.873,198.303 C77.043,198.303 82.045,193.3 82.045,187.13 L82.045,173.752 L59.7,173.752" id="Fill-352" fill="#F4E0CD"></path>
            <path d="M57.324,173.752 C57.324,177.692 57.324,181.633 57.324,185.573 C57.324,188.056 57.53,190.412 58.547,192.725 C60.123,196.31 63.32,198.975 67.033,200.126 C70.834,201.303 75.2,200.583 78.468,198.343 C81.902,195.987 83.926,192.336 84.368,188.232 C84.542,186.605 84.421,184.911 84.421,183.282 C84.421,180.812 84.421,178.342 84.421,175.872 C84.421,175.164 84.421,174.459 84.421,173.752 C84.421,172.457 83.34,171.376 82.045,171.376 C74.666,171.376 67.286,171.376 59.906,171.376 C59.837,171.376 59.769,171.376 59.7,171.376 C56.636,171.376 56.636,176.127 59.7,176.127 C67.08,176.127 74.46,176.127 81.839,176.127 C81.908,176.127 81.977,176.127 82.045,176.127 C81.254,175.335 80.462,174.544 79.67,173.752 C79.67,177.692 79.67,181.633 79.67,185.573 C79.67,186.088 79.67,186.604 79.67,187.12 C79.67,187.419 79.657,187.716 79.636,188.014 C79.631,188.078 79.539,188.793 79.62,188.246 C79.588,188.46 79.544,188.671 79.5,188.881 C79.415,189.298 79.292,189.707 79.159,190.11 C79.093,190.31 79.015,190.506 78.938,190.701 C79.131,190.212 78.781,191 78.738,191.084 C78.55,191.455 78.33,191.809 78.102,192.156 C77.987,192.329 77.863,192.496 77.74,192.662 C78.053,192.241 77.63,192.775 77.588,192.823 C77.319,193.136 77.023,193.426 76.719,193.708 C76.568,193.848 76.41,193.981 76.25,194.112 C76.649,193.781 75.978,194.305 75.9,194.358 C75.557,194.593 75.194,194.8 74.827,194.995 C74.643,195.093 74.453,195.181 74.264,195.269 C74.745,195.046 74.114,195.323 74.052,195.346 C73.655,195.494 73.245,195.608 72.833,195.71 C72.625,195.761 72.414,195.801 72.203,195.84 C71.923,195.884 71.919,195.888 72.191,195.85 C72.047,195.867 71.902,195.881 71.757,195.894 C71.315,195.932 70.872,195.932 70.429,195.919 C70.209,195.912 69.99,195.894 69.771,195.874 C69.057,195.811 70.244,195.958 69.543,195.84 C69.121,195.77 68.707,195.664 68.295,195.545 C68.093,195.486 67.894,195.416 67.693,195.346 C67.562,195.297 67.43,195.247 67.301,195.194 C67.546,195.298 67.543,195.293 67.292,195.181 C66.915,195.006 66.551,194.8 66.194,194.583 C66.017,194.476 65.846,194.358 65.676,194.24 C65.623,194.205 65.086,193.785 65.495,194.112 C65.171,193.855 64.871,193.569 64.579,193.277 C64.433,193.131 64.294,192.977 64.158,192.823 C64.065,192.719 63.976,192.614 63.89,192.506 C64.046,192.718 64.044,192.714 63.882,192.496 C63.634,192.163 63.416,191.809 63.207,191.45 C63.103,191.27 63.007,191.084 62.913,190.898 C62.884,190.842 62.603,190.21 62.808,190.701 C62.645,190.312 62.515,189.908 62.399,189.503 C62.339,189.298 62.292,189.089 62.245,188.881 C62.224,188.787 62.083,187.906 62.152,188.448 C62.062,187.742 62.075,187.03 62.075,186.321 C62.075,182.182 62.075,178.044 62.075,173.903 C62.075,173.853 62.075,173.803 62.075,173.752 C62.075,170.688 57.324,170.688 57.324,173.752" id="Fill-353" fill="#4C5159"></path>
            <path d="M75.271,207.309 C75.271,208.751 74.138,209.921 72.74,209.921 C71.341,209.921 70.208,208.751 70.208,207.309 C70.208,205.866 71.341,204.697 72.74,204.697 C74.138,204.697 75.271,205.866 75.271,207.309" id="Fill-354" fill="#4C5159"></path>
            <path d="M62.118,180.804 C62.118,180.804 70.873,182.298 79.628,180.804 L79.628,187.817 C79.628,187.817 76.724,191.132 71.19,191.132 C65.801,191.132 62.118,187.817 62.118,187.817 L62.118,180.804" id="Fill-356" fill="#E7CEBB"></path>
            <path d="M51.768,98.348 C51.768,102.785 49.575,106.383 46.869,106.383 C44.162,106.383 41.969,102.785 41.969,98.348 C41.969,93.91 44.162,90.312 46.869,90.312 C49.575,90.312 51.768,93.91 51.768,98.348" id="Fill-357" fill="#4C5159"></path>
            <path d="M95.192,98.348 C95.192,102.785 93,106.383 90.293,106.383 C87.587,106.383 85.394,102.785 85.394,98.348 C85.394,93.91 87.587,90.312 90.293,90.312 C93,90.312 95.192,93.91 95.192,98.348" id="Fill-358" fill="#4C5159"></path>
            <path d="M63.272,122.6 C64.259,125.086 66.968,126.469 69.486,126.82 C71.725,127.132 73.93,126.836 75.782,125.465 C76.703,124.784 77.577,123.902 78.127,122.884 C78.854,121.537 76.803,120.337 76.077,121.686 C75.708,122.368 75.373,122.712 74.724,123.291 C73.398,124.468 71.738,124.676 70.035,124.515 C68.673,124.385 67.276,123.811 66.344,122.934 C66.184,122.782 66.036,122.618 65.894,122.449 C65.684,122.199 66.029,122.637 65.854,122.396 C65.793,122.312 65.738,122.225 65.682,122.138 C65.59,121.99 65.333,121.392 65.562,121.97 C65.324,121.368 64.777,120.954 64.102,121.14 C63.529,121.298 63.033,121.998 63.272,122.6" id="Fill-359" fill="#4C5159"></path>
            <path d="M106.852,135.947 C108.031,133.388 109.028,130.651 109.814,127.741 C116.093,104.491 113.074,76.119 113.074,76.119 L117.153,78.179 L117.153,128.692 C116.638,147.114 105.037,160.679 94.13,166.707 C82,173.41 65.558,163.44 65.558,163.44 C75.976,163.85 87.098,159.11 95.836,151.124 C95.836,151.124 79.672,153.099 70.873,146.947 C70.873,146.947 51.702,154.493 43.705,152.672 L37.438,145.784 L74.821,140.004 L106.852,135.947" id="Fill-360" fill="#E7CEBB"></path>
            <path d="M53.615,181.336 C53.615,181.336 26.36,169.828 21.665,143.54 C16.971,117.254 22.485,102.336 22.485,102.336 C22.485,102.336 26.579,164.78 68.812,166.048 C68.812,166.048 70.633,165.896 72.828,166.074 C72.854,166.056 72.868,166.048 72.868,166.048 C115.099,164.78 119.524,102.336 119.524,102.336 C119.524,102.336 124.708,117.254 120.013,143.54 C115.318,169.828 88.063,181.336 88.063,181.336 C88.063,181.336 79.933,185.521 70.628,185.521 C62.62,185.521 53.615,181.336 53.615,181.336" id="Fill-361" fill="#F0A457"></path>
            <path d="M54.813,179.285 C52.993,178.514 51.247,177.535 49.545,176.535 C47.701,175.45 45.909,174.273 44.172,173.019 C43.69,172.671 43.214,172.315 42.741,171.953 C42.312,171.625 43.167,172.286 42.737,171.951 C42.615,171.856 42.494,171.76 42.372,171.664 C42.083,171.436 41.797,171.205 41.511,170.973 C40.447,170.103 39.413,169.196 38.406,168.259 C36.219,166.223 34.189,164.017 32.35,161.662 C32.709,162.12 32.32,161.618 32.266,161.546 C32.15,161.395 32.04,161.244 31.925,161.091 C31.7,160.786 31.479,160.476 31.258,160.167 C30.777,159.484 30.318,158.787 29.871,158.08 C28.988,156.685 28.188,155.239 27.459,153.758 C27.281,153.395 27.109,153.028 26.94,152.659 C26.854,152.474 26.772,152.287 26.69,152.101 C26.662,152.038 26.395,151.41 26.606,151.914 C26.257,151.084 25.941,150.24 25.645,149.39 C25.054,147.698 24.583,145.966 24.209,144.214 C23.244,139.691 22.758,135.329 22.422,130.706 C22.142,126.838 22.071,122.954 22.231,119.078 C22.296,117.501 22.406,115.925 22.556,114.353 C22.62,113.684 22.695,113.017 22.775,112.35 C22.798,112.164 22.94,111.11 22.833,111.895 C22.878,111.552 22.929,111.21 22.98,110.867 C23.378,108.235 23.87,105.543 24.756,103.024 C24.762,103.004 24.769,102.986 24.775,102.968 C23.22,102.756 21.665,102.547 20.109,102.336 C20.385,106.519 21.08,110.705 21.88,114.814 C23.587,123.579 26.225,132.206 30.111,140.259 C34.481,149.309 40.817,157.719 49.538,162.952 C52.826,164.925 56.454,166.392 60.179,167.293 C62.267,167.797 64.406,168.108 66.544,168.294 C67.388,168.366 68.255,168.455 69.102,168.404 C69.67,168.37 70.24,168.362 70.811,168.363 C71.825,168.365 73.185,168.709 74.066,168.098 C73.667,168.207 73.268,168.315 72.868,168.422 C78.614,168.239 84.202,166.942 89.387,164.448 C93.969,162.244 98.074,159.031 101.542,155.333 C108.397,148.026 112.939,138.812 116.163,129.408 C118.58,122.359 120.256,115.039 121.283,107.66 C121.529,105.893 121.773,104.117 121.899,102.336 C120.345,102.547 118.789,102.756 117.234,102.968 C117.981,105.125 118.373,107.442 118.726,109.687 C118.768,109.96 118.808,110.231 118.848,110.503 C118.868,110.646 118.887,110.787 118.908,110.929 C118.98,111.456 118.831,110.344 118.901,110.881 C118.989,111.558 119.066,112.236 119.138,112.916 C119.292,114.41 119.403,115.907 119.481,117.407 C119.674,121.135 119.633,124.875 119.423,128.602 C119.159,133.292 118.619,137.735 117.833,142.29 C117.512,144.146 117.097,145.976 116.555,147.78 C116.314,148.588 116.042,149.387 115.752,150.179 C115.61,150.569 115.458,150.956 115.305,151.341 C115.229,151.533 115.15,151.724 115.072,151.914 C115.282,151.407 114.944,152.201 114.906,152.288 C113.579,155.29 111.897,158.129 109.977,160.786 C109.754,161.091 109.528,161.395 109.299,161.696 C108.917,162.201 109.601,161.311 109.213,161.809 C109.098,161.955 108.981,162.101 108.864,162.247 C108.367,162.871 107.852,163.481 107.328,164.083 C106.352,165.198 105.326,166.272 104.267,167.31 C103.263,168.291 102.223,169.235 101.156,170.146 C100.668,170.563 100.174,170.969 99.674,171.371 C99.432,171.567 99.186,171.76 98.941,171.951 C98.512,172.287 99.367,171.624 98.937,171.953 C98.777,172.075 98.616,172.197 98.455,172.318 C96.67,173.661 94.816,174.91 92.909,176.071 C90.978,177.246 88.981,178.367 86.904,179.267 C86.677,179.365 86.457,179.485 86.232,179.589 C86.052,179.673 85.872,179.753 85.69,179.833 C85.583,179.881 85.473,179.928 85.363,179.976 C84.919,180.166 85.91,179.748 85.438,179.943 C84.772,180.22 84.101,180.475 83.423,180.72 C79.672,182.072 75.826,182.929 72.056,183.113 C67.897,183.317 64.327,182.556 60.272,181.303 C58.851,180.864 57.448,180.362 56.064,179.815 C55.826,179.72 55.587,179.622 55.351,179.524 C54.939,179.353 55.911,179.762 55.532,179.601 C55.453,179.567 55.374,179.533 55.293,179.499 C55.133,179.429 54.972,179.358 54.813,179.285 C53.639,178.74 52.265,178.942 51.563,180.136 C50.957,181.173 51.242,182.842 52.417,183.387 C58.287,186.108 64.988,188.033 71.488,187.885 C75.783,187.788 80.084,186.88 84.141,185.492 C85.898,184.891 87.566,184.11 89.272,183.382 C91.223,182.549 93.094,181.495 94.913,180.41 C99.204,177.849 103.242,174.809 106.88,171.384 C111.514,167.023 115.508,161.875 118.321,156.156 C122.072,148.53 123.237,140.102 123.954,131.714 C124.544,124.791 124.54,117.78 123.651,110.881 C123.261,107.849 122.797,104.761 121.86,101.84 C121.845,101.795 121.831,101.75 121.815,101.705 C120.924,99.131 117.341,99.638 117.148,102.336 C117.07,103.447 116.936,104.557 116.798,105.662 C116.765,105.928 116.73,106.193 116.695,106.457 C116.84,105.368 116.68,106.558 116.639,106.845 C116.542,107.529 116.437,108.214 116.327,108.895 C116.065,110.524 115.77,112.147 115.443,113.763 C114.631,117.784 113.62,121.766 112.391,125.681 C111.698,127.888 110.93,130.072 110.085,132.225 C109.876,132.756 109.662,133.286 109.444,133.814 C109.389,133.945 109.333,134.077 109.277,134.21 C109.553,133.555 109.351,134.036 109.292,134.172 C109.159,134.481 109.024,134.789 108.889,135.097 C108.399,136.204 107.883,137.3 107.343,138.385 C106.254,140.575 105.051,142.709 103.735,144.771 C103.074,145.806 102.378,146.818 101.653,147.807 C101.479,148.045 101.302,148.281 101.125,148.515 C101.04,148.627 100.717,149.045 101.138,148.502 C101.047,148.618 100.957,148.734 100.865,148.85 C100.472,149.351 100.065,149.843 99.652,150.328 C98.064,152.196 96.33,153.938 94.459,155.522 C94.234,155.714 94.007,155.9 93.778,156.087 C93.64,156.198 92.854,156.809 93.448,156.352 C92.939,156.743 92.419,157.119 91.893,157.485 C90.873,158.192 89.815,158.844 88.729,159.446 C88.113,159.787 87.486,160.106 86.853,160.412 C86.533,160.566 86.209,160.712 85.886,160.857 C85.746,160.919 85.606,160.979 85.465,161.039 C86.13,160.754 85.461,161.038 85.325,161.094 C83.971,161.642 82.582,162.096 81.171,162.477 C79.701,162.872 78.203,163.167 76.695,163.381 C77.375,163.285 76.79,163.368 76.66,163.385 C76.436,163.413 76.21,163.438 75.986,163.462 C75.587,163.505 75.189,163.539 74.79,163.57 C73.834,163.646 72.427,163.47 71.63,164.024 C72.029,163.915 72.429,163.807 72.828,163.699 C71.248,163.58 69.68,163.715 68.105,163.646 C67.413,163.614 66.722,163.563 66.033,163.496 C65.695,163.464 65.357,163.425 65.02,163.385 C64.889,163.368 64.304,163.288 64.985,163.381 C64.764,163.352 64.544,163.318 64.325,163.284 C61.701,162.874 59.125,162.173 56.651,161.207 C56.485,161.142 55.539,160.746 56.227,161.039 C55.946,160.92 55.668,160.796 55.391,160.669 C54.796,160.398 54.21,160.105 53.631,159.802 C52.53,159.225 51.464,158.585 50.429,157.899 C49.936,157.573 49.453,157.233 48.975,156.884 C48.737,156.711 48.502,156.532 48.268,156.352 C48.861,156.807 47.981,156.118 47.827,155.993 C46.878,155.22 45.969,154.4 45.092,153.548 C44.216,152.695 43.38,151.804 42.575,150.885 C42.188,150.443 41.811,149.993 41.44,149.537 C41.254,149.31 41.072,149.08 40.891,148.85 C40.804,148.739 40.482,148.321 40.903,148.866 C40.783,148.711 40.665,148.554 40.547,148.398 C39.076,146.441 37.748,144.38 36.529,142.257 C35.319,140.149 34.229,137.973 33.233,135.757 C32.998,135.231 32.768,134.702 32.543,134.172 C32.849,134.891 32.466,133.982 32.396,133.814 C32.27,133.505 32.145,133.196 32.022,132.886 C31.589,131.795 31.178,130.694 30.785,129.588 C28.22,122.358 26.471,114.824 25.397,107.232 C25.369,107.028 25.34,106.824 25.312,106.619 C25.263,106.254 25.413,107.374 25.348,106.883 C25.335,106.787 25.323,106.692 25.311,106.598 C25.265,106.244 25.221,105.89 25.179,105.537 C25.109,104.957 25.045,104.374 24.987,103.791 C24.939,103.306 24.893,102.822 24.861,102.336 C24.681,99.598 21.125,99.18 20.195,101.705 C19.408,103.839 18.983,106.142 18.598,108.373 C17.49,114.815 17.215,121.381 17.507,127.904 C17.719,132.638 18.26,137.356 19.011,142.033 C19.614,145.798 20.501,149.451 21.947,152.987 C24.483,159.19 28.287,164.742 32.94,169.552 C36.605,173.34 40.8,176.648 45.247,179.474 C47.472,180.889 49.785,182.211 52.195,183.289 C52.269,183.322 52.342,183.355 52.417,183.387 C53.609,183.891 54.95,183.758 55.666,182.535 C56.256,181.527 56.008,179.789 54.813,179.285" id="Fill-362" fill="#4C5159"></path>
            <path d="M70.873,132.177 C67.311,131.166 45.114,125.686 30.483,141.47 C30.483,141.47 37.03,153.018 70.873,142.578 C104.713,153.018 111.262,141.47 111.262,141.47 C96.632,125.686 74.434,131.166 70.873,132.177" id="Fill-363" fill="#F0A457"></path>
            <path d="M71.504,129.887 C67.803,128.839 63.917,128.31 60.084,128.12 C53.486,127.796 46.822,128.791 40.733,131.385 C36.219,133.31 32.15,136.206 28.804,139.79 C28.066,140.58 27.888,141.715 28.433,142.669 C29.119,143.872 30.324,144.827 31.428,145.606 C34.075,147.474 37.389,148.417 40.557,148.878 C44.697,149.48 48.861,149.401 53.011,148.927 C59.297,148.209 65.463,146.724 71.504,144.869 C71.083,144.869 70.663,144.869 70.241,144.869 C77.945,147.235 85.965,149.106 94.054,149.309 C98.382,149.417 102.969,149.027 107.002,147.34 C109.32,146.371 112.011,144.951 113.313,142.669 C113.857,141.715 113.679,140.58 112.941,139.79 C107.747,134.225 100.893,130.533 93.455,129.001 C87.617,127.798 81.647,127.851 75.771,128.726 C73.909,129.002 72.053,129.373 70.241,129.887 C68.997,130.238 68.238,131.554 68.583,132.808 C68.924,134.049 70.26,134.819 71.504,134.467 C72.807,134.099 74.13,133.81 75.461,133.567 C75.942,133.479 76.423,133.4 76.906,133.326 C77.167,133.286 77.427,133.249 77.688,133.212 C76.838,133.33 77.947,133.182 78.159,133.157 C79.431,133.008 80.708,132.911 81.987,132.856 C83.419,132.796 84.853,132.802 86.286,132.866 C87.016,132.899 87.746,132.954 88.474,133.023 C88.847,133.057 89.22,133.1 89.592,133.144 C89.696,133.156 90.333,133.243 89.713,133.157 C89.966,133.192 90.219,133.232 90.471,133.271 C92.099,133.525 93.708,133.889 95.291,134.345 C96.079,134.574 96.857,134.834 97.626,135.114 C98.019,135.257 98.407,135.41 98.794,135.567 C99.44,135.828 98.36,135.377 99.003,135.654 C99.262,135.767 99.52,135.886 99.777,136.005 C101.571,136.837 103.283,137.843 104.9,138.983 C105.804,139.619 106.191,139.934 107.147,140.772 C108.002,141.52 108.808,142.32 109.582,143.15 C109.458,142.191 109.334,141.231 109.211,140.272 C109.177,140.331 109.136,140.389 109.095,140.446 C108.818,140.839 109.522,139.907 109.306,140.178 C109.23,140.275 109.149,140.368 109.067,140.461 C108.847,140.707 108.608,140.936 108.362,141.153 C108.209,141.287 108.054,141.414 107.896,141.539 C108.739,140.878 107.949,141.487 107.72,141.642 C107.238,141.967 106.732,142.255 106.216,142.518 C105.925,142.665 105.629,142.802 105.33,142.931 C104.977,143.086 105.939,142.678 105.578,142.827 C105.495,142.86 105.413,142.894 105.33,142.926 C105.128,143.005 104.925,143.08 104.721,143.153 C103.901,143.446 103.06,143.679 102.211,143.876 C101.746,143.983 101.278,144.075 100.807,144.157 C100.557,144.202 100.307,144.241 100.055,144.279 C99.89,144.303 99.399,144.368 100.165,144.266 C99.986,144.289 99.807,144.311 99.628,144.332 C96.935,144.645 94.208,144.624 91.507,144.438 C90.719,144.381 89.931,144.308 89.145,144.223 C88.729,144.178 88.315,144.127 87.9,144.075 C87.193,143.985 88.392,144.144 87.677,144.045 C87.385,144.005 87.094,143.96 86.803,143.916 C84.817,143.617 82.844,143.233 80.883,142.798 C78.618,142.297 76.373,141.71 74.143,141.072 C72.808,140.692 71.324,139.954 69.942,140.379 C68.696,140.761 67.443,141.124 66.187,141.47 C62.134,142.587 58.018,143.496 53.853,144.075 C54.403,143.998 53.702,144.092 53.636,144.101 C53.426,144.128 53.218,144.152 53.011,144.176 C52.605,144.224 52.2,144.266 51.794,144.305 C50.965,144.388 50.134,144.449 49.302,144.495 C47.885,144.575 46.463,144.592 45.045,144.545 C44.442,144.526 43.84,144.489 43.24,144.442 C42.957,144.419 42.674,144.392 42.393,144.362 C42.178,144.34 41.087,144.197 41.949,144.316 C40.953,144.179 39.963,143.988 38.988,143.745 C38.173,143.541 37.371,143.289 36.584,142.992 C36.417,142.928 36.252,142.861 36.086,142.793 C36.945,143.147 36.306,142.885 36.107,142.795 C35.798,142.655 35.494,142.503 35.193,142.342 C34.704,142.081 34.23,141.79 33.777,141.47 C33.684,141.403 33.591,141.336 33.499,141.266 C33.336,141.144 34.107,141.748 33.685,141.408 C33.524,141.277 33.367,141.142 33.215,141.002 C32.926,140.737 32.652,140.45 32.41,140.141 C33.023,140.921 32.687,140.539 32.535,140.272 C32.411,141.231 32.287,142.191 32.164,143.15 C37.138,137.822 43.093,134.775 50.321,133.434 C50.701,133.363 51.083,133.301 51.464,133.241 C51.653,133.211 51.843,133.184 52.033,133.157 C51.413,133.246 52.05,133.156 52.154,133.144 C52.953,133.045 53.754,132.973 54.557,132.917 C56.012,132.817 57.473,132.796 58.933,132.828 C60.246,132.86 61.558,132.947 62.865,133.079 C63.152,133.108 63.439,133.141 63.727,133.174 C63.923,133.197 64.902,133.327 64.056,133.212 C64.607,133.287 65.155,133.373 65.703,133.465 C67.23,133.722 68.75,134.045 70.241,134.467 C71.486,134.819 72.822,134.049 73.163,132.808 C73.508,131.554 72.749,130.238 71.504,129.887" id="Fill-364" fill="#4C5159"></path>
            <path d="M117.62,30.604 C117.62,30.604 73.559,-19.3 24.602,14.743 C24.602,14.743 25.161,17.065 30.189,17.838 C30.189,17.838 17.424,19.386 12.008,15.517 C6.591,11.649 12.395,25.188 20.906,29.057 C20.906,29.057 14.329,27.123 3.11,29.444 C3.11,29.444 6.826,35.247 10.384,37.568 C10.384,37.568 3.109,53.817 12.007,64.262 C12.007,64.262 12.475,71.302 18.677,83.518 C29.053,79.016 30.373,63.216 30.373,63.216 C51.264,73.276 103.104,61.475 103.104,61.475 C103.49,70.952 121.846,85.461 121.846,85.461 C122.562,83.798 123.161,81.93 123.657,79.938 C128.672,63.951 140.898,19.444 117.62,30.604" id="Fill-365" fill="#F0A457"></path>
            <path d="M119.3,28.925 C116.046,25.243 112.209,21.988 108.347,18.976 C99.576,12.136 89.773,6.551 79.09,3.318 C65.832,-0.693 51.581,-0.432 38.622,4.566 C33.232,6.644 28.146,9.404 23.402,12.693 C22.504,13.315 22.032,14.278 22.311,15.375 C23.076,18.381 26.897,19.697 29.559,20.129 C29.77,18.574 29.98,17.019 30.189,15.464 C28.63,15.652 27.052,15.724 25.481,15.758 C23.979,15.791 22.476,15.756 20.977,15.648 C20.594,15.621 20.212,15.585 19.831,15.545 C19.639,15.526 19.447,15.502 19.256,15.48 C18.609,15.402 19.771,15.555 19.126,15.461 C18.316,15.342 17.512,15.182 16.718,14.983 C16.022,14.807 15.339,14.584 14.672,14.318 C15.283,14.562 14.325,14.141 14.166,14.058 C13.833,13.884 13.514,13.682 13.207,13.466 C12.161,12.735 10.988,12.286 9.704,12.559 C8.27,12.865 7.504,14.374 7.534,15.727 C7.559,16.954 8.026,18.077 8.499,19.186 C9.501,21.538 11.066,23.674 12.723,25.603 C14.645,27.838 17.019,29.864 19.708,31.108 C20.318,29.662 20.927,28.214 21.538,26.767 C19.856,26.277 18.035,26.129 16.298,26.01 C11.679,25.696 7.001,26.23 2.479,27.154 C1.003,27.456 0.265,29.407 1.06,30.643 C3.207,33.987 5.851,37.397 9.186,39.62 C8.901,38.536 8.617,37.453 8.333,36.369 C6.831,39.737 5.974,43.354 5.484,46.998 C4.58,53.729 5.886,60.656 10.328,65.942 C10.097,65.382 9.864,64.821 9.632,64.262 C9.763,66.174 10.229,68.096 10.727,69.94 C12.108,75.061 14.238,79.993 16.627,84.716 C17.258,85.964 18.752,86.066 19.877,85.568 C25.326,83.16 28.663,77.855 30.652,72.461 C31.738,69.517 32.483,66.349 32.749,63.216 C31.557,63.901 30.366,64.583 29.175,65.268 C34.27,67.703 39.879,68.692 45.461,69.228 C51.718,69.829 58.036,69.735 64.304,69.367 C75.448,68.713 86.557,67.132 97.517,65.039 C99.595,64.643 101.672,64.235 103.735,63.766 C102.732,63.003 101.73,62.239 100.728,61.475 C100.867,64.298 102.025,66.934 103.456,69.329 C105.069,72.028 107.094,74.498 109.192,76.829 C112.363,80.352 115.86,83.606 119.52,86.617 C119.734,86.793 119.949,86.969 120.167,87.14 C120.684,87.549 121.158,87.836 121.846,87.836 C122.6,87.836 123.581,87.402 123.896,86.66 C125.161,83.686 125.971,80.559 126.898,77.469 C127.565,75.25 128.201,73.02 128.806,70.783 C130.208,65.6 131.443,60.363 132.365,55.072 C133.248,50.005 133.951,44.799 133.696,39.644 C133.508,35.833 132.803,31.28 129.794,28.591 C125.933,25.139 120.616,26.557 116.421,28.553 C115.253,29.11 114.957,30.758 115.569,31.804 C116.264,32.99 117.65,33.212 118.818,32.656 C119.105,32.52 119.393,32.388 119.683,32.259 C120.181,32.041 119.177,32.467 119.672,32.264 C119.807,32.209 119.944,32.156 120.081,32.103 C120.628,31.892 121.188,31.708 121.756,31.551 C122.22,31.421 122.693,31.321 123.169,31.243 C123.619,31.17 122.537,31.321 122.982,31.268 C123.089,31.255 123.198,31.245 123.306,31.235 C123.548,31.215 123.791,31.207 124.033,31.206 C124.231,31.205 124.429,31.214 124.625,31.227 C125.334,31.277 124.106,31.134 124.647,31.222 C125.028,31.285 125.399,31.389 125.76,31.522 C126.254,31.704 125.148,31.23 125.739,31.523 C125.89,31.597 126.034,31.682 126.177,31.77 C126.321,31.858 126.457,31.955 126.591,32.056 C125.846,31.499 126.452,31.96 126.621,32.121 C126.745,32.238 126.861,32.363 126.975,32.489 C127.033,32.555 127.088,32.621 127.143,32.688 C127.39,32.985 126.753,32.172 126.987,32.484 C127.221,32.798 127.425,33.136 127.611,33.483 C127.701,33.651 127.783,33.821 127.863,33.994 C128.095,34.491 127.632,33.396 127.89,34.06 C128.054,34.478 128.188,34.907 128.309,35.34 C128.427,35.766 128.524,36.198 128.609,36.632 C128.654,36.86 128.693,37.088 128.731,37.316 C128.749,37.433 128.766,37.55 128.783,37.667 C128.844,38.083 128.7,36.994 128.778,37.632 C128.907,38.696 128.964,39.767 128.987,40.838 C129.037,43.267 128.867,45.699 128.606,48.113 C128.54,48.736 128.463,49.36 128.382,49.981 C128.311,50.54 128.459,49.419 128.383,49.979 C128.362,50.137 128.338,50.296 128.317,50.453 C128.264,50.824 128.208,51.194 128.152,51.566 C127.947,52.909 127.713,54.248 127.463,55.584 C126.485,60.808 125.212,65.975 123.794,71.095 C123.276,72.964 122.735,74.826 122.174,76.682 C121.931,77.491 121.682,78.298 121.43,79.104 C121.152,79.992 120.947,80.903 120.671,81.793 C120.535,82.232 120.386,82.668 120.233,83.101 C120.144,83.355 120.048,83.606 119.952,83.858 C119.971,83.808 119.646,84.611 119.794,84.262 C121.038,84.102 122.281,83.941 123.525,83.781 C120.77,81.602 118.165,79.208 115.672,76.736 C114.604,75.676 113.561,74.587 112.551,73.47 C112.055,72.922 111.569,72.363 111.091,71.798 C110.852,71.516 110.618,71.23 110.386,70.944 C110.27,70.801 110.155,70.657 110.041,70.514 C109.965,70.419 109.888,70.322 109.814,70.227 C109.999,70.467 110.011,70.483 109.851,70.274 C108.96,69.111 108.129,67.903 107.386,66.642 C107.055,66.08 106.75,65.502 106.467,64.915 C106.398,64.773 106.334,64.631 106.27,64.488 C106.042,63.987 106.473,64.991 106.267,64.49 C106.135,64.17 106.019,63.842 105.909,63.513 C105.776,63.111 105.669,62.701 105.579,62.287 C105.54,62.103 105.424,61.288 105.532,62.123 C105.504,61.909 105.489,61.692 105.478,61.475 C105.401,59.891 104.026,58.831 102.472,59.185 C96.098,60.635 89.623,61.719 83.156,62.656 C82.477,62.755 81.796,62.85 81.117,62.943 C80.943,62.966 80.771,62.99 80.598,63.014 C81.259,62.923 80.654,63.006 80.532,63.022 C80.12,63.077 79.708,63.131 79.297,63.183 C77.785,63.377 76.273,63.556 74.758,63.723 C71.602,64.068 68.438,64.351 65.269,64.557 C58.977,64.965 52.642,65.079 46.352,64.557 C45.643,64.498 44.936,64.428 44.229,64.35 C43.881,64.312 43.534,64.271 43.187,64.227 C43.062,64.212 42.464,64.132 43.131,64.222 C42.904,64.191 42.678,64.159 42.452,64.126 C41.082,63.927 39.719,63.679 38.369,63.379 C37.103,63.097 35.849,62.759 34.616,62.36 C34.01,62.164 33.409,61.946 32.815,61.714 C32.683,61.662 32.549,61.609 32.417,61.554 C31.935,61.358 32.935,61.777 32.46,61.572 C32.162,61.443 31.866,61.306 31.572,61.166 C29.876,60.354 28.156,61.349 27.998,63.216 C27.979,63.436 27.953,63.656 27.924,63.876 C27.867,64.333 28.025,63.14 27.958,63.631 C27.937,63.785 27.913,63.939 27.889,64.093 C27.837,64.438 27.776,64.782 27.714,65.124 C27.357,67.085 26.842,69.017 26.179,70.898 C26.091,71.151 25.996,71.402 25.9,71.652 C25.839,71.816 25.44,72.791 25.708,72.154 C25.468,72.725 25.204,73.286 24.925,73.84 C24.353,74.982 23.688,76.074 22.937,77.107 C22.867,77.201 22.796,77.295 22.725,77.388 C23.094,76.901 22.726,77.377 22.659,77.461 C22.435,77.735 22.2,78 21.961,78.26 C21.52,78.742 21.043,79.191 20.548,79.615 C20.457,79.693 20.365,79.769 20.272,79.845 C19.8,80.231 20.674,79.547 20.182,79.911 C19.891,80.128 19.588,80.327 19.282,80.522 C18.708,80.883 18.1,81.193 17.479,81.467 C18.563,81.751 19.646,82.035 20.729,82.319 C18.801,78.506 17.309,75.09 15.998,71.011 C15.333,68.938 14.762,66.816 14.426,64.66 C14.389,64.424 14.31,63.829 14.448,64.858 C14.436,64.764 14.424,64.672 14.414,64.578 C14.402,64.476 14.391,64.376 14.384,64.273 C14.297,63.14 13.44,62.307 13.073,61.791 C12.514,61.009 12.038,60.171 11.617,59.31 C11.522,59.115 11.435,58.918 11.347,58.719 C11.557,59.193 11.279,58.544 11.26,58.493 C11.105,58.098 10.972,57.693 10.844,57.288 C10.572,56.424 10.373,55.537 10.217,54.645 C10.18,54.442 10.15,54.237 10.12,54.032 C10.206,54.61 10.113,53.932 10.103,53.849 C10.058,53.443 10.028,53.037 10.003,52.631 C9.95,51.768 9.949,50.903 9.977,50.039 C10.002,49.271 10.063,48.503 10.145,47.738 C10.166,47.552 10.188,47.366 10.21,47.182 C10.288,46.554 10.135,47.704 10.225,47.086 C10.285,46.674 10.355,46.263 10.429,45.855 C10.67,44.516 10.994,43.192 11.375,41.886 C11.631,41.003 11.922,40.129 12.245,39.267 C12.342,39.009 12.443,38.753 12.548,38.498 C12.721,38.075 12.246,39.19 12.435,38.768 C12.988,37.528 12.75,36.296 11.583,35.517 C11.504,35.465 10.831,34.978 11.253,35.306 C11.033,35.135 10.82,34.952 10.609,34.769 C10.17,34.387 9.754,33.978 9.349,33.561 C8.546,32.738 7.806,31.856 7.093,30.957 C6.924,30.741 6.927,30.747 7.1,30.97 C7.024,30.87 6.947,30.77 6.872,30.67 C6.728,30.482 6.589,30.291 6.448,30.101 C6.215,29.783 5.987,29.46 5.762,29.137 C5.557,28.843 5.354,28.547 5.161,28.246 C4.688,29.408 4.214,30.572 3.741,31.735 C7.794,30.908 11.846,30.498 16.13,30.751 C16.784,30.789 17.437,30.848 18.088,30.925 C18.259,30.945 18.752,31.011 17.959,30.904 C18.11,30.925 18.261,30.948 18.414,30.97 C18.641,31.006 18.867,31.045 19.093,31.087 C19.489,31.158 19.889,31.235 20.274,31.348 C21.295,31.645 22.425,31.165 22.957,30.257 C23.563,29.22 23.281,27.551 22.106,27.006 C21.425,26.691 20.774,26.328 20.144,25.923 C19.824,25.716 19.515,25.496 19.209,25.27 C18.693,24.889 19.588,25.574 19.087,25.172 C18.886,25.012 18.692,24.846 18.499,24.679 C17.304,23.649 16.232,22.477 15.255,21.24 C15.622,21.705 15.245,21.222 15.186,21.143 C15.079,20.999 14.975,20.855 14.871,20.71 C14.667,20.427 14.473,20.139 14.282,19.849 C13.898,19.268 13.544,18.667 13.214,18.054 C13.077,17.798 12.949,17.54 12.823,17.278 C12.764,17.156 12.708,17.032 12.652,16.909 C12.452,16.46 12.871,17.445 12.693,17.003 C12.517,16.568 12.372,16.123 12.273,15.664 C12.157,15.125 12.316,16.359 12.284,15.727 C12.281,15.658 12.284,15.589 12.286,15.52 C12.303,15.178 12.165,16.235 12.238,15.915 C12.199,16.086 11.964,16.492 11.816,16.631 C11.679,16.738 11.543,16.846 11.407,16.952 C10.902,17.144 10.755,17.206 10.967,17.14 C10.28,17.348 10.305,17.189 10.601,17.21 C9.794,17.15 9.999,17.115 10.228,17.18 C10.407,17.232 10.723,17.397 9.963,17.059 C10.151,17.143 10.328,17.251 10.502,17.36 C11.071,17.717 11.607,18.091 12.215,18.385 C15.277,19.866 18.75,20.301 22.112,20.468 C24.791,20.6 27.523,20.534 30.189,20.214 C31.257,20.085 32.175,19.581 32.481,18.471 C32.796,17.325 32.101,15.756 30.821,15.548 C29.874,15.394 28.945,15.176 28.048,14.83 C28.583,15.036 28.043,14.817 27.948,14.77 C27.803,14.699 27.663,14.618 27.523,14.538 C27.397,14.464 27.277,14.383 27.157,14.3 C26.747,14.022 27.588,14.656 27.233,14.36 C27.072,14.225 26.925,14.074 26.788,13.917 C26.529,13.623 27.166,14.429 26.953,14.133 C26.914,14.077 26.877,14.019 26.841,13.959 C26.495,13.392 26.991,14.504 26.891,14.112 C26.528,15.006 26.165,15.9 25.8,16.794 C29.278,14.384 32.936,12.248 36.775,10.467 C37.207,10.267 37.642,10.074 38.077,9.884 C38.088,9.879 38.8,9.576 38.375,9.755 C38.59,9.664 38.806,9.576 39.022,9.488 C39.945,9.113 40.877,8.765 41.816,8.435 C43.561,7.82 45.334,7.296 47.127,6.847 C48.849,6.416 50.592,6.072 52.346,5.801 C52.551,5.769 52.758,5.74 52.965,5.71 C53.653,5.611 52.469,5.774 53.158,5.685 C53.567,5.632 53.976,5.587 54.387,5.543 C55.266,5.449 56.147,5.381 57.029,5.329 C60.312,5.132 63.611,5.237 66.878,5.594 C67.261,5.636 67.643,5.683 68.023,5.732 C67.406,5.652 68.049,5.736 68.152,5.75 C68.341,5.777 68.529,5.806 68.718,5.834 C69.531,5.956 70.341,6.097 71.148,6.252 C72.678,6.543 74.196,6.897 75.701,7.296 C78.622,8.07 81.486,9.049 84.286,10.183 C84.447,10.247 85.456,10.668 84.861,10.418 C85.185,10.554 85.506,10.694 85.828,10.835 C86.517,11.137 87.202,11.452 87.882,11.773 C89.163,12.377 90.424,13.019 91.673,13.686 C94.038,14.949 96.339,16.326 98.583,17.788 C100.611,19.109 102.586,20.508 104.513,21.971 C104.66,22.084 105.411,22.661 104.778,22.171 C104.986,22.333 105.193,22.495 105.4,22.658 C105.834,22.999 106.265,23.344 106.694,23.693 C107.459,24.315 108.216,24.949 108.963,25.593 C111.041,27.381 113.054,29.252 114.955,31.228 C115.29,31.574 115.622,31.924 115.941,32.284 C116.799,33.254 118.427,33.156 119.3,32.284 C120.257,31.326 120.156,29.894 119.3,28.925" id="Fill-366" fill="#4C5159"></path>
            <path d="M75.271,219.581 C75.271,221.024 74.138,222.193 72.74,222.193 C71.341,222.193 70.208,221.024 70.208,219.581 C70.208,218.139 71.341,216.97 72.74,216.97 C74.138,216.97 75.271,218.139 75.271,219.581" id="Fill-355" fill="#4C5159"></path>
        </g>
    </g>
</svg>