<?xml version="1.0" encoding="UTF-8"?>
<svg width="131px" height="229px" viewBox="0 0 131 229" version="1.1" xmlns="http://www.w3.org/2000/svg" xmlns:xlink="http://www.w3.org/1999/xlink">
    <!-- Generator: Sketch 48.2 (47327) - http://www.bohemiancoding.com/sketch -->
    <title>male3</title>
    <desc>Created with Sketch.</desc>
    <defs></defs>
    <g id="Page-1" stroke="none" stroke-width="1" fill="none" fill-rule="evenodd">
        <g id="male3">
            <path d="M68.52,225.989 C109.4,225.989 123.23,217.56 123.23,217.56 C123.23,217.56 123.57,194.386 116.38,188.591 C116.38,188.591 89.53,171.381 78.07,168.396 L55.82,168.396 C44.36,171.381 17.51,188.591 17.51,188.591 C10.33,194.386 10.67,217.56 10.67,217.56 C10.67,217.56 29.14,225.989 70.02,225.989 L68.52,225.989" id="Fill-125" fill="#A577A1"></path>
            <path d="M68.52,228.364 C83.02,228.357 97.83,227.521 111.96,224.033 C115.09,223.262 118.19,222.344 121.17,221.12 C122.39,220.622 124.54,220.011 125.28,218.758 C125.87,217.742 125.6,216.017 125.58,214.9 C125.52,212.622 125.39,210.345 125.18,208.075 C124.65,202.29 123.8,196.214 121.15,190.97 C120.29,189.256 119.06,187.481 117.42,186.433 C116.41,185.793 115.4,185.161 114.39,184.533 C109.87,181.732 105.31,179.011 100.68,176.399 C95.24,173.326 89.71,170.38 83.95,167.959 C82.82,167.484 81.67,167.041 80.51,166.65 C79.64,166.356 78.73,166.02 77.81,166.02 C75.62,166.02 73.42,166.02 71.24,166.02 C68.04,166.02 64.85,166.02 61.66,166.02 C59.73,166.02 57.8,166.02 55.87,166.02 C54.84,166.02 53.7,166.533 52.73,166.873 C51.4,167.345 50.09,167.892 48.79,168.449 C43.14,170.864 37.72,173.835 32.39,176.865 C27.89,179.421 23.45,182.081 19.05,184.815 C18.16,185.37 17.27,185.929 16.38,186.495 C14.57,187.653 13.3,189.735 12.42,191.642 C9.92,196.985 9.14,203.056 8.65,208.875 C8.4,211.756 8.25,214.665 8.29,217.56 C8.3,218.333 8.72,219.27 9.47,219.61 C14.22,221.772 19.46,223.001 24.53,224.096 C39.43,227.316 54.81,228.357 70.02,228.364 C70.02,226.781 70.02,225.197 70.02,223.614 C69.52,223.614 69.02,223.614 68.52,223.614 C65.45,223.614 65.45,228.364 68.52,228.364 C69.02,228.364 69.52,228.364 70.02,228.364 C73.08,228.364 73.08,223.615 70.02,223.614 C61.09,223.61 52.16,223.216 43.27,222.273 C42.39,222.178 41.51,222.077 40.62,221.972 C40.2,221.922 39.77,221.868 39.34,221.815 C39.13,221.788 38.92,221.761 38.71,221.734 C38.61,221.72 37.72,221.603 38.31,221.682 C36.68,221.463 35.06,221.22 33.44,220.957 C30.69,220.507 27.94,219.987 25.21,219.388 C21.68,218.614 18.18,217.706 14.75,216.563 C13.89,216.275 13.04,215.97 12.19,215.638 C11.89,215.522 11.01,215.147 12.09,215.605 C12.01,215.573 11.94,215.542 11.87,215.508 C12.26,216.192 12.65,216.876 13.04,217.56 C13,214.29 13.19,211.004 13.5,207.751 C13.56,207.086 13.63,206.421 13.71,205.757 C13.75,205.417 13.79,205.077 13.84,204.737 C13.75,205.405 13.83,204.808 13.84,204.683 C13.88,204.453 13.91,204.224 13.94,203.994 C14.16,202.555 14.42,201.122 14.74,199.702 C15.05,198.334 15.43,196.98 15.88,195.653 C15.99,195.351 16.1,195.051 16.21,194.753 C16.27,194.606 16.33,194.461 16.39,194.316 C16.13,194.945 16.34,194.442 16.39,194.316 C16.65,193.731 16.94,193.16 17.26,192.606 C17.4,192.364 17.54,192.128 17.7,191.894 C17.8,191.736 18.37,190.983 17.88,191.615 C18.21,191.184 18.59,190.787 19,190.425 C19.36,190.114 18.44,190.816 18.81,190.575 C18.94,190.495 19.07,190.414 19.19,190.334 C20.42,189.554 21.66,188.785 22.9,188.021 C27.63,185.103 32.42,182.271 37.27,179.569 C40.04,178.029 42.83,176.537 45.67,175.125 C46.99,174.467 48.32,173.83 49.67,173.22 C50.27,172.948 50.87,172.683 51.48,172.424 C50.82,172.705 51.77,172.307 51.93,172.241 C52.26,172.109 52.59,171.98 52.92,171.854 C53.97,171.449 55.03,171.082 56.11,170.779 C56.73,170.606 55.36,170.771 56.12,170.771 C56.48,170.771 56.85,170.771 57.22,170.771 C59.62,170.771 62.02,170.771 64.42,170.771 C67.66,170.771 70.9,170.771 74.14,170.771 C75.22,170.771 76.3,170.771 77.37,170.771 C77.6,170.771 77.82,170.771 78.04,170.771 C77.55,170.771 77.43,170.679 77.9,170.812 C78.18,170.891 78.47,170.977 78.75,171.066 C79.88,171.425 81,171.851 82.11,172.299 C82.25,172.359 82.4,172.418 82.54,172.479 C83.06,172.693 82.04,172.266 82.56,172.487 C82.86,172.615 83.16,172.746 83.46,172.878 C84.14,173.175 84.81,173.484 85.48,173.797 C95.29,178.382 104.65,184.017 113.82,189.775 C114.2,190.017 114.58,190.258 114.97,190.503 C115.04,190.546 115.1,190.589 115.17,190.634 C114.91,190.467 114.64,190.204 114.98,190.506 C115.2,190.698 115.41,190.908 115.6,191.122 C115.73,191.262 116.29,191.977 115.81,191.343 C115.97,191.559 116.12,191.783 116.27,192.009 C116.61,192.529 116.91,193.077 117.18,193.633 C117.32,193.904 117.44,194.18 117.57,194.456 C117.79,194.957 117.36,193.949 117.57,194.461 C117.62,194.606 117.68,194.754 117.74,194.901 C117.99,195.558 118.21,196.229 118.42,196.903 C118.83,198.269 119.16,199.663 119.44,201.064 C119.58,201.75 119.7,202.44 119.82,203.131 C119.87,203.476 119.93,203.821 119.98,204.167 C120,204.338 120.03,204.511 120.05,204.683 C120.07,204.798 120.08,204.912 120.1,205.027 C120.05,204.68 120.05,204.641 120.08,204.907 C120.42,207.481 120.62,210.071 120.75,212.663 C120.82,214.292 120.88,215.928 120.85,217.56 C121.24,216.876 121.64,216.192 122.03,215.508 C121.81,215.644 121.57,215.761 121.34,215.878 C121.05,216.026 120.75,216.165 120.45,216.301 C120.26,216.386 120.08,216.469 119.89,216.55 C119.37,216.774 120.27,216.391 120.08,216.468 C119.95,216.525 119.81,216.58 119.68,216.634 C116.6,217.881 113.4,218.8 110.18,219.58 C107.77,220.163 105.34,220.651 102.91,221.076 C101.46,221.329 100,221.556 98.54,221.765 C98.35,221.792 98.16,221.818 97.96,221.846 C97.87,221.858 97.21,221.948 97.81,221.867 C97.41,221.922 97.01,221.973 96.61,222.024 C95.7,222.139 94.79,222.244 93.88,222.344 C85.46,223.273 76.98,223.61 68.52,223.614 C65.45,223.616 65.45,228.366 68.52,228.364" id="Fill-126" fill="#4C5159"></path>
            <path d="M101.75,86.352 C101.75,96.609 107.59,104.922 114.8,104.922 C122.01,104.922 127.86,96.609 127.86,86.352 C127.86,76.097 122.01,67.783 114.8,67.783 C107.59,67.783 101.75,76.097 101.75,86.352" id="Fill-127" fill="#F4E0CD"></path>
            <path d="M99.37,86.352 C99.41,93.77 102.39,102.716 109.61,106.087 C112.99,107.668 116.61,107.598 120,106.087 C123.23,104.645 125.73,101.663 127.35,98.595 C131.28,91.154 131.18,81.559 127.35,74.109 C125.75,70.999 123.2,68.115 120,66.618 C116.61,65.037 112.99,65.107 109.61,66.618 C106.38,68.06 103.87,71.042 102.25,74.109 C100.27,77.859 99.39,82.133 99.37,86.352 C99.35,89.417 104.11,89.415 104.12,86.352 C104.14,82.568 104.95,78.931 106.77,75.751 C106.98,75.385 107.21,75.029 107.44,74.677 C107.56,74.505 107.68,74.337 107.8,74.17 C108.2,73.618 107.51,74.529 107.93,74.003 C108.46,73.337 109.06,72.726 109.7,72.163 C109.84,72.037 109.99,71.918 110.14,71.798 C109.69,72.159 110.18,71.776 110.26,71.722 C110.56,71.508 110.87,71.316 111.19,71.133 C111.51,70.951 111.84,70.795 112.17,70.647 C111.61,70.896 112.17,70.66 112.27,70.622 C112.49,70.541 112.72,70.473 112.95,70.409 C113.3,70.311 113.65,70.243 114,70.185 C113.36,70.291 113.95,70.198 114.08,70.187 C114.26,70.171 114.44,70.166 114.62,70.16 C114.98,70.15 115.34,70.171 115.7,70.202 C116.32,70.255 115.17,70.114 115.78,70.214 C116.01,70.253 116.25,70.307 116.48,70.363 C116.83,70.448 117.17,70.562 117.5,70.684 C118.07,70.893 117.04,70.47 117.6,70.72 C117.76,70.794 117.93,70.876 118.09,70.959 C118.41,71.125 118.73,71.316 119.04,71.514 C119.19,71.614 119.34,71.722 119.5,71.83 C119.71,71.987 119.7,71.977 119.47,71.798 C119.56,71.878 119.66,71.958 119.76,72.039 C120.36,72.538 120.91,73.103 121.42,73.694 C121.55,73.847 121.68,74.004 121.8,74.162 C121.47,73.743 121.88,74.283 121.92,74.336 C122.21,74.734 122.47,75.148 122.72,75.567 C123.17,76.316 123.56,77.103 123.91,77.904 C123.71,77.452 124,78.142 124.01,78.173 C124.09,78.386 124.16,78.602 124.24,78.818 C124.42,79.331 124.57,79.853 124.72,80.377 C124.97,81.309 125.15,82.258 125.3,83.211 C125.23,82.752 125.34,83.56 125.34,83.564 C125.36,83.813 125.38,84.063 125.41,84.312 C125.45,84.905 125.47,85.5 125.48,86.094 C125.5,87.112 125.44,88.13 125.34,89.142 C125.34,89.145 125.23,89.953 125.3,89.494 C125.26,89.736 125.22,89.978 125.18,90.219 C125.09,90.773 124.97,91.322 124.83,91.869 C124.62,92.773 124.33,93.661 124.01,94.532 C124,94.563 123.72,95.255 123.91,94.802 C123.82,95.006 123.73,95.209 123.64,95.411 C123.42,95.873 123.19,96.323 122.94,96.768 C122.73,97.138 122.51,97.498 122.28,97.854 C122.16,98.028 122.04,98.198 121.92,98.368 C121.88,98.421 121.47,98.966 121.8,98.543 C121.28,99.219 120.68,99.841 120.05,100.416 C119.91,100.544 119.76,100.666 119.61,100.788 C119.12,101.194 120.01,100.502 119.5,100.875 C119.2,101.094 118.88,101.293 118.57,101.482 C118.25,101.668 117.93,101.831 117.6,101.985 C117.04,102.245 118.07,101.802 117.5,102.021 C117.28,102.108 117.05,102.178 116.82,102.248 C116.48,102.351 116.13,102.426 115.78,102.491 C115.18,102.603 116.31,102.438 115.7,102.503 C115.52,102.522 115.34,102.531 115.16,102.54 C114.8,102.557 114.44,102.543 114.08,102.518 C113.96,102.51 113.35,102.426 114,102.52 C113.76,102.486 113.53,102.436 113.3,102.384 C112.95,102.306 112.61,102.199 112.27,102.083 C112.17,102.048 111.6,101.818 112.17,102.059 C112,101.988 111.84,101.908 111.68,101.829 C111.35,101.669 111.03,101.484 110.72,101.291 C110.56,101.193 110.41,101.089 110.26,100.983 C110.16,100.912 110.05,100.839 109.95,100.765 C110.18,100.946 110.2,100.954 109.99,100.788 C109.38,100.299 108.83,99.745 108.31,99.163 C108.18,99.012 108.05,98.857 107.93,98.702 C107.5,98.181 108.21,99.082 107.8,98.536 C107.51,98.144 107.24,97.735 106.99,97.32 C106.49,96.516 106.07,95.668 105.69,94.802 C105.89,95.253 105.61,94.563 105.6,94.532 C105.51,94.319 105.44,94.103 105.36,93.887 C105.18,93.374 105.03,92.852 104.89,92.328 C104.76,91.867 104.65,91.401 104.56,90.934 C104.51,90.697 104.46,90.458 104.42,90.219 C104.41,90.137 104.27,89.243 104.32,89.635 C104.18,88.548 104.12,87.449 104.12,86.352 C104.11,83.29 99.35,83.288 99.37,86.352" id="Fill-128" fill="#4C5159"></path>
            <path d="M121.83,87.018 C121.83,87.018 122.65,89.915 121.03,91.346 C115.91,95.86 116.07,102.458 116.07,102.458 L116.07,90.7 L117.74,88.839 L121.83,87.018" id="Fill-129" fill="#E7CEBB"></path>
            <path d="M114.85,96.604 C114.72,95.122 114.92,94.11 115.38,92.707 C116.26,90.013 118.54,88.193 121.35,87.498 C122.83,87.13 122.2,84.839 120.71,85.207 C117.21,86.075 114.52,88.329 113.22,91.699 C112.64,93.201 112.33,94.988 112.47,96.604 C112.6,98.118 114.98,98.131 114.85,96.604" id="Fill-130" fill="#4C5159"></path>
            <path d="M54.98,161.611 L54.98,174.989 C54.98,181.159 59.98,186.162 66.15,186.162 C72.32,186.162 77.32,181.159 77.32,174.989 L77.32,161.611 L54.98,161.611" id="Fill-131" fill="#F4E0CD"></path>
            <path d="M52.6,161.611 C52.6,165.551 52.6,169.492 52.6,173.433 C52.6,175.915 52.81,178.271 53.82,180.586 C55.4,184.17 58.6,186.835 62.31,187.985 C66.11,189.162 70.48,188.443 73.75,186.202 C77.18,183.848 79.2,180.195 79.64,176.091 C79.82,174.465 79.7,172.771 79.7,171.141 C79.7,168.671 79.7,166.201 79.7,163.731 C79.7,163.025 79.7,162.318 79.7,161.611 C79.7,160.316 78.62,159.236 77.32,159.236 C69.94,159.236 62.56,159.236 55.18,159.236 C55.11,159.236 55.04,159.236 54.98,159.236 C51.91,159.236 51.91,163.986 54.98,163.986 C62.36,163.986 69.74,163.986 77.12,163.986 C77.18,163.986 77.25,163.986 77.32,163.986 C76.53,163.195 75.74,162.403 74.95,161.611 C74.95,165.551 74.95,169.492 74.95,173.433 C74.95,173.948 74.95,174.464 74.95,174.979 C74.95,175.278 74.93,175.575 74.91,175.873 C74.91,175.938 74.82,176.652 74.9,176.107 C74.86,176.319 74.82,176.53 74.78,176.741 C74.69,177.157 74.57,177.566 74.44,177.97 C74.37,178.17 74.29,178.365 74.22,178.561 C74.41,178.071 74.06,178.859 74.02,178.943 C73.83,179.315 73.61,179.669 73.38,180.016 C73.26,180.189 73.14,180.355 73.02,180.522 C73.33,180.101 72.91,180.635 72.87,180.682 C72.6,180.996 72.3,181.286 72,181.567 C71.85,181.708 71.69,181.84 71.53,181.972 C71.92,181.641 71.25,182.164 71.18,182.217 C70.83,182.453 70.47,182.659 70.11,182.855 C69.92,182.953 69.73,183.04 69.54,183.128 C70.02,182.906 69.39,183.182 69.33,183.205 C68.93,183.354 68.52,183.468 68.11,183.57 C67.9,183.621 67.69,183.661 67.48,183.7 C67.2,183.745 67.2,183.748 67.47,183.71 C67.32,183.727 67.18,183.741 67.03,183.753 C66.59,183.792 66.15,183.791 65.71,183.778 C65.49,183.772 65.27,183.753 65.05,183.733 C64.33,183.671 65.52,183.818 64.82,183.7 C64.4,183.63 63.98,183.523 63.57,183.404 C63.37,183.346 63.17,183.275 62.97,183.205 C62.84,183.157 62.71,183.107 62.58,183.054 C62.82,183.157 62.82,183.153 62.57,183.04 C62.19,182.865 61.83,182.658 61.47,182.443 C61.29,182.335 61.12,182.217 60.95,182.1 C60.9,182.065 60.36,181.644 60.77,181.972 C60.45,181.714 60.15,181.429 59.86,181.136 C59.71,180.99 59.57,180.836 59.43,180.682 C59.34,180.579 59.25,180.474 59.17,180.367 C59.32,180.577 59.32,180.573 59.16,180.355 C58.91,180.022 58.69,179.668 58.48,179.309 C58.38,179.13 58.28,178.943 58.19,178.757 C58.16,178.701 57.88,178.07 58.08,178.561 C57.92,178.171 57.79,177.768 57.68,177.362 C57.62,177.157 57.57,176.949 57.52,176.741 C57.5,176.646 57.36,175.766 57.43,176.308 C57.34,175.602 57.35,174.891 57.35,174.181 C57.35,170.042 57.35,165.903 57.35,161.763 C57.35,161.713 57.35,161.662 57.35,161.611 C57.35,158.548 52.6,158.548 52.6,161.611" id="Fill-132" fill="#4C5159"></path>
            <path d="M29.25,86.352 C29.25,96.609 23.4,104.922 16.19,104.922 C8.98,104.922 3.14,96.609 3.14,86.352 C3.14,76.097 8.98,67.783 16.19,67.783 C23.4,67.783 29.25,76.097 29.25,86.352" id="Fill-133" fill="#F4E0CD"></path>
            <path d="M26.87,86.352 C26.86,90.137 26.04,93.774 24.22,96.954 C24.01,97.32 23.79,97.676 23.55,98.027 C23.44,98.2 23.32,98.368 23.19,98.536 C22.8,99.087 23.49,98.176 23.07,98.702 C22.54,99.367 21.94,99.979 21.3,100.542 C21.15,100.668 21,100.787 20.86,100.906 C21.31,100.547 20.81,100.929 20.74,100.983 C20.44,101.197 20.12,101.389 19.8,101.573 C19.48,101.754 19.16,101.911 18.83,102.059 C19.38,101.809 18.83,102.045 18.72,102.083 C18.5,102.165 18.27,102.232 18.04,102.296 C17.7,102.394 17.35,102.463 17,102.52 C17.64,102.414 17.04,102.507 16.92,102.518 C16.74,102.534 16.55,102.54 16.37,102.545 C16.01,102.555 15.65,102.534 15.29,102.503 C14.68,102.449 15.82,102.591 15.21,102.491 C14.98,102.453 14.75,102.398 14.52,102.342 C14.17,102.257 13.83,102.144 13.49,102.021 C12.92,101.813 13.96,102.235 13.4,101.985 C13.23,101.912 13.07,101.829 12.91,101.746 C12.58,101.58 12.27,101.389 11.96,101.191 C11.8,101.091 11.65,100.983 11.5,100.875 C11.29,100.718 11.29,100.728 11.53,100.906 C11.43,100.828 11.33,100.748 11.23,100.667 C10.63,100.168 10.09,99.602 9.58,99.011 C9.44,98.859 9.32,98.701 9.19,98.543 C9.53,98.962 9.11,98.422 9.07,98.368 C8.78,97.971 8.52,97.557 8.27,97.138 C7.82,96.389 7.43,95.603 7.09,94.802 C7.28,95.253 7,94.563 6.99,94.532 C6.91,94.319 6.83,94.103 6.75,93.887 C6.57,93.374 6.42,92.852 6.28,92.328 C6.02,91.396 5.84,90.448 5.7,89.494 C5.77,89.953 5.66,89.145 5.66,89.142 C5.63,88.893 5.61,88.642 5.59,88.392 C5.54,87.8 5.52,87.205 5.51,86.61 C5.5,85.593 5.56,84.575 5.66,83.564 C5.66,83.56 5.76,82.752 5.7,83.211 C5.73,82.968 5.77,82.727 5.81,82.486 C5.91,81.932 6.03,81.383 6.16,80.837 C6.38,79.932 6.66,79.044 6.99,78.173 C7,78.142 7.28,77.45 7.09,77.904 C7.17,77.698 7.26,77.496 7.36,77.294 C7.57,76.832 7.81,76.382 8.06,75.937 C8.26,75.567 8.49,75.207 8.72,74.851 C8.83,74.677 8.95,74.507 9.07,74.336 C9.11,74.283 9.52,73.738 9.19,74.162 C9.72,73.486 10.31,72.864 10.94,72.289 C11.09,72.161 11.23,72.039 11.38,71.917 C11.87,71.512 10.99,72.203 11.5,71.83 C11.8,71.611 12.11,71.413 12.43,71.223 C12.74,71.037 13.07,70.874 13.4,70.72 C13.95,70.461 12.92,70.903 13.49,70.684 C13.72,70.598 13.94,70.527 14.17,70.458 C14.51,70.354 14.86,70.278 15.21,70.214 C15.82,70.102 14.68,70.268 15.29,70.202 C15.47,70.183 15.65,70.174 15.83,70.166 C16.19,70.148 16.55,70.162 16.92,70.187 C17.04,70.195 17.64,70.279 17,70.185 C17.23,70.219 17.46,70.269 17.7,70.32 C18.05,70.399 18.39,70.507 18.72,70.622 C18.83,70.657 19.39,70.887 18.83,70.647 C18.99,70.718 19.15,70.797 19.32,70.876 C19.65,71.037 19.96,71.221 20.27,71.414 C20.43,71.512 20.58,71.617 20.74,71.722 C20.84,71.793 20.94,71.866 21.04,71.941 C20.81,71.759 20.8,71.752 21,71.917 C21.61,72.406 22.16,72.961 22.68,73.542 C22.81,73.693 22.94,73.848 23.07,74.003 C23.5,74.524 22.79,73.623 23.19,74.17 C23.48,74.561 23.75,74.971 24.01,75.385 C24.5,76.189 24.92,77.037 25.3,77.904 C25.1,77.452 25.39,78.142 25.4,78.173 C25.48,78.386 25.56,78.602 25.63,78.818 C25.81,79.331 25.96,79.853 26.11,80.377 C26.23,80.839 26.34,81.304 26.44,81.771 C26.49,82.008 26.53,82.247 26.57,82.486 C26.59,82.568 26.72,83.462 26.67,83.069 C26.81,84.157 26.87,85.256 26.87,86.352 C26.89,89.415 31.64,89.417 31.63,86.352 C31.59,78.935 28.6,69.989 21.39,66.618 C18,65.037 14.39,65.107 11,66.618 C7.77,68.06 5.26,71.042 3.64,74.109 C-0.29,81.55 -0.18,91.146 3.64,98.595 C5.24,101.705 7.79,104.589 11,106.087 C14.38,107.668 18,107.598 21.39,106.087 C24.62,104.645 27.12,101.663 28.74,98.595 C30.72,94.846 31.6,90.572 31.63,86.352 C31.64,83.288 26.89,83.29 26.87,86.352" id="Fill-134" fill="#4C5159"></path>
            <path d="M17.43,50.043 L17.43,114.517 C17.43,141.427 39.24,163.241 66.15,163.241 C93.06,163.241 114.87,141.427 114.87,114.517 L114.87,50.043" id="Fill-135" fill="#F4E0CD"></path>
            <path d="M15.05,50.043 C15.05,55.443 15.05,60.844 15.05,66.245 C15.05,76.416 15.05,86.589 15.05,96.76 C15.05,102.659 15.05,108.557 15.05,114.455 C15.05,128.351 20.8,141.83 30.83,151.446 C41.47,161.639 56.35,166.795 71.01,165.377 C85.7,163.955 99.03,156.171 107.69,144.256 C111.89,138.483 114.81,131.723 116.22,124.731 C117,120.871 117.25,116.97 117.25,113.044 C117.25,105.429 117.25,97.815 117.25,90.2 C117.25,80.302 117.25,70.404 117.25,60.505 C117.25,57.018 117.25,53.53 117.25,50.043 C117.25,46.979 112.5,46.979 112.5,50.043 C112.5,55.443 112.5,60.844 112.5,66.245 C112.5,76.416 112.5,86.589 112.5,96.76 C112.5,102.659 112.5,108.557 112.5,114.455 C112.5,115.512 112.46,116.568 112.4,117.624 C112.35,118.5 112.26,119.374 112.17,120.246 C112.14,120.462 112.11,120.679 112.08,120.895 C112.16,120.349 112.06,121.063 112.05,121.125 C111.98,121.625 111.89,122.123 111.8,122.62 C111.49,124.379 111.07,126.116 110.56,127.828 C110.32,128.642 110.05,129.447 109.77,130.247 C109.63,130.646 109.48,131.041 109.33,131.435 C109.25,131.632 109.17,131.828 109.09,132.024 C109.06,132.107 108.73,132.916 108.93,132.428 C107.57,135.634 105.85,138.681 103.83,141.522 C103.6,141.86 103.35,142.194 103.1,142.527 C103.06,142.575 102.65,143.122 102.97,142.707 C102.84,142.871 102.71,143.033 102.58,143.196 C102.02,143.9 101.44,144.585 100.84,145.256 C99.7,146.548 98.47,147.771 97.2,148.935 C96.58,149.493 95.95,150.032 95.31,150.559 C94.99,150.822 94.67,151.08 94.34,151.335 C94.75,151.011 94.21,151.432 94.16,151.467 C93.94,151.634 93.71,151.798 93.49,151.96 C92.09,152.98 90.63,153.917 89.12,154.781 C87.61,155.652 86.04,156.43 84.45,157.132 C84.39,157.156 83.75,157.429 84.24,157.223 C84.05,157.305 83.85,157.383 83.66,157.462 C83.26,157.621 82.87,157.771 82.48,157.919 C81.62,158.24 80.75,158.531 79.87,158.803 C78.17,159.331 76.43,159.754 74.68,160.091 C74.25,160.173 73.83,160.245 73.4,160.316 C73.19,160.351 72.97,160.384 72.76,160.417 C72.7,160.425 71.98,160.525 72.53,160.451 C71.59,160.576 70.64,160.668 69.7,160.738 C67.85,160.875 66,160.896 64.15,160.825 C63.26,160.792 62.39,160.729 61.51,160.647 C61.07,160.608 60.64,160.559 60.21,160.506 C60.14,160.499 59.42,160.403 59.97,160.478 C59.68,160.439 59.4,160.395 59.11,160.35 C55.6,159.802 52.15,158.844 48.84,157.541 C48.64,157.464 48.45,157.383 48.25,157.304 C47.61,157.039 48.69,157.491 48.04,157.215 C47.66,157.05 47.28,156.877 46.89,156.701 C46.07,156.321 45.26,155.914 44.46,155.489 C42.92,154.674 41.44,153.769 40,152.796 C39.31,152.33 38.64,151.843 37.97,151.342 C37.42,150.928 38.34,151.631 37.8,151.207 C37.63,151.08 37.47,150.95 37.31,150.82 C36.93,150.518 36.56,150.207 36.19,149.893 C34.88,148.774 33.63,147.577 32.44,146.325 C31.87,145.724 31.31,145.105 30.77,144.476 C30.5,144.161 30.24,143.841 29.98,143.52 C29.85,143.359 29.72,143.196 29.59,143.033 C29.5,142.925 29.42,142.817 29.33,142.707 C29.49,142.914 29.49,142.909 29.32,142.693 C28.27,141.313 27.31,139.871 26.41,138.388 C25.51,136.897 24.7,135.352 23.96,133.773 C23.79,133.391 23.62,133.008 23.45,132.622 C23.17,131.982 23.63,133.06 23.36,132.414 C23.28,132.219 23.2,132.024 23.13,131.828 C22.79,130.977 22.48,130.114 22.19,129.246 C21.62,127.559 21.16,125.838 20.79,124.1 C20.61,123.256 20.45,122.405 20.32,121.553 C20.28,121.339 20.25,121.125 20.22,120.909 C20.11,120.196 20.28,121.396 20.19,120.679 C20.12,120.173 20.07,119.665 20.02,119.158 C19.77,116.63 19.8,114.098 19.8,111.562 C19.8,103.195 19.8,94.83 19.8,86.464 C19.8,76.9 19.8,67.335 19.8,57.77 C19.8,55.194 19.8,52.618 19.8,50.043 C19.8,46.979 15.05,46.979 15.05,50.043" id="Fill-136" fill="#4C5159"></path>
            <path d="M114.87,93.006 L114.87,51.475 C114.87,24.565 93.06,2.75 66.15,2.75 C39.24,2.75 17.42,24.565 17.42,51.475 L17.42,93.006" id="Fill-137" fill="#F4E0CD"></path>
            <path d="M117.25,93.006 C117.25,85.925 117.25,78.846 117.25,71.766 C117.25,64.562 117.41,57.339 117.23,50.137 C116.87,35.556 110.06,21.515 98.83,12.205 C93.23,7.564 86.71,4.132 79.7,2.192 C72.38,0.168 64.68,-0.1 57.21,1.166 C42.96,3.582 30.24,12.443 22.64,24.672 C18.74,30.942 16.37,38.008 15.44,45.313 C15.02,48.577 15.05,51.847 15.05,55.128 C15.05,64.594 15.05,74.06 15.05,83.526 C15.05,86.686 15.05,89.846 15.05,93.006 C15.05,96.069 19.8,96.069 19.8,93.006 C19.8,85.925 19.8,78.846 19.8,71.766 C19.8,64.562 19.64,57.339 19.82,50.137 C19.84,49.253 19.89,48.371 19.96,47.49 C20,47.052 20.04,46.615 20.09,46.18 C20.11,45.963 20.13,45.746 20.16,45.529 C20.18,45.385 20.2,45.241 20.21,45.096 C20.18,45.369 20.18,45.363 20.22,45.082 C20.47,43.304 20.83,41.544 21.28,39.806 C21.72,38.093 22.27,36.408 22.9,34.753 C23.04,34.359 23.2,33.968 23.36,33.577 C23.63,32.93 23.18,34.011 23.45,33.37 C23.53,33.176 23.62,32.985 23.7,32.793 C24.07,31.963 24.47,31.146 24.89,30.338 C25.68,28.792 26.57,27.295 27.52,25.842 C27.98,25.148 28.46,24.467 28.95,23.797 C29.07,23.63 29.2,23.464 29.32,23.298 C29.74,22.748 29.03,23.665 29.46,23.121 C29.76,22.74 30.06,22.365 30.37,21.992 C32.58,19.331 35.08,16.922 37.8,14.784 C38.34,14.358 37.42,15.066 37.97,14.649 C38.14,14.524 38.31,14.4 38.47,14.277 C38.81,14.029 39.14,13.788 39.49,13.55 C40.22,13.032 40.98,12.539 41.74,12.064 C43.22,11.144 44.75,10.314 46.33,9.558 C46.7,9.377 47.08,9.202 47.47,9.029 C47.66,8.943 47.85,8.859 48.04,8.776 C48.68,8.497 47.61,8.955 48.25,8.688 C49.1,8.338 49.96,8.017 50.82,7.716 C52.5,7.13 54.21,6.65 55.94,6.252 C56.78,6.059 57.62,5.895 58.47,5.747 C58.9,5.673 59.33,5.607 59.76,5.544 C60.47,5.439 59.27,5.604 59.99,5.512 C60.28,5.475 60.57,5.443 60.86,5.41 C62.69,5.208 64.53,5.123 66.37,5.127 C68.21,5.131 70.05,5.25 71.88,5.459 C72.09,5.484 72.31,5.512 72.53,5.539 C71.98,5.47 72.7,5.567 72.76,5.575 C73.19,5.638 73.61,5.709 74.04,5.784 C74.96,5.944 75.87,6.137 76.78,6.349 C78.51,6.754 80.21,7.264 81.88,7.856 C82.67,8.138 83.46,8.445 84.24,8.768 C83.75,8.565 84.39,8.835 84.45,8.859 C84.64,8.943 84.83,9.029 85.02,9.115 C85.47,9.316 85.91,9.527 86.35,9.74 C87.92,10.503 89.43,11.359 90.91,12.284 C91.61,12.726 92.3,13.191 92.98,13.669 C93.33,13.908 93.66,14.153 93.99,14.4 C94.16,14.524 94.33,14.649 94.49,14.775 C94.08,14.459 94.76,14.986 94.83,15.042 C97.54,17.191 100,19.643 102.19,22.312 C102.46,22.632 102.71,22.958 102.97,23.285 C102.64,22.871 103.06,23.417 103.1,23.464 C103.22,23.63 103.35,23.797 103.47,23.964 C104,24.692 104.51,25.435 105,26.19 C105.95,27.647 106.82,29.161 107.6,30.71 C107.98,31.458 108.34,32.218 108.68,32.985 C108.77,33.176 108.85,33.37 108.93,33.563 C108.72,33.073 108.99,33.717 109.02,33.773 C109.2,34.228 109.38,34.688 109.55,35.149 C110.17,36.808 110.69,38.504 111.12,40.22 C111.33,41.053 111.52,41.893 111.68,42.735 C111.77,43.159 111.84,43.585 111.91,44.011 C111.95,44.224 111.98,44.439 112.02,44.652 C112.03,44.744 112.16,45.639 112.08,45.096 C112.33,46.915 112.45,48.748 112.49,50.582 C112.54,52.943 112.5,55.308 112.5,57.67 C112.5,67.305 112.5,76.941 112.5,86.576 C112.5,88.719 112.5,90.862 112.5,93.006 C112.5,96.069 117.25,96.069 117.25,93.006" id="Fill-138" fill="#4C5159"></path>
            <path d="M9.16,87.018 C9.16,87.018 8.34,89.915 9.96,91.346 C15.08,95.86 14.92,102.458 14.92,102.458 L14.92,90.7 L13.26,88.839 L9.16,87.018" id="Fill-139" fill="#E7CEBB"></path>
            <path d="M18.52,96.604 C18.66,94.978 18.33,93.216 17.77,91.699 C16.52,88.326 13.75,86.066 10.28,85.207 C8.79,84.839 8.16,87.13 9.65,87.498 C12.49,88.2 14.69,90.015 15.62,92.707 C16.09,94.098 16.28,95.131 16.15,96.604 C16.01,98.131 18.39,98.118 18.52,96.604" id="Fill-140" fill="#4C5159"></path>
            <path d="M99.5,64.819 C96.31,63.752 92.77,63.354 89.43,63.33 C82.7,63.283 76,65.485 71.29,70.422 C70.39,71.358 70.36,72.85 71.29,73.781 C72.19,74.68 73.75,74.717 74.65,73.781 C75.23,73.173 75.84,72.601 76.49,72.065 C76.71,71.892 76.72,71.879 76.53,72.025 C76.71,71.891 76.88,71.763 77.06,71.635 C77.41,71.385 77.78,71.153 78.14,70.925 C78.8,70.521 79.48,70.167 80.18,69.842 C80.3,69.785 80.43,69.729 80.56,69.674 C80.06,69.895 80.68,69.628 80.74,69.602 C81.12,69.454 81.5,69.322 81.88,69.195 C82.57,68.967 83.27,68.783 83.98,68.623 C84.3,68.551 84.61,68.489 84.93,68.43 C85.12,68.395 85.31,68.364 85.5,68.334 C85.6,68.317 86.24,68.228 85.62,68.31 C87,68.129 88.39,68.068 89.77,68.084 C90.95,68.099 92.13,68.188 93.3,68.328 C94,68.411 92.85,68.259 93.52,68.357 C93.79,68.395 94.06,68.438 94.33,68.483 C94.76,68.555 95.2,68.639 95.63,68.729 C96.51,68.911 97.39,69.115 98.24,69.399 C99.47,69.81 100.83,68.938 101.16,67.74 C101.52,66.441 100.73,65.228 99.5,64.819" id="Fill-141" fill="#4C5159"></path>
            <path d="M27.95,69.399 C28.77,69.126 29.62,68.932 30.46,68.752 C30.88,68.66 31.31,68.58 31.74,68.505 C31.96,68.467 32.18,68.432 32.39,68.398 C32.53,68.376 32.67,68.357 32.81,68.337 C33.32,68.262 32.22,68.413 32.74,68.345 C33.96,68.19 35.19,68.106 36.42,68.084 C37.75,68.061 39.07,68.132 40.39,68.287 C40.66,68.321 40.64,68.318 40.32,68.277 C40.51,68.303 40.69,68.334 40.88,68.364 C41.26,68.427 41.64,68.502 42.02,68.581 C42.73,68.73 43.43,68.92 44.12,69.134 C44.44,69.234 44.75,69.344 45.07,69.459 C45.26,69.528 45.45,69.602 45.64,69.677 C46.27,69.927 45.2,69.481 45.83,69.757 C46.53,70.067 47.21,70.426 47.87,70.816 C48.17,70.996 48.48,71.191 48.77,71.389 C48.95,71.509 49.13,71.636 49.31,71.762 C49.34,71.783 49.91,72.224 49.53,71.925 C50.25,72.49 50.91,73.12 51.55,73.781 C52.44,74.717 54,74.68 54.91,73.781 C55.84,72.85 55.8,71.358 54.91,70.422 C50.17,65.464 43.51,63.321 36.76,63.33 C33.43,63.335 29.87,63.755 26.69,64.819 C25.46,65.228 24.67,66.441 25.03,67.74 C25.36,68.938 26.72,69.81 27.95,69.399" id="Fill-142" fill="#4C5159"></path>
            <path d="M48.47,86.207 C48.47,89.683 46.75,92.5 44.64,92.5 C42.51,92.5 40.8,89.683 40.8,86.207 C40.8,82.732 42.51,79.915 44.64,79.915 C46.75,79.915 48.47,82.732 48.47,86.207" id="Fill-143" fill="#4C5159"></path>
            <path d="M88.54,86.207 C88.54,89.683 86.82,92.5 84.7,92.5 C82.58,92.5 80.86,89.683 80.86,86.207 C80.86,82.732 82.58,79.915 84.7,79.915 C86.82,79.915 88.54,82.732 88.54,86.207" id="Fill-144" fill="#4C5159"></path>
            <path d="M58.55,110.46 C59.54,112.945 62.25,114.328 64.76,114.68 C67,114.992 69.21,114.696 71.06,113.325 C71.98,112.643 72.85,111.761 73.4,110.744 C74.13,109.396 72.08,108.197 71.35,109.545 C70.98,110.228 70.65,110.571 70,111.15 C68.68,112.328 67.01,112.537 65.31,112.374 C63.95,112.245 62.55,111.67 61.62,110.794 C61.46,110.642 61.31,110.478 61.17,110.309 C60.96,110.059 61.31,110.497 61.13,110.255 C61.07,110.172 61.01,110.085 60.96,109.998 C60.87,109.85 60.61,109.252 60.84,109.829 C60.6,109.228 60.05,108.813 59.38,109 C58.81,109.156 58.31,109.858 58.55,110.46" id="Fill-145" fill="#4C5159"></path>
            <path d="M52.43,127.754 C55.15,129.673 58.49,130.96 61.7,131.74 C68.61,133.418 75.79,132.09 81.47,127.754 C82.15,127.231 82.51,126.401 82.04,125.588 C81.64,124.911 80.56,124.494 79.87,125.019 C77.11,127.126 74.03,128.55 70.6,129.112 C67.85,129.562 65.02,129.288 62.35,128.64 C60.1,128.092 58.3,127.387 56.38,126.403 C55.58,125.988 54.77,125.543 54.02,125.019 C53.32,124.521 52.27,124.89 51.86,125.588 C51.39,126.38 51.72,127.257 52.43,127.754" id="Fill-146" fill="#4C5159"></path>
            <path d="M57.4,165.113 C57.4,165.113 66.15,166.608 74.91,165.113 L74.91,169.092 C74.91,169.092 72,171.514 66.47,171.514 C61.08,171.514 57.4,169.092 57.4,169.092 L57.4,165.113" id="Fill-147" fill="#E7CEBB"></path>
            <path d="M108.31,63.977 L108.31,116.551 C108.31,116.551 105.72,154.134 64.75,160.89 C64.75,160.89 77.24,161.27 89.37,154.567 C100.27,148.539 111.88,134.974 112.39,116.551 L112.39,66.039 L108.31,63.977" id="Fill-148" fill="#E7CEBB"></path>
            <path d="M108.31,102.066 L108.31,49.492 C108.31,49.492 105.72,11.91 64.75,5.153 C64.75,5.153 71.78,4.703 80.36,7.346 C83.28,8.244 86.33,9.645 89.41,11.345 C100.32,17.372 111.88,31.069 112.39,49.492 L112.39,100.005 L108.31,102.066" id="Fill-149" fill="#E7CEBB"></path>
        </g>
    </g>
</svg>