<?xml version="1.0" encoding="UTF-8"?>
<svg width="141px" height="252px" viewBox="0 0 141 252" version="1.1" xmlns="http://www.w3.org/2000/svg" xmlns:xlink="http://www.w3.org/1999/xlink">
    <!-- Generator: Sketch 48.2 (47327) - http://www.bohemiancoding.com/sketch -->
    <title>male4</title>
    <desc>Created with Sketch.</desc>
    <defs></defs>
    <g id="Page-1" stroke="none" stroke-width="1" fill="none" fill-rule="evenodd">
        <g id="male4">
            <path d="M73.34,249.129 C114.22,249.129 128.05,240.698 128.05,240.698 C128.05,240.698 128.392,217.526 121.208,211.731 C121.208,211.731 94.354,194.52 82.894,191.534 L60.646,191.534 C49.187,194.52 22.333,211.731 22.333,211.731 C15.149,217.526 15.491,240.698 15.491,240.698 C15.491,240.698 33.963,249.129 74.844,249.129 L73.34,249.129" id="Fill-176" fill="#E57A74"></path>
            <path d="M73.34,251.503 C87.846,251.496 102.649,250.659 116.786,247.172 C119.911,246.402 123.018,245.484 125.998,244.258 C127.208,243.761 129.368,243.15 130.102,241.898 C130.697,240.881 130.426,239.155 130.399,238.04 C130.342,235.761 130.209,233.485 130.003,231.214 C129.477,225.429 128.628,219.353 125.978,214.11 C125.111,212.395 123.885,210.62 122.24,209.571 C121.234,208.931 120.224,208.3 119.211,207.672 C114.697,204.871 110.131,202.151 105.505,199.538 C100.065,196.466 94.536,193.52 88.771,191.098 C87.642,190.623 86.498,190.18 85.336,189.788 C84.465,189.495 83.556,189.158 82.63,189.158 C80.438,189.158 78.249,189.158 76.057,189.158 C72.867,189.158 69.677,189.158 66.487,189.158 C64.556,189.158 62.625,189.158 60.696,189.158 C59.665,189.158 58.518,189.673 57.557,190.012 C56.221,190.484 54.913,191.031 53.611,191.588 C47.964,194.003 42.548,196.974 37.213,200.004 C32.712,202.56 28.271,205.22 23.877,207.954 C22.982,208.509 22.091,209.069 21.205,209.634 C19.391,210.792 18.126,212.875 17.238,214.78 C14.746,220.125 13.958,226.194 13.469,232.014 C13.225,234.895 13.074,237.805 13.115,240.698 C13.126,241.472 13.545,242.409 14.292,242.75 C19.038,244.911 24.285,246.141 29.354,247.235 C44.254,250.455 59.629,251.496 74.844,251.503 C74.844,249.92 74.844,248.337 74.844,246.753 C74.343,246.753 73.841,246.753 73.34,246.753 C70.276,246.753 70.276,251.503 73.34,251.503 C73.841,251.503 74.343,251.503 74.844,251.503 C77.908,251.503 77.908,246.754 74.844,246.753 C65.912,246.749 56.98,246.355 48.097,245.412 C47.213,245.318 46.328,245.217 45.446,245.111 C45.019,245.06 44.592,245.007 44.164,244.953 C43.954,244.927 43.745,244.9 43.535,244.873 C43.434,244.86 42.547,244.742 43.132,244.82 C41.506,244.602 39.885,244.359 38.267,244.095 C35.508,243.646 32.761,243.126 30.03,242.527 C26.504,241.753 23.001,240.845 19.576,239.701 C18.715,239.414 17.859,239.11 17.014,238.777 C16.716,238.66 15.832,238.286 16.912,238.744 C16.838,238.713 16.764,238.681 16.69,238.648 C17.082,239.331 17.475,240.015 17.866,240.698 C17.82,237.43 18.012,234.142 18.318,230.89 C18.381,230.224 18.453,229.56 18.532,228.896 C18.571,228.556 18.614,228.216 18.659,227.877 C18.571,228.544 18.649,227.947 18.667,227.822 C18.699,227.592 18.733,227.363 18.766,227.134 C18.982,225.694 19.246,224.26 19.565,222.841 C19.874,221.472 20.248,220.118 20.706,218.792 C20.81,218.49 20.922,218.191 21.037,217.891 C21.094,217.746 21.153,217.6 21.212,217.455 C20.956,218.084 21.159,217.581 21.215,217.455 C21.472,216.87 21.762,216.299 22.08,215.745 C22.219,215.503 22.368,215.267 22.522,215.033 C22.626,214.875 23.194,214.122 22.701,214.754 C23.037,214.323 23.416,213.926 23.826,213.565 C24.182,213.253 23.259,213.955 23.635,213.714 C23.762,213.633 23.888,213.553 24.016,213.473 C25.246,212.693 26.482,211.923 27.721,211.159 C32.453,208.242 37.24,205.411 42.098,202.707 C44.864,201.169 47.658,199.676 50.491,198.265 C51.813,197.606 53.146,196.968 54.491,196.359 C55.092,196.087 55.698,195.821 56.305,195.563 C55.645,195.844 56.594,195.446 56.756,195.381 C57.083,195.248 57.411,195.119 57.74,194.992 C58.789,194.589 59.851,194.221 60.934,193.918 C61.551,193.745 60.186,193.91 60.938,193.91 C61.306,193.91 61.675,193.91 62.043,193.91 C64.441,193.91 66.841,193.91 69.239,193.91 C72.482,193.91 75.724,193.91 78.966,193.91 C80.042,193.91 81.12,193.91 82.197,193.91 C82.419,193.91 82.641,193.91 82.864,193.91 C82.37,193.91 82.25,193.818 82.724,193.951 C83.007,194.03 83.289,194.116 83.569,194.205 C84.708,194.564 85.824,194.99 86.929,195.439 C87.074,195.498 87.218,195.558 87.363,195.618 C87.878,195.831 86.864,195.405 87.383,195.626 C87.685,195.754 87.985,195.885 88.284,196.017 C88.96,196.315 89.632,196.622 90.302,196.935 C100.113,201.521 109.477,207.156 118.64,212.914 C119.023,213.155 119.407,213.398 119.791,213.642 C119.86,213.685 119.928,213.729 119.996,213.772 C119.737,213.607 119.461,213.343 119.806,213.645 C120.024,213.837 120.227,214.048 120.423,214.26 C120.552,214.401 121.112,215.116 120.63,214.483 C120.794,214.698 120.947,214.922 121.095,215.148 C121.436,215.668 121.732,216.216 122.008,216.772 C122.142,217.043 122.266,217.319 122.387,217.595 C122.608,218.097 122.18,217.089 122.387,217.6 C122.448,217.746 122.504,217.893 122.561,218.04 C122.814,218.698 123.035,219.368 123.241,220.042 C123.658,221.409 123.985,222.803 124.266,224.203 C124.403,224.89 124.525,225.579 124.639,226.271 C124.696,226.615 124.748,226.96 124.8,227.306 C124.825,227.478 124.85,227.651 124.875,227.822 C124.89,227.937 124.907,228.05 124.922,228.165 C124.875,227.819 124.871,227.78 124.904,228.047 C125.239,230.62 125.445,233.21 125.567,235.802 C125.645,237.431 125.698,239.067 125.674,240.698 C126.067,240.015 126.459,239.331 126.851,238.648 C126.63,238.782 126.395,238.901 126.163,239.017 C125.87,239.164 125.572,239.305 125.273,239.44 C125.085,239.526 124.897,239.608 124.708,239.689 C124.191,239.913 125.088,239.531 124.904,239.608 C124.77,239.663 124.634,239.718 124.5,239.774 C121.427,241.02 118.221,241.939 115,242.719 C112.594,243.302 110.166,243.79 107.728,244.215 C106.279,244.468 104.824,244.694 103.369,244.903 C103.174,244.931 102.981,244.957 102.788,244.984 C102.696,244.997 102.037,245.087 102.634,245.006 C102.232,245.06 101.83,245.111 101.428,245.163 C100.521,245.278 99.614,245.383 98.706,245.484 C90.287,246.412 81.807,246.749 73.34,246.753 C70.276,246.754 70.276,251.505 73.34,251.503" id="Fill-177" fill="#4C5159"></path>
            <path d="M80.108,189.505 C80.108,189.505 90.042,185.705 94.122,191.563 C98.202,197.423 94.122,210.567 94.122,210.567 C94.122,210.567 86.14,201.382 72.835,209.142 L80.108,189.505" id="Fill-178" fill="#E57A74"></path>
            <path d="M80.739,191.796 C81.182,191.628 81.638,191.492 82.094,191.365 C82.561,191.233 83.035,191.119 83.511,191.018 C83.79,190.958 84.07,190.906 84.35,190.857 C84.498,190.831 84.647,190.809 84.796,190.786 C85.056,190.748 85,190.756 84.626,190.808 C84.731,190.795 84.836,190.783 84.941,190.771 C85.597,190.697 86.258,190.666 86.918,190.669 C87.258,190.67 87.598,190.69 87.938,190.716 C88.108,190.731 88.278,190.75 88.449,190.77 C87.748,190.687 88.525,190.798 88.665,190.826 C89.002,190.892 89.333,190.985 89.663,191.086 C89.827,191.138 89.987,191.197 90.148,191.259 C89.561,191.038 90.1,191.243 90.212,191.296 C90.527,191.446 90.825,191.627 91.114,191.819 C91.611,192.149 90.73,191.493 91.197,191.876 C91.384,192.027 91.556,192.197 91.725,192.368 C91.856,192.502 91.976,192.643 92.096,192.785 C91.744,192.367 92.103,192.808 92.163,192.898 C92.35,193.173 92.507,193.465 92.658,193.761 C92.712,193.869 92.939,194.402 92.694,193.814 C92.76,193.972 92.819,194.135 92.875,194.298 C93.013,194.689 93.12,195.089 93.215,195.49 C93.301,195.846 93.364,196.207 93.422,196.568 C93.523,197.193 93.361,196.041 93.435,196.676 C93.457,196.864 93.473,197.052 93.49,197.241 C93.56,198.072 93.57,198.907 93.553,199.74 C93.537,200.511 93.483,201.279 93.413,202.047 C93.378,202.422 93.334,202.797 93.289,203.171 C93.212,203.798 93.363,202.649 93.276,203.268 C93.243,203.505 93.207,203.742 93.169,203.979 C92.97,205.248 92.711,206.509 92.414,207.759 C92.24,208.488 92.053,209.218 91.832,209.935 C93.155,209.585 94.478,209.236 95.802,208.886 C94.075,206.91 91.521,205.545 89.1,204.654 C83.253,202.503 76.861,204.078 71.635,207.089 C72.799,207.984 73.961,208.878 75.125,209.772 C77.549,203.227 79.973,196.682 82.398,190.137 C82.849,188.921 81.906,187.536 80.739,187.215 C79.41,186.849 78.267,187.661 77.817,188.874 C75.394,195.42 72.969,201.964 70.543,208.509 C69.791,210.543 72.346,212.165 74.033,211.193 C75.499,210.348 76.676,209.781 78.142,209.284 C78.811,209.058 79.492,208.877 80.179,208.722 C80.537,208.642 80.897,208.579 81.26,208.52 C81.542,208.479 81.542,208.478 81.259,208.519 C81.463,208.493 81.669,208.475 81.875,208.457 C82.463,208.405 83.054,208.396 83.644,208.408 C83.893,208.414 84.142,208.429 84.389,208.446 C84.543,208.457 85.524,208.576 84.83,208.479 C85.854,208.622 86.862,208.886 87.836,209.234 C88.024,209.301 88.208,209.374 88.393,209.448 C87.688,209.166 88.456,209.483 88.61,209.553 C88.97,209.723 89.321,209.909 89.669,210.104 C89.981,210.281 90.285,210.472 90.584,210.669 C90.801,210.812 91.778,211.543 91.025,210.961 C91.525,211.348 92.025,211.768 92.443,212.246 C93.67,213.65 95.917,212.802 96.413,211.197 C96.879,209.691 97.221,208.138 97.516,206.589 C98.121,203.406 98.516,200.102 98.206,196.863 C97.858,193.226 96.6,189.877 93.511,187.718 C90.953,185.929 87.475,185.69 84.472,186.078 C82.783,186.295 81.075,186.608 79.476,187.215 C78.267,187.675 77.45,188.798 77.817,190.137 C78.136,191.295 79.528,192.257 80.739,191.796" id="Fill-179" fill="#4C5159"></path>
            <path d="M62.796,189.505 C62.796,189.505 52.862,185.705 48.781,191.563 C44.701,197.423 48.781,210.567 48.781,210.567 C48.781,210.567 56.765,201.382 70.07,209.142 L62.796,189.505" id="Fill-180" fill="#E57A74"></path>
            <path d="M63.427,187.215 C61.779,186.588 60.018,186.281 58.279,186.057 C55.235,185.664 51.82,186.02 49.249,187.818 C43.351,191.942 44.247,200.587 45.419,206.75 C45.705,208.244 46.042,209.743 46.492,211.197 C46.988,212.802 49.235,213.65 50.461,212.246 C50.86,211.79 51.334,211.393 51.807,211.018 C52.099,210.786 51.253,211.436 51.708,211.098 C51.848,210.994 51.992,210.893 52.136,210.794 C52.423,210.595 52.72,210.408 53.02,210.231 C53.355,210.03 53.699,209.847 54.047,209.673 C54.255,209.569 54.466,209.473 54.679,209.379 C54.91,209.279 54.854,209.301 54.511,209.448 C54.649,209.393 54.787,209.339 54.926,209.286 C55.833,208.943 56.776,208.7 57.731,208.533 C57.845,208.513 57.96,208.495 58.075,208.479 C57.735,208.523 57.701,208.528 57.972,208.496 C58.275,208.461 58.58,208.44 58.884,208.423 C59.532,208.386 60.18,208.401 60.827,208.442 C61.1,208.459 61.374,208.487 61.646,208.519 C61.363,208.478 61.362,208.479 61.645,208.52 C61.86,208.553 62.075,208.593 62.288,208.632 C63.047,208.775 63.794,208.978 64.53,209.208 C66.119,209.706 67.329,210.303 68.871,211.193 C70.559,212.165 73.113,210.543 72.36,208.509 C69.936,201.964 67.512,195.42 65.087,188.874 C64.637,187.661 63.495,186.849 62.165,187.215 C60.998,187.536 60.056,188.921 60.506,190.137 C62.93,196.682 65.355,203.227 67.779,209.772 C68.942,208.878 70.105,207.984 71.269,207.089 C66.042,204.077 59.804,202.579 53.949,204.603 C51.479,205.456 48.85,206.888 47.102,208.886 C48.425,209.236 49.749,209.585 51.072,209.935 C50.606,208.428 50.265,206.875 49.969,205.326 C49.839,204.643 49.728,203.956 49.628,203.268 C49.538,202.649 49.695,203.798 49.615,203.171 C49.591,202.984 49.57,202.798 49.55,202.612 C49.5,202.17 49.461,201.728 49.428,201.284 C49.306,199.689 49.307,198.08 49.491,196.489 C49.418,197.118 49.493,196.496 49.511,196.384 C49.54,196.204 49.576,196.024 49.611,195.844 C49.682,195.492 49.771,195.145 49.87,194.8 C49.965,194.465 50.083,194.137 50.209,193.814 C49.978,194.403 50.193,193.873 50.247,193.761 C50.343,193.56 50.453,193.368 50.565,193.177 C50.649,193.034 50.741,192.898 50.833,192.763 C51.193,192.231 50.524,193.121 50.929,192.642 C51.165,192.363 51.431,192.113 51.708,191.876 C52.164,191.481 51.302,192.16 51.791,191.819 C51.933,191.718 52.083,191.63 52.233,191.541 C52.382,191.452 52.538,191.373 52.692,191.296 C52.795,191.245 52.9,191.196 53.005,191.151 C52.702,191.277 52.673,191.293 52.917,191.197 C53.239,191.077 53.571,190.985 53.905,190.901 C54.083,190.856 55.161,190.676 54.456,190.77 C55.185,190.673 55.924,190.656 56.658,190.677 C56.988,190.687 57.316,190.711 57.644,190.739 C57.803,190.753 57.962,190.771 58.121,190.788 C58.681,190.852 57.562,190.707 58.108,190.786 C58.713,190.874 59.313,190.994 59.909,191.133 C60.669,191.309 61.433,191.517 62.165,191.796 C63.376,192.257 64.768,191.295 65.087,190.137 C65.455,188.798 64.637,187.675 63.427,187.215" id="Fill-181" fill="#4C5159"></path>
            <path d="M59.8,184.751 L59.8,198.129 C59.8,204.298 64.802,209.301 70.973,209.301 C77.143,209.301 82.146,204.298 82.146,198.129 L82.146,184.751 L59.8,184.751" id="Fill-182" fill="#F4E0CD"></path>
            <path d="M57.424,184.751 C57.424,188.691 57.424,192.631 57.424,196.572 C57.424,199.054 57.628,201.41 58.646,203.725 C60.223,207.308 63.42,209.974 67.132,211.124 C70.934,212.302 75.3,211.583 78.568,209.341 C82.001,206.987 84.025,203.334 84.467,199.229 C84.642,197.604 84.521,195.91 84.521,194.28 C84.521,191.81 84.521,189.34 84.521,186.87 C84.521,186.163 84.521,185.457 84.521,184.751 C84.521,183.455 83.44,182.375 82.146,182.375 C74.765,182.375 67.386,182.375 60.005,182.375 C59.937,182.375 59.869,182.375 59.8,182.375 C56.736,182.375 56.736,187.125 59.8,187.125 C67.18,187.125 74.56,187.125 81.939,187.125 C82.008,187.125 82.077,187.125 82.146,187.125 C81.354,186.334 80.562,185.542 79.77,184.751 C79.77,188.691 79.77,192.631 79.77,196.572 C79.77,197.088 79.77,197.603 79.77,198.119 C79.77,198.417 79.756,198.714 79.735,199.012 C79.731,199.077 79.639,199.791 79.719,199.246 C79.688,199.458 79.644,199.669 79.6,199.88 C79.515,200.296 79.392,200.704 79.258,201.109 C79.193,201.308 79.115,201.505 79.038,201.7 C79.232,201.211 78.881,201.997 78.838,202.082 C78.649,202.453 78.429,202.808 78.2,203.155 C78.087,203.328 77.963,203.494 77.84,203.661 C78.152,203.24 77.729,203.774 77.688,203.821 C77.418,204.134 77.123,204.424 76.819,204.705 C76.668,204.847 76.508,204.979 76.35,205.111 C76.749,204.78 76.078,205.302 76,205.357 C75.656,205.592 75.294,205.798 74.927,205.994 C74.743,206.091 74.553,206.18 74.363,206.267 C74.845,206.045 74.213,206.321 74.152,206.343 C73.754,206.492 73.345,206.608 72.933,206.709 C72.724,206.761 72.514,206.8 72.303,206.839 C72.023,206.884 72.019,206.886 72.291,206.85 C72.146,206.865 72.001,206.881 71.856,206.891 C71.416,206.931 70.972,206.93 70.529,206.917 C70.309,206.911 70.09,206.891 69.872,206.872 C69.157,206.809 70.344,206.957 69.643,206.839 C69.221,206.769 68.806,206.662 68.395,206.543 C68.193,206.485 67.992,206.414 67.793,206.343 C67.662,206.297 67.53,206.246 67.4,206.193 C67.646,206.297 67.643,206.292 67.392,206.18 C67.014,206.005 66.651,205.798 66.294,205.581 C66.117,205.474 65.946,205.357 65.775,205.239 C65.723,205.203 65.186,204.783 65.595,205.111 C65.271,204.852 64.971,204.568 64.679,204.276 C64.533,204.13 64.395,203.976 64.257,203.821 C64.165,203.718 64.077,203.612 63.989,203.506 C64.146,203.716 64.144,203.713 63.982,203.494 C63.734,203.161 63.515,202.807 63.307,202.449 C63.201,202.268 63.107,202.082 63.013,201.897 C62.984,201.841 62.703,201.209 62.908,201.7 C62.745,201.31 62.615,200.907 62.498,200.501 C62.439,200.296 62.392,200.089 62.345,199.88 C62.323,199.785 62.183,198.904 62.251,199.447 C62.162,198.741 62.174,198.03 62.174,197.32 C62.174,193.181 62.174,189.042 62.174,184.902 C62.174,184.851 62.174,184.801 62.174,184.751 C62.174,181.687 57.424,181.687 57.424,184.751" id="Fill-183" fill="#4C5159"></path>
            <path d="M62.217,191.802 C62.217,191.802 70.973,193.298 79.728,191.802 L79.728,198.816 C79.728,198.816 76.824,201.237 71.29,201.237 C65.901,201.237 62.217,198.816 62.217,198.816 L62.217,191.802" id="Fill-184" fill="#E7CEBB"></path>
            <path d="M111.684,106.32 C111.684,116.576 117.529,124.89 124.741,124.89 C131.951,124.89 137.797,116.576 137.797,106.32 C137.797,96.065 131.951,87.752 124.741,87.752 C117.529,87.752 111.684,96.065 111.684,106.32" id="Fill-185" fill="#F4E0CD"></path>
            <path d="M109.309,106.32 C109.344,113.737 112.33,122.684 119.545,126.055 C122.93,127.635 126.547,127.567 129.935,126.055 C133.166,124.613 135.669,121.631 137.289,118.563 C141.218,111.122 141.118,101.527 137.289,94.077 C135.689,90.967 133.14,88.083 129.935,86.586 C126.551,85.005 122.933,85.074 119.545,86.586 C116.315,88.028 113.811,91.01 112.192,94.077 C110.212,97.827 109.329,102.101 109.309,106.32 C109.293,109.384 114.045,109.383 114.059,106.32 C114.077,102.535 114.892,98.899 116.71,95.719 C116.919,95.352 117.147,94.997 117.382,94.646 C117.497,94.473 117.618,94.305 117.739,94.137 C118.137,93.585 117.446,94.497 117.866,93.971 C118.397,93.305 118.996,92.693 119.635,92.131 C119.779,92.006 119.927,91.886 120.075,91.767 C119.628,92.127 120.121,91.743 120.197,91.69 C120.499,91.476 120.814,91.284 121.134,91.1 C121.448,90.919 121.777,90.762 122.108,90.614 C121.549,90.864 122.104,90.628 122.208,90.59 C122.433,90.509 122.662,90.442 122.89,90.376 C123.234,90.279 123.585,90.211 123.938,90.152 C123.296,90.258 123.893,90.166 124.018,90.154 C124.197,90.139 124.378,90.133 124.558,90.128 C124.92,90.118 125.282,90.139 125.642,90.17 C126.254,90.223 125.115,90.081 125.719,90.182 C125.955,90.22 126.187,90.275 126.417,90.33 C126.765,90.415 127.104,90.529 127.44,90.652 C128.013,90.86 126.977,90.438 127.538,90.688 C127.703,90.762 127.864,90.844 128.025,90.926 C128.353,91.093 128.667,91.284 128.975,91.482 C129.132,91.582 129.284,91.69 129.435,91.798 C129.647,91.955 129.638,91.945 129.405,91.767 C129.503,91.846 129.602,91.925 129.699,92.007 C130.301,92.506 130.847,93.071 131.358,93.661 C131.489,93.815 131.616,93.972 131.742,94.13 C131.408,93.711 131.823,94.251 131.862,94.305 C132.148,94.701 132.41,95.116 132.663,95.535 C133.114,96.284 133.5,97.07 133.848,97.872 C133.651,97.42 133.933,98.11 133.946,98.14 C134.028,98.354 134.104,98.57 134.179,98.785 C134.359,99.299 134.512,99.821 134.656,100.346 C134.91,101.277 135.093,102.226 135.237,103.179 C135.168,102.72 135.274,103.528 135.275,103.531 C135.303,103.78 135.323,104.03 135.343,104.28 C135.392,104.873 135.412,105.468 135.42,106.063 C135.434,107.08 135.377,108.098 135.275,109.11 C135.274,109.112 135.173,109.922 135.237,109.462 C135.203,109.704 135.162,109.946 135.121,110.188 C135.027,110.741 134.906,111.29 134.774,111.837 C134.555,112.741 134.271,113.629 133.946,114.5 C133.934,114.53 133.656,115.223 133.848,114.77 C133.761,114.975 133.667,115.177 133.576,115.379 C133.362,115.841 133.125,116.291 132.877,116.735 C132.67,117.106 132.446,117.466 132.215,117.821 C132.101,117.996 131.981,118.166 131.862,118.337 C131.824,118.389 131.412,118.935 131.742,118.511 C131.215,119.187 130.623,119.808 129.988,120.383 C129.847,120.512 129.7,120.634 129.553,120.755 C129.063,121.162 129.945,120.47 129.435,120.843 C129.137,121.062 128.823,121.26 128.504,121.45 C128.192,121.636 127.867,121.799 127.538,121.952 C126.981,122.212 128.01,121.77 127.44,121.989 C127.218,122.075 126.99,122.147 126.761,122.216 C126.419,122.319 126.07,122.394 125.719,122.46 C125.116,122.571 126.253,122.405 125.642,122.47 C125.462,122.49 125.282,122.498 125.102,122.508 C124.741,122.526 124.379,122.511 124.018,122.486 C123.896,122.478 123.29,122.394 123.938,122.489 C123.702,122.455 123.468,122.404 123.236,122.353 C122.888,122.274 122.546,122.167 122.208,122.05 C122.106,122.015 121.542,121.786 122.108,122.027 C121.941,121.956 121.779,121.876 121.617,121.797 C121.288,121.636 120.972,121.451 120.661,121.259 C120.502,121.162 120.351,121.057 120.197,120.951 C120.094,120.88 119.994,120.806 119.894,120.733 C120.125,120.914 120.136,120.922 119.928,120.755 C119.32,120.268 118.771,119.712 118.254,119.131 C118.121,118.98 117.993,118.824 117.866,118.67 C117.438,118.149 118.145,119.051 117.739,118.504 C117.45,118.111 117.184,117.703 116.928,117.288 C116.43,116.485 116.01,115.636 115.634,114.77 C115.829,115.221 115.547,114.531 115.535,114.5 C115.452,114.287 115.376,114.071 115.301,113.855 C115.121,113.342 114.968,112.819 114.825,112.295 C114.699,111.835 114.594,111.369 114.495,110.902 C114.446,110.665 114.403,110.426 114.36,110.188 C114.345,110.105 114.211,109.21 114.263,109.604 C114.121,108.515 114.064,107.417 114.059,106.32 C114.045,103.258 109.293,103.256 109.309,106.32" id="Fill-186" fill="#4C5159"></path>
            <path d="M131.772,106.986 C131.772,106.986 132.593,109.882 130.969,111.315 C125.849,115.827 126.011,122.425 126.011,122.425 L126.011,110.668 L127.674,108.807 L131.772,106.986" id="Fill-187" fill="#E7CEBB"></path>
            <path d="M124.786,116.572 C124.656,115.089 124.856,114.079 125.317,112.675 C126.202,109.98 128.476,108.161 131.286,107.465 C132.771,107.097 132.141,104.807 130.654,105.175 C127.15,106.043 124.463,108.297 123.162,111.668 C122.582,113.169 122.27,114.956 122.411,116.572 C122.543,118.086 124.92,118.099 124.786,116.572" id="Fill-188" fill="#4C5159"></path>
            <path d="M60.711,181.58 L60.711,194.957 C60.711,201.127 65.713,206.131 71.883,206.131 C78.054,206.131 83.058,201.127 83.058,194.957 L83.058,181.58 L60.711,181.58" id="Fill-189" fill="#F4E0CD"></path>
            <path d="M58.335,181.58 C58.335,185.519 58.335,189.46 58.335,193.401 C58.335,195.883 58.541,198.239 59.559,200.554 C61.134,204.137 64.331,206.804 68.043,207.953 C71.845,209.131 76.211,208.41 79.48,206.17 C82.913,203.816 84.937,200.163 85.379,196.059 C85.555,194.433 85.432,192.739 85.432,191.109 C85.432,188.639 85.432,186.169 85.432,183.699 C85.432,182.993 85.432,182.286 85.432,181.58 C85.432,180.284 84.352,179.204 83.058,179.204 C75.678,179.204 68.298,179.204 60.918,179.204 C60.848,179.204 60.78,179.204 60.711,179.204 C57.647,179.204 57.647,183.954 60.711,183.954 C68.091,183.954 75.471,183.954 82.851,183.954 C82.919,183.954 82.988,183.954 83.058,183.954 C82.266,183.163 81.474,182.371 80.682,181.58 C80.682,185.519 80.682,189.46 80.682,193.401 C80.682,193.917 80.682,194.432 80.682,194.948 C80.682,195.246 80.668,195.543 80.648,195.841 C80.642,195.906 80.55,196.62 80.63,196.074 C80.6,196.287 80.556,196.498 80.512,196.709 C80.426,197.125 80.304,197.533 80.17,197.938 C80.104,198.137 80.027,198.333 79.949,198.529 C80.143,198.039 79.792,198.826 79.75,198.911 C79.561,199.282 79.341,199.637 79.112,199.984 C78.999,200.156 78.875,200.323 78.751,200.49 C79.064,200.069 78.641,200.603 78.6,200.65 C78.33,200.963 78.034,201.254 77.731,201.534 C77.581,201.676 77.421,201.808 77.261,201.94 C77.66,201.61 76.989,202.131 76.91,202.185 C76.568,202.421 76.205,202.627 75.838,202.823 C75.654,202.921 75.464,203.008 75.275,203.096 C75.756,202.874 75.125,203.15 75.063,203.173 C74.666,203.321 74.256,203.436 73.844,203.538 C73.636,203.59 73.425,203.629 73.214,203.668 C72.935,203.713 72.93,203.715 73.202,203.678 C73.059,203.695 72.913,203.71 72.768,203.72 C72.327,203.76 71.882,203.759 71.44,203.746 C71.221,203.739 71.001,203.72 70.783,203.701 C70.067,203.639 71.256,203.785 70.555,203.668 C70.132,203.597 69.718,203.49 69.307,203.372 C69.104,203.314 68.905,203.243 68.705,203.173 C68.573,203.125 68.442,203.075 68.312,203.023 C68.558,203.125 68.554,203.121 68.304,203.008 C67.926,202.834 67.563,202.627 67.206,202.41 C67.028,202.303 66.858,202.185 66.687,202.068 C66.634,202.032 66.097,201.613 66.506,201.94 C66.184,201.681 65.882,201.397 65.591,201.105 C65.444,200.959 65.306,200.804 65.168,200.65 C65.078,200.547 64.988,200.441 64.901,200.335 C65.058,200.545 65.055,200.542 64.893,200.323 C64.645,199.99 64.427,199.636 64.218,199.277 C64.114,199.097 64.018,198.911 63.924,198.726 C63.895,198.67 63.614,198.037 63.819,198.529 C63.656,198.139 63.527,197.736 63.411,197.33 C63.35,197.125 63.303,196.917 63.256,196.709 C63.235,196.614 63.094,195.734 63.164,196.276 C63.074,195.569 63.087,194.859 63.087,194.149 C63.087,190.01 63.087,185.871 63.087,181.732 C63.087,181.68 63.087,181.63 63.087,181.58 C63.087,178.516 58.335,178.516 58.335,181.58" id="Fill-190" fill="#4C5159"></path>
            <path d="M32.084,106.32 C32.084,116.576 26.239,124.89 19.028,124.89 C11.817,124.89 5.971,116.576 5.971,106.32 C5.971,96.065 11.817,87.752 19.028,87.752 C26.239,87.752 32.084,96.065 32.084,106.32" id="Fill-191" fill="#F4E0CD"></path>
            <path d="M29.708,106.32 C29.69,110.105 28.877,113.742 27.059,116.922 C26.849,117.288 26.621,117.644 26.386,117.996 C26.271,118.167 26.15,118.336 26.028,118.504 C25.63,119.055 26.323,118.144 25.903,118.67 C25.37,119.336 24.772,119.947 24.132,120.51 C23.99,120.636 23.841,120.755 23.692,120.874 C24.14,120.514 23.646,120.898 23.571,120.951 C23.27,121.165 22.954,121.357 22.634,121.541 C22.319,121.721 21.991,121.879 21.66,122.027 C22.219,121.777 21.663,122.013 21.559,122.05 C21.335,122.132 21.107,122.199 20.877,122.265 C20.534,122.362 20.182,122.431 19.831,122.489 C20.473,122.382 19.875,122.476 19.75,122.486 C19.57,122.503 19.391,122.508 19.209,122.512 C18.848,122.523 18.486,122.503 18.126,122.47 C17.514,122.418 18.654,122.56 18.048,122.46 C17.814,122.42 17.582,122.366 17.352,122.31 C17.004,122.225 16.664,122.111 16.329,121.989 C15.753,121.78 16.791,122.202 16.231,121.952 C16.065,121.879 15.904,121.797 15.742,121.715 C15.415,121.548 15.102,121.357 14.792,121.159 C14.636,121.059 14.485,120.951 14.332,120.843 C14.12,120.686 14.131,120.696 14.363,120.874 C14.264,120.796 14.166,120.715 14.069,120.634 C13.466,120.134 12.922,119.57 12.41,118.979 C12.278,118.827 12.152,118.669 12.026,118.511 C12.361,118.929 11.945,118.389 11.906,118.337 C11.62,117.94 11.357,117.526 11.106,117.106 C10.654,116.358 10.27,115.571 9.921,114.77 C10.117,115.221 9.834,114.531 9.822,114.5 C9.74,114.287 9.665,114.071 9.589,113.855 C9.41,113.342 9.255,112.819 9.112,112.295 C8.858,111.364 8.674,110.416 8.532,109.462 C8.6,109.921 8.493,109.112 8.493,109.11 C8.465,108.86 8.445,108.61 8.424,108.36 C8.376,107.767 8.357,107.173 8.348,106.579 C8.333,105.561 8.392,104.543 8.493,103.531 C8.493,103.528 8.596,102.719 8.532,103.179 C8.566,102.936 8.606,102.695 8.647,102.453 C8.742,101.9 8.863,101.351 8.994,100.805 C9.212,99.9 9.497,99.012 9.822,98.14 C9.834,98.11 10.113,97.418 9.921,97.872 C10.007,97.666 10.1,97.464 10.193,97.262 C10.407,96.8 10.644,96.35 10.891,95.905 C11.097,95.534 11.322,95.174 11.554,94.819 C11.667,94.645 11.786,94.475 11.906,94.305 C11.944,94.251 12.356,93.706 12.026,94.13 C12.553,93.454 13.145,92.832 13.779,92.258 C13.921,92.13 14.069,92.007 14.216,91.885 C14.705,91.48 13.823,92.17 14.332,91.798 C14.631,91.579 14.944,91.381 15.263,91.191 C15.576,91.005 15.902,90.842 16.231,90.688 C16.786,90.428 15.758,90.87 16.329,90.652 C16.55,90.566 16.779,90.494 17.006,90.425 C17.348,90.321 17.698,90.247 18.048,90.182 C18.652,90.07 17.514,90.235 18.126,90.17 C18.305,90.151 18.485,90.142 18.666,90.133 C19.027,90.116 19.39,90.13 19.75,90.154 C19.873,90.162 20.478,90.247 19.831,90.152 C20.067,90.187 20.299,90.237 20.532,90.289 C20.88,90.366 21.221,90.474 21.559,90.59 C21.662,90.625 22.226,90.855 21.66,90.614 C21.826,90.685 21.989,90.764 22.152,90.843 C22.48,91.005 22.796,91.19 23.107,91.382 C23.265,91.48 23.417,91.585 23.571,91.69 C23.673,91.761 23.775,91.834 23.875,91.909 C23.644,91.727 23.632,91.719 23.84,91.885 C24.447,92.374 24.998,92.929 25.515,93.51 C25.648,93.66 25.775,93.816 25.903,93.971 C26.33,94.492 25.624,93.591 26.028,94.137 C26.319,94.529 26.585,94.939 26.841,95.353 C27.338,96.157 27.759,97.006 28.135,97.872 C27.938,97.42 28.222,98.11 28.233,98.14 C28.316,98.354 28.391,98.57 28.466,98.785 C28.646,99.299 28.801,99.821 28.943,100.346 C29.069,100.806 29.174,101.272 29.272,101.739 C29.322,101.976 29.365,102.214 29.408,102.453 C29.422,102.536 29.556,103.43 29.506,103.037 C29.647,104.125 29.703,105.223 29.708,106.32 C29.724,109.383 34.474,109.384 34.46,106.32 C34.425,98.903 31.439,89.957 24.223,86.586 C20.839,85.005 17.22,85.074 13.833,86.586 C10.603,88.028 8.1,91.01 6.48,94.077 C2.551,101.518 2.65,111.114 6.48,118.563 C8.078,121.674 10.627,124.558 13.833,126.055 C17.217,127.635 20.835,127.567 24.223,126.055 C27.453,124.613 29.956,121.631 31.576,118.563 C33.556,114.814 34.44,110.54 34.46,106.32 C34.474,103.256 29.724,103.258 29.708,106.32" id="Fill-192" fill="#4C5159"></path>
            <path d="M11.997,106.986 C11.997,106.986 11.174,109.882 12.799,111.315 C17.919,115.827 17.756,122.425 17.756,122.425 L17.756,110.668 L16.094,108.807 L11.997,106.986" id="Fill-193" fill="#E7CEBB"></path>
            <path d="M21.357,116.572 C21.5,114.946 21.17,113.185 20.606,111.668 C19.355,108.293 16.582,106.033 13.114,105.175 C11.628,104.807 10.996,107.097 12.483,107.465 C15.32,108.168 17.529,109.982 18.45,112.675 C18.926,114.066 19.111,115.099 18.982,116.572 C18.848,118.099 21.224,118.086 21.357,116.572" id="Fill-194" fill="#4C5159"></path>
            <path d="M23.16,59.123 L19.028,134.485 C19.028,161.395 44.975,183.209 71.883,183.209 C98.794,183.209 124.741,161.395 124.741,134.485 L120.608,59.123 L23.16,59.123" id="Fill-195" fill="#F4E0CD"></path>
            <path d="M20.785,59.123 C20.522,63.92 20.258,68.717 19.996,73.514 C19.448,83.506 18.899,93.499 18.353,103.491 C17.881,112.083 17.41,120.673 16.939,129.263 C16.845,130.971 16.75,132.68 16.658,134.387 C16.51,137.086 16.935,139.923 17.407,142.57 C18.065,146.262 19.265,149.813 20.788,153.234 C26.921,167.01 39.528,177.381 53.567,182.393 C60.676,184.932 68.371,186.007 75.9,185.423 C83.587,184.826 91.052,182.588 97.896,179.057 C111.118,172.235 121.955,160.091 125.713,145.541 C126.729,141.61 127.278,137.453 127.055,133.389 C126.917,130.867 126.779,128.344 126.64,125.82 C126.128,116.491 125.618,107.161 125.106,97.832 C124.583,88.287 124.059,78.743 123.536,69.198 C123.352,65.84 123.168,62.482 122.983,59.123 C122.913,57.831 121.957,56.748 120.608,56.748 C116.702,56.748 112.795,56.748 108.889,56.748 C99.803,56.748 90.718,56.748 81.633,56.748 C71.323,56.748 61.013,56.748 50.702,56.748 C43.12,56.748 35.538,56.748 27.954,56.748 C26.356,56.748 24.758,56.748 23.16,56.748 C20.097,56.748 20.097,61.498 23.16,61.498 C27.067,61.498 30.974,61.498 34.88,61.498 C43.965,61.498 53.05,61.498 62.134,61.498 C72.445,61.498 82.755,61.498 93.065,61.498 C100.648,61.498 108.231,61.498 115.814,61.498 C117.412,61.498 119.01,61.498 120.608,61.498 C119.817,60.707 119.024,59.915 118.232,59.123 C118.496,63.92 118.758,68.717 119.021,73.514 C119.57,83.506 120.118,93.499 120.666,103.491 C121.137,112.083 121.607,120.673 122.079,129.263 C122.172,130.971 122.265,132.68 122.359,134.387 C122.401,135.156 122.344,135.941 122.306,136.709 C122.261,137.589 122.182,138.468 122.081,139.344 C122.075,139.403 121.982,140.125 122.055,139.582 C122.026,139.799 121.993,140.015 121.961,140.231 C121.884,140.735 121.794,141.235 121.701,141.735 C121.365,143.51 120.904,145.26 120.347,146.977 C120.083,147.799 119.787,148.61 119.474,149.415 C119.396,149.615 119.314,149.816 119.233,150.015 C118.964,150.677 119.42,149.588 119.138,150.243 C118.94,150.706 118.732,151.163 118.518,151.619 C117.755,153.25 116.886,154.829 115.942,156.361 C115.489,157.099 115.01,157.822 114.518,158.535 C114.271,158.892 114.017,159.243 113.762,159.594 C113.633,159.77 113.503,159.943 113.373,160.117 C113.286,160.233 113.198,160.349 113.11,160.464 C113.26,160.269 113.25,160.281 113.081,160.498 C110.832,163.37 108.262,165.985 105.479,168.34 C103.997,169.594 103.105,170.262 101.393,171.436 C99.869,172.478 98.291,173.439 96.674,174.329 C95.052,175.222 93.383,176.027 91.684,176.757 C92.141,176.56 91.465,176.847 91.431,176.861 C91.226,176.945 91.019,177.027 90.812,177.11 C90.399,177.274 89.983,177.431 89.566,177.585 C88.662,177.921 87.748,178.226 86.828,178.515 C85.058,179.068 83.258,179.52 81.441,179.89 C80.568,180.068 79.69,180.218 78.809,180.352 C78.758,180.36 78.026,180.463 78.559,180.392 C78.337,180.421 78.117,180.447 77.896,180.474 C77.379,180.537 76.861,180.589 76.344,180.636 C72.637,180.972 68.899,180.871 65.209,180.392 C65.741,180.461 65.011,180.36 64.958,180.352 C64.738,180.318 64.519,180.284 64.298,180.249 C63.858,180.178 63.421,180.1 62.983,180.019 C62.034,179.842 61.093,179.633 60.156,179.405 C58.353,178.969 56.577,178.428 54.83,177.813 C53.99,177.517 53.161,177.196 52.337,176.861 C52.302,176.847 51.626,176.562 52.084,176.757 C51.879,176.671 51.677,176.581 51.473,176.491 C50.998,176.282 50.528,176.065 50.059,175.844 C48.387,175.054 46.76,174.174 45.172,173.225 C43.589,172.28 42.059,171.25 40.575,170.155 C40.398,170.024 40.222,169.891 40.045,169.758 C39.465,169.319 40.4,170.038 39.828,169.591 C39.48,169.319 39.137,169.042 38.796,168.762 C38.06,168.158 37.343,167.531 36.637,166.891 C35.288,165.662 34.006,164.36 32.788,163.001 C32.206,162.352 31.643,161.686 31.094,161.008 C30.957,160.839 30.821,160.668 30.687,160.498 C30.242,159.935 30.962,160.861 30.526,160.291 C30.219,159.888 29.92,159.479 29.625,159.067 C28.574,157.6 27.613,156.071 26.729,154.499 C26.307,153.745 25.911,152.978 25.53,152.203 C25.34,151.816 25.158,151.425 24.979,151.033 C24.889,150.837 24.802,150.638 24.715,150.441 C24.658,150.309 24.6,150.177 24.545,150.045 C24.645,150.281 24.641,150.272 24.535,150.015 C23.16,146.674 22.217,143.16 21.712,139.582 C21.79,140.124 21.694,139.403 21.687,139.344 C21.661,139.126 21.637,138.908 21.616,138.689 C21.57,138.251 21.534,137.811 21.503,137.372 C21.434,136.411 21.406,135.447 21.404,134.485 C21.404,134.395 21.413,134.305 21.418,134.214 C21.455,133.534 21.493,132.852 21.53,132.171 C21.695,129.164 21.86,126.158 22.025,123.152 C22.557,113.447 23.089,103.744 23.621,94.04 C24.121,84.913 24.622,75.786 25.123,66.659 C25.259,64.147 25.398,61.635 25.536,59.123 C25.606,57.829 24.401,56.748 23.16,56.748 C21.811,56.748 20.856,57.831 20.785,59.123" id="Fill-196" fill="#4C5159"></path>
            <path d="M118.165,89.247 C118.165,89.247 102.842,78.686 101.382,68.624 C101.382,68.624 53.627,79.826 33.591,70.27 C33.591,70.27 29.172,69.175 29.473,63.938 C30.229,50.82 117.703,59.754 117.703,59.754 C117.703,59.754 118.165,69.635 118.165,89.247" id="Fill-197" fill="#E7CEBB"></path>
            <path d="M117.805,27.507 C117.805,27.507 108.661,0.041 43.901,2.698 C-3.867,4.657 -1.254,41.362 7.449,65.113 C8.432,68.501 10.054,71.98 11.845,75.194 C13.731,78.854 15.583,81.712 17.053,83.395 C19.412,86.719 21.227,88.866 21.227,88.866 C27.735,81.863 31.646,61.668 31.646,61.668 C52.73,72.042 105.368,60.532 105.368,60.532 C105.679,70.14 121.403,82.654 121.403,82.654 C124.361,76.544 126.163,69.682 127.257,63.886 C132.403,44.664 136.481,18.748 117.805,27.507" id="Fill-198" fill="#E2C367"></path>
            <path d="M120.095,26.875 C119.253,24.353 117.543,22.071 115.851,20.072 C111.5,14.93 105.577,11.153 99.487,8.408 C88.047,3.251 75.436,1.194 62.987,0.443 C58.707,0.185 54.417,0.108 50.13,0.156 C45.824,0.205 41.51,0.339 37.232,0.857 C30.544,1.664 23.93,3.299 17.964,6.507 C13.28,9.027 9.245,12.594 6.219,16.967 C3.517,20.875 1.786,25.463 0.894,30.112 C-0.959,39.775 0.382,49.857 3.042,59.239 C4.584,64.678 6.457,70.109 9.097,75.111 C10.827,78.388 12.601,81.631 14.922,84.535 C14.997,84.628 15.073,84.721 15.15,84.813 C15.548,85.292 14.796,84.306 15.362,85.096 C15.641,85.487 15.926,85.877 16.213,86.264 C16.811,87.075 17.425,87.874 18.042,88.67 C18.534,89.303 19.03,89.933 19.547,90.545 C20.358,91.506 22.083,91.44 22.907,90.545 C24.905,88.37 26.343,85.749 27.555,83.075 C28.93,80.041 30.052,76.898 31.033,73.716 C32.185,69.972 33.18,66.157 33.934,62.312 C33.934,62.307 33.935,62.303 33.936,62.298 C32.773,62.772 31.609,63.245 30.446,63.718 C35.514,66.193 41.098,67.233 46.664,67.832 C52.902,68.505 59.209,68.484 65.468,68.188 C76.737,67.655 87.977,66.165 99.075,64.17 C101.388,63.754 103.703,63.324 106,62.822 C104.997,62.059 103.996,61.295 102.992,60.532 C103.245,66.751 107.638,72.262 111.635,76.671 C114.12,79.412 116.827,82.025 119.724,84.334 C120.822,85.209 122.729,85.36 123.454,83.852 C125.559,79.473 127.125,74.865 128.313,70.158 C128.833,68.1 129.156,65.991 129.7,63.944 C130.131,62.318 130.541,60.686 130.929,59.049 C132.468,52.57 133.763,45.907 133.943,39.234 C134.064,34.727 133.712,29.345 130.457,25.879 C126.732,21.913 120.896,23.462 116.606,25.455 C115.432,26.001 115.146,27.668 115.753,28.705 C116.453,29.9 117.829,30.103 119.003,29.557 C119.185,29.473 119.369,29.389 119.551,29.308 C120.151,29.039 119.102,29.488 119.695,29.245 C120.031,29.106 120.372,28.98 120.716,28.858 C121.382,28.621 122.063,28.43 122.754,28.282 C122.948,28.24 123.953,28.094 123.125,28.2 C123.393,28.166 123.662,28.147 123.931,28.135 C124.184,28.123 124.437,28.128 124.69,28.138 C124.813,28.143 124.932,28.154 125.054,28.165 C125.479,28.204 124.383,28.053 125.001,28.162 C125.222,28.2 125.439,28.257 125.655,28.319 C125.861,28.379 126.603,28.694 125.794,28.342 C125.989,28.426 126.174,28.527 126.356,28.632 C126.552,28.746 127.245,29.288 126.558,28.738 C126.889,29.004 127.182,29.313 127.451,29.64 C126.906,28.977 127.412,29.605 127.529,29.782 C127.675,30.005 127.805,30.237 127.928,30.473 C128.039,30.682 128.137,30.899 128.232,31.116 C127.892,30.338 128.236,31.168 128.303,31.357 C128.491,31.898 128.635,32.454 128.76,33.012 C128.821,33.287 128.873,33.563 128.921,33.84 C128.946,33.982 128.968,34.125 128.991,34.268 C129.071,34.796 128.917,33.685 128.985,34.221 C129.071,34.886 129.122,35.555 129.158,36.224 C129.32,39.186 129.091,42.167 128.738,45.107 C128.7,45.428 128.658,45.749 128.616,46.069 C128.698,45.451 128.558,46.464 128.538,46.605 C128.443,47.263 128.337,47.92 128.23,48.575 C127.998,49.98 127.734,51.379 127.452,52.774 C126.901,55.513 126.261,58.234 125.571,60.941 C124.74,64.204 124.128,67.515 123.241,70.766 C122.231,74.468 120.973,78.081 119.353,81.455 C120.596,81.294 121.84,81.135 123.082,80.975 C120.327,78.778 117.762,76.3 115.369,73.719 C114.386,72.658 113.44,71.563 112.539,70.432 C112.486,70.365 112.089,69.857 112.439,70.309 C112.322,70.157 112.208,70.004 112.091,69.851 C111.862,69.546 111.639,69.237 111.418,68.925 C110.983,68.312 110.57,67.682 110.176,67.04 C109.824,66.47 109.497,65.886 109.19,65.291 C109.026,64.977 108.875,64.656 108.727,64.335 C108.678,64.23 108.447,63.676 108.691,64.265 C108.625,64.107 108.565,63.947 108.502,63.788 C108.267,63.172 108.077,62.539 107.927,61.898 C107.855,61.59 107.8,61.279 107.753,60.967 C107.869,61.735 107.751,60.725 107.744,60.532 C107.679,58.935 106.282,57.903 104.736,58.241 C98.416,59.622 92,60.646 85.594,61.529 C85.428,61.552 85.261,61.574 85.093,61.597 C84.507,61.677 85.641,61.524 85.052,61.603 C84.711,61.649 84.369,61.693 84.028,61.737 C83.273,61.835 82.519,61.93 81.762,62.022 C80.259,62.205 78.753,62.373 77.246,62.53 C74.097,62.856 70.943,63.12 67.785,63.312 C61.47,63.695 55.118,63.789 48.808,63.282 C48.033,63.22 47.26,63.146 46.487,63.063 C46.079,63.018 45.67,62.97 45.263,62.919 C45.089,62.898 44.916,62.875 44.743,62.852 C45.441,62.944 44.652,62.838 44.517,62.818 C43.027,62.605 41.545,62.335 40.076,62.007 C38.705,61.702 37.348,61.331 36.014,60.89 C35.406,60.69 34.806,60.47 34.213,60.235 C34.079,60.182 33.947,60.127 33.813,60.071 C34.506,60.358 33.873,60.094 33.728,60.031 C33.431,59.899 33.137,59.759 32.844,59.616 C31.566,58.992 29.667,59.431 29.355,61.036 C28.655,64.646 27.718,68.223 26.666,71.744 C26.213,73.259 25.725,74.764 25.199,76.256 C24.941,76.985 24.671,77.71 24.391,78.431 C24.252,78.789 24.108,79.146 23.962,79.502 C23.928,79.587 23.678,80.182 23.908,79.639 C23.809,79.871 23.708,80.103 23.606,80.334 C23.001,81.711 22.329,83.061 21.567,84.36 C21.234,84.928 20.876,85.483 20.497,86.023 C20.407,86.152 20.314,86.278 20.22,86.404 C19.896,86.844 20.552,85.986 20.218,86.408 C20.003,86.676 19.778,86.934 19.547,87.186 C20.666,87.186 21.786,87.186 22.907,87.186 C22.743,86.994 22.586,86.799 22.428,86.605 C22.24,86.375 22.056,86.142 21.871,85.91 C21.755,85.764 21.641,85.617 21.525,85.47 C21.365,85.263 21.361,85.258 21.512,85.454 C21.418,85.334 21.326,85.213 21.234,85.091 C20.569,84.222 19.922,83.339 19.285,82.449 C18.969,82.007 18.623,81.596 18.281,81.175 C17.882,80.686 18.579,81.575 18.179,81.048 C18.01,80.827 17.849,80.601 17.688,80.374 C16.427,78.608 15.34,76.716 14.319,74.805 C13.226,72.755 12.031,70.559 11.173,68.514 C10.018,65.756 9.105,62.838 8.218,59.979 C7.522,57.735 6.916,55.464 6.404,53.171 C6.143,52.004 5.912,50.831 5.705,49.654 C5.605,49.087 5.514,48.519 5.427,47.949 C5.384,47.665 5.343,47.379 5.303,47.094 C5.231,46.57 5.381,47.678 5.313,47.154 C5.288,46.964 5.264,46.773 5.24,46.582 C4.951,44.21 4.795,41.819 4.789,39.428 C4.786,38.246 4.827,37.064 4.907,35.884 C4.944,35.322 4.995,34.76 5.053,34.2 C5.082,33.921 5.115,33.642 5.149,33.363 C5.168,33.205 5.239,32.692 5.138,33.44 C5.162,33.256 5.19,33.071 5.218,32.887 C5.56,30.604 6.103,28.352 6.856,26.171 C7.036,25.651 7.231,25.137 7.437,24.627 C7.495,24.485 7.691,24.018 7.408,24.686 C7.461,24.56 7.517,24.434 7.572,24.308 C7.701,24.014 7.835,23.724 7.973,23.434 C8.467,22.395 9.026,21.387 9.633,20.411 C9.928,19.938 10.24,19.476 10.561,19.022 C10.723,18.792 10.89,18.567 11.059,18.342 C11.365,17.933 10.714,18.781 11.031,18.377 C11.146,18.228 11.264,18.082 11.383,17.935 C12.14,17.005 12.961,16.127 13.825,15.297 C14.252,14.887 14.695,14.493 15.145,14.109 C15.373,13.913 15.606,13.723 15.841,13.535 C15.946,13.451 16.371,13.12 15.837,13.531 C15.999,13.406 16.164,13.284 16.328,13.163 C17.387,12.377 18.5,11.665 19.644,11.008 C20.865,10.308 22.132,9.689 23.423,9.128 C23.976,8.887 22.944,9.325 23.505,9.093 C23.669,9.025 23.834,8.959 23.999,8.893 C24.334,8.758 24.672,8.631 25.011,8.505 C25.767,8.224 26.531,7.968 27.299,7.728 C28.875,7.233 30.478,6.827 32.092,6.479 C32.917,6.301 33.747,6.146 34.579,6.002 C35.009,5.928 35.439,5.86 35.87,5.794 C36.088,5.761 36.307,5.73 36.525,5.698 C36.81,5.659 36.82,5.657 36.56,5.692 C36.708,5.673 36.858,5.653 37.007,5.635 C41.265,5.094 45.566,4.97 49.854,4.91 C54.153,4.85 58.455,4.933 62.748,5.179 C64.683,5.29 66.616,5.441 68.545,5.627 C69.425,5.711 70.304,5.805 71.182,5.908 C71.609,5.957 72.037,6.009 72.465,6.063 C72.676,6.09 72.887,6.117 73.097,6.145 C73.378,6.182 73.377,6.182 73.093,6.144 C73.231,6.163 73.37,6.182 73.508,6.201 C79.491,7.034 85.429,8.308 91.163,10.223 C92.351,10.619 93.528,11.048 94.694,11.505 C94.96,11.61 95.227,11.716 95.492,11.824 C95.665,11.893 96.567,12.272 95.834,11.962 C96.378,12.193 96.918,12.432 97.456,12.677 C99.333,13.532 101.163,14.486 102.934,15.541 C104.441,16.439 105.9,17.419 107.296,18.481 C107.734,18.813 106.799,18.09 107.344,18.518 C107.49,18.634 107.636,18.751 107.782,18.868 C108.086,19.113 108.385,19.365 108.683,19.619 C109.214,20.076 109.732,20.548 110.237,21.034 C111.106,21.871 111.931,22.755 112.703,23.683 C112.863,23.876 113.021,24.072 113.177,24.27 C113.515,24.7 112.792,23.767 113.062,24.121 C113.145,24.228 113.225,24.335 113.305,24.444 C113.567,24.798 113.819,25.159 114.062,25.527 C114.548,26.26 114.995,27.024 115.375,27.818 C115.432,27.937 115.488,28.057 115.542,28.177 C115.746,28.641 115.248,27.461 115.427,27.907 C115.458,27.983 115.488,28.06 115.514,28.138 C115.924,29.365 117.137,30.154 118.436,29.797 C119.633,29.467 120.505,28.103 120.095,26.875" id="Fill-199" fill="#4C5159"></path>
            <path d="M35.887,91.769 C36.08,91.66 36.277,91.56 36.475,91.461 C36.722,91.338 36.971,91.218 37.22,91.103 C37.378,91.029 37.537,90.958 37.695,90.888 C37.862,90.813 38.536,90.529 37.781,90.846 C39.746,90.022 41.791,89.385 43.874,88.937 C44.457,88.81 45.044,88.707 45.633,88.615 C45.768,88.594 45.903,88.575 46.038,88.556 C45.458,88.638 46.148,88.548 46.228,88.54 C46.577,88.5 46.927,88.472 47.277,88.445 C48.737,88.338 50.205,88.368 51.66,88.523 C51.945,88.558 51.958,88.558 51.703,88.524 C51.929,88.555 52.154,88.593 52.379,88.632 C52.759,88.696 53.136,88.778 53.511,88.864 C54.28,89.039 55.034,89.272 55.776,89.538 C55.928,89.592 56.078,89.649 56.228,89.709 C56.964,89.992 55.833,89.525 56.56,89.849 C56.939,90.018 57.311,90.207 57.677,90.4 C58.441,90.802 59.169,91.27 59.873,91.769 C60.931,92.52 62.511,91.96 63.122,90.917 C63.82,89.725 63.323,88.414 62.27,87.667 C56.684,83.704 49.772,82.988 43.185,84.239 C39.87,84.868 36.442,86.004 33.49,87.667 C32.363,88.301 31.991,89.814 32.638,90.917 C33.299,92.046 34.759,92.404 35.887,91.769" id="Fill-200" fill="#4C5159"></path>
            <path d="M105.232,89.903 C102.057,88.878 98.545,88.509 95.229,88.51 C88.475,88.514 81.755,90.762 77.067,95.77 C76.183,96.714 76.129,98.191 77.067,99.129 C77.96,100.022 79.542,100.074 80.426,99.129 C81.696,97.773 82.476,97.129 83.867,96.247 C84.514,95.837 85.19,95.477 85.879,95.146 C86.002,95.087 86.127,95.029 86.251,94.974 C86.869,94.692 85.806,95.15 86.431,94.894 C86.803,94.742 87.182,94.606 87.561,94.475 C88.908,94.011 90.304,93.697 91.709,93.482 C91.982,93.443 91.958,93.445 91.635,93.489 C91.82,93.465 92.004,93.445 92.189,93.424 C92.553,93.384 92.918,93.355 93.284,93.329 C93.988,93.279 94.694,93.261 95.401,93.261 C96.578,93.26 97.755,93.335 98.925,93.458 C99.165,93.484 99.404,93.513 99.643,93.544 C98.815,93.439 99.761,93.564 99.953,93.593 C100.429,93.667 100.904,93.752 101.375,93.845 C102.246,94.017 103.124,94.211 103.969,94.484 C105.201,94.882 106.559,94.031 106.891,92.825 C107.246,91.535 106.463,90.3 105.232,89.903" id="Fill-201" fill="#4C5159"></path>
            <path d="M52.78,106.175 C52.78,110.613 50.586,114.21 47.88,114.21 C45.173,114.21 42.98,110.613 42.98,106.175 C42.98,101.737 45.173,98.14 47.88,98.14 C50.586,98.14 52.78,101.737 52.78,106.175" id="Fill-202" fill="#4C5159"></path>
            <path d="M96.204,106.175 C96.204,110.613 94.011,114.21 91.304,114.21 C88.598,114.21 86.405,110.613 86.405,106.175 C86.405,101.737 88.598,98.14 91.304,98.14 C94.011,98.14 96.204,101.737 96.204,106.175" id="Fill-203" fill="#4C5159"></path>
            <path d="M64.283,130.428 C65.271,132.913 67.979,134.296 70.497,134.648 C72.736,134.961 74.942,134.664 76.793,133.293 C77.714,132.611 78.589,131.73 79.138,130.711 C79.866,129.363 77.814,128.164 77.087,129.512 C76.719,130.196 76.384,130.54 75.734,131.118 C74.411,132.296 72.749,132.504 71.045,132.342 C69.684,132.213 68.288,131.639 67.355,130.762 C67.195,130.61 67.047,130.445 66.905,130.276 C66.695,130.027 67.041,130.465 66.865,130.222 C66.804,130.139 66.749,130.053 66.693,129.965 C66.601,129.818 66.345,129.219 66.574,129.797 C66.335,129.195 65.788,128.781 65.113,128.967 C64.54,129.125 64.044,129.826 64.283,130.428" id="Fill-204" fill="#4C5159"></path>
            <path d="M54.377,144.762 C57.409,146.903 61.068,148.385 64.607,149.41 C72.078,151.573 80.046,151.054 86.958,147.386 C88.376,146.633 89.714,145.737 90.987,144.762 C91.671,144.238 92.032,143.411 91.556,142.596 C91.159,141.921 90.077,141.501 89.388,142.027 C85.932,144.673 82.046,146.496 77.749,147.244 C74.349,147.837 70.819,147.602 67.487,146.874 C64.702,146.266 62.106,145.318 59.76,144.18 C58.492,143.566 57.241,142.885 56.072,142.094 C56.041,142.071 56.008,142.05 55.976,142.027 C55.27,141.528 54.216,141.899 53.809,142.596 C53.344,143.389 53.674,144.265 54.377,144.762" id="Fill-205" fill="#4C5159"></path>
            <path d="M63.129,184.749 C63.129,184.749 71.883,186.245 80.639,184.749 L80.639,189.071 C80.639,189.071 77.735,190.446 72.202,190.446 C66.812,190.446 63.129,189.071 63.129,189.071 L63.129,184.749" id="Fill-206" fill="#E7CEBB"></path>
            <path d="M114.014,80.183 L118.165,136.52 C118.165,136.52 111.769,174.057 70.795,180.813 C70.795,180.813 76.857,181.272 85.254,178.983 C88.504,178.096 92.104,176.673 95.839,174.839 C107.229,169.246 121.729,154.943 122.244,136.52 L119.706,84.933 L114.014,80.183" id="Fill-207" fill="#E7CEBB"></path>
            <path d="M70.979,209.301 C70.979,216.649 70.979,223.997 70.979,231.345 C70.979,236.799 70.979,242.254 70.979,247.708 C70.979,248.73 72.563,248.73 72.563,247.708 C72.563,240.36 72.563,233.013 72.563,225.665 C72.563,220.21 72.563,214.756 72.563,209.301 C72.563,208.28 70.979,208.28 70.979,209.301" id="Fill-208" fill="#4C5159"></path>
            <path d="M78.506,217.719 C78.506,219.162 77.374,220.331 75.975,220.331 C74.577,220.331 73.442,219.162 73.442,217.719 C73.442,216.276 74.577,215.106 75.975,215.106 C77.374,215.106 78.506,216.276 78.506,217.719" id="Fill-209" fill="#4C5159"></path>
            <path d="M78.506,229.788 C78.506,231.231 77.374,232.401 75.975,232.401 C74.577,232.401 73.442,231.231 73.442,229.788 C73.442,228.345 74.577,227.175 75.975,227.175 C77.374,227.175 78.506,228.345 78.506,229.788" id="Fill-210" fill="#4C5159"></path>
            <path d="M78.506,241.19 C78.506,242.632 77.374,243.802 75.975,243.802 C74.577,243.802 73.442,242.632 73.442,241.19 C73.442,239.746 74.577,238.577 75.975,238.577 C77.374,238.577 78.506,239.746 78.506,241.19" id="Fill-211" fill="#4C5159"></path>
            <path d="M40.151,125.157 C40.151,126.666 38.928,127.888 37.42,127.888 C35.912,127.888 34.688,126.666 34.688,125.157 C34.688,123.649 35.912,122.425 37.42,122.425 C38.928,122.425 40.151,123.649 40.151,125.157" id="Fill-212" fill="#F4BD93"></path>
            <path d="M44.652,131.853 C44.652,133.361 43.428,134.585 41.92,134.585 C40.411,134.585 39.188,133.361 39.188,131.853 C39.188,130.345 40.411,129.122 41.92,129.122 C43.428,129.122 44.652,130.345 44.652,131.853" id="Fill-213" fill="#F4BD93"></path>
            <path d="M35.994,132.843 C35.994,134.352 34.772,135.575 33.262,135.575 C31.754,135.575 30.532,134.352 30.532,132.843 C30.532,131.335 31.754,130.112 33.262,130.112 C34.772,130.112 35.994,131.335 35.994,132.843" id="Fill-214" fill="#F4BD93"></path>
            <path d="M100.182,125.157 C100.182,126.666 101.403,127.888 102.913,127.888 C104.421,127.888 105.645,126.666 105.645,125.157 C105.645,123.649 104.421,122.425 102.913,122.425 C101.403,122.425 100.182,123.649 100.182,125.157" id="Fill-215" fill="#F4BD93"></path>
            <path d="M95.681,131.853 C95.681,133.361 96.904,134.585 98.413,134.585 C99.921,134.585 101.144,133.361 101.144,131.853 C101.144,130.345 99.921,129.122 98.413,129.122 C96.904,129.122 95.681,130.345 95.681,131.853" id="Fill-216" fill="#F4BD93"></path>
            <path d="M104.338,132.843 C104.338,134.352 105.561,135.575 107.069,135.575 C108.578,135.575 109.801,134.352 109.801,132.843 C109.801,131.335 108.578,130.112 107.069,130.112 C105.561,130.112 104.338,131.335 104.338,132.843" id="Fill-217" fill="#F4BD93"></path>
        </g>
    </g>
</svg>